G04*
G04 #@! TF.GenerationSoftware,Altium Limited,Altium Designer,20.1.11 (218)*
G04*
G04 Layer_Physical_Order=4*
G04 Layer_Color=16711680*
%FSLAX43Y43*%
%MOMM*%
G71*
G04*
G04 #@! TF.SameCoordinates,BD5628E5-7E1B-49FB-A763-C87F1538D8A8*
G04*
G04*
G04 #@! TF.FilePolarity,Positive*
G04*
G01*
G75*
%ADD14C,0.150*%
G04:AMPARAMS|DCode=22|XSize=2mm|YSize=2.1mm|CornerRadius=0.52mm|HoleSize=0mm|Usage=FLASHONLY|Rotation=270.000|XOffset=0mm|YOffset=0mm|HoleType=Round|Shape=RoundedRectangle|*
%AMROUNDEDRECTD22*
21,1,2.000,1.060,0,0,270.0*
21,1,0.960,2.100,0,0,270.0*
1,1,1.040,-0.530,-0.480*
1,1,1.040,-0.530,0.480*
1,1,1.040,0.530,0.480*
1,1,1.040,0.530,-0.480*
%
%ADD22ROUNDEDRECTD22*%
G04:AMPARAMS|DCode=23|XSize=1.05mm|YSize=0.84mm|CornerRadius=0.42mm|HoleSize=0mm|Usage=FLASHONLY|Rotation=270.000|XOffset=0mm|YOffset=0mm|HoleType=Round|Shape=RoundedRectangle|*
%AMROUNDEDRECTD23*
21,1,1.050,0.000,0,0,270.0*
21,1,0.210,0.840,0,0,270.0*
1,1,0.840,0.000,-0.105*
1,1,0.840,0.000,0.105*
1,1,0.840,0.000,0.105*
1,1,0.840,0.000,-0.105*
%
%ADD23ROUNDEDRECTD23*%
%ADD32C,0.250*%
%ADD51R,0.650X0.500*%
%ADD95C,0.500*%
%ADD104C,0.175*%
%ADD109R,0.350X0.250*%
%ADD110C,1.700*%
%ADD111C,0.900*%
%ADD112O,1.702X3.937*%
%ADD113C,1.702*%
%ADD114O,1.702X4.343*%
%ADD115R,1.700X1.700*%
%ADD116C,3.600*%
%ADD128C,0.800*%
%ADD129C,0.800*%
G36*
X33709Y17593D02*
X33702Y17578D01*
X33699Y17563D01*
X33700Y17546D01*
X33705Y17527D01*
X33714Y17507D01*
X33727Y17485D01*
X33744Y17462D01*
X33765Y17438D01*
X33790Y17412D01*
X33663Y17291D01*
X33637Y17316D01*
X33612Y17337D01*
X33589Y17354D01*
X33567Y17367D01*
X33547Y17376D01*
X33528Y17382D01*
X33510Y17384D01*
X33494Y17381D01*
X33479Y17375D01*
X33466Y17365D01*
X33719Y17605D01*
X33709Y17593D01*
D02*
G37*
G36*
X38754Y17552D02*
X38747Y17539D01*
X38744Y17523D01*
X38745Y17506D01*
X38750Y17488D01*
X38759Y17468D01*
X38772Y17446D01*
X38789Y17423D01*
X38811Y17397D01*
X38836Y17371D01*
X38702Y17257D01*
X38675Y17283D01*
X38650Y17305D01*
X38626Y17323D01*
X38603Y17337D01*
X38582Y17347D01*
X38562Y17353D01*
X38544Y17355D01*
X38527Y17354D01*
X38512Y17349D01*
X38498Y17339D01*
X38766Y17564D01*
X38754Y17552D01*
D02*
G37*
G36*
X28593Y17550D02*
X28585Y17537D01*
X28582Y17521D01*
X28583Y17505D01*
X28588Y17486D01*
X28597Y17466D01*
X28610Y17444D01*
X28628Y17421D01*
X28649Y17396D01*
X28675Y17369D01*
X28540Y17255D01*
X28513Y17281D01*
X28488Y17303D01*
X28464Y17321D01*
X28441Y17335D01*
X28420Y17345D01*
X28400Y17352D01*
X28382Y17354D01*
X28365Y17353D01*
X28349Y17347D01*
X28335Y17338D01*
X28604Y17562D01*
X28593Y17550D01*
D02*
G37*
G36*
X13516Y17703D02*
X13493Y17476D01*
X13491Y17377D01*
X13495Y17287D01*
X13505Y17206D01*
X13521Y17135D01*
X13544Y17073D01*
X13573Y17021D01*
X13608Y16978D01*
X13488Y16886D01*
X13455Y16912D01*
X13410Y16938D01*
X13351Y16963D01*
X13278Y16989D01*
X13094Y17041D01*
X12856Y17092D01*
X12670Y17125D01*
X12659Y17123D01*
X12353Y17070D01*
X12269Y17048D01*
X12193Y17023D01*
X12127Y16995D01*
X12068Y16965D01*
X12019Y16932D01*
X11978Y16897D01*
X11872Y17003D01*
X11909Y17046D01*
X11938Y17095D01*
X11959Y17150D01*
X11973Y17211D01*
X11979Y17278D01*
X11978Y17350D01*
X11969Y17428D01*
X11953Y17513D01*
X11929Y17603D01*
X11898Y17699D01*
X12660Y17211D01*
X13537Y17831D01*
X13516Y17703D01*
D02*
G37*
G36*
X9620Y17029D02*
X9610Y17038D01*
X9598Y17044D01*
X9585Y17047D01*
X9570Y17046D01*
X9554Y17042D01*
X9537Y17034D01*
X9518Y17023D01*
X9498Y17008D01*
X9477Y16990D01*
X9454Y16968D01*
X9358Y17084D01*
X9380Y17107D01*
X9398Y17128D01*
X9413Y17149D01*
X9425Y17168D01*
X9434Y17186D01*
X9439Y17203D01*
X9441Y17218D01*
X9439Y17233D01*
X9435Y17246D01*
X9427Y17258D01*
X9620Y17029D01*
D02*
G37*
G36*
X23711Y17838D02*
X23735Y17491D01*
X23750Y17397D01*
X23769Y17313D01*
X23791Y17240D01*
X23818Y17178D01*
X23848Y17126D01*
X23881Y17086D01*
X23758Y16962D01*
X23717Y16996D01*
X23665Y17025D01*
X23603Y17052D01*
X23530Y17074D01*
X23447Y17093D01*
X23352Y17108D01*
X23132Y17128D01*
X23005Y17132D01*
X22869Y17132D01*
X23711Y17975D01*
X23711Y17838D01*
D02*
G37*
G36*
X44660Y17678D02*
X44667Y17628D01*
X44660Y17577D01*
X44696Y17302D01*
X44802Y17047D01*
X44908Y16909D01*
X44846Y16782D01*
X41850D01*
X41801Y16830D01*
X41796Y16837D01*
X41780Y16863D01*
X41763Y16904D01*
X41746Y16959D01*
X41730Y17029D01*
X41718Y17108D01*
X41695Y17439D01*
X41695Y17538D01*
X41700Y17577D01*
X41693Y17628D01*
X41700Y17678D01*
Y18034D01*
X42075D01*
X42120Y17983D01*
X42156Y17709D01*
X42262Y17453D01*
X42430Y17234D01*
X42650Y17065D01*
X42906Y16959D01*
X43053Y16940D01*
Y17983D01*
X43307D01*
Y16940D01*
X43454Y16959D01*
X43710Y17065D01*
X43930Y17234D01*
X44098Y17453D01*
X44204Y17709D01*
X44240Y17983D01*
X44285Y18034D01*
X44660D01*
Y17678D01*
D02*
G37*
G36*
X26143Y17151D02*
X26123Y17092D01*
X26111Y17036D01*
X26105Y16983D01*
X26105Y16932D01*
X26113Y16883D01*
X26127Y16837D01*
X26149Y16793D01*
X26176Y16751D01*
X26211Y16712D01*
X26087Y16588D01*
X26045Y16626D01*
X26000Y16658D01*
X25952Y16686D01*
X25901Y16708D01*
X25846Y16725D01*
X25788Y16737D01*
X25727Y16744D01*
X25663Y16746D01*
X25595Y16743D01*
X25524Y16735D01*
X25732Y16889D01*
X25726Y16890D01*
X25708Y16890D01*
X25690Y16886D01*
X25675Y16879D01*
X25909Y17019D01*
X26169Y17212D01*
X26143Y17151D01*
D02*
G37*
G36*
X41491Y17431D02*
X41515Y17085D01*
X41530Y16990D01*
X41549Y16907D01*
X41571Y16834D01*
X41598Y16772D01*
X41628Y16720D01*
X41661Y16679D01*
X41538Y16555D01*
X41497Y16589D01*
X41445Y16619D01*
X41383Y16645D01*
X41310Y16668D01*
X41227Y16687D01*
X41132Y16702D01*
X40912Y16721D01*
X40785Y16726D01*
X40649Y16726D01*
X41491Y17568D01*
X41491Y17431D01*
D02*
G37*
G36*
X36411D02*
X36435Y17085D01*
X36450Y16990D01*
X36469Y16907D01*
X36491Y16834D01*
X36518Y16772D01*
X36548Y16720D01*
X36581Y16679D01*
X36458Y16555D01*
X36417Y16589D01*
X36365Y16619D01*
X36303Y16645D01*
X36230Y16668D01*
X36147Y16687D01*
X36052Y16702D01*
X35832Y16721D01*
X35705Y16726D01*
X35569Y16726D01*
X36411Y17568D01*
X36411Y17431D01*
D02*
G37*
G36*
X31331D02*
X31355Y17085D01*
X31370Y16990D01*
X31389Y16907D01*
X31411Y16834D01*
X31438Y16772D01*
X31468Y16720D01*
X31501Y16679D01*
X31378Y16555D01*
X31337Y16589D01*
X31285Y16619D01*
X31223Y16645D01*
X31150Y16668D01*
X31067Y16687D01*
X30972Y16702D01*
X30752Y16721D01*
X30625Y16726D01*
X30489Y16726D01*
X31331Y17568D01*
X31331Y17431D01*
D02*
G37*
G36*
X81947Y19977D02*
X82362Y19805D01*
X82737Y19555D01*
X83055Y19237D01*
X83305Y18862D01*
X83477Y18447D01*
X83565Y18005D01*
Y17780D01*
Y2540D01*
Y2315D01*
X83477Y1873D01*
X83305Y1458D01*
X83055Y1083D01*
X82737Y765D01*
X82362Y515D01*
X81947Y343D01*
X81505Y255D01*
X77260D01*
Y2642D01*
X77253Y2692D01*
X77260Y2743D01*
X77224Y3018D01*
X77118Y3273D01*
X76950Y3493D01*
X76730Y3661D01*
X76474Y3767D01*
X76200Y3803D01*
X75926Y3767D01*
X75670Y3661D01*
X75572Y3586D01*
X73133Y6025D01*
X75143Y8035D01*
X75207Y8130D01*
X75229Y8243D01*
Y8313D01*
X75300Y8416D01*
X75476Y8451D01*
X75624Y8551D01*
X75724Y8699D01*
X75759Y8875D01*
X75724Y9051D01*
X75624Y9199D01*
X75476Y9299D01*
X75300Y9334D01*
X75124Y9299D01*
X74976Y9199D01*
X74876Y9051D01*
X74841Y8875D01*
X74845Y8855D01*
X74845Y8853D01*
X74844Y8847D01*
X74842Y8841D01*
X74840Y8836D01*
X74838Y8831D01*
X74836Y8826D01*
X74834Y8823D01*
X74729Y8718D01*
X74699Y8673D01*
X74557Y8663D01*
X74552Y8665D01*
X74545Y8674D01*
X74396Y8774D01*
X74221Y8809D01*
X74045Y8774D01*
X73896Y8674D01*
X73797Y8526D01*
X73762Y8350D01*
X73797Y8174D01*
X73896Y8026D01*
X74033Y7934D01*
X74054Y7900D01*
X74083Y7804D01*
X72641Y6362D01*
X72633Y6356D01*
X72619Y6347D01*
X72605Y6339D01*
X72591Y6332D01*
X72577Y6327D01*
X72561Y6323D01*
X72545Y6320D01*
X72535Y6318D01*
X68735D01*
X68722Y6445D01*
X68751Y6451D01*
X68899Y6551D01*
X68999Y6699D01*
X69034Y6875D01*
X68999Y7051D01*
X68899Y7199D01*
X68751Y7299D01*
X68575Y7334D01*
X68399Y7299D01*
X68251Y7199D01*
X68239Y7183D01*
X68238Y7181D01*
X68232Y7177D01*
X68227Y7174D01*
X68222Y7172D01*
X68217Y7170D01*
X68212Y7169D01*
X68208Y7168D01*
X55742D01*
X55738Y7169D01*
X55733Y7170D01*
X55728Y7172D01*
X55723Y7174D01*
X55718Y7177D01*
X55712Y7181D01*
X55711Y7183D01*
X55699Y7199D01*
X55551Y7299D01*
X55375Y7334D01*
X55199Y7299D01*
X55051Y7199D01*
X54951Y7051D01*
X54916Y6875D01*
X54951Y6699D01*
X55051Y6551D01*
X55199Y6451D01*
X55375Y6416D01*
X55551Y6451D01*
X55699Y6551D01*
X55711Y6567D01*
X55712Y6569D01*
X55718Y6573D01*
X55723Y6576D01*
X55752Y6568D01*
X55773Y6559D01*
X55775Y6558D01*
X55777Y6416D01*
X55678Y6350D01*
X55579Y6201D01*
X55544Y6025D01*
X55579Y5850D01*
X55678Y5701D01*
X55763Y5644D01*
X55701Y5551D01*
X55666Y5375D01*
X55701Y5199D01*
X55789Y5068D01*
X55768Y4997D01*
X55735Y4941D01*
X55610D01*
X55609Y4942D01*
X55604Y4943D01*
X55599Y4945D01*
X55593Y4949D01*
X55585Y4953D01*
X55576Y4960D01*
X55568Y4967D01*
X55556Y4985D01*
X55407Y5085D01*
X55231Y5120D01*
X55056Y5085D01*
X54907Y4985D01*
X54810Y4841D01*
X54799Y4838D01*
X54683Y4862D01*
Y7660D01*
X54661Y7772D01*
X54597Y7867D01*
X52313Y10152D01*
X52218Y10215D01*
X52106Y10238D01*
X47794D01*
X47682Y10215D01*
X47587Y10152D01*
X46354Y8918D01*
X45117D01*
X45113Y8919D01*
X45108Y8920D01*
X45103Y8922D01*
X45098Y8924D01*
X45093Y8927D01*
X45087Y8931D01*
X45086Y8933D01*
X45074Y8949D01*
X44926Y9049D01*
X44750Y9084D01*
X44574Y9049D01*
X44426Y8949D01*
X44326Y8801D01*
X44291Y8625D01*
X44307Y8546D01*
X44206Y8419D01*
X43153D01*
X42183Y9390D01*
X42231Y9507D01*
X46250D01*
X46362Y9529D01*
X46457Y9593D01*
X47279Y10414D01*
X52261D01*
X52262Y10414D01*
X52264Y10413D01*
X52266Y10412D01*
X52268Y10411D01*
X52270Y10410D01*
X52273Y10408D01*
X52276Y10404D01*
X52286Y10393D01*
X52290Y10390D01*
X52313Y10355D01*
X52462Y10256D01*
X52638Y10221D01*
X52813Y10256D01*
X52962Y10355D01*
X53062Y10504D01*
X53097Y10680D01*
X53062Y10855D01*
X52962Y11004D01*
X52813Y11103D01*
X52638Y11138D01*
X52462Y11103D01*
X52372Y11043D01*
X52356Y11035D01*
X52341Y11024D01*
X52332Y11018D01*
X52324Y11013D01*
X52316Y11009D01*
X52308Y11006D01*
X52300Y11003D01*
X52292Y11001D01*
X52286Y11000D01*
X47157D01*
X47045Y10978D01*
X46950Y10915D01*
X46129Y10093D01*
X44452D01*
X44348Y10220D01*
X44362Y10291D01*
X44327Y10467D01*
X44327Y10467D01*
X44327Y10467D01*
X44326Y10471D01*
X44379Y10618D01*
X44486Y10663D01*
X44552Y10707D01*
X44693Y10848D01*
X44744Y10912D01*
X44773Y10906D01*
X44801Y10897D01*
X44811Y10898D01*
X44822Y10896D01*
X44851Y10902D01*
X44880Y10904D01*
X44889Y10910D01*
X44900Y10912D01*
X44924Y10928D01*
X44950Y10941D01*
X44957Y10950D01*
X44966Y10956D01*
X44982Y10980D01*
X44984Y10982D01*
X45050D01*
X45162Y11004D01*
X45257Y11068D01*
X45471Y11282D01*
X53600D01*
X53712Y11304D01*
X53807Y11368D01*
X57382Y14943D01*
X73271D01*
X73271Y14943D01*
X73273Y14942D01*
X73274Y14942D01*
X73275Y14941D01*
X73276Y14940D01*
X73278Y14939D01*
X73281Y14936D01*
X73290Y14925D01*
X73298Y14918D01*
X73326Y14877D01*
X73474Y14777D01*
X73650Y14742D01*
X73826Y14777D01*
X73974Y14877D01*
X74074Y15025D01*
X74109Y15201D01*
X74095Y15268D01*
X74200Y15395D01*
X75847D01*
X75853Y15394D01*
X75861Y15392D01*
X75868Y15390D01*
X75876Y15387D01*
X75884Y15383D01*
X75892Y15378D01*
X75901Y15372D01*
X75915Y15361D01*
X75930Y15353D01*
X76024Y15290D01*
X76200Y15256D01*
X76376Y15290D01*
X76524Y15390D01*
X76624Y15539D01*
X76659Y15714D01*
X76624Y15890D01*
X76524Y16039D01*
X76376Y16138D01*
X76200Y16173D01*
X76024Y16138D01*
X75876Y16039D01*
X75854Y16006D01*
X75850Y16003D01*
X75840Y15992D01*
X75837Y15988D01*
X75834Y15986D01*
X75832Y15985D01*
X75830Y15984D01*
X75828Y15983D01*
X75825Y15982D01*
X75823Y15982D01*
X57188D01*
X57076Y15959D01*
X56981Y15896D01*
X53329Y12243D01*
X45621D01*
X44982Y12882D01*
X44887Y12946D01*
X44775Y12968D01*
X44765D01*
X44737Y13036D01*
X44693Y13102D01*
X44552Y13243D01*
X44486Y13287D01*
X44302Y13363D01*
X44224Y13379D01*
X44125D01*
X44047Y13363D01*
X44006Y13336D01*
X43993Y13339D01*
X43958Y13347D01*
X43954Y13347D01*
X43951Y13347D01*
X43915Y13340D01*
X43879Y13335D01*
X43807Y13308D01*
X43781Y13292D01*
X43754Y13278D01*
X43633Y13184D01*
X43613Y13161D01*
X43590Y13139D01*
X43503Y13014D01*
X43491Y12985D01*
X43476Y12958D01*
X43475Y12955D01*
X42946D01*
X42940Y12957D01*
X42926Y12962D01*
X42905Y12971D01*
X42880Y12985D01*
X42850Y13004D01*
X42819Y13027D01*
X42739Y13094D01*
X42709Y13122D01*
X42703Y13130D01*
X42568Y13234D01*
X42410Y13300D01*
X42240Y13322D01*
X42070Y13300D01*
X41912Y13234D01*
X41776Y13130D01*
X41672Y12994D01*
X41607Y12836D01*
X41584Y12666D01*
X41607Y12497D01*
X41672Y12339D01*
X41776Y12203D01*
X41912Y12099D01*
X42070Y12033D01*
X42074Y12033D01*
X42083Y11906D01*
X41925Y11840D01*
X41789Y11736D01*
X41685Y11600D01*
X41620Y11442D01*
X41608Y11355D01*
X41606Y11350D01*
X41481Y11263D01*
X41473Y11262D01*
X41442Y11269D01*
X35096D01*
X33447Y12917D01*
X33352Y12981D01*
X33240Y13003D01*
X23558D01*
X23550Y13005D01*
X23534Y13010D01*
X23514Y13018D01*
X23489Y13031D01*
X23460Y13049D01*
X23450Y13056D01*
Y13356D01*
X22860Y13356D01*
X22860Y13356D01*
X22860Y13356D01*
X22140Y13356D01*
Y13870D01*
X22138Y13882D01*
X22140Y13895D01*
X22119Y14002D01*
X22058Y14093D01*
X20175Y15977D01*
X20084Y16037D01*
X19977Y16059D01*
X19869Y16037D01*
X19864Y16034D01*
X15328D01*
X14926Y16436D01*
X14942Y16484D01*
X14992Y16550D01*
X15240Y16517D01*
X15514Y16553D01*
X15770Y16659D01*
X15990Y16827D01*
X16158Y17047D01*
X16264Y17302D01*
X16300Y17577D01*
X16293Y17628D01*
X16300Y17678D01*
Y18034D01*
X16675D01*
X16720Y17983D01*
X16756Y17709D01*
X16862Y17453D01*
X17030Y17234D01*
X17250Y17065D01*
X17506Y16959D01*
X17653Y16940D01*
Y17983D01*
X17907D01*
Y16940D01*
X18054Y16959D01*
X18310Y17065D01*
X18530Y17234D01*
X18698Y17453D01*
X18804Y17709D01*
X18840Y17983D01*
X18885Y18034D01*
X19260D01*
Y17678D01*
X19267Y17628D01*
X19260Y17577D01*
X19296Y17302D01*
X19402Y17047D01*
X19570Y16827D01*
X19790Y16659D01*
X20046Y16553D01*
X20320Y16517D01*
X20594Y16553D01*
X20850Y16659D01*
X21070Y16827D01*
X21238Y17047D01*
X21344Y17302D01*
X21380Y17577D01*
X21373Y17628D01*
X21380Y17678D01*
Y18034D01*
X21755D01*
X21800Y17983D01*
X21836Y17709D01*
X21942Y17453D01*
X22110Y17234D01*
X22330Y17065D01*
X22586Y16959D01*
X22860Y16923D01*
X22899Y16928D01*
X23002Y16928D01*
X23119Y16924D01*
X23327Y16906D01*
X23408Y16893D01*
X23477Y16877D01*
X23533Y16860D01*
X23574Y16843D01*
X23600Y16828D01*
X23607Y16822D01*
X24686Y15743D01*
X24781Y15679D01*
X24893Y15657D01*
X28619D01*
X30458Y13818D01*
X30553Y13754D01*
X30666Y13732D01*
X45046D01*
X46094Y12684D01*
X46189Y12621D01*
X46301Y12598D01*
X49603D01*
X49606Y12598D01*
X49611Y12596D01*
X49616Y12594D01*
X49621Y12592D01*
X49626Y12589D01*
X49632Y12585D01*
X49633Y12584D01*
X49645Y12567D01*
X49793Y12468D01*
X49969Y12433D01*
X50145Y12468D01*
X50293Y12567D01*
X50393Y12716D01*
X50428Y12891D01*
X50414Y12959D01*
X50519Y13086D01*
X50717D01*
X50841Y13062D01*
X50876Y12886D01*
X50975Y12737D01*
X51124Y12638D01*
X51300Y12603D01*
X51475Y12638D01*
X51624Y12737D01*
X51724Y12886D01*
X51759Y13062D01*
X51724Y13237D01*
X51693Y13284D01*
X51760Y13411D01*
X51878D01*
X51990Y13433D01*
X52085Y13497D01*
X53182Y14593D01*
X53185Y14595D01*
X53189Y14598D01*
X53194Y14600D01*
X53199Y14601D01*
X53205Y14603D01*
X53212Y14604D01*
X53214Y14604D01*
X53234Y14600D01*
X53409Y14635D01*
X53558Y14735D01*
X53643Y14862D01*
X53704Y14887D01*
X53789Y14894D01*
X53911Y14812D01*
X54087Y14777D01*
X54263Y14812D01*
X54411Y14912D01*
X54511Y15060D01*
X54546Y15236D01*
X54511Y15412D01*
X54411Y15560D01*
X54263Y15660D01*
X54251Y15687D01*
X54327Y15799D01*
X54361Y15975D01*
X54327Y16151D01*
X54227Y16299D01*
X54078Y16399D01*
X53903Y16434D01*
X53727Y16399D01*
X53578Y16299D01*
X53566Y16281D01*
X53558Y16274D01*
X53549Y16267D01*
X53541Y16263D01*
X53535Y16259D01*
X53530Y16257D01*
X53525Y16256D01*
X53524Y16255D01*
X52975D01*
X52868Y16234D01*
X52777Y16173D01*
X52445Y15842D01*
X52307Y15883D01*
X52299Y15926D01*
X52199Y16074D01*
X52051Y16174D01*
X51875Y16209D01*
X51855Y16205D01*
X51853Y16205D01*
X51847Y16206D01*
X51841Y16208D01*
X51836Y16210D01*
X51831Y16212D01*
X51826Y16214D01*
X51823Y16216D01*
X51427Y16613D01*
X51435Y16740D01*
X51550Y16827D01*
X51718Y17047D01*
X51824Y17302D01*
X51860Y17577D01*
X51853Y17628D01*
X51860Y17678D01*
Y18034D01*
X52235D01*
X52280Y17983D01*
X52316Y17709D01*
X52422Y17453D01*
X52590Y17234D01*
X52810Y17065D01*
X53066Y16959D01*
X53340Y16923D01*
X53614Y16959D01*
X53870Y17065D01*
X54090Y17234D01*
X54258Y17453D01*
X54364Y17709D01*
X54400Y17983D01*
X54445Y18034D01*
X54820D01*
Y17678D01*
X54827Y17628D01*
X54820Y17577D01*
X54856Y17302D01*
X54962Y17047D01*
X55130Y16827D01*
X55350Y16659D01*
X55606Y16553D01*
X55880Y16517D01*
X56154Y16553D01*
X56410Y16659D01*
X56630Y16827D01*
X56798Y17047D01*
X56904Y17302D01*
X56940Y17577D01*
X56933Y17628D01*
X56940Y17678D01*
Y18034D01*
X57315D01*
X57360Y17983D01*
X57396Y17709D01*
X57502Y17453D01*
X57670Y17234D01*
X57890Y17065D01*
X58146Y16959D01*
X58420Y16923D01*
X58694Y16959D01*
X58950Y17065D01*
X59170Y17234D01*
X59338Y17453D01*
X59444Y17709D01*
X59480Y17983D01*
X59525Y18034D01*
X59900D01*
Y17678D01*
X59907Y17628D01*
X59900Y17577D01*
X59936Y17302D01*
X60042Y17047D01*
X60210Y16827D01*
X60430Y16659D01*
X60686Y16553D01*
X60960Y16517D01*
X61234Y16553D01*
X61490Y16659D01*
X61710Y16827D01*
X61878Y17047D01*
X61984Y17302D01*
X62020Y17577D01*
X62013Y17628D01*
X62020Y17678D01*
Y18034D01*
X62395D01*
X62440Y17983D01*
X62476Y17709D01*
X62582Y17453D01*
X62750Y17234D01*
X62970Y17065D01*
X63226Y16959D01*
X63500Y16923D01*
X63774Y16959D01*
X64030Y17065D01*
X64250Y17234D01*
X64418Y17453D01*
X64524Y17709D01*
X64560Y17983D01*
X64605Y18034D01*
X64980D01*
Y17704D01*
X66040D01*
X67100D01*
Y18034D01*
X67475D01*
X67520Y17983D01*
X67556Y17709D01*
X67662Y17453D01*
X67830Y17234D01*
X68050Y17065D01*
X68306Y16959D01*
X68580Y16923D01*
X68854Y16959D01*
X69110Y17065D01*
X69330Y17234D01*
X69498Y17453D01*
X69604Y17709D01*
X69640Y17983D01*
X69685Y18034D01*
X70060D01*
Y17678D01*
X70067Y17628D01*
X70060Y17577D01*
X70096Y17302D01*
X70202Y17047D01*
X70370Y16827D01*
X70590Y16659D01*
X70846Y16553D01*
X71120Y16517D01*
X71394Y16553D01*
X71650Y16659D01*
X71870Y16827D01*
X72038Y17047D01*
X72144Y17302D01*
X72180Y17577D01*
X72173Y17628D01*
X72180Y17678D01*
Y18034D01*
X72555D01*
X72600Y17983D01*
X72636Y17709D01*
X72742Y17453D01*
X72910Y17234D01*
X73130Y17065D01*
X73386Y16959D01*
X73660Y16923D01*
X73934Y16959D01*
X74190Y17065D01*
X74410Y17234D01*
X74578Y17453D01*
X74684Y17709D01*
X74720Y17983D01*
X74765Y18034D01*
X75140D01*
Y17678D01*
X75147Y17628D01*
X75140Y17577D01*
X75176Y17302D01*
X75282Y17047D01*
X75450Y16827D01*
X75670Y16659D01*
X75926Y16553D01*
X76200Y16517D01*
X76474Y16553D01*
X76730Y16659D01*
X76950Y16827D01*
X77118Y17047D01*
X77224Y17302D01*
X77260Y17577D01*
X77253Y17628D01*
X77260Y17678D01*
Y20065D01*
X81280D01*
X81505D01*
X81947Y19977D01*
D02*
G37*
G36*
X11640Y17983D02*
X11676Y17709D01*
X11703Y17643D01*
X11704Y17635D01*
X11734Y17545D01*
X11754Y17467D01*
X11768Y17398D01*
X11774Y17337D01*
X11775Y17286D01*
X11771Y17244D01*
X11764Y17210D01*
X11754Y17185D01*
X11742Y17165D01*
X11738Y17160D01*
X11720Y17148D01*
X10577Y16005D01*
X9925D01*
X9818Y15984D01*
X9727Y15923D01*
X8794Y14991D01*
X8793Y14990D01*
X8789Y14988D01*
X8784Y14986D01*
X8777Y14984D01*
X8768Y14982D01*
X8758Y14980D01*
X8747Y14979D01*
X8725Y14984D01*
X8549Y14949D01*
X8401Y14849D01*
X8301Y14701D01*
X8266Y14525D01*
X8301Y14349D01*
X8401Y14201D01*
X8549Y14101D01*
X8725Y14066D01*
X8901Y14101D01*
X9049Y14201D01*
X9149Y14349D01*
X9184Y14525D01*
X9179Y14547D01*
X9180Y14558D01*
X9182Y14568D01*
X9184Y14577D01*
X9186Y14584D01*
X9188Y14589D01*
X9190Y14593D01*
X9191Y14594D01*
X10041Y15445D01*
X10693D01*
X10801Y15466D01*
X10891Y15527D01*
X11589Y16224D01*
X11752Y16208D01*
X11791Y16151D01*
X11893Y16082D01*
X11925Y15934D01*
X9275Y13285D01*
X9214Y13194D01*
X9193Y13086D01*
Y11248D01*
X9214Y11141D01*
X9275Y11050D01*
X9477Y10848D01*
X9428Y10730D01*
X8372D01*
X8300Y10857D01*
X8329Y11000D01*
X8294Y11176D01*
X8194Y11324D01*
X8046Y11424D01*
X7870Y11459D01*
X7848Y11454D01*
X7837Y11455D01*
X7827Y11457D01*
X7818Y11459D01*
X7811Y11461D01*
X7806Y11463D01*
X7802Y11465D01*
X7801Y11466D01*
X7626Y11640D01*
Y14850D01*
X9520Y16743D01*
X9630Y16659D01*
X9886Y16553D01*
X10160Y16517D01*
X10434Y16553D01*
X10690Y16659D01*
X10910Y16827D01*
X11078Y17047D01*
X11184Y17302D01*
X11220Y17577D01*
X11213Y17628D01*
X11220Y17678D01*
Y18034D01*
X11595D01*
X11640Y17983D01*
D02*
G37*
G36*
X13662Y16254D02*
X13651Y16268D01*
X13639Y16280D01*
X13625Y16290D01*
X13610Y16300D01*
X13594Y16307D01*
X13576Y16314D01*
X13556Y16319D01*
X13536Y16322D01*
X13514Y16324D01*
X13490Y16325D01*
Y16475D01*
X13514Y16476D01*
X13536Y16478D01*
X13556Y16481D01*
X13576Y16486D01*
X13594Y16493D01*
X13610Y16501D01*
X13625Y16510D01*
X13639Y16520D01*
X13651Y16532D01*
X13662Y16546D01*
Y16254D01*
D02*
G37*
G36*
X37040Y17983D02*
X37076Y17709D01*
X37182Y17453D01*
X37350Y17234D01*
X37570Y17065D01*
X37826Y16959D01*
X38100Y16923D01*
X38374Y16959D01*
X38611Y17057D01*
X39420Y16249D01*
X39371Y16132D01*
X37420D01*
X36721Y16830D01*
X36716Y16837D01*
X36701Y16863D01*
X36683Y16904D01*
X36666Y16959D01*
X36650Y17029D01*
X36638Y17108D01*
X36615Y17439D01*
X36615Y17538D01*
X36620Y17577D01*
X36613Y17628D01*
X36620Y17678D01*
Y18034D01*
X36995D01*
X37040Y17983D01*
D02*
G37*
G36*
X15013Y15555D02*
X15104Y15494D01*
X15212Y15473D01*
X19886D01*
X21580Y13779D01*
Y13356D01*
X21335D01*
Y11925D01*
X21230Y11860D01*
X21208Y11860D01*
X21040Y11894D01*
X20972Y11880D01*
X20845Y11985D01*
Y12722D01*
X20824Y12829D01*
X20763Y12920D01*
X19585Y14098D01*
X19494Y14159D01*
X19387Y14180D01*
X18327D01*
X18219Y14159D01*
X18128Y14098D01*
X17469Y13439D01*
X17468Y13439D01*
X17464Y13436D01*
X17459Y13434D01*
X17452Y13432D01*
X17443Y13430D01*
X17432Y13429D01*
X17422Y13428D01*
X17400Y13432D01*
X17224Y13397D01*
X17075Y13298D01*
X16976Y13149D01*
X16941Y12973D01*
X16976Y12798D01*
X17075Y12649D01*
X17224Y12549D01*
X17263Y12542D01*
X17284Y12408D01*
X17232Y12373D01*
X16914Y12055D01*
X15493D01*
X15492Y12056D01*
X15488Y12057D01*
X15483Y12059D01*
X15476Y12063D01*
X15469Y12067D01*
X15460Y12074D01*
X15452Y12081D01*
X15439Y12099D01*
X15291Y12199D01*
X15115Y12234D01*
X14939Y12199D01*
X14791Y12099D01*
X14691Y11951D01*
X14656Y11775D01*
X14691Y11599D01*
X14791Y11451D01*
X14939Y11351D01*
X15115Y11316D01*
X15291Y11351D01*
X15439Y11451D01*
X15452Y11469D01*
X15460Y11476D01*
X15469Y11483D01*
X15476Y11487D01*
X15483Y11491D01*
X15488Y11493D01*
X15492Y11494D01*
X15493Y11495D01*
X17031D01*
X17138Y11516D01*
X17229Y11577D01*
X17547Y11895D01*
X19236D01*
X19237Y11894D01*
X19241Y11893D01*
X19246Y11891D01*
X19253Y11887D01*
X19260Y11883D01*
X19269Y11876D01*
X19277Y11869D01*
X19290Y11851D01*
X19378Y11791D01*
X19352Y11656D01*
X19314Y11649D01*
X19166Y11549D01*
X19066Y11401D01*
X19031Y11225D01*
X19066Y11049D01*
X19111Y10982D01*
X19043Y10855D01*
X18101D01*
X18029Y10982D01*
X18058Y11125D01*
X18023Y11301D01*
X17923Y11449D01*
X17775Y11549D01*
X17599Y11584D01*
X17423Y11549D01*
X17275Y11449D01*
X17175Y11301D01*
X17140Y11125D01*
X17169Y10982D01*
X17097Y10855D01*
X16965D01*
X16858Y10834D01*
X16767Y10773D01*
X16348Y10355D01*
X16316Y10370D01*
X16244Y10430D01*
X16274Y10581D01*
X16239Y10757D01*
X16139Y10905D01*
X15991Y11005D01*
X15815Y11040D01*
X15639Y11005D01*
X15491Y10905D01*
X15391Y10757D01*
X15356Y10581D01*
X15391Y10405D01*
X15406Y10382D01*
X15339Y10255D01*
X14281D01*
X13432Y11104D01*
X13474Y11242D01*
X13504Y11248D01*
X13595Y11309D01*
X16781Y14495D01*
X17280D01*
X17281Y14494D01*
X17286Y14493D01*
X17291Y14491D01*
X17297Y14487D01*
X17305Y14483D01*
X17314Y14476D01*
X17322Y14469D01*
X17334Y14451D01*
X17483Y14351D01*
X17659Y14316D01*
X17834Y14351D01*
X17983Y14451D01*
X18082Y14599D01*
X18117Y14775D01*
X18082Y14951D01*
X17983Y15099D01*
X17834Y15199D01*
X17659Y15234D01*
X17483Y15199D01*
X17334Y15099D01*
X17322Y15081D01*
X17314Y15074D01*
X17305Y15067D01*
X17297Y15063D01*
X17291Y15059D01*
X17286Y15057D01*
X17281Y15056D01*
X17280Y15055D01*
X16665D01*
X16558Y15034D01*
X16467Y14973D01*
X13756Y12263D01*
X13609Y12295D01*
X13539Y12399D01*
X13391Y12499D01*
X13215Y12534D01*
X13193Y12529D01*
X13182Y12530D01*
X13172Y12532D01*
X13163Y12534D01*
X13156Y12536D01*
X13151Y12538D01*
X13147Y12540D01*
X13146Y12541D01*
X12620Y13066D01*
Y15159D01*
X13046Y15584D01*
X13047Y15585D01*
X13051Y15587D01*
X13056Y15589D01*
X13063Y15591D01*
X13072Y15593D01*
X13082Y15595D01*
X13093Y15596D01*
X13115Y15591D01*
X13291Y15626D01*
X13439Y15726D01*
X13539Y15874D01*
X13548Y15918D01*
X13689Y15977D01*
X13689Y15976D01*
X13865Y15941D01*
X14041Y15976D01*
X14189Y16076D01*
X14239Y16150D01*
X14398Y16171D01*
X15013Y15555D01*
D02*
G37*
G36*
X53724Y15800D02*
X53704Y15819D01*
X53684Y15836D01*
X53664Y15851D01*
X53643Y15864D01*
X53623Y15875D01*
X53601Y15884D01*
X53580Y15891D01*
X53558Y15896D01*
X53536Y15899D01*
X53514Y15900D01*
Y16050D01*
X53536Y16051D01*
X53558Y16054D01*
X53580Y16059D01*
X53601Y16066D01*
X53623Y16075D01*
X53643Y16086D01*
X53664Y16099D01*
X53684Y16114D01*
X53704Y16131D01*
X53724Y16150D01*
Y15800D01*
D02*
G37*
G36*
X51683Y16067D02*
X51701Y16053D01*
X51719Y16040D01*
X51739Y16029D01*
X51759Y16020D01*
X51781Y16013D01*
X51802Y16007D01*
X51825Y16003D01*
X51848Y16001D01*
X51873Y16000D01*
X51625Y15752D01*
X51624Y15777D01*
X51622Y15800D01*
X51618Y15823D01*
X51612Y15844D01*
X51605Y15866D01*
X51596Y15886D01*
X51585Y15906D01*
X51572Y15924D01*
X51558Y15942D01*
X51541Y15960D01*
X51665Y16084D01*
X51683Y16067D01*
D02*
G37*
G36*
X13112Y15800D02*
X13085Y15799D01*
X13059Y15797D01*
X13034Y15794D01*
X13010Y15788D01*
X12988Y15781D01*
X12966Y15773D01*
X12946Y15762D01*
X12927Y15751D01*
X12910Y15737D01*
X12893Y15722D01*
X12787Y15828D01*
X12802Y15845D01*
X12816Y15862D01*
X12828Y15881D01*
X12838Y15901D01*
X12846Y15923D01*
X12853Y15945D01*
X12859Y15969D01*
X12862Y15994D01*
X12864Y16020D01*
X12865Y16048D01*
X13112Y15800D01*
D02*
G37*
G36*
X50006Y15910D02*
X50025Y15896D01*
X50043Y15885D01*
X50063Y15875D01*
X50082Y15868D01*
X50103Y15863D01*
X50123Y15861D01*
X50145Y15861D01*
X50166Y15863D01*
X50189Y15867D01*
X50007Y15568D01*
X50000Y15592D01*
X49985Y15637D01*
X49975Y15659D01*
X49965Y15679D01*
X49954Y15699D01*
X49941Y15718D01*
X49927Y15737D01*
X49913Y15754D01*
X49897Y15771D01*
X49988Y15927D01*
X50006Y15910D01*
D02*
G37*
G36*
X76041Y15522D02*
X76021Y15537D01*
X76001Y15550D01*
X75981Y15562D01*
X75961Y15572D01*
X75939Y15581D01*
X75918Y15588D01*
X75896Y15594D01*
X75873Y15598D01*
X75851Y15600D01*
X75827Y15601D01*
X75808Y15776D01*
X75832Y15777D01*
X75855Y15780D01*
X75877Y15784D01*
X75898Y15791D01*
X75918Y15799D01*
X75937Y15810D01*
X75955Y15822D01*
X75973Y15836D01*
X75989Y15852D01*
X76004Y15870D01*
X76041Y15522D01*
D02*
G37*
G36*
X31960Y17983D02*
X31996Y17709D01*
X32102Y17453D01*
X32270Y17234D01*
X32490Y17065D01*
X32746Y16959D01*
X33020Y16923D01*
X33294Y16959D01*
X33550Y17065D01*
X33577Y17086D01*
X35108Y15555D01*
X35060Y15437D01*
X33034D01*
X31641Y16830D01*
X31636Y16837D01*
X31621Y16863D01*
X31603Y16904D01*
X31586Y16959D01*
X31570Y17029D01*
X31558Y17108D01*
X31535Y17439D01*
X31535Y17538D01*
X31540Y17577D01*
X31533Y17628D01*
X31540Y17678D01*
Y18034D01*
X31915D01*
X31960Y17983D01*
D02*
G37*
G36*
X53837Y15518D02*
X53855Y15505D01*
X53874Y15494D01*
X53894Y15485D01*
X53915Y15479D01*
X53936Y15474D01*
X53959Y15472D01*
X53982Y15473D01*
X54006Y15475D01*
X54031Y15480D01*
X53842Y15185D01*
X53836Y15213D01*
X53820Y15265D01*
X53811Y15289D01*
X53801Y15312D01*
X53791Y15333D01*
X53779Y15353D01*
X53766Y15371D01*
X53753Y15388D01*
X53738Y15403D01*
X53820Y15534D01*
X53837Y15518D01*
D02*
G37*
G36*
X48194Y15445D02*
X48212Y15431D01*
X48230Y15418D01*
X48250Y15407D01*
X48270Y15398D01*
X48292Y15391D01*
X48313Y15385D01*
X48336Y15381D01*
X48359Y15378D01*
X48383Y15378D01*
X48136Y15130D01*
X48135Y15155D01*
X48133Y15178D01*
X48129Y15200D01*
X48123Y15222D01*
X48116Y15243D01*
X48107Y15264D01*
X48096Y15283D01*
X48083Y15302D01*
X48069Y15320D01*
X48052Y15338D01*
X48176Y15461D01*
X48194Y15445D01*
D02*
G37*
G36*
X29420Y17678D02*
X29427Y17628D01*
X29420Y17577D01*
X29456Y17302D01*
X29562Y17047D01*
X29730Y16827D01*
X29950Y16659D01*
X30206Y16553D01*
X30480Y16517D01*
X30519Y16522D01*
X30622Y16522D01*
X30739Y16518D01*
X30947Y16500D01*
X31028Y16487D01*
X31097Y16471D01*
X31153Y16454D01*
X31194Y16436D01*
X31220Y16421D01*
X31227Y16416D01*
X32412Y15230D01*
X32364Y15112D01*
X31222D01*
X28865Y17469D01*
X28964Y17709D01*
X29000Y17983D01*
X29045Y18034D01*
X29420D01*
Y17678D01*
D02*
G37*
G36*
X73449Y15053D02*
X73434Y15071D01*
X73418Y15087D01*
X73402Y15102D01*
X73384Y15114D01*
X73365Y15125D01*
X73345Y15133D01*
X73324Y15140D01*
X73303Y15145D01*
X73280Y15148D01*
X73256Y15149D01*
X73282Y15324D01*
X73305Y15324D01*
X73328Y15327D01*
X73351Y15330D01*
X73373Y15336D01*
X73395Y15342D01*
X73416Y15351D01*
X73437Y15361D01*
X73458Y15372D01*
X73478Y15385D01*
X73498Y15399D01*
X73449Y15053D01*
D02*
G37*
G36*
X53231Y14809D02*
X53207Y14809D01*
X53184Y14806D01*
X53161Y14802D01*
X53139Y14797D01*
X53118Y14789D01*
X53098Y14780D01*
X53078Y14769D01*
X53059Y14756D01*
X53041Y14742D01*
X53024Y14726D01*
X52900Y14849D01*
X52916Y14867D01*
X52930Y14885D01*
X52943Y14904D01*
X52954Y14923D01*
X52963Y14944D01*
X52971Y14965D01*
X52977Y14987D01*
X52981Y15009D01*
X52983Y15033D01*
X52984Y15057D01*
X53231Y14809D01*
D02*
G37*
G36*
X17480Y14600D02*
X17460Y14619D01*
X17440Y14636D01*
X17420Y14651D01*
X17399Y14664D01*
X17379Y14675D01*
X17357Y14684D01*
X17336Y14691D01*
X17314Y14696D01*
X17292Y14699D01*
X17270Y14700D01*
Y14850D01*
X17292Y14851D01*
X17314Y14854D01*
X17336Y14859D01*
X17357Y14866D01*
X17379Y14875D01*
X17399Y14886D01*
X17420Y14899D01*
X17440Y14914D01*
X17460Y14931D01*
X17480Y14950D01*
Y14600D01*
D02*
G37*
G36*
X9053Y14747D02*
X9038Y14730D01*
X9024Y14713D01*
X9012Y14694D01*
X9002Y14674D01*
X8994Y14652D01*
X8987Y14630D01*
X8981Y14606D01*
X8978Y14581D01*
X8976Y14555D01*
X8975Y14528D01*
X8727Y14775D01*
X8755Y14776D01*
X8781Y14778D01*
X8806Y14781D01*
X8830Y14787D01*
X8852Y14794D01*
X8874Y14802D01*
X8894Y14812D01*
X8913Y14824D01*
X8930Y14838D01*
X8947Y14853D01*
X9053Y14747D01*
D02*
G37*
G36*
X51107Y13379D02*
X51126Y13365D01*
X51144Y13352D01*
X51164Y13341D01*
X51184Y13332D01*
X51205Y13324D01*
X51227Y13318D01*
X51250Y13314D01*
X51273Y13312D01*
X51297Y13311D01*
X51050Y13064D01*
X51049Y13088D01*
X51047Y13111D01*
X51043Y13134D01*
X51037Y13156D01*
X51030Y13177D01*
X51020Y13197D01*
X51009Y13217D01*
X50997Y13236D01*
X50982Y13254D01*
X50966Y13271D01*
X51090Y13395D01*
X51107Y13379D01*
D02*
G37*
G36*
X19466Y13287D02*
X19468Y13261D01*
X19471Y13236D01*
X19477Y13213D01*
X19484Y13190D01*
X19492Y13169D01*
X19503Y13149D01*
X19514Y13130D01*
X19528Y13112D01*
X19543Y13096D01*
X19437Y12990D01*
X19420Y13005D01*
X19403Y13018D01*
X19384Y13030D01*
X19364Y13040D01*
X19342Y13049D01*
X19320Y13056D01*
X19296Y13061D01*
X19271Y13065D01*
X19245Y13067D01*
X19218Y13067D01*
X19465Y13315D01*
X19466Y13287D01*
D02*
G37*
G36*
X17728Y13195D02*
X17713Y13179D01*
X17699Y13161D01*
X17687Y13142D01*
X17677Y13122D01*
X17669Y13101D01*
X17662Y13078D01*
X17656Y13054D01*
X17652Y13029D01*
X17650Y13003D01*
X17650Y12976D01*
X17402Y13223D01*
X17430Y13224D01*
X17456Y13226D01*
X17481Y13230D01*
X17505Y13235D01*
X17527Y13242D01*
X17548Y13251D01*
X17569Y13261D01*
X17587Y13273D01*
X17605Y13286D01*
X17621Y13301D01*
X17728Y13195D01*
D02*
G37*
G36*
X21936Y13068D02*
X21938Y13042D01*
X21942Y13019D01*
X21947Y12999D01*
X21954Y12982D01*
X21962Y12968D01*
X21972Y12958D01*
X21983Y12950D01*
X21996Y12945D01*
X22010Y12944D01*
X21710D01*
X21724Y12945D01*
X21737Y12950D01*
X21748Y12958D01*
X21758Y12968D01*
X21766Y12982D01*
X21773Y12999D01*
X21778Y13019D01*
X21782Y13042D01*
X21784Y13068D01*
X21785Y13097D01*
X21935D01*
X21936Y13068D01*
D02*
G37*
G36*
X49790Y12716D02*
X49773Y12733D01*
X49755Y12748D01*
X49736Y12761D01*
X49716Y12772D01*
X49696Y12782D01*
X49675Y12790D01*
X49654Y12796D01*
X49631Y12800D01*
X49608Y12803D01*
X49585Y12804D01*
Y12979D01*
X49608Y12980D01*
X49631Y12982D01*
X49654Y12987D01*
X49675Y12993D01*
X49696Y13001D01*
X49716Y13010D01*
X49736Y13022D01*
X49755Y13035D01*
X49773Y13050D01*
X49790Y13066D01*
Y12716D01*
D02*
G37*
G36*
X12060Y15097D02*
Y12950D01*
X12073Y12882D01*
X12012Y12779D01*
X11987Y12755D01*
X10825D01*
X10718Y12734D01*
X10627Y12673D01*
X10494Y12541D01*
X10493Y12540D01*
X10489Y12538D01*
X10484Y12536D01*
X10477Y12534D01*
X10468Y12532D01*
X10458Y12530D01*
X10447Y12529D01*
X10425Y12534D01*
X10249Y12499D01*
X10101Y12399D01*
X10001Y12251D01*
X9966Y12075D01*
X10001Y11899D01*
X10101Y11751D01*
X10249Y11651D01*
X10425Y11616D01*
X10601Y11651D01*
X10749Y11751D01*
X10849Y11899D01*
X10884Y12075D01*
X10880Y12093D01*
X10955Y12195D01*
X11628D01*
X11666Y12114D01*
X11672Y12068D01*
X11445Y11841D01*
X11444Y11840D01*
X11440Y11838D01*
X11435Y11836D01*
X11428Y11834D01*
X11419Y11832D01*
X11409Y11830D01*
X11398Y11829D01*
X11376Y11834D01*
X11200Y11799D01*
X11052Y11699D01*
X10952Y11551D01*
X10917Y11375D01*
X10952Y11199D01*
X11052Y11051D01*
X11200Y10951D01*
X11376Y10916D01*
X11552Y10951D01*
X11645Y11013D01*
X11744Y10972D01*
X11758Y10963D01*
X11769Y10952D01*
X11770Y10948D01*
X11771Y10947D01*
Y10796D01*
X11792Y10689D01*
X11853Y10598D01*
X15705Y6746D01*
X15796Y6685D01*
X15903Y6664D01*
X16713D01*
X16820Y6685D01*
X16911Y6746D01*
X17074Y6910D01*
X17222Y6878D01*
X17291Y6776D01*
X17439Y6676D01*
X17615Y6641D01*
X17791Y6676D01*
X17939Y6776D01*
X18039Y6924D01*
X18074Y7100D01*
X18039Y7276D01*
X17939Y7424D01*
X17837Y7493D01*
X17805Y7641D01*
X19059Y8895D01*
X19186D01*
X19187Y8894D01*
X19191Y8893D01*
X19196Y8891D01*
X19203Y8887D01*
X19210Y8883D01*
X19219Y8876D01*
X19227Y8869D01*
X19240Y8851D01*
X19388Y8751D01*
X19451Y8739D01*
X19435Y8654D01*
Y8578D01*
X19434Y8577D01*
X19433Y8573D01*
X19431Y8568D01*
X19427Y8561D01*
X19423Y8554D01*
X19416Y8545D01*
X19409Y8537D01*
X19391Y8524D01*
X19291Y8376D01*
X19256Y8200D01*
X19291Y8024D01*
X19391Y7876D01*
X19400Y7781D01*
X17840Y6222D01*
X16160D01*
X15908Y6473D01*
X15818Y6534D01*
X15710Y6555D01*
X14562D01*
X9753Y11364D01*
Y12970D01*
X11933Y15149D01*
X12060Y15097D01*
D02*
G37*
G36*
X23220Y12979D02*
X23307Y12908D01*
X23348Y12878D01*
X23388Y12854D01*
X23427Y12833D01*
X23465Y12818D01*
X23501Y12806D01*
X23536Y12800D01*
X23569Y12797D01*
X23573Y12622D01*
X23539Y12620D01*
X23504Y12613D01*
X23468Y12602D01*
X23431Y12586D01*
X23392Y12565D01*
X23354Y12540D01*
X23314Y12510D01*
X23273Y12475D01*
X23188Y12392D01*
X23174Y13022D01*
X23220Y12979D01*
D02*
G37*
G36*
X42603Y12942D02*
X42692Y12866D01*
X42735Y12835D01*
X42775Y12809D01*
X42814Y12788D01*
X42851Y12771D01*
X42887Y12759D01*
X42920Y12752D01*
X42952Y12750D01*
X42955Y12600D01*
X42922Y12598D01*
X42888Y12590D01*
X42853Y12578D01*
X42817Y12561D01*
X42778Y12539D01*
X42739Y12513D01*
X42698Y12481D01*
X42656Y12445D01*
X42567Y12358D01*
X42555Y12987D01*
X42603Y12942D01*
D02*
G37*
G36*
X43950Y12925D02*
X44200Y12675D01*
X44200D01*
X43950Y12425D01*
Y12207D01*
X43950Y12207D01*
X43950D01*
X43950Y12207D01*
X43950Y12207D01*
X43950D01*
Y12207D01*
X43879Y12233D01*
X43758Y12327D01*
X43671Y12453D01*
X43625Y12599D01*
Y12751D01*
X43671Y12897D01*
X43758Y13023D01*
X43879Y13117D01*
X43950Y13143D01*
X43950Y12925D01*
D02*
G37*
G36*
X44408Y13099D02*
X44549Y12958D01*
X44625Y12774D01*
Y12576D01*
X44549Y12392D01*
X44408Y12251D01*
X44224Y12175D01*
X44125D01*
Y12350D01*
X44375Y12600D01*
Y12750D01*
X44125Y13000D01*
Y13175D01*
X44224D01*
X44408Y13099D01*
D02*
G37*
G36*
X13010Y12388D02*
X13027Y12374D01*
X13046Y12363D01*
X13066Y12352D01*
X13088Y12344D01*
X13110Y12337D01*
X13134Y12331D01*
X13159Y12328D01*
X13185Y12326D01*
X13213Y12325D01*
X12965Y12078D01*
X12964Y12105D01*
X12962Y12131D01*
X12959Y12156D01*
X12953Y12180D01*
X12946Y12202D01*
X12938Y12224D01*
X12928Y12244D01*
X12916Y12263D01*
X12902Y12280D01*
X12887Y12297D01*
X12993Y12403D01*
X13010Y12388D01*
D02*
G37*
G36*
X10753Y12297D02*
X10738Y12280D01*
X10724Y12263D01*
X10712Y12244D01*
X10702Y12224D01*
X10694Y12202D01*
X10687Y12180D01*
X10681Y12156D01*
X10678Y12131D01*
X10676Y12105D01*
X10675Y12078D01*
X10427Y12325D01*
X10455Y12326D01*
X10481Y12328D01*
X10506Y12331D01*
X10530Y12337D01*
X10552Y12344D01*
X10574Y12352D01*
X10594Y12362D01*
X10613Y12374D01*
X10630Y12388D01*
X10647Y12403D01*
X10753Y12297D01*
D02*
G37*
G36*
X19435Y12000D02*
X19416Y12019D01*
X19396Y12036D01*
X19375Y12051D01*
X19355Y12064D01*
X19334Y12075D01*
X19313Y12084D01*
X19291Y12091D01*
X19270Y12096D01*
X19248Y12099D01*
X19226Y12100D01*
Y12250D01*
X19248Y12251D01*
X19270Y12254D01*
X19291Y12259D01*
X19313Y12266D01*
X19334Y12275D01*
X19355Y12286D01*
X19375Y12299D01*
X19396Y12314D01*
X19416Y12331D01*
X19435Y12350D01*
Y12000D01*
D02*
G37*
G36*
X15313Y11931D02*
X15333Y11914D01*
X15354Y11899D01*
X15374Y11886D01*
X15395Y11875D01*
X15416Y11866D01*
X15438Y11859D01*
X15459Y11854D01*
X15481Y11851D01*
X15503Y11850D01*
Y11700D01*
X15481Y11699D01*
X15459Y11696D01*
X15438Y11691D01*
X15416Y11684D01*
X15395Y11675D01*
X15374Y11664D01*
X15354Y11651D01*
X15333Y11636D01*
X15313Y11619D01*
X15294Y11600D01*
Y11950D01*
X15313Y11931D01*
D02*
G37*
G36*
X11704Y11597D02*
X11689Y11580D01*
X11675Y11563D01*
X11663Y11544D01*
X11653Y11524D01*
X11645Y11502D01*
X11638Y11480D01*
X11632Y11456D01*
X11629Y11431D01*
X11627Y11405D01*
X11626Y11377D01*
X11378Y11625D01*
X11406Y11626D01*
X11432Y11628D01*
X11457Y11631D01*
X11481Y11637D01*
X11503Y11644D01*
X11525Y11652D01*
X11545Y11663D01*
X11564Y11674D01*
X11581Y11688D01*
X11598Y11703D01*
X11704Y11597D01*
D02*
G37*
G36*
X21238Y11591D02*
X21258Y11574D01*
X21279Y11559D01*
X21299Y11546D01*
X21320Y11535D01*
X21341Y11526D01*
X21363Y11519D01*
X21384Y11514D01*
X21406Y11511D01*
X21414Y11511D01*
X21417Y11511D01*
X21442Y11513D01*
X21465Y11517D01*
X21484Y11522D01*
X21501Y11529D01*
X21514Y11537D01*
X21525Y11547D01*
X21532Y11558D01*
X21537Y11571D01*
X21538Y11585D01*
Y11285D01*
X21537Y11299D01*
X21532Y11312D01*
X21525Y11323D01*
X21514Y11333D01*
X21501Y11341D01*
X21484Y11348D01*
X21465Y11353D01*
X21442Y11357D01*
X21417Y11359D01*
X21414Y11359D01*
X21406Y11359D01*
X21384Y11356D01*
X21363Y11351D01*
X21341Y11344D01*
X21320Y11335D01*
X21299Y11324D01*
X21279Y11311D01*
X21258Y11296D01*
X21238Y11279D01*
X21219Y11260D01*
Y11610D01*
X21238Y11591D01*
D02*
G37*
G36*
X23225Y11702D02*
X23310Y11629D01*
X23351Y11599D01*
X23390Y11574D01*
X23429Y11554D01*
X23466Y11538D01*
X23502Y11527D01*
X23537Y11520D01*
X23571Y11517D01*
Y11342D01*
X23537Y11340D01*
X23502Y11333D01*
X23466Y11322D01*
X23429Y11306D01*
X23390Y11286D01*
X23351Y11261D01*
X23310Y11231D01*
X23268Y11197D01*
X23181Y11115D01*
Y11745D01*
X23225Y11702D01*
D02*
G37*
G36*
X44824Y11433D02*
X44829Y11418D01*
X44838Y11405D01*
X44850Y11394D01*
X44866Y11384D01*
X44885Y11377D01*
X44908Y11370D01*
X44934Y11366D01*
X44964Y11363D01*
X44997Y11363D01*
Y11188D01*
X44964Y11187D01*
X44934Y11184D01*
X44908Y11180D01*
X44885Y11174D01*
X44866Y11166D01*
X44850Y11156D01*
X44838Y11145D01*
X44829Y11132D01*
X44824Y11117D01*
X44822Y11100D01*
Y11450D01*
X44824Y11433D01*
D02*
G37*
G36*
X7665Y11313D02*
X7682Y11299D01*
X7701Y11288D01*
X7721Y11277D01*
X7743Y11269D01*
X7765Y11262D01*
X7789Y11256D01*
X7814Y11253D01*
X7840Y11251D01*
X7867Y11250D01*
X7620Y11002D01*
X7619Y11030D01*
X7617Y11056D01*
X7614Y11081D01*
X7608Y11105D01*
X7601Y11127D01*
X7593Y11149D01*
X7583Y11169D01*
X7571Y11188D01*
X7557Y11205D01*
X7542Y11222D01*
X7648Y11328D01*
X7665Y11313D01*
D02*
G37*
G36*
X42621Y11542D02*
X42708Y11465D01*
X42750Y11434D01*
X42790Y11407D01*
X42829Y11386D01*
X42865Y11369D01*
X42901Y11357D01*
X42935Y11350D01*
X42967Y11347D01*
Y11197D01*
X42935Y11195D01*
X42901Y11188D01*
X42865Y11176D01*
X42829Y11159D01*
X42790Y11137D01*
X42750Y11111D01*
X42708Y11080D01*
X42621Y11003D01*
X42574Y10957D01*
X42574Y11587D01*
X42621Y11542D01*
D02*
G37*
G36*
X12207Y11127D02*
X12190Y11107D01*
X12175Y11086D01*
X12162Y11066D01*
X12151Y11045D01*
X12142Y11024D01*
X12135Y11002D01*
X12130Y10981D01*
X12127Y10959D01*
X12126Y10937D01*
X11976D01*
X11975Y10959D01*
X11972Y10981D01*
X11967Y11002D01*
X11960Y11024D01*
X11951Y11045D01*
X11940Y11066D01*
X11927Y11086D01*
X11912Y11107D01*
X11895Y11127D01*
X11876Y11146D01*
X12226D01*
X12207Y11127D01*
D02*
G37*
G36*
X34550Y10985D02*
X34501Y10868D01*
X33341D01*
X32572Y11637D01*
X32477Y11701D01*
X32365Y11723D01*
X23560D01*
X23553Y11725D01*
X23537Y11729D01*
X23517Y11738D01*
X23493Y11751D01*
X23465Y11768D01*
X23450Y11779D01*
Y12357D01*
X23470Y12372D01*
X23497Y12390D01*
X23520Y12402D01*
X23539Y12411D01*
X23555Y12415D01*
X23562Y12417D01*
X33119D01*
X34550Y10985D01*
D02*
G37*
G36*
X43950Y11525D02*
X44200Y11275D01*
X44200D01*
X43950Y11025D01*
Y10807D01*
X43950Y10807D01*
X43950D01*
X43950Y10807D01*
X43950Y10807D01*
X43950D01*
Y10807D01*
X43879Y10833D01*
X43758Y10927D01*
X43671Y11053D01*
X43625Y11199D01*
Y11351D01*
X43671Y11497D01*
X43758Y11623D01*
X43879Y11717D01*
X43950Y11743D01*
X43950Y11525D01*
D02*
G37*
G36*
X44408Y11699D02*
X44549Y11558D01*
X44625Y11374D01*
Y11176D01*
X44549Y10992D01*
X44408Y10851D01*
X44224Y10775D01*
X44125D01*
Y10950D01*
X44375Y11200D01*
Y11350D01*
X44125Y11600D01*
Y11775D01*
X44224D01*
X44408Y11699D01*
D02*
G37*
G36*
X2540Y20065D02*
X6560D01*
Y18085D01*
X6567Y18034D01*
X6560Y17983D01*
X6596Y17709D01*
X6702Y17453D01*
X6870Y17234D01*
X7090Y17065D01*
X7346Y16959D01*
X7620Y16923D01*
X7894Y16959D01*
X8150Y17065D01*
X8370Y17234D01*
X8538Y17453D01*
X8644Y17709D01*
X8680Y17983D01*
X8725Y18034D01*
X9100D01*
Y17678D01*
X9107Y17628D01*
X9100Y17577D01*
X9136Y17302D01*
X9180Y17197D01*
X7148Y15164D01*
X7087Y15073D01*
X7066Y14966D01*
Y11524D01*
X7087Y11417D01*
X7148Y11326D01*
X7404Y11069D01*
X7405Y11068D01*
X7407Y11064D01*
X7409Y11059D01*
X7411Y11052D01*
X7413Y11043D01*
X7415Y11033D01*
X7416Y11022D01*
X7411Y11000D01*
X7440Y10857D01*
X7368Y10730D01*
X6395D01*
X6342Y10795D01*
X6295Y11029D01*
X6163Y11228D01*
X5964Y11360D01*
X5730Y11407D01*
X5496Y11360D01*
X5297Y11228D01*
X5165Y11029D01*
X5160Y11004D01*
X5030D01*
X5025Y11029D01*
X4893Y11228D01*
X4694Y11360D01*
X4460Y11407D01*
X4226Y11360D01*
X4027Y11228D01*
X3895Y11029D01*
X3890Y11004D01*
X3760D01*
X3755Y11029D01*
X3623Y11228D01*
X3424Y11360D01*
X3190Y11407D01*
X2956Y11360D01*
X2757Y11228D01*
X2625Y11029D01*
X2578Y10795D01*
X2625Y10561D01*
X2757Y10362D01*
X2956Y10230D01*
X2981Y10225D01*
Y10095D01*
X2956Y10090D01*
X2757Y9958D01*
X2625Y9759D01*
X2604Y9652D01*
X3190D01*
Y9525D01*
X3317D01*
Y8939D01*
X3424Y8960D01*
X3623Y9092D01*
X3755Y9291D01*
X3760Y9316D01*
X3890D01*
X3895Y9291D01*
X4027Y9092D01*
X4226Y8960D01*
X4460Y8913D01*
X4640Y8949D01*
X4831Y8758D01*
X4813Y8652D01*
X4794Y8615D01*
X4603Y8487D01*
X4486Y8540D01*
X4385Y8607D01*
X4200Y8644D01*
X4015Y8607D01*
X3858Y8502D01*
X3753Y8345D01*
X3716Y8160D01*
X3753Y7975D01*
X3858Y7818D01*
X4015Y7713D01*
X4200Y7676D01*
X4385Y7713D01*
X4446Y7687D01*
X4466Y7588D01*
X4603Y7383D01*
X4808Y7246D01*
X5050Y7198D01*
X5292Y7246D01*
X5497Y7383D01*
X5593Y7526D01*
X5720Y7488D01*
Y6941D01*
X5644Y6866D01*
X5643Y6865D01*
X5639Y6863D01*
X5634Y6861D01*
X5627Y6859D01*
X5618Y6857D01*
X5608Y6855D01*
X5597Y6854D01*
X5575Y6859D01*
X5399Y6824D01*
X5251Y6724D01*
X5151Y6576D01*
X5116Y6400D01*
X5151Y6224D01*
X5251Y6076D01*
X5399Y5976D01*
X5575Y5941D01*
X5751Y5976D01*
X5899Y6076D01*
X5999Y6224D01*
X6034Y6400D01*
X6029Y6422D01*
X6030Y6433D01*
X6032Y6443D01*
X6034Y6452D01*
X6036Y6459D01*
X6038Y6464D01*
X6040Y6468D01*
X6041Y6469D01*
X6198Y6627D01*
X6259Y6718D01*
X6280Y6825D01*
Y8350D01*
X6259Y8457D01*
X6198Y8548D01*
X5911Y8835D01*
X5948Y8957D01*
X5964Y8960D01*
X6163Y9092D01*
X6264Y9245D01*
X8523D01*
X8820Y8948D01*
Y8147D01*
X8708Y8088D01*
X8691Y8099D01*
X8515Y8134D01*
X8339Y8099D01*
X8191Y7999D01*
X8091Y7851D01*
X8056Y7675D01*
X8091Y7499D01*
X8191Y7351D01*
X8209Y7338D01*
X8216Y7330D01*
X8223Y7321D01*
X8227Y7314D01*
X8231Y7307D01*
X8233Y7302D01*
X8234Y7298D01*
X8235Y7297D01*
Y6050D01*
X8256Y5943D01*
X8317Y5852D01*
X9880Y4289D01*
Y4097D01*
X9879Y4089D01*
X9871Y4062D01*
X9854Y4022D01*
X9826Y3970D01*
X9787Y3910D01*
X9739Y3844D01*
X9514Y3590D01*
X9442Y3517D01*
X9410Y3493D01*
X9242Y3273D01*
X9136Y3018D01*
X9100Y2743D01*
X9107Y2692D01*
X9100Y2642D01*
Y2286D01*
X8725D01*
X8680Y2337D01*
X8644Y2611D01*
X8538Y2867D01*
X8370Y3086D01*
X8150Y3255D01*
X7894Y3361D01*
X7620Y3397D01*
X7346Y3361D01*
X7090Y3255D01*
X6870Y3086D01*
X6702Y2867D01*
X6596Y2611D01*
X6560Y2337D01*
X6567Y2286D01*
X6560Y2235D01*
Y255D01*
X2315D01*
X1873Y343D01*
X1458Y515D01*
X1083Y765D01*
X765Y1083D01*
X515Y1458D01*
X343Y1873D01*
X255Y2315D01*
Y2540D01*
Y17780D01*
Y18005D01*
X343Y18447D01*
X515Y18862D01*
X765Y19237D01*
X1083Y19555D01*
X1458Y19805D01*
X1873Y19977D01*
X2315Y20065D01*
X2540Y20065D01*
D02*
G37*
G36*
X52441Y10525D02*
X52426Y10543D01*
X52409Y10559D01*
X52392Y10573D01*
X52374Y10586D01*
X52355Y10596D01*
X52335Y10605D01*
X52314Y10611D01*
X52292Y10616D01*
X52269Y10619D01*
X52245Y10620D01*
X52266Y10795D01*
X52289Y10796D01*
X52312Y10798D01*
X52334Y10802D01*
X52356Y10807D01*
X52378Y10814D01*
X52399Y10823D01*
X52420Y10833D01*
X52440Y10845D01*
X52460Y10858D01*
X52480Y10873D01*
X52441Y10525D01*
D02*
G37*
G36*
X32810Y10570D02*
X32761Y10453D01*
X23560D01*
X23553Y10455D01*
X23537Y10460D01*
X23517Y10468D01*
X23493Y10481D01*
X23465Y10498D01*
X23450Y10509D01*
Y11081D01*
X23465Y11092D01*
X23493Y11109D01*
X23517Y11122D01*
X23537Y11130D01*
X23553Y11135D01*
X23560Y11137D01*
X32244D01*
X32810Y10570D01*
D02*
G37*
G36*
X19360Y10400D02*
X19341Y10419D01*
X19321Y10436D01*
X19300Y10451D01*
X19280Y10464D01*
X19259Y10475D01*
X19238Y10484D01*
X19216Y10491D01*
X19195Y10496D01*
X19173Y10499D01*
X19151Y10500D01*
Y10650D01*
X19173Y10651D01*
X19195Y10654D01*
X19216Y10659D01*
X19238Y10666D01*
X19259Y10675D01*
X19280Y10686D01*
X19300Y10699D01*
X19321Y10714D01*
X19341Y10731D01*
X19360Y10750D01*
Y10400D01*
D02*
G37*
G36*
X6067Y10578D02*
X6068Y10575D01*
X6071Y10569D01*
X6074Y10563D01*
X6080Y10556D01*
X6094Y10538D01*
X6115Y10516D01*
X6128Y10503D01*
X6022Y10397D01*
X6009Y10410D01*
X5962Y10451D01*
X5956Y10455D01*
X5950Y10457D01*
X5947Y10458D01*
X5944Y10457D01*
X6068Y10581D01*
X6067Y10578D01*
D02*
G37*
G36*
X3553Y10624D02*
X3551Y10608D01*
X3551Y10592D01*
X3554Y10575D01*
X3560Y10558D01*
X3568Y10540D01*
X3579Y10522D01*
X3592Y10503D01*
X3608Y10484D01*
X3627Y10464D01*
X3521Y10358D01*
X3501Y10377D01*
X3482Y10393D01*
X3463Y10406D01*
X3445Y10417D01*
X3427Y10425D01*
X3410Y10431D01*
X3393Y10434D01*
X3377Y10434D01*
X3361Y10432D01*
X3346Y10427D01*
X3558Y10639D01*
X3553Y10624D01*
D02*
G37*
G36*
X43725Y10116D02*
X43707Y10133D01*
X43689Y10148D01*
X43670Y10161D01*
X43651Y10172D01*
X43630Y10182D01*
X43609Y10190D01*
X43588Y10196D01*
X43566Y10200D01*
X43543Y10203D01*
X43519Y10204D01*
Y10379D01*
X43543Y10380D01*
X43566Y10382D01*
X43588Y10387D01*
X43609Y10393D01*
X43630Y10401D01*
X43651Y10410D01*
X43670Y10422D01*
X43689Y10435D01*
X43707Y10450D01*
X43725Y10466D01*
Y10116D01*
D02*
G37*
G36*
X21538Y10010D02*
X21537Y10024D01*
X21532Y10037D01*
X21525Y10048D01*
X21514Y10058D01*
X21501Y10066D01*
X21484Y10073D01*
X21465Y10078D01*
X21442Y10082D01*
X21417Y10084D01*
X21388Y10085D01*
Y10235D01*
X21417Y10236D01*
X21442Y10238D01*
X21465Y10242D01*
X21484Y10247D01*
X21501Y10254D01*
X21514Y10262D01*
X21525Y10272D01*
X21532Y10283D01*
X21537Y10296D01*
X21538Y10310D01*
Y10010D01*
D02*
G37*
G36*
X23225Y10432D02*
X23310Y10359D01*
X23351Y10329D01*
X23390Y10304D01*
X23429Y10284D01*
X23466Y10268D01*
X23502Y10257D01*
X23537Y10250D01*
X23571Y10248D01*
Y10073D01*
X23537Y10070D01*
X23502Y10063D01*
X23466Y10052D01*
X23429Y10036D01*
X23390Y10016D01*
X23351Y9991D01*
X23310Y9961D01*
X23268Y9927D01*
X23181Y9845D01*
Y10475D01*
X23225Y10432D01*
D02*
G37*
G36*
X6108Y9661D02*
X6117Y9648D01*
X6129Y9637D01*
X6143Y9627D01*
X6159Y9619D01*
X6177Y9612D01*
X6198Y9607D01*
X6221Y9603D01*
X6246Y9601D01*
X6273Y9600D01*
Y9450D01*
X6246Y9449D01*
X6221Y9447D01*
X6198Y9443D01*
X6177Y9438D01*
X6159Y9431D01*
X6143Y9423D01*
X6129Y9413D01*
X6117Y9402D01*
X6108Y9389D01*
X6101Y9375D01*
Y9675D01*
X6108Y9661D01*
D02*
G37*
G36*
X4823Y9354D02*
X4821Y9338D01*
X4821Y9322D01*
X4824Y9305D01*
X4830Y9288D01*
X4838Y9270D01*
X4849Y9252D01*
X4862Y9233D01*
X4878Y9214D01*
X4897Y9194D01*
X4791Y9088D01*
X4771Y9107D01*
X4752Y9123D01*
X4733Y9136D01*
X4715Y9147D01*
X4697Y9155D01*
X4680Y9161D01*
X4663Y9164D01*
X4647Y9164D01*
X4631Y9162D01*
X4616Y9157D01*
X4828Y9369D01*
X4823Y9354D01*
D02*
G37*
G36*
X19385Y9000D02*
X19366Y9019D01*
X19346Y9036D01*
X19325Y9051D01*
X19305Y9064D01*
X19284Y9075D01*
X19263Y9084D01*
X19241Y9091D01*
X19220Y9096D01*
X19198Y9099D01*
X19176Y9100D01*
Y9250D01*
X19198Y9251D01*
X19220Y9254D01*
X19241Y9259D01*
X19263Y9266D01*
X19284Y9275D01*
X19305Y9286D01*
X19325Y9299D01*
X19346Y9314D01*
X19366Y9331D01*
X19385Y9350D01*
Y9000D01*
D02*
G37*
G36*
X20893Y9012D02*
X20878Y8995D01*
X20864Y8978D01*
X20852Y8959D01*
X20842Y8939D01*
X20834Y8917D01*
X20827Y8895D01*
X20821Y8871D01*
X20818Y8846D01*
X20816Y8820D01*
X20815Y8793D01*
X20567Y9040D01*
X20595Y9041D01*
X20621Y9043D01*
X20646Y9046D01*
X20670Y9052D01*
X20692Y9059D01*
X20714Y9067D01*
X20734Y9078D01*
X20753Y9089D01*
X20770Y9103D01*
X20787Y9118D01*
X20893Y9012D01*
D02*
G37*
G36*
X21538Y8757D02*
X21537Y8768D01*
X21533Y8778D01*
X21526Y8787D01*
X21517Y8794D01*
X21505Y8800D01*
X21490Y8806D01*
X21473Y8810D01*
X21453Y8813D01*
X21430Y8814D01*
X21405Y8815D01*
Y8965D01*
X21430Y8966D01*
X21453Y8967D01*
X21473Y8970D01*
X21490Y8974D01*
X21505Y8980D01*
X21517Y8986D01*
X21526Y8993D01*
X21533Y9002D01*
X21537Y9012D01*
X21538Y9023D01*
Y8757D01*
D02*
G37*
G36*
X9913Y9081D02*
X9933Y9064D01*
X9954Y9049D01*
X9974Y9036D01*
X9995Y9025D01*
X10016Y9016D01*
X10038Y9009D01*
X10059Y9004D01*
X10081Y9001D01*
X10103Y9000D01*
Y8850D01*
X10081Y8849D01*
X10059Y8846D01*
X10038Y8841D01*
X10016Y8834D01*
X9995Y8825D01*
X9974Y8814D01*
X9954Y8801D01*
X9933Y8786D01*
X9913Y8769D01*
X9894Y8750D01*
Y9100D01*
X9913Y9081D01*
D02*
G37*
G36*
X23225Y9162D02*
X23310Y9089D01*
X23351Y9059D01*
X23390Y9034D01*
X23429Y9014D01*
X23466Y8998D01*
X23502Y8987D01*
X23537Y8980D01*
X23571Y8977D01*
Y8802D01*
X23537Y8800D01*
X23502Y8793D01*
X23466Y8782D01*
X23429Y8766D01*
X23390Y8746D01*
X23351Y8721D01*
X23310Y8691D01*
X23268Y8657D01*
X23181Y8575D01*
Y9205D01*
X23225Y9162D01*
D02*
G37*
G36*
X75298Y8625D02*
X75273Y8624D01*
X75250Y8622D01*
X75227Y8618D01*
X75206Y8612D01*
X75184Y8605D01*
X75164Y8596D01*
X75144Y8585D01*
X75126Y8572D01*
X75108Y8558D01*
X75090Y8541D01*
X74966Y8665D01*
X74983Y8683D01*
X74997Y8701D01*
X75010Y8719D01*
X75021Y8739D01*
X75030Y8759D01*
X75037Y8781D01*
X75043Y8802D01*
X75047Y8825D01*
X75049Y8848D01*
X75050Y8873D01*
X75298Y8625D01*
D02*
G37*
G36*
X44946Y8783D02*
X44964Y8769D01*
X44983Y8755D01*
X45003Y8744D01*
X45023Y8734D01*
X45044Y8726D01*
X45065Y8720D01*
X45088Y8716D01*
X45111Y8713D01*
X45134Y8712D01*
Y8538D01*
X45111Y8537D01*
X45088Y8534D01*
X45065Y8530D01*
X45044Y8524D01*
X45023Y8516D01*
X45003Y8506D01*
X44983Y8495D01*
X44964Y8481D01*
X44946Y8467D01*
X44929Y8450D01*
Y8800D01*
X44946Y8783D01*
D02*
G37*
G36*
X19791Y8566D02*
X19794Y8544D01*
X19799Y8523D01*
X19806Y8501D01*
X19815Y8480D01*
X19826Y8459D01*
X19839Y8439D01*
X19854Y8418D01*
X19871Y8398D01*
X19890Y8379D01*
X19540D01*
X19559Y8398D01*
X19576Y8418D01*
X19591Y8439D01*
X19604Y8459D01*
X19615Y8480D01*
X19624Y8501D01*
X19631Y8523D01*
X19636Y8544D01*
X19639Y8566D01*
X19640Y8588D01*
X19790D01*
X19791Y8566D01*
D02*
G37*
G36*
X48222Y8400D02*
X48198Y8399D01*
X48175Y8397D01*
X48152Y8393D01*
X48131Y8387D01*
X48109Y8380D01*
X48089Y8371D01*
X48069Y8360D01*
X48051Y8347D01*
X48033Y8333D01*
X48015Y8316D01*
X47891Y8440D01*
X47908Y8458D01*
X47922Y8476D01*
X47935Y8494D01*
X47946Y8514D01*
X47955Y8534D01*
X47962Y8556D01*
X47968Y8577D01*
X47972Y8600D01*
X47974Y8623D01*
X47975Y8648D01*
X48222Y8400D01*
D02*
G37*
G36*
X52773Y8627D02*
X52791Y8613D01*
X52810Y8601D01*
X52830Y8591D01*
X52850Y8583D01*
X52870Y8578D01*
X52892Y8574D01*
X52913Y8573D01*
X52936Y8573D01*
X52959Y8576D01*
X52753Y8293D01*
X52748Y8318D01*
X52743Y8341D01*
X52736Y8364D01*
X52728Y8385D01*
X52719Y8406D01*
X52708Y8427D01*
X52696Y8446D01*
X52683Y8464D01*
X52668Y8482D01*
X52652Y8499D01*
X52755Y8644D01*
X52773Y8627D01*
D02*
G37*
G36*
X13967Y9777D02*
X14058Y9716D01*
X14165Y9695D01*
X16365D01*
X16472Y9716D01*
X16563Y9777D01*
X17081Y10295D01*
X18883D01*
X18936Y10168D01*
X16546Y7777D01*
X16440Y7848D01*
X16264Y7883D01*
X16088Y7848D01*
X15940Y7748D01*
X15840Y7600D01*
X15834Y7568D01*
X15712Y7532D01*
X12372Y10872D01*
X12375Y11001D01*
X12451Y11113D01*
X12594Y11149D01*
X13967Y9777D01*
D02*
G37*
G36*
X51046Y8057D02*
X51048Y8034D01*
X51052Y8011D01*
X51058Y7989D01*
X51065Y7968D01*
X51075Y7948D01*
X51086Y7928D01*
X51098Y7909D01*
X51113Y7891D01*
X51129Y7874D01*
X51005Y7750D01*
X50988Y7766D01*
X50970Y7781D01*
X50951Y7793D01*
X50931Y7804D01*
X50911Y7813D01*
X50890Y7821D01*
X50868Y7827D01*
X50845Y7831D01*
X50822Y7833D01*
X50798Y7834D01*
X51045Y8081D01*
X51046Y8057D01*
D02*
G37*
G36*
X9913Y8081D02*
X9933Y8064D01*
X9953Y8049D01*
X9974Y8036D01*
X9995Y8025D01*
X10016Y8016D01*
X10037Y8009D01*
X10059Y8004D01*
X10081Y8001D01*
X10103Y8000D01*
X10104Y7850D01*
X10082Y7849D01*
X10060Y7846D01*
X10038Y7841D01*
X10016Y7834D01*
X9995Y7825D01*
X9975Y7814D01*
X9954Y7801D01*
X9934Y7786D01*
X9914Y7769D01*
X9894Y7750D01*
X9893Y8100D01*
X9913Y8081D01*
D02*
G37*
G36*
X20543Y7922D02*
X20528Y7905D01*
X20514Y7888D01*
X20503Y7869D01*
X20492Y7849D01*
X20484Y7827D01*
X20477Y7805D01*
X20471Y7781D01*
X20468Y7756D01*
X20466Y7730D01*
X20465Y7702D01*
X20218Y7950D01*
X20245Y7951D01*
X20271Y7953D01*
X20296Y7956D01*
X20320Y7962D01*
X20342Y7969D01*
X20364Y7977D01*
X20384Y7988D01*
X20403Y7999D01*
X20420Y8013D01*
X20437Y8028D01*
X20543Y7922D01*
D02*
G37*
G36*
X40375Y8376D02*
X40625Y8126D01*
X40625D01*
X40375Y7876D01*
Y7657D01*
X40375Y7657D01*
X40375D01*
X40375Y7657D01*
X40375Y7657D01*
X40375D01*
Y7657D01*
X40303Y7684D01*
X40183Y7778D01*
X40095Y7903D01*
X40050Y8049D01*
Y8202D01*
X40095Y8348D01*
X40183Y8474D01*
X40303Y8567D01*
X40375Y8594D01*
X40375Y8376D01*
D02*
G37*
G36*
X40833Y8549D02*
X40974Y8409D01*
X41050Y8225D01*
Y8026D01*
X40974Y7842D01*
X40833Y7702D01*
X40649Y7626D01*
X40550D01*
Y7801D01*
X40800Y8051D01*
Y8201D01*
X40550Y8451D01*
Y8626D01*
X40649D01*
X40833Y8549D01*
D02*
G37*
G36*
X20036Y7525D02*
X20017Y7544D01*
X19997Y7561D01*
X19976Y7576D01*
X19956Y7589D01*
X19935Y7600D01*
X19914Y7609D01*
X19892Y7616D01*
X19871Y7621D01*
X19849Y7624D01*
X19827Y7625D01*
Y7775D01*
X19849Y7776D01*
X19871Y7779D01*
X19892Y7784D01*
X19914Y7791D01*
X19935Y7800D01*
X19956Y7811D01*
X19976Y7824D01*
X19997Y7839D01*
X20017Y7856D01*
X20036Y7875D01*
Y7525D01*
D02*
G37*
G36*
X21538Y7470D02*
X21537Y7484D01*
X21532Y7497D01*
X21525Y7508D01*
X21514Y7518D01*
X21501Y7526D01*
X21484Y7533D01*
X21465Y7538D01*
X21442Y7542D01*
X21417Y7544D01*
X21388Y7545D01*
Y7695D01*
X21417Y7696D01*
X21442Y7698D01*
X21465Y7702D01*
X21484Y7707D01*
X21501Y7714D01*
X21514Y7722D01*
X21525Y7732D01*
X21532Y7743D01*
X21537Y7756D01*
X21538Y7770D01*
Y7470D01*
D02*
G37*
G36*
X38479Y8047D02*
X38559Y7968D01*
X38598Y7936D01*
X38636Y7908D01*
X38673Y7886D01*
X38709Y7869D01*
X38744Y7856D01*
X38779Y7849D01*
X38812Y7846D01*
X38801Y7696D01*
X38770Y7694D01*
X38737Y7687D01*
X38702Y7676D01*
X38664Y7659D01*
X38624Y7639D01*
X38582Y7613D01*
X38492Y7549D01*
X38443Y7510D01*
X38392Y7466D01*
X38437Y8095D01*
X38479Y8047D01*
D02*
G37*
G36*
X13946Y4629D02*
X13930Y4566D01*
X13890Y4505D01*
X13140D01*
X13033Y4484D01*
X12942Y4423D01*
X12502Y3983D01*
X12441Y3892D01*
X12420Y3785D01*
Y3691D01*
X12419Y3682D01*
X12411Y3655D01*
X12394Y3615D01*
X12366Y3564D01*
X12327Y3503D01*
X12279Y3438D01*
X12054Y3183D01*
X11982Y3110D01*
X11950Y3086D01*
X11782Y2867D01*
X11676Y2611D01*
X11640Y2337D01*
X11595Y2286D01*
X11220D01*
Y2642D01*
X11213Y2692D01*
X11220Y2743D01*
X11184Y3018D01*
X11078Y3273D01*
X10910Y3493D01*
X10881Y3515D01*
X10719Y3681D01*
X10582Y3843D01*
X10533Y3910D01*
X10494Y3970D01*
X10466Y4022D01*
X10449Y4062D01*
X10441Y4089D01*
X10440Y4097D01*
Y4405D01*
X10419Y4512D01*
X10358Y4603D01*
X9745Y5217D01*
X9808Y5334D01*
X9885Y5318D01*
X10060Y5353D01*
X10209Y5453D01*
X10305D01*
X10377Y5344D01*
X10576Y5212D01*
X10810Y5165D01*
X11044Y5212D01*
X11243Y5344D01*
X11375Y5543D01*
X11422Y5777D01*
X11375Y6011D01*
X11243Y6210D01*
X11044Y6342D01*
X10810Y6389D01*
X10576Y6342D01*
X10377Y6210D01*
X10305Y6101D01*
X10209D01*
X10060Y6201D01*
X9885Y6236D01*
X9863Y6231D01*
X9852Y6232D01*
X9841Y6234D01*
X9833Y6236D01*
X9826Y6238D01*
X9821Y6240D01*
X9817Y6242D01*
X9815Y6243D01*
X9380Y6678D01*
Y7454D01*
X9507Y7522D01*
X9539Y7500D01*
X9715Y7465D01*
X9891Y7500D01*
X10039Y7600D01*
X10052Y7619D01*
X10061Y7626D01*
X10070Y7633D01*
X10077Y7637D01*
X10083Y7641D01*
X10089Y7643D01*
X10093Y7644D01*
X10094Y7645D01*
X10930D01*
X13946Y4629D01*
D02*
G37*
G36*
X16500Y7509D02*
X16503Y7507D01*
X16508Y7505D01*
X16515Y7504D01*
X16523Y7502D01*
X16545Y7500D01*
X16573Y7499D01*
X16589Y7499D01*
Y7349D01*
X16573Y7349D01*
X16523Y7346D01*
X16515Y7345D01*
X16508Y7343D01*
X16503Y7341D01*
X16500Y7339D01*
X16498Y7337D01*
Y7512D01*
X16500Y7509D01*
D02*
G37*
G36*
X23225Y7892D02*
X23310Y7819D01*
X23351Y7789D01*
X23390Y7764D01*
X23429Y7744D01*
X23466Y7728D01*
X23502Y7717D01*
X23537Y7710D01*
X23571Y7707D01*
Y7532D01*
X23537Y7530D01*
X23502Y7523D01*
X23466Y7512D01*
X23429Y7496D01*
X23390Y7476D01*
X23351Y7451D01*
X23310Y7421D01*
X23268Y7387D01*
X23181Y7305D01*
Y7935D01*
X23225Y7892D01*
D02*
G37*
G36*
X8671Y7477D02*
X8654Y7457D01*
X8639Y7436D01*
X8626Y7416D01*
X8615Y7395D01*
X8606Y7374D01*
X8599Y7352D01*
X8594Y7331D01*
X8591Y7309D01*
X8590Y7287D01*
X8440D01*
X8439Y7309D01*
X8436Y7331D01*
X8431Y7352D01*
X8424Y7374D01*
X8415Y7395D01*
X8404Y7416D01*
X8391Y7436D01*
X8376Y7457D01*
X8359Y7477D01*
X8340Y7496D01*
X8690D01*
X8671Y7477D01*
D02*
G37*
G36*
X49947Y6900D02*
X49923Y6899D01*
X49900Y6897D01*
X49877Y6893D01*
X49856Y6887D01*
X49834Y6880D01*
X49814Y6871D01*
X49794Y6860D01*
X49776Y6847D01*
X49758Y6833D01*
X49740Y6816D01*
X49616Y6940D01*
X49633Y6958D01*
X49647Y6976D01*
X49660Y6994D01*
X49671Y7014D01*
X49680Y7034D01*
X49687Y7056D01*
X49693Y7077D01*
X49697Y7100D01*
X49699Y7123D01*
X49700Y7148D01*
X49947Y6900D01*
D02*
G37*
G36*
X68396Y6700D02*
X68379Y6717D01*
X68361Y6732D01*
X68342Y6745D01*
X68322Y6756D01*
X68302Y6766D01*
X68281Y6773D01*
X68260Y6780D01*
X68237Y6784D01*
X68214Y6787D01*
X68191Y6787D01*
Y6963D01*
X68214Y6963D01*
X68237Y6966D01*
X68260Y6970D01*
X68281Y6977D01*
X68302Y6984D01*
X68322Y6994D01*
X68342Y7005D01*
X68361Y7018D01*
X68379Y7033D01*
X68396Y7050D01*
Y6700D01*
D02*
G37*
G36*
X55571Y7033D02*
X55589Y7018D01*
X55608Y7005D01*
X55628Y6994D01*
X55648Y6984D01*
X55669Y6977D01*
X55690Y6970D01*
X55713Y6966D01*
X55736Y6963D01*
X55759Y6963D01*
Y6787D01*
X55736Y6787D01*
X55713Y6784D01*
X55690Y6780D01*
X55669Y6773D01*
X55648Y6766D01*
X55628Y6756D01*
X55608Y6745D01*
X55589Y6732D01*
X55571Y6717D01*
X55554Y6700D01*
Y7050D01*
X55571Y7033D01*
D02*
G37*
G36*
X5903Y6622D02*
X5888Y6605D01*
X5874Y6588D01*
X5863Y6569D01*
X5852Y6549D01*
X5844Y6527D01*
X5837Y6505D01*
X5831Y6481D01*
X5828Y6456D01*
X5826Y6430D01*
X5825Y6403D01*
X5577Y6650D01*
X5605Y6651D01*
X5631Y6653D01*
X5656Y6656D01*
X5680Y6662D01*
X5702Y6669D01*
X5724Y6677D01*
X5744Y6687D01*
X5763Y6699D01*
X5780Y6713D01*
X5797Y6728D01*
X5903Y6622D01*
D02*
G37*
G36*
X51069Y6580D02*
X51071Y6557D01*
X51075Y6534D01*
X51081Y6513D01*
X51088Y6491D01*
X51097Y6471D01*
X51108Y6452D01*
X51121Y6433D01*
X51135Y6415D01*
X51151Y6397D01*
X51028Y6274D01*
X51010Y6290D01*
X50992Y6304D01*
X50973Y6317D01*
X50954Y6328D01*
X50934Y6337D01*
X50912Y6344D01*
X50891Y6350D01*
X50868Y6354D01*
X50845Y6356D01*
X50820Y6357D01*
X51068Y6605D01*
X51069Y6580D01*
D02*
G37*
G36*
X20443Y6422D02*
X20428Y6405D01*
X20414Y6388D01*
X20403Y6369D01*
X20392Y6349D01*
X20384Y6327D01*
X20377Y6305D01*
X20371Y6281D01*
X20368Y6256D01*
X20366Y6230D01*
X20365Y6203D01*
X20118Y6450D01*
X20145Y6451D01*
X20171Y6453D01*
X20196Y6456D01*
X20220Y6462D01*
X20242Y6469D01*
X20264Y6477D01*
X20284Y6488D01*
X20303Y6499D01*
X20320Y6513D01*
X20337Y6528D01*
X20443Y6422D01*
D02*
G37*
G36*
X21538Y6200D02*
X21537Y6214D01*
X21532Y6227D01*
X21525Y6238D01*
X21514Y6248D01*
X21501Y6256D01*
X21484Y6263D01*
X21465Y6268D01*
X21442Y6272D01*
X21417Y6274D01*
X21388Y6275D01*
Y6425D01*
X21417Y6426D01*
X21442Y6428D01*
X21465Y6432D01*
X21484Y6437D01*
X21501Y6444D01*
X21514Y6452D01*
X21525Y6462D01*
X21532Y6473D01*
X21537Y6486D01*
X21538Y6500D01*
Y6200D01*
D02*
G37*
G36*
X40450Y9221D02*
X40429Y9120D01*
X40464Y8945D01*
X40472Y8934D01*
X40437Y8807D01*
X40427Y8798D01*
X40415Y8790D01*
X40382Y8798D01*
X40379Y8797D01*
X40375Y8798D01*
X40340Y8791D01*
X40304Y8785D01*
X40232Y8758D01*
X40206Y8742D01*
X40178Y8728D01*
X40058Y8635D01*
X40037Y8611D01*
X40015Y8590D01*
X39928Y8464D01*
X39916Y8436D01*
X39901Y8409D01*
X39900Y8406D01*
X39726D01*
X39619Y8385D01*
X39528Y8324D01*
X39256Y8052D01*
X38805D01*
X38800Y8053D01*
X38788Y8057D01*
X38770Y8066D01*
X38749Y8079D01*
X38723Y8097D01*
X38696Y8119D01*
X38627Y8188D01*
X38590Y8230D01*
X38581Y8236D01*
X38558Y8267D01*
X38422Y8371D01*
X38264Y8437D01*
X38094Y8459D01*
X37924Y8437D01*
X37766Y8371D01*
X37630Y8267D01*
X37526Y8131D01*
X37461Y7973D01*
X37438Y7803D01*
X37461Y7634D01*
X37526Y7476D01*
X37630Y7340D01*
X37766Y7236D01*
X37924Y7170D01*
X38094Y7148D01*
X38264Y7170D01*
X38422Y7236D01*
X38509Y7303D01*
X38525Y7311D01*
X38573Y7353D01*
X38615Y7386D01*
X38694Y7443D01*
X38724Y7461D01*
X38752Y7475D01*
X38774Y7484D01*
X38790Y7490D01*
X38795Y7491D01*
X39372D01*
X39479Y7512D01*
X39570Y7573D01*
X39788Y7791D01*
X39826Y7798D01*
X39842Y7797D01*
X39939Y7771D01*
X40015Y7661D01*
X40037Y7640D01*
X40058Y7617D01*
X40178Y7523D01*
X40206Y7509D01*
X40232Y7493D01*
X40303Y7466D01*
X40304Y7466D01*
X40307Y7465D01*
X40311Y7464D01*
X40311Y7464D01*
X40342Y7460D01*
X40375Y7453D01*
X40375D01*
X40375Y7453D01*
X40379Y7454D01*
X40382Y7453D01*
X40386Y7454D01*
X40389Y7454D01*
X40421Y7462D01*
X40431Y7464D01*
X40472Y7437D01*
X40550Y7422D01*
X40649D01*
X40727Y7437D01*
X40911Y7513D01*
X40977Y7557D01*
X41118Y7698D01*
X41162Y7764D01*
X41196Y7845D01*
X41366D01*
X42059Y7152D01*
X42150Y7091D01*
X42258Y7070D01*
X45950D01*
X46055Y6943D01*
X46041Y6875D01*
X46076Y6699D01*
X46176Y6551D01*
X46324Y6451D01*
X46500Y6416D01*
X46676Y6451D01*
X46824Y6551D01*
X46924Y6699D01*
X46959Y6875D01*
X46945Y6943D01*
X47050Y7070D01*
X47723D01*
X47831Y7091D01*
X47922Y7152D01*
X49640Y8870D01*
X50203D01*
X50256Y8743D01*
X47713Y6200D01*
X41944D01*
X41564Y6580D01*
X41473Y6641D01*
X41366Y6662D01*
X41196D01*
X41162Y6743D01*
X41118Y6809D01*
X40977Y6950D01*
X40911Y6994D01*
X40727Y7070D01*
X40649Y7085D01*
X40550D01*
X40472Y7070D01*
X40431Y7043D01*
X40418Y7045D01*
X40382Y7054D01*
X40379Y7053D01*
X40375Y7054D01*
X40340Y7047D01*
X40304Y7041D01*
X40232Y7014D01*
X40206Y6998D01*
X40178Y6984D01*
X40058Y6891D01*
X40037Y6867D01*
X40015Y6846D01*
X39928Y6720D01*
X39916Y6692D01*
X39901Y6665D01*
X39900Y6662D01*
X39372D01*
X39265Y6641D01*
X39174Y6580D01*
X39074Y6480D01*
X38832D01*
X38827Y6482D01*
X38813Y6486D01*
X38793Y6495D01*
X38768Y6509D01*
X38740Y6528D01*
X38709Y6551D01*
X38631Y6619D01*
X38596Y6654D01*
X38589Y6664D01*
X38453Y6768D01*
X38295Y6833D01*
X38125Y6856D01*
X37955Y6833D01*
X37797Y6768D01*
X37661Y6664D01*
X37557Y6528D01*
X37492Y6370D01*
X37469Y6200D01*
X37492Y6030D01*
X37548Y5895D01*
X37495Y5768D01*
X30371D01*
X28312Y7827D01*
X28217Y7891D01*
X28105Y7913D01*
X23560D01*
X23553Y7915D01*
X23537Y7919D01*
X23517Y7928D01*
X23493Y7941D01*
X23465Y7958D01*
X23450Y7969D01*
Y8541D01*
X23465Y8552D01*
X23493Y8569D01*
X23517Y8582D01*
X23537Y8590D01*
X23553Y8595D01*
X23560Y8597D01*
X27786D01*
X27898Y8619D01*
X27993Y8683D01*
X28658Y9348D01*
X40358D01*
X40450Y9221D01*
D02*
G37*
G36*
X19646Y6327D02*
X19629Y6307D01*
X19614Y6286D01*
X19601Y6266D01*
X19590Y6245D01*
X19581Y6224D01*
X19574Y6202D01*
X19569Y6181D01*
X19566Y6159D01*
X19565Y6137D01*
X19415D01*
X19414Y6159D01*
X19411Y6181D01*
X19406Y6202D01*
X19399Y6224D01*
X19390Y6245D01*
X19379Y6266D01*
X19366Y6286D01*
X19351Y6307D01*
X19334Y6327D01*
X19315Y6346D01*
X19665D01*
X19646Y6327D01*
D02*
G37*
G36*
X40375Y6631D02*
X40625Y6382D01*
X40625D01*
X40375Y6132D01*
Y5913D01*
X40375Y5913D01*
X40375D01*
X40375Y5913D01*
X40375Y5913D01*
X40375D01*
Y5913D01*
X40303Y5940D01*
X40183Y6034D01*
X40095Y6159D01*
X40050Y6305D01*
Y6458D01*
X40095Y6604D01*
X40183Y6729D01*
X40303Y6823D01*
X40375Y6850D01*
X40375Y6631D01*
D02*
G37*
G36*
X38493Y6469D02*
X38580Y6393D01*
X38622Y6361D01*
X38662Y6335D01*
X38701Y6313D01*
X38737Y6297D01*
X38773Y6285D01*
X38807Y6277D01*
X38839Y6275D01*
Y6125D01*
X38807Y6123D01*
X38773Y6115D01*
X38737Y6103D01*
X38701Y6087D01*
X38662Y6065D01*
X38622Y6039D01*
X38580Y6007D01*
X38493Y5931D01*
X38446Y5885D01*
Y6515D01*
X38493Y6469D01*
D02*
G37*
G36*
X40833Y6805D02*
X40974Y6665D01*
X41050Y6481D01*
Y6282D01*
X40974Y6098D01*
X40833Y5958D01*
X40649Y5881D01*
X40550D01*
Y6056D01*
X40800Y6306D01*
Y6457D01*
X40550Y6707D01*
Y6881D01*
X40649D01*
X40833Y6805D01*
D02*
G37*
G36*
X20366Y6170D02*
X20368Y6144D01*
X20371Y6119D01*
X20377Y6095D01*
X20384Y6073D01*
X20392Y6051D01*
X20403Y6031D01*
X20414Y6012D01*
X20428Y5995D01*
X20443Y5978D01*
X20337Y5872D01*
X20320Y5887D01*
X20303Y5901D01*
X20284Y5913D01*
X20264Y5923D01*
X20242Y5931D01*
X20220Y5938D01*
X20196Y5944D01*
X20171Y5947D01*
X20145Y5950D01*
X20118Y5950D01*
X20365Y6198D01*
X20366Y6170D01*
D02*
G37*
G36*
X56199Y6184D02*
X56217Y6169D01*
X56236Y6156D01*
X56255Y6144D01*
X56276Y6135D01*
X56296Y6127D01*
X56318Y6121D01*
X56340Y6116D01*
X56363Y6114D01*
X56387Y6113D01*
Y5938D01*
X56363Y5937D01*
X56340Y5934D01*
X56318Y5930D01*
X56296Y5924D01*
X56276Y5916D01*
X56255Y5906D01*
X56236Y5895D01*
X56217Y5882D01*
X56199Y5867D01*
X56181Y5850D01*
Y6200D01*
X56199Y6184D01*
D02*
G37*
G36*
X72966Y6149D02*
X72944Y6124D01*
X72926Y6100D01*
X72914Y6075D01*
X72907Y6050D01*
X72904Y6025D01*
X72907Y6001D01*
X72914Y5976D01*
X72926Y5951D01*
X72944Y5926D01*
X72966Y5902D01*
X72806Y5814D01*
X72781Y5838D01*
X72754Y5859D01*
X72727Y5877D01*
X72699Y5893D01*
X72669Y5907D01*
X72639Y5918D01*
X72608Y5927D01*
X72575Y5933D01*
X72542Y5937D01*
X72507Y5938D01*
Y6113D01*
X72542Y6114D01*
X72575Y6118D01*
X72608Y6124D01*
X72639Y6133D01*
X72669Y6144D01*
X72699Y6157D01*
X72727Y6173D01*
X72754Y6192D01*
X72781Y6213D01*
X72806Y6237D01*
X72966Y6149D01*
D02*
G37*
G36*
X23311Y6284D02*
X23319Y6172D01*
X23327Y6123D01*
X23337Y6077D01*
X23350Y6035D01*
X23365Y5998D01*
X23383Y5964D01*
X23403Y5934D01*
X23425Y5909D01*
X23301Y5785D01*
X23276Y5807D01*
X23246Y5827D01*
X23212Y5845D01*
X23175Y5860D01*
X23133Y5873D01*
X23087Y5883D01*
X23038Y5891D01*
X22984Y5896D01*
X22865Y5900D01*
X23310Y6345D01*
X23311Y6284D01*
D02*
G37*
G36*
X9680Y6090D02*
X9697Y6076D01*
X9716Y6065D01*
X9736Y6054D01*
X9758Y6046D01*
X9780Y6039D01*
X9804Y6033D01*
X9829Y6030D01*
X9855Y6028D01*
X9882Y6027D01*
X9635Y5780D01*
X9634Y5807D01*
X9632Y5833D01*
X9628Y5858D01*
X9623Y5882D01*
X9616Y5904D01*
X9608Y5926D01*
X9597Y5946D01*
X9586Y5965D01*
X9572Y5982D01*
X9557Y5999D01*
X9663Y6105D01*
X9680Y6090D01*
D02*
G37*
G36*
X15270Y5609D02*
X15251Y5628D01*
X15231Y5645D01*
X15210Y5660D01*
X15190Y5673D01*
X15169Y5684D01*
X15148Y5693D01*
X15126Y5700D01*
X15105Y5705D01*
X15083Y5708D01*
X15061Y5709D01*
Y5859D01*
X15083Y5860D01*
X15105Y5863D01*
X15126Y5868D01*
X15148Y5875D01*
X15169Y5884D01*
X15190Y5895D01*
X15210Y5908D01*
X15231Y5923D01*
X15251Y5940D01*
X15270Y5959D01*
Y5609D01*
D02*
G37*
G36*
X29900Y5410D02*
X29851Y5293D01*
X24331D01*
X23562Y6062D01*
X23558Y6069D01*
X23550Y6083D01*
X23542Y6103D01*
X23534Y6129D01*
X23527Y6161D01*
X23522Y6196D01*
X23514Y6292D01*
X23514Y6338D01*
X23516Y6350D01*
X23493Y6520D01*
X23450Y6624D01*
Y7271D01*
X23465Y7282D01*
X23493Y7299D01*
X23517Y7312D01*
X23537Y7320D01*
X23553Y7325D01*
X23560Y7327D01*
X27984D01*
X29900Y5410D01*
D02*
G37*
G36*
X56321Y5533D02*
X56339Y5518D01*
X56358Y5505D01*
X56378Y5494D01*
X56398Y5484D01*
X56419Y5477D01*
X56440Y5470D01*
X56463Y5466D01*
X56486Y5463D01*
X56509Y5463D01*
Y5287D01*
X56486Y5287D01*
X56463Y5284D01*
X56440Y5280D01*
X56419Y5273D01*
X56398Y5266D01*
X56378Y5256D01*
X56358Y5245D01*
X56339Y5232D01*
X56321Y5217D01*
X56304Y5200D01*
Y5550D01*
X56321Y5533D01*
D02*
G37*
G36*
X15811Y5122D02*
X15792Y5141D01*
X15772Y5158D01*
X15751Y5173D01*
X15731Y5186D01*
X15710Y5197D01*
X15689Y5206D01*
X15667Y5213D01*
X15646Y5218D01*
X15624Y5221D01*
X15602Y5222D01*
Y5372D01*
X15624Y5373D01*
X15646Y5376D01*
X15667Y5381D01*
X15689Y5388D01*
X15710Y5397D01*
X15731Y5408D01*
X15751Y5421D01*
X15772Y5436D01*
X15792Y5453D01*
X15811Y5472D01*
Y5122D01*
D02*
G37*
G36*
X19045Y6454D02*
X19066Y6349D01*
X19166Y6201D01*
X19184Y6188D01*
X19191Y6180D01*
X19198Y6171D01*
X19202Y6164D01*
X19206Y6157D01*
X19208Y6152D01*
X19209Y6148D01*
X19210Y6147D01*
Y5991D01*
X18049Y4830D01*
X16331D01*
X16292Y4957D01*
X16314Y4972D01*
X16414Y5121D01*
X16449Y5297D01*
X16418Y5450D01*
X16447Y5517D01*
X16481Y5563D01*
X16564Y5463D01*
X16556Y5425D01*
X16591Y5249D01*
X16691Y5101D01*
X16839Y5001D01*
X17015Y4966D01*
X17191Y5001D01*
X17339Y5101D01*
X17439Y5249D01*
X17474Y5425D01*
X17452Y5534D01*
X17540Y5661D01*
X17956D01*
X18063Y5682D01*
X18154Y5743D01*
X18907Y6496D01*
X19045Y6454D01*
D02*
G37*
G36*
X50721Y4923D02*
X50697Y4923D01*
X50674Y4920D01*
X50651Y4916D01*
X50629Y4911D01*
X50608Y4903D01*
X50588Y4894D01*
X50568Y4883D01*
X50549Y4870D01*
X50531Y4856D01*
X50514Y4840D01*
X50390Y4964D01*
X50406Y4981D01*
X50421Y4999D01*
X50433Y5018D01*
X50444Y5037D01*
X50453Y5058D01*
X50461Y5079D01*
X50467Y5101D01*
X50471Y5123D01*
X50473Y5147D01*
X50474Y5171D01*
X50721Y4923D01*
D02*
G37*
G36*
X19488Y4775D02*
X19460Y4774D01*
X19434Y4772D01*
X19409Y4769D01*
X19385Y4763D01*
X19363Y4756D01*
X19341Y4748D01*
X19321Y4738D01*
X19302Y4726D01*
X19285Y4712D01*
X19268Y4697D01*
X19162Y4803D01*
X19177Y4820D01*
X19191Y4837D01*
X19203Y4856D01*
X19213Y4876D01*
X19221Y4898D01*
X19228Y4920D01*
X19234Y4944D01*
X19237Y4969D01*
X19240Y4995D01*
X19240Y5023D01*
X19488Y4775D01*
D02*
G37*
G36*
X68396Y4486D02*
X68377Y4505D01*
X68357Y4522D01*
X68336Y4537D01*
X68316Y4550D01*
X68295Y4561D01*
X68274Y4570D01*
X68252Y4577D01*
X68231Y4582D01*
X68209Y4585D01*
X68187Y4586D01*
Y4736D01*
X68209Y4737D01*
X68231Y4740D01*
X68252Y4745D01*
X68274Y4752D01*
X68295Y4761D01*
X68316Y4772D01*
X68336Y4785D01*
X68357Y4800D01*
X68377Y4817D01*
X68396Y4836D01*
Y4486D01*
D02*
G37*
G36*
X55430Y4817D02*
X55450Y4800D01*
X55470Y4785D01*
X55491Y4772D01*
X55511Y4761D01*
X55533Y4752D01*
X55554Y4745D01*
X55576Y4740D01*
X55598Y4737D01*
X55620Y4736D01*
Y4586D01*
X55598Y4585D01*
X55576Y4582D01*
X55554Y4577D01*
X55533Y4570D01*
X55511Y4561D01*
X55491Y4550D01*
X55470Y4537D01*
X55450Y4522D01*
X55430Y4505D01*
X55410Y4486D01*
Y4836D01*
X55430Y4817D01*
D02*
G37*
G36*
X53697Y4661D02*
X53715Y4648D01*
X53734Y4636D01*
X53754Y4626D01*
X53775Y4618D01*
X53798Y4611D01*
X53822Y4605D01*
X53847Y4601D01*
X53873Y4599D01*
X53900Y4599D01*
X53653Y4351D01*
X53652Y4379D01*
X53650Y4405D01*
X53646Y4430D01*
X53641Y4454D01*
X53634Y4476D01*
X53625Y4497D01*
X53615Y4517D01*
X53603Y4536D01*
X53590Y4554D01*
X53575Y4570D01*
X53681Y4677D01*
X53697Y4661D01*
D02*
G37*
G36*
X53135Y4013D02*
X53152Y3999D01*
X53171Y3987D01*
X53191Y3977D01*
X53213Y3969D01*
X53235Y3962D01*
X53259Y3956D01*
X53284Y3953D01*
X53310Y3951D01*
X53338Y3950D01*
X53090Y3703D01*
X53089Y3730D01*
X53087Y3756D01*
X53084Y3781D01*
X53078Y3805D01*
X53071Y3827D01*
X53063Y3849D01*
X53053Y3869D01*
X53041Y3888D01*
X53027Y3905D01*
X53012Y3922D01*
X53118Y4028D01*
X53135Y4013D01*
D02*
G37*
G36*
X55173Y4031D02*
X55193Y4014D01*
X55214Y3999D01*
X55234Y3986D01*
X55255Y3975D01*
X55276Y3966D01*
X55298Y3959D01*
X55319Y3954D01*
X55341Y3951D01*
X55363Y3950D01*
Y3800D01*
X55341Y3799D01*
X55319Y3796D01*
X55298Y3791D01*
X55276Y3784D01*
X55255Y3775D01*
X55234Y3764D01*
X55214Y3751D01*
X55193Y3736D01*
X55173Y3719D01*
X55154Y3700D01*
Y4050D01*
X55173Y4031D01*
D02*
G37*
G36*
X16200Y3597D02*
X16163Y3554D01*
X16131Y3504D01*
X16105Y3448D01*
X16085Y3385D01*
X16070Y3316D01*
X16061Y3240D01*
X16058Y3158D01*
X16060Y3069D01*
X16068Y2974D01*
X16081Y2872D01*
X15369Y3584D01*
X15471Y3571D01*
X15655Y3561D01*
X15737Y3565D01*
X15813Y3574D01*
X15882Y3588D01*
X15945Y3609D01*
X16001Y3634D01*
X16051Y3666D01*
X16094Y3703D01*
X16200Y3597D01*
D02*
G37*
G36*
X49311Y3926D02*
X48936Y3551D01*
X48933Y3548D01*
X48907Y3533D01*
X48865Y3514D01*
X48806Y3493D01*
X48738Y3475D01*
X48298Y3401D01*
X48161Y3387D01*
X48161Y3387D01*
X48161Y3387D01*
X48142Y3381D01*
X47986Y3361D01*
X47730Y3255D01*
X47510Y3086D01*
X47342Y2867D01*
X47236Y2611D01*
X47200Y2337D01*
X47155Y2286D01*
X46780D01*
Y2642D01*
X46773Y2692D01*
X46780Y2743D01*
X46744Y3018D01*
X46638Y3273D01*
X46470Y3493D01*
X46250Y3661D01*
X45994Y3767D01*
X45720Y3803D01*
X45446Y3767D01*
X45190Y3661D01*
X44970Y3493D01*
X44802Y3273D01*
X44696Y3018D01*
X44660Y2743D01*
X44667Y2692D01*
X44660Y2642D01*
Y2286D01*
X44285D01*
X44240Y2337D01*
X44204Y2611D01*
X44098Y2867D01*
X43930Y3086D01*
X43710Y3255D01*
X43454Y3361D01*
X43307Y3380D01*
Y2337D01*
X43053D01*
Y3380D01*
X42906Y3361D01*
X42650Y3255D01*
X42430Y3086D01*
X42262Y2867D01*
X42156Y2611D01*
X42120Y2337D01*
X42075Y2286D01*
X41700D01*
Y2642D01*
X41693Y2692D01*
X41700Y2743D01*
X41695Y2782D01*
X41695Y2885D01*
X41699Y3003D01*
X41717Y3210D01*
X41730Y3291D01*
X41746Y3361D01*
X41763Y3416D01*
X41780Y3457D01*
X41796Y3483D01*
X41801Y3490D01*
X42354Y4043D01*
X49263D01*
X49311Y3926D01*
D02*
G37*
G36*
X21335Y5694D02*
Y5694D01*
X22919Y5694D01*
X22971Y5693D01*
X23011Y5689D01*
X23049Y5683D01*
X23081Y5676D01*
X23107Y5668D01*
X23127Y5660D01*
X23141Y5652D01*
X23148Y5648D01*
X24003Y4793D01*
X24098Y4729D01*
X24210Y4707D01*
X39723D01*
X39772Y4590D01*
X38750Y3568D01*
X38748Y3566D01*
X38723Y3551D01*
X38680Y3532D01*
X38620Y3510D01*
X38550Y3490D01*
X38104Y3402D01*
X37963Y3383D01*
X37963Y3383D01*
X37963Y3383D01*
X37945Y3376D01*
X37826Y3361D01*
X37570Y3255D01*
X37350Y3086D01*
X37182Y2867D01*
X37076Y2611D01*
X37040Y2337D01*
X36995Y2286D01*
X36620D01*
Y2642D01*
X36613Y2692D01*
X36620Y2743D01*
X36584Y3018D01*
X36478Y3273D01*
X36310Y3493D01*
X36090Y3661D01*
X35834Y3767D01*
X35560Y3803D01*
X35286Y3767D01*
X35030Y3661D01*
X34810Y3493D01*
X34642Y3273D01*
X34536Y3018D01*
X34500Y2743D01*
X34507Y2692D01*
X34500Y2642D01*
Y2286D01*
X34125D01*
X34080Y2337D01*
X34044Y2611D01*
X33938Y2867D01*
X33770Y3086D01*
X33550Y3255D01*
X33294Y3361D01*
X33020Y3397D01*
X32746Y3361D01*
X32490Y3255D01*
X32270Y3086D01*
X32102Y2867D01*
X31996Y2611D01*
X31960Y2337D01*
X31915Y2286D01*
X31540D01*
Y2642D01*
X31533Y2692D01*
X31540Y2743D01*
X31504Y3018D01*
X31398Y3273D01*
X31230Y3493D01*
X31010Y3661D01*
X30754Y3767D01*
X30480Y3803D01*
X30206Y3767D01*
X29950Y3661D01*
X29730Y3493D01*
X29562Y3273D01*
X29456Y3018D01*
X29420Y2743D01*
X29427Y2692D01*
X29420Y2642D01*
Y2286D01*
X29045D01*
X29000Y2337D01*
X28964Y2611D01*
X28858Y2867D01*
X28690Y3086D01*
X28470Y3255D01*
X28214Y3361D01*
X27940Y3397D01*
X27666Y3361D01*
X27410Y3255D01*
X27190Y3086D01*
X27022Y2867D01*
X26916Y2611D01*
X26880Y2337D01*
X26835Y2286D01*
X26460D01*
Y2642D01*
X26453Y2692D01*
X26460Y2743D01*
X26424Y3018D01*
X26318Y3273D01*
X26150Y3493D01*
X25930Y3661D01*
X25674Y3767D01*
X25400Y3803D01*
X25126Y3767D01*
X24870Y3661D01*
X24650Y3493D01*
X24482Y3273D01*
X24376Y3018D01*
X24340Y2743D01*
X24347Y2692D01*
X24340Y2642D01*
Y2286D01*
X23965D01*
X23920Y2337D01*
X23884Y2611D01*
X23778Y2867D01*
X23610Y3086D01*
X23390Y3255D01*
X23134Y3361D01*
X22860Y3397D01*
X22586Y3361D01*
X22330Y3255D01*
X22110Y3086D01*
X21942Y2867D01*
X21836Y2611D01*
X21800Y2337D01*
X21755Y2286D01*
X21380D01*
Y2642D01*
X21373Y2692D01*
X21380Y2743D01*
X21344Y3018D01*
X21238Y3273D01*
X21070Y3493D01*
X20850Y3661D01*
X20594Y3767D01*
X20320Y3803D01*
X20046Y3767D01*
X19820Y3674D01*
X19748Y3781D01*
X21088Y5122D01*
X21149Y5213D01*
X21170Y5320D01*
Y5700D01*
X21208Y5725D01*
X21335Y5694D01*
D02*
G37*
G36*
X10240Y4051D02*
X10256Y3994D01*
X10282Y3933D01*
X10318Y3866D01*
X10365Y3794D01*
X10422Y3716D01*
X10568Y3544D01*
X10756Y3351D01*
X9564D01*
X9663Y3450D01*
X9898Y3716D01*
X9955Y3794D01*
X10002Y3866D01*
X10038Y3933D01*
X10064Y3994D01*
X10080Y4051D01*
X10085Y4101D01*
X10235D01*
X10240Y4051D01*
D02*
G37*
G36*
X75515Y3354D02*
X75540Y3333D01*
X75563Y3316D01*
X75585Y3302D01*
X75605Y3293D01*
X75624Y3288D01*
X75641Y3287D01*
X75656Y3291D01*
X75670Y3298D01*
X75682Y3309D01*
X75456Y3042D01*
X75465Y3056D01*
X75471Y3071D01*
X75472Y3088D01*
X75470Y3106D01*
X75463Y3126D01*
X75453Y3147D01*
X75439Y3170D01*
X75421Y3194D01*
X75400Y3219D01*
X75374Y3246D01*
X75488Y3379D01*
X75515Y3354D01*
D02*
G37*
G36*
X12780Y3644D02*
X12796Y3588D01*
X12822Y3527D01*
X12858Y3460D01*
X12905Y3387D01*
X12962Y3309D01*
X13108Y3138D01*
X13296Y2944D01*
X12104D01*
X12203Y3044D01*
X12438Y3309D01*
X12495Y3387D01*
X12542Y3460D01*
X12578Y3527D01*
X12604Y3588D01*
X12620Y3644D01*
X12625Y3695D01*
X12775D01*
X12780Y3644D01*
D02*
G37*
G36*
X69964Y3503D02*
X69970Y3496D01*
X69983Y3471D01*
X70000Y3431D01*
X70016Y3375D01*
X70031Y3304D01*
X70044Y3224D01*
X70065Y2885D01*
X70065Y2782D01*
X70060Y2743D01*
X70067Y2692D01*
X70060Y2642D01*
Y2286D01*
X69685D01*
X69640Y2337D01*
X69604Y2611D01*
X69498Y2867D01*
X69330Y3086D01*
X69110Y3255D01*
X68854Y3361D01*
X68580Y3397D01*
X68306Y3361D01*
X68050Y3255D01*
X67830Y3086D01*
X67662Y2867D01*
X67556Y2611D01*
X67520Y2337D01*
X67475Y2286D01*
X67100D01*
Y2616D01*
X64980D01*
Y2286D01*
X64605D01*
X64560Y2337D01*
X64524Y2611D01*
X64418Y2867D01*
X64250Y3086D01*
X64030Y3255D01*
X63774Y3361D01*
X63500Y3397D01*
X63226Y3361D01*
X62970Y3255D01*
X62750Y3086D01*
X62582Y2867D01*
X62476Y2611D01*
X62440Y2337D01*
X62395Y2286D01*
X62020D01*
Y2642D01*
X62013Y2692D01*
X62020Y2743D01*
X61984Y3018D01*
X61878Y3273D01*
X61729Y3468D01*
X61768Y3595D01*
X65232D01*
X65271Y3468D01*
X65122Y3273D01*
X65016Y3018D01*
X64997Y2870D01*
X67083D01*
X67064Y3018D01*
X66958Y3273D01*
X66809Y3468D01*
X66848Y3595D01*
X69872D01*
X69964Y3503D01*
D02*
G37*
G36*
X70252Y3724D02*
X70303Y3696D01*
X70365Y3671D01*
X70438Y3649D01*
X70522Y3631D01*
X70618Y3617D01*
X70842Y3598D01*
X71111Y3594D01*
X70269Y2752D01*
X70269Y2892D01*
X70247Y3245D01*
X70232Y3341D01*
X70214Y3425D01*
X70193Y3498D01*
X70167Y3560D01*
X70139Y3611D01*
X70107Y3651D01*
X70213Y3757D01*
X70252Y3724D01*
D02*
G37*
G36*
X51821Y3641D02*
X51788Y3600D01*
X51758Y3548D01*
X51731Y3486D01*
X51709Y3413D01*
X51690Y3330D01*
X51675Y3235D01*
X51655Y3015D01*
X51651Y2889D01*
X51651Y2752D01*
X50809Y3594D01*
X50945Y3594D01*
X51292Y3618D01*
X51387Y3633D01*
X51470Y3652D01*
X51543Y3675D01*
X51605Y3701D01*
X51657Y3731D01*
X51698Y3765D01*
X51821Y3641D01*
D02*
G37*
G36*
X41661D02*
X41628Y3600D01*
X41598Y3548D01*
X41571Y3486D01*
X41549Y3413D01*
X41530Y3330D01*
X41515Y3235D01*
X41495Y3015D01*
X41491Y2889D01*
X41491Y2752D01*
X40649Y3594D01*
X40785Y3594D01*
X41132Y3618D01*
X41227Y3633D01*
X41310Y3652D01*
X41383Y3675D01*
X41445Y3701D01*
X41497Y3731D01*
X41538Y3765D01*
X41661Y3641D01*
D02*
G37*
G36*
X54147Y3423D02*
X54107Y3376D01*
X54076Y3321D01*
X54054Y3260D01*
X54040Y3191D01*
X54035Y3115D01*
X54039Y3032D01*
X54051Y2943D01*
X54072Y2845D01*
X54101Y2741D01*
X54139Y2630D01*
X53063Y3141D01*
X53978Y3502D01*
X54147Y3423D01*
D02*
G37*
G36*
X39041Y3320D02*
X39004Y3276D01*
X38974Y3223D01*
X38949Y3160D01*
X38930Y3088D01*
X38917Y3007D01*
X38910Y2916D01*
X38909Y2817D01*
X38914Y2708D01*
X38942Y2463D01*
X37991Y3181D01*
X38137Y3201D01*
X38599Y3291D01*
X38684Y3316D01*
X38756Y3343D01*
X38816Y3370D01*
X38864Y3398D01*
X38900Y3427D01*
X39041Y3320D01*
D02*
G37*
G36*
X72890Y3394D02*
X72938Y3366D01*
X72999Y3339D01*
X73071Y3313D01*
X73156Y3288D01*
X73362Y3242D01*
X73617Y3200D01*
X73762Y3182D01*
X72817Y2456D01*
X72833Y2584D01*
X72848Y2812D01*
X72846Y2912D01*
X72839Y3002D01*
X72825Y3084D01*
X72806Y3156D01*
X72781Y3218D01*
X72751Y3272D01*
X72714Y3316D01*
X72854Y3423D01*
X72890Y3394D01*
D02*
G37*
G36*
X49223Y3299D02*
X49187Y3256D01*
X49156Y3202D01*
X49131Y3140D01*
X49111Y3067D01*
X49097Y2986D01*
X49088Y2894D01*
X49084Y2793D01*
X49093Y2562D01*
X49106Y2432D01*
X48182Y3184D01*
X48325Y3199D01*
X48782Y3275D01*
X48867Y3299D01*
X48939Y3324D01*
X49000Y3351D01*
X49049Y3380D01*
X49087Y3410D01*
X49223Y3299D01*
D02*
G37*
G36*
X72545Y5731D02*
X72561Y5728D01*
X72577Y5724D01*
X72591Y5718D01*
X72605Y5712D01*
X72619Y5704D01*
X72633Y5694D01*
X72641Y5688D01*
X75216Y3113D01*
X75176Y3018D01*
X75140Y2743D01*
X75147Y2692D01*
X75140Y2642D01*
Y2286D01*
X74765D01*
X74720Y2337D01*
X74684Y2611D01*
X74578Y2867D01*
X74410Y3086D01*
X74190Y3255D01*
X73934Y3361D01*
X73808Y3377D01*
X73789Y3384D01*
X73789Y3384D01*
X73789Y3384D01*
X73646Y3402D01*
X73401Y3442D01*
X73207Y3485D01*
X73134Y3507D01*
X73075Y3528D01*
X73032Y3547D01*
X73007Y3562D01*
X73004Y3564D01*
X70986Y5582D01*
X70952Y5605D01*
X70990Y5732D01*
X72535D01*
X72545Y5731D01*
D02*
G37*
G36*
X72575Y3164D02*
X72582Y3155D01*
X72597Y3129D01*
X72612Y3092D01*
X72626Y3041D01*
X72636Y2977D01*
X72642Y2902D01*
X72644Y2816D01*
X72630Y2603D01*
X72615Y2481D01*
X72617Y2462D01*
X72600Y2337D01*
X72555Y2286D01*
X72180D01*
Y2642D01*
X72173Y2692D01*
X72180Y2743D01*
X72144Y3018D01*
X72038Y3273D01*
X71870Y3493D01*
X71650Y3661D01*
X71394Y3767D01*
X71120Y3803D01*
X71084Y3798D01*
X70852Y3802D01*
X70641Y3819D01*
X70559Y3832D01*
X70488Y3847D01*
X70432Y3863D01*
X70392Y3880D01*
X70368Y3893D01*
X70361Y3899D01*
X70186Y4073D01*
X70096Y4134D01*
X69988Y4155D01*
X68857D01*
X68818Y4282D01*
X68899Y4337D01*
X68999Y4485D01*
X69034Y4661D01*
X68999Y4837D01*
X68920Y4955D01*
X68966Y5082D01*
X70657D01*
X72575Y3164D01*
D02*
G37*
G36*
X60191Y3468D02*
X60042Y3273D01*
X59936Y3018D01*
X59900Y2743D01*
X59907Y2692D01*
X59900Y2642D01*
Y2286D01*
X59525D01*
X59480Y2337D01*
X59444Y2611D01*
X59338Y2867D01*
X59170Y3086D01*
X58950Y3255D01*
X58694Y3361D01*
X58420Y3397D01*
X58146Y3361D01*
X57890Y3255D01*
X57670Y3086D01*
X57502Y2867D01*
X57396Y2611D01*
X57360Y2337D01*
X57315Y2286D01*
X56940D01*
Y2642D01*
X56933Y2692D01*
X56940Y2743D01*
X56904Y3018D01*
X56798Y3273D01*
X56649Y3468D01*
X56688Y3595D01*
X60152D01*
X60191Y3468D01*
D02*
G37*
G36*
X76699Y2038D02*
X76470Y1777D01*
X76415Y1699D01*
X76369Y1627D01*
X76333Y1559D01*
X76308Y1497D01*
X76293Y1439D01*
X76287Y1386D01*
X76113D01*
X76107Y1439D01*
X76092Y1497D01*
X76067Y1559D01*
X76031Y1627D01*
X75985Y1699D01*
X75930Y1777D01*
X75787Y1946D01*
X75701Y2038D01*
X75604Y2136D01*
X76796D01*
X76699Y2038D01*
D02*
G37*
%LPC*%
G36*
X67083Y17450D02*
X66167D01*
Y16534D01*
X66314Y16553D01*
X66570Y16659D01*
X66790Y16827D01*
X66958Y17047D01*
X67064Y17302D01*
X67083Y17450D01*
D02*
G37*
G36*
X65913D02*
X64997D01*
X65016Y17302D01*
X65122Y17047D01*
X65290Y16827D01*
X65510Y16659D01*
X65766Y16553D01*
X65913Y16534D01*
Y17450D01*
D02*
G37*
G36*
X81280Y19338D02*
X80976Y19308D01*
X80684Y19219D01*
X80415Y19075D01*
X80179Y18881D01*
X79985Y18645D01*
X79841Y18376D01*
X79752Y18084D01*
X79723Y17780D01*
X79752Y17476D01*
X79841Y17184D01*
X79985Y16915D01*
X80179Y16679D01*
X80415Y16485D01*
X80684Y16341D01*
X80976Y16252D01*
X81280Y16223D01*
X81584Y16252D01*
X81876Y16341D01*
X82145Y16485D01*
X82381Y16679D01*
X82575Y16915D01*
X82719Y17184D01*
X82808Y17476D01*
X82838Y17780D01*
X82808Y18084D01*
X82719Y18376D01*
X82575Y18645D01*
X82381Y18881D01*
X82145Y19075D01*
X81876Y19219D01*
X81584Y19308D01*
X81280Y19338D01*
D02*
G37*
G36*
X21960Y15524D02*
X21784Y15489D01*
X21636Y15389D01*
X21536Y15241D01*
X21501Y15065D01*
X21536Y14889D01*
X21636Y14741D01*
X21784Y14641D01*
X21960Y14606D01*
X22136Y14641D01*
X22284Y14741D01*
X22384Y14889D01*
X22419Y15065D01*
X22384Y15241D01*
X22284Y15389D01*
X22136Y15489D01*
X21960Y15524D01*
D02*
G37*
G36*
X27940Y15461D02*
X27666Y15425D01*
X27410Y15319D01*
X27191Y15151D01*
X27023Y14932D01*
X26917Y14676D01*
X26881Y14402D01*
X26917Y14128D01*
X27023Y13872D01*
X27191Y13653D01*
X27410Y13485D01*
X27666Y13379D01*
X27940Y13343D01*
X28214Y13379D01*
X28470Y13485D01*
X28689Y13653D01*
X28857Y13872D01*
X28963Y14128D01*
X28999Y14402D01*
X28963Y14676D01*
X28857Y14932D01*
X28689Y15151D01*
X28470Y15319D01*
X28214Y15425D01*
X27940Y15461D01*
D02*
G37*
G36*
X25400D02*
X25126Y15425D01*
X24870Y15319D01*
X24651Y15151D01*
X24483Y14932D01*
X24377Y14676D01*
X24341Y14402D01*
X24377Y14128D01*
X24483Y13872D01*
X24651Y13653D01*
X24870Y13485D01*
X25126Y13379D01*
X25400Y13343D01*
X25674Y13379D01*
X25930Y13485D01*
X26149Y13653D01*
X26317Y13872D01*
X26423Y14128D01*
X26459Y14402D01*
X26423Y14676D01*
X26317Y14932D01*
X26149Y15151D01*
X25930Y15319D01*
X25674Y15425D01*
X25400Y15461D01*
D02*
G37*
G36*
X61675Y13660D02*
Y12744D01*
X62590D01*
X62571Y12891D01*
X62465Y13147D01*
X62297Y13366D01*
X62078Y13535D01*
X61822Y13640D01*
X61675Y13660D01*
D02*
G37*
G36*
X61421D02*
X61274Y13640D01*
X61019Y13535D01*
X60799Y13366D01*
X60631Y13147D01*
X60525Y12891D01*
X60506Y12744D01*
X61421D01*
Y13660D01*
D02*
G37*
G36*
X62590Y12490D02*
X61675D01*
Y11575D01*
X61822Y11594D01*
X62078Y11700D01*
X62297Y11868D01*
X62465Y12088D01*
X62571Y12343D01*
X62590Y12490D01*
D02*
G37*
G36*
X61421D02*
X60506D01*
X60525Y12343D01*
X60631Y12088D01*
X60799Y11868D01*
X61019Y11700D01*
X61274Y11594D01*
X61421Y11575D01*
Y12490D01*
D02*
G37*
G36*
X60058Y13667D02*
X57958D01*
Y11567D01*
X60058D01*
Y13667D01*
D02*
G37*
G36*
X60964Y10869D02*
X60788Y10834D01*
X60639Y10735D01*
X60540Y10586D01*
X60505Y10410D01*
X60540Y10235D01*
X60639Y10086D01*
X60788Y9987D01*
X60964Y9952D01*
X61139Y9987D01*
X61288Y10086D01*
X61388Y10235D01*
X61422Y10410D01*
X61388Y10586D01*
X61288Y10735D01*
X61139Y10834D01*
X60964Y10869D01*
D02*
G37*
G36*
X56250Y10609D02*
X56074Y10574D01*
X55926Y10474D01*
X55826Y10326D01*
X55791Y10150D01*
X55826Y9974D01*
X55926Y9826D01*
X56074Y9726D01*
X56250Y9691D01*
X56426Y9726D01*
X56574Y9826D01*
X56586Y9842D01*
X56587Y9844D01*
X56593Y9848D01*
X56598Y9851D01*
X56603Y9853D01*
X56608Y9855D01*
X56613Y9856D01*
X56617Y9857D01*
X58446D01*
X59010Y9293D01*
X59105Y9229D01*
X59218Y9207D01*
X70753D01*
X70757Y9206D01*
X70762Y9205D01*
X70767Y9203D01*
X70772Y9201D01*
X70777Y9198D01*
X70783Y9194D01*
X70784Y9192D01*
X70796Y9176D01*
X70944Y9076D01*
X71120Y9041D01*
X71296Y9076D01*
X71444Y9176D01*
X71544Y9324D01*
X71579Y9500D01*
X71544Y9676D01*
X71444Y9824D01*
X71296Y9924D01*
X71120Y9959D01*
X70944Y9924D01*
X70796Y9824D01*
X70784Y9808D01*
X70783Y9806D01*
X70777Y9802D01*
X70772Y9799D01*
X70767Y9797D01*
X70762Y9795D01*
X70757Y9794D01*
X70753Y9793D01*
X59339D01*
X58775Y10357D01*
X58680Y10421D01*
X58568Y10443D01*
X56617D01*
X56613Y10444D01*
X56608Y10445D01*
X56603Y10447D01*
X56598Y10449D01*
X56593Y10452D01*
X56587Y10456D01*
X56586Y10458D01*
X56574Y10474D01*
X56426Y10574D01*
X56250Y10609D01*
D02*
G37*
G36*
X81280Y4098D02*
X80976Y4068D01*
X80684Y3979D01*
X80415Y3835D01*
X80179Y3641D01*
X79985Y3405D01*
X79841Y3136D01*
X79752Y2844D01*
X79723Y2540D01*
X79752Y2236D01*
X79841Y1944D01*
X79985Y1675D01*
X80179Y1439D01*
X80415Y1245D01*
X80684Y1101D01*
X80976Y1012D01*
X81280Y983D01*
X81584Y1012D01*
X81876Y1101D01*
X82145Y1245D01*
X82381Y1439D01*
X82575Y1675D01*
X82719Y1944D01*
X82808Y2236D01*
X82838Y2540D01*
X82808Y2844D01*
X82719Y3136D01*
X82575Y3405D01*
X82381Y3641D01*
X82145Y3835D01*
X81876Y3979D01*
X81584Y4068D01*
X81280Y4098D01*
D02*
G37*
%LPD*%
G36*
X56446Y10308D02*
X56464Y10293D01*
X56483Y10280D01*
X56503Y10269D01*
X56523Y10259D01*
X56544Y10252D01*
X56565Y10245D01*
X56588Y10241D01*
X56611Y10238D01*
X56634Y10238D01*
Y10062D01*
X56611Y10062D01*
X56588Y10059D01*
X56565Y10055D01*
X56544Y10049D01*
X56523Y10041D01*
X56503Y10031D01*
X56483Y10020D01*
X56464Y10007D01*
X56446Y9992D01*
X56429Y9975D01*
Y10325D01*
X56446Y10308D01*
D02*
G37*
G36*
X70941Y9325D02*
X70924Y9342D01*
X70906Y9356D01*
X70887Y9370D01*
X70867Y9381D01*
X70847Y9391D01*
X70826Y9399D01*
X70805Y9405D01*
X70782Y9409D01*
X70759Y9412D01*
X70736Y9413D01*
Y9587D01*
X70759Y9588D01*
X70782Y9591D01*
X70805Y9595D01*
X70826Y9601D01*
X70847Y9609D01*
X70867Y9619D01*
X70887Y9630D01*
X70906Y9644D01*
X70924Y9658D01*
X70941Y9675D01*
Y9325D01*
D02*
G37*
%LPC*%
G36*
X20540Y14444D02*
X20364Y14409D01*
X20216Y14309D01*
X20116Y14161D01*
X20081Y13985D01*
X20116Y13809D01*
X20216Y13661D01*
X20364Y13561D01*
X20540Y13526D01*
X20716Y13561D01*
X20864Y13661D01*
X20964Y13809D01*
X20999Y13985D01*
X20964Y14161D01*
X20864Y14309D01*
X20716Y14409D01*
X20540Y14444D01*
D02*
G37*
G36*
X2680Y15104D02*
X1620D01*
X1432Y15079D01*
X1257Y15006D01*
X1106Y14891D01*
X991Y14741D01*
X919Y14565D01*
X894Y14378D01*
Y13418D01*
X919Y13230D01*
X991Y13054D01*
X1106Y12904D01*
X1257Y12789D01*
X1432Y12716D01*
X1620Y12691D01*
X2680D01*
X2868Y12716D01*
X3043Y12789D01*
X3194Y12904D01*
X3309Y13054D01*
X3381Y13230D01*
X3406Y13418D01*
Y14378D01*
X3381Y14565D01*
X3309Y14741D01*
X3194Y14891D01*
X3043Y15006D01*
X2868Y15079D01*
X2680Y15104D01*
D02*
G37*
G36*
X5050Y13122D02*
X4808Y13074D01*
X4603Y12937D01*
X4466Y12732D01*
X4446Y12633D01*
X4385Y12607D01*
X4200Y12644D01*
X4015Y12607D01*
X3858Y12502D01*
X3753Y12345D01*
X3716Y12160D01*
X3753Y11975D01*
X3858Y11818D01*
X4015Y11713D01*
X4200Y11676D01*
X4385Y11713D01*
X4486Y11780D01*
X4603Y11833D01*
X4808Y11696D01*
X5050Y11648D01*
X5292Y11696D01*
X5497Y11833D01*
X5634Y12038D01*
X5682Y12280D01*
Y12490D01*
X5634Y12732D01*
X5497Y12937D01*
X5292Y13074D01*
X5050Y13122D01*
D02*
G37*
G36*
X3063Y9398D02*
X2604D01*
X2625Y9291D01*
X2757Y9092D01*
X2956Y8960D01*
X3063Y8939D01*
Y9398D01*
D02*
G37*
G36*
X2680Y7629D02*
X1620D01*
X1432Y7604D01*
X1257Y7531D01*
X1106Y7416D01*
X991Y7266D01*
X919Y7090D01*
X894Y6903D01*
Y5943D01*
X919Y5755D01*
X991Y5579D01*
X1106Y5429D01*
X1257Y5314D01*
X1432Y5241D01*
X1620Y5216D01*
X2680D01*
X2868Y5241D01*
X3043Y5314D01*
X3194Y5429D01*
X3309Y5579D01*
X3381Y5755D01*
X3406Y5943D01*
Y6903D01*
X3381Y7090D01*
X3309Y7266D01*
X3194Y7416D01*
X3043Y7531D01*
X2868Y7604D01*
X2680Y7629D01*
D02*
G37*
G36*
X17264Y10059D02*
X17088Y10024D01*
X16940Y9924D01*
X16840Y9776D01*
X16805Y9600D01*
X16840Y9424D01*
X16940Y9276D01*
X17088Y9176D01*
X17264Y9141D01*
X17440Y9176D01*
X17588Y9276D01*
X17688Y9424D01*
X17723Y9600D01*
X17688Y9776D01*
X17588Y9924D01*
X17440Y10024D01*
X17264Y10059D01*
D02*
G37*
%LPD*%
D14*
X42253Y11272D02*
X43750D01*
X42253Y11272D02*
X42253Y11272D01*
X42248Y12675D02*
X43750D01*
X42240Y12666D02*
X42248Y12675D01*
X40925Y6381D02*
X41366D01*
X41828Y5920D01*
X47829D02*
X50535Y8625D01*
X41828Y5920D02*
X47829D01*
X49523Y9150D02*
X51200D01*
X53450Y4801D02*
Y6900D01*
X51200Y9150D02*
X53450Y6900D01*
X39372Y6381D02*
X40175D01*
X38125Y6200D02*
X39190D01*
X39372Y6381D01*
X38126Y7771D02*
X39372D01*
X39726Y8126D01*
X40175D01*
X47723Y7350D02*
X49523Y9150D01*
X41482Y8126D02*
X42258Y7350D01*
X47723D01*
X55231Y4661D02*
X68575D01*
X53450Y4801D02*
X53903Y4349D01*
X52691D02*
X53340Y3700D01*
X69988Y3875D02*
X71120Y2743D01*
X54975Y3875D02*
X69988D01*
X50926Y8625D02*
X52691Y6859D01*
Y4349D02*
Y6859D01*
X50535Y8625D02*
X50926D01*
X40925Y8126D02*
X41482D01*
X40640Y17577D02*
X40747D01*
X51531Y14029D02*
X53037Y15534D01*
X51531Y14029D02*
X51531D01*
X51450Y14450D02*
X52975Y15975D01*
X53037Y15534D02*
X53713D01*
X52975Y15975D02*
X53903D01*
X54012Y15236D02*
X54087D01*
X53713Y15534D02*
X54012Y15236D01*
X9957Y17577D02*
X10160D01*
X7346Y14966D02*
X9957Y17577D01*
X16147Y3650D02*
X19220D01*
X15240Y2743D02*
X16147Y3650D01*
X19977Y15778D02*
X21860Y13895D01*
X15212Y15753D02*
X19977D01*
X21860Y12700D02*
Y13870D01*
X9100Y6562D02*
Y9065D01*
Y6562D02*
X9885Y5777D01*
X8639Y9525D02*
X9100Y9065D01*
X9473Y13086D02*
X12987Y16600D01*
X9473Y11248D02*
Y13086D01*
Y11248D02*
X14446Y6275D01*
X20890Y5900D02*
X21340Y6350D01*
X21860D01*
X21255Y7620D02*
X21860D01*
X20752Y7117D02*
X21255Y7620D01*
X20752Y6837D02*
Y7117D01*
X21860Y7610D02*
X21910D01*
X20115Y6200D02*
X20752Y6837D01*
X21405Y8890D02*
X21860D01*
X21343Y10160D02*
X21860D01*
X21008Y9825D02*
X21343Y10160D01*
X19715Y8654D02*
X20565Y9504D01*
X18943Y9175D02*
X19564D01*
X16965Y10575D02*
X19539D01*
X20215Y10575D02*
Y12317D01*
X20565Y9504D02*
Y12722D01*
X21015Y11435D02*
X21040D01*
X21860D01*
X19664Y10024D02*
X20215Y10575D01*
X21008Y9233D02*
Y9825D01*
X20565Y8790D02*
X21008Y9233D01*
X20215Y7700D02*
X21405Y8890D01*
X19715Y8200D02*
Y8654D01*
X19715Y7700D02*
X20215D01*
X17956Y5941D02*
X19715Y7700D01*
X12700Y2540D02*
Y3785D01*
X13140Y4225D01*
X18715Y4250D02*
X19490Y5025D01*
X20115Y6200D02*
X20415Y5900D01*
Y5269D02*
Y5900D01*
X19096Y3950D02*
X20415Y5269D01*
X19614Y12175D02*
X19714D01*
X13140Y4225D02*
X13915D01*
X20890Y5320D02*
Y5900D01*
X19220Y3650D02*
X20890Y5320D01*
X18165Y4550D02*
X19490Y5875D01*
Y6525D01*
X13915Y4225D02*
X14190Y3950D01*
X12340Y12950D02*
X13215Y12075D01*
X12340Y12950D02*
Y15275D01*
X13115Y16050D01*
X13490Y16400D02*
X13865D01*
X13290Y16600D02*
X13490Y16400D01*
X12987Y16600D02*
X13290D01*
X12700Y17780D02*
X13555Y16925D01*
X13772D01*
X13773Y16924D01*
X14041D01*
X15212Y15753D01*
X14506Y5784D02*
X15449D01*
X9690Y10150D02*
X14543Y5297D01*
X15990D01*
X10470Y8925D02*
X14845Y4550D01*
X11046Y7925D02*
X14721Y4250D01*
X19189Y10024D02*
X19664D01*
X19215Y13317D02*
X20215Y12317D01*
X15903Y6944D02*
X16713D01*
X16264Y7424D02*
X16589D01*
X18327Y13900D02*
X19387D01*
X20565Y12722D01*
X14165Y9975D02*
X16365D01*
X16665Y14775D02*
X17659D01*
X13058Y11507D02*
X13397D01*
X12260Y11880D02*
X14165Y9975D01*
X12051Y10796D02*
Y11325D01*
Y10796D02*
X15903Y6944D01*
X11881Y11880D02*
X12260D01*
X11376Y11375D02*
X11881Y11880D01*
X9715Y7925D02*
X11046D01*
X9715Y8925D02*
X10470D01*
X5730Y9525D02*
X8639D01*
X3835Y10150D02*
X9690D01*
X3190Y10795D02*
X3835Y10150D01*
X8515Y6050D02*
X10160Y4405D01*
Y2540D02*
Y4405D01*
X14446Y6275D02*
X15710D01*
X16044Y5941D01*
X12700Y17725D02*
Y17780D01*
X10825Y12475D02*
X12090D01*
X13058Y11507D01*
X8515Y6050D02*
Y7675D01*
X5575Y6400D02*
X6000Y6825D01*
X4460Y9525D02*
X5135Y8850D01*
X5500D01*
X6000Y8350D01*
Y6825D02*
Y8350D01*
X11925Y16950D02*
X12700Y17725D01*
X11918Y16950D02*
X11925D01*
X10425Y12075D02*
X10825Y12475D01*
X8725Y14525D02*
X9925Y15725D01*
X10693D01*
X11918Y16950D01*
X5730Y10795D02*
X6075Y10450D01*
X9840D01*
X14506Y5784D01*
X14190Y3950D02*
X19096D01*
X14721Y4250D02*
X18715D01*
X14845Y4550D02*
X18165D01*
X16044Y5941D02*
X17956D01*
X17400Y12973D02*
X18327Y13900D01*
X13397Y11507D02*
X16665Y14775D01*
X17431Y12175D02*
X19614D01*
X16365Y9975D02*
X16965Y10575D01*
X15115Y11775D02*
X17031D01*
X17431Y12175D01*
X16713Y6944D02*
X18943Y9175D01*
X16589Y7424D02*
X19189Y10024D01*
X7346Y11524D02*
X7870Y11000D01*
X7346Y11524D02*
Y14966D01*
D22*
X2150Y13898D02*
D03*
Y6423D02*
D03*
D23*
X5050Y7935D02*
D03*
Y12385D02*
D03*
D32*
X40175Y6381D02*
D03*
X40925D02*
D03*
X43750Y12675D02*
D03*
X44500D02*
D03*
Y11275D02*
D03*
X43750D02*
D03*
X40175Y8126D02*
D03*
X40925D02*
D03*
D51*
X21860Y7620D02*
D03*
Y6350D02*
D03*
Y8890D02*
D03*
Y10160D02*
D03*
Y11430D02*
D03*
Y12700D02*
D03*
D95*
X60964Y10410D02*
D03*
X35327Y8011D02*
D03*
X40888Y9120D02*
D03*
X38837Y8342D02*
D03*
X43657Y9107D02*
D03*
X49950Y7150D02*
D03*
X25475Y6750D02*
D03*
X27950D02*
D03*
X49530Y2921D02*
D03*
X44000Y6800D02*
D03*
X50818Y6607D02*
D03*
X73650Y15201D02*
D03*
X69850Y14640D02*
D03*
X72400D02*
D03*
X74900Y14750D02*
D03*
X76200Y15714D02*
D03*
X69988Y10474D02*
D03*
X46500Y6875D02*
D03*
X68575Y4661D02*
D03*
X55231D02*
D03*
X53903Y4349D02*
D03*
X53340Y3700D02*
D03*
X54975Y3875D02*
D03*
X50795Y8084D02*
D03*
X26877Y11978D02*
D03*
X39749D02*
D03*
X55375Y6875D02*
D03*
X49066Y8021D02*
D03*
X48225Y8650D02*
D03*
X44750Y8625D02*
D03*
X50724Y5173D02*
D03*
X64770Y2921D02*
D03*
X67310D02*
D03*
X43903Y10291D02*
D03*
X52638Y10680D02*
D03*
X57250Y13750D02*
D03*
X46704Y15263D02*
D03*
X48386Y15128D02*
D03*
Y15913D02*
D03*
X51875Y15750D02*
D03*
X49969Y12891D02*
D03*
X34315Y17452D02*
D03*
X53713Y10801D02*
D03*
X53000Y8330D02*
D03*
X45342Y10375D02*
D03*
X52416Y12574D02*
D03*
X51300Y13062D02*
D03*
X56003Y6025D02*
D03*
X31750Y17399D02*
D03*
X54087Y15236D02*
D03*
X53903Y15975D02*
D03*
X53234Y15059D02*
D03*
X46990Y17399D02*
D03*
X44450D02*
D03*
X50250Y15625D02*
D03*
X49530Y17399D02*
D03*
X39372Y17401D02*
D03*
X62228Y2919D02*
D03*
X22875Y14025D02*
D03*
X35997Y12248D02*
D03*
X56933Y9223D02*
D03*
X77475Y9800D02*
D03*
X72400Y6875D02*
D03*
X60960Y8594D02*
D03*
X56250Y10150D02*
D03*
X68575Y6875D02*
D03*
X71120Y9500D02*
D03*
X56125Y5375D02*
D03*
X75300Y8875D02*
D03*
X7879Y11959D02*
D03*
X21960Y15065D02*
D03*
X16000Y16475D02*
D03*
X24130Y8255D02*
D03*
Y10795D02*
D03*
X6596Y5560D02*
D03*
X19564Y9175D02*
D03*
X19539Y10575D02*
D03*
X21040Y11435D02*
D03*
X20565Y8790D02*
D03*
X19715Y8200D02*
D03*
X13970Y2921D02*
D03*
X16510Y17399D02*
D03*
X13115Y16050D02*
D03*
X21590Y17399D02*
D03*
X16264Y7424D02*
D03*
X2925Y8575D02*
D03*
X5575Y6400D02*
D03*
X13970Y17399D02*
D03*
X5080D02*
D03*
X6350Y2921D02*
D03*
X8890D02*
D03*
X1429Y11205D02*
D03*
Y10189D02*
D03*
Y9173D02*
D03*
Y4826D02*
D03*
Y15494D02*
D03*
Y12221D02*
D03*
Y8157D02*
D03*
X19050Y17399D02*
D03*
X21590Y2921D02*
D03*
X12051Y11325D02*
D03*
X13215Y12075D02*
D03*
X15115Y11775D02*
D03*
X15815Y10581D02*
D03*
X12115Y16475D02*
D03*
X18189Y12973D02*
D03*
X13540Y3725D02*
D03*
X15449Y5784D02*
D03*
X15990Y5297D02*
D03*
X17015Y5425D02*
D03*
X19050Y2921D02*
D03*
X19490Y11225D02*
D03*
X20115Y6200D02*
D03*
X19614Y12175D02*
D03*
X19490Y6525D02*
D03*
X19940Y5525D02*
D03*
X19490Y5025D02*
D03*
X19990Y9675D02*
D03*
X11430Y17399D02*
D03*
Y2921D02*
D03*
X9630Y16400D02*
D03*
X14373Y11284D02*
D03*
X17659Y14775D02*
D03*
Y13975D02*
D03*
X19215Y13317D02*
D03*
Y14775D02*
D03*
X13865Y16400D02*
D03*
X20215Y7700D02*
D03*
X11376Y11375D02*
D03*
X2825Y12238D02*
D03*
X21115Y12175D02*
D03*
X20540Y13985D02*
D03*
X9715Y7924D02*
D03*
Y8925D02*
D03*
X8890Y17399D02*
D03*
X4675Y5575D02*
D03*
X10810Y5777D02*
D03*
X9885D02*
D03*
X8515Y7675D02*
D03*
X7870Y11000D02*
D03*
X8088Y8400D02*
D03*
X6350Y17399D02*
D03*
X5080Y2921D02*
D03*
X10425Y12075D02*
D03*
X10675Y13250D02*
D03*
X8725Y14525D02*
D03*
X16510Y2921D02*
D03*
X17590Y5025D02*
D03*
X17540Y6450D02*
D03*
X17400Y12973D02*
D03*
X15940Y12650D02*
D03*
X17599Y11125D02*
D03*
X17264Y8900D02*
D03*
Y9600D02*
D03*
X17615Y7100D02*
D03*
X19890Y7125D02*
D03*
X13115Y15325D02*
D03*
X12965Y14225D02*
D03*
X13215Y12800D02*
D03*
X14365Y14225D02*
D03*
X26670Y2921D02*
D03*
X24130D02*
D03*
X26670Y17399D02*
D03*
X52070D02*
D03*
X36830D02*
D03*
X29210D02*
D03*
Y2921D02*
D03*
X31750D02*
D03*
X34290D02*
D03*
X36830D02*
D03*
X39370D02*
D03*
X47000Y2925D02*
D03*
X52070Y2921D02*
D03*
X41910Y17399D02*
D03*
Y2921D02*
D03*
X44450D02*
D03*
X57150D02*
D03*
X54610D02*
D03*
Y17399D02*
D03*
X72390D02*
D03*
X74221Y8350D02*
D03*
X82391Y11205D02*
D03*
Y10189D02*
D03*
Y9173D02*
D03*
Y5588D02*
D03*
Y4572D02*
D03*
Y15748D02*
D03*
Y14732D02*
D03*
X78740Y2921D02*
D03*
X77724Y17399D02*
D03*
X78740D02*
D03*
X74930Y2921D02*
D03*
Y17399D02*
D03*
X72390Y2921D02*
D03*
X69850D02*
D03*
X59690D02*
D03*
X67310Y17399D02*
D03*
X64770D02*
D03*
X62230D02*
D03*
X57150D02*
D03*
X59690D02*
D03*
X69850D02*
D03*
D104*
X28537Y9641D02*
X41057D01*
X34975Y10975D02*
X41442D01*
X42126Y10291D02*
X43903D01*
X41442Y10975D02*
X42126Y10291D01*
X33220Y10575D02*
X41277D01*
X42052Y9800D01*
X46250D01*
X22860Y10160D02*
X40998D01*
X43032Y8126D01*
X46676D01*
X41057Y9641D02*
X42998Y7700D01*
X47275D01*
X32365Y11430D02*
X33220Y10575D01*
X33240Y12710D02*
X34975Y10975D01*
X22860Y8890D02*
X27786D01*
X28537Y9641D01*
X44500Y12675D02*
X44775D01*
X40640Y2743D02*
X42233Y4336D01*
X50936D02*
X51427Y4827D01*
X42233Y4336D02*
X50936D01*
X40640Y2743D02*
X40640D01*
X51427Y4827D02*
Y5998D01*
X50818Y6607D02*
X51427Y5998D01*
X51014Y7100D02*
X51752Y6363D01*
Y4556D02*
Y6363D01*
X50589Y7100D02*
X51014D01*
X51084Y3889D02*
X51752Y4556D01*
X49689Y3889D02*
X51084D01*
X48489Y5000D02*
X50589Y7100D01*
X24210Y5000D02*
X48489D01*
X48275Y5475D02*
X49950Y7150D01*
X30250Y5475D02*
X48275D01*
X40272Y4675D02*
X50225D01*
X50724Y5173D02*
X50724D01*
X22860Y6350D02*
X24210Y5000D01*
X38100Y2503D02*
X40272Y4675D01*
X50225D02*
X50724Y5173D01*
X28105Y7620D02*
X30250Y5475D01*
X48260Y2460D02*
X49689Y3889D01*
X50795Y8084D02*
X52275Y6604D01*
X50800Y2743D02*
X52275Y4218D01*
Y6604D01*
X22950Y12710D02*
X33240D01*
X51656Y9619D02*
X52945Y8330D01*
X48169Y9619D02*
X51656D01*
X52945Y8330D02*
X53000D01*
X52106Y9944D02*
X54390Y7660D01*
X47794Y9944D02*
X52106D01*
X54390Y3790D02*
Y7660D01*
X53600Y11575D02*
X57261Y15236D01*
X73650D01*
X45350Y11575D02*
X53600D01*
X57188Y15688D02*
X76174D01*
X53450Y11950D02*
X57188Y15688D01*
X76174D02*
X76200Y15714D01*
X56250Y10150D02*
X58568D01*
X59218Y9500D02*
X71120D01*
X58568Y10150D02*
X59218Y9500D01*
X56125Y5375D02*
X70779D01*
X73660Y2337D02*
Y2493D01*
X70779Y5375D02*
X73660Y2493D01*
X53340Y2740D02*
X54390Y3790D01*
X50795Y8084D02*
X50795D01*
X22860Y11430D02*
X32365D01*
X53340Y2337D02*
Y2740D01*
X55375Y6875D02*
X68575D01*
X47275Y7700D02*
X48225Y8650D01*
X46250Y9800D02*
X47157Y10707D01*
X22860Y7620D02*
X28105D01*
X46676Y8126D02*
X48169Y9619D01*
X44750Y8625D02*
X46475D01*
X47794Y9944D01*
X47157Y10707D02*
X52610D01*
X52638Y10680D01*
X44500Y11275D02*
X45050D01*
X45350Y11575D01*
X44775Y12675D02*
X45500Y11950D01*
X53450D01*
X45167Y14025D02*
X46301Y12891D01*
X30666Y14025D02*
X45167D01*
X46301Y12891D02*
X49969D01*
X32912Y15144D02*
X45674D01*
X45809Y15469D02*
X46828Y14450D01*
X51450D01*
X46790Y14029D02*
X51531D01*
X31100Y14819D02*
X45540D01*
X46655Y13704D02*
X51878D01*
X30781Y14494D02*
X45405D01*
X45674Y15144D02*
X46790Y14029D01*
X45540Y14819D02*
X46655Y13704D01*
X45405Y14494D02*
X46520Y13379D01*
X50983D01*
X35608Y15469D02*
X45809D01*
X28741Y15950D02*
X30666Y14025D01*
X33094Y17983D02*
X35608Y15469D01*
X28625Y16650D02*
X30781Y14494D01*
X30480Y17577D02*
X32912Y15144D01*
X27982Y17938D02*
X31100Y14819D01*
X35560Y17577D02*
X37298Y15838D01*
X47675D02*
X48386Y15128D01*
X37298Y15838D02*
X47675D01*
X47952Y16791D02*
X49460D01*
X40747Y17470D02*
Y17577D01*
X38100Y17983D02*
X39920Y16163D01*
X47784D02*
X48087Y16466D01*
X39920Y16163D02*
X47784D01*
X40747Y17470D02*
X41728Y16488D01*
X47650D01*
X47952Y16791D01*
X48087Y16466D02*
X49325D01*
X50166Y15625D01*
X49460Y16791D02*
X49763Y16488D01*
X51137D01*
X50166Y15625D02*
X50250D01*
X51300Y13062D02*
X51300D01*
X50983Y13379D02*
X51300Y13062D01*
X51137Y16488D02*
X51875Y15750D01*
X24893Y15950D02*
X28741D01*
X26149Y16650D02*
X28625D01*
X51878Y13704D02*
X53234Y15059D01*
X33020Y17983D02*
X33094D01*
X27980Y17938D02*
X27982D01*
X72719Y6025D02*
X76200Y2544D01*
Y338D02*
Y2544D01*
X56003Y6025D02*
X72719D01*
X74936Y8243D01*
Y8511D01*
X75300Y8875D01*
X22860Y17983D02*
X24893Y15950D01*
X25400Y17399D02*
X26149Y16650D01*
X38100Y2337D02*
Y2503D01*
D109*
X22335Y7620D02*
D03*
Y6350D02*
D03*
Y8890D02*
D03*
Y10160D02*
D03*
Y11430D02*
D03*
Y12700D02*
D03*
D110*
X25400Y14402D02*
D03*
X27940D02*
D03*
X61548Y12617D02*
D03*
D111*
X38125Y6200D02*
D03*
X42240Y12666D02*
D03*
X42253Y11272D02*
D03*
X22860Y7620D02*
D03*
Y6350D02*
D03*
Y8890D02*
D03*
Y10160D02*
D03*
Y11430D02*
D03*
Y12700D02*
D03*
X38094Y7803D02*
D03*
D112*
X7620Y19202D02*
D03*
X22860D02*
D03*
X17780D02*
D03*
X27940D02*
D03*
X33020D02*
D03*
X38100D02*
D03*
X43180D02*
D03*
X48260D02*
D03*
X53340D02*
D03*
X58420D02*
D03*
X63500D02*
D03*
X68580D02*
D03*
X73660D02*
D03*
X7620Y1118D02*
D03*
X12700D02*
D03*
X17780D02*
D03*
X22860D02*
D03*
X27940D02*
D03*
X33020D02*
D03*
X38100D02*
D03*
X43180D02*
D03*
X48260D02*
D03*
X53340D02*
D03*
X58420D02*
D03*
X63500D02*
D03*
X68580D02*
D03*
X73660D02*
D03*
X12700Y19202D02*
D03*
D113*
X7620Y17983D02*
D03*
X15240Y17577D02*
D03*
X76200Y2743D02*
D03*
X10160D02*
D03*
X7620Y2337D02*
D03*
X20320Y17577D02*
D03*
X22860Y17983D02*
D03*
X17780D02*
D03*
X25400Y17577D02*
D03*
X27940Y17983D02*
D03*
X30480Y17577D02*
D03*
X33020Y17983D02*
D03*
X35560Y17577D02*
D03*
X38100Y17983D02*
D03*
X40640Y17577D02*
D03*
X43180Y17983D02*
D03*
X45720Y17577D02*
D03*
X48260Y17983D02*
D03*
X50800Y17577D02*
D03*
X53340Y17983D02*
D03*
X55880Y17577D02*
D03*
X58420Y17983D02*
D03*
X60960Y17577D02*
D03*
X63500Y17983D02*
D03*
X66040Y17577D02*
D03*
X68580Y17983D02*
D03*
X71120Y17577D02*
D03*
X73660Y17983D02*
D03*
X76200Y17577D02*
D03*
X12700Y2337D02*
D03*
X15240Y2743D02*
D03*
X17780Y2337D02*
D03*
X20320Y2743D02*
D03*
X22860Y2337D02*
D03*
X25400Y2743D02*
D03*
X27940Y2337D02*
D03*
X30480Y2743D02*
D03*
X33020Y2337D02*
D03*
X35560Y2743D02*
D03*
X38100Y2337D02*
D03*
X40640Y2743D02*
D03*
X43180Y2337D02*
D03*
X45720Y2743D02*
D03*
X48260Y2337D02*
D03*
X50800Y2743D02*
D03*
X53340Y2337D02*
D03*
X55880Y2743D02*
D03*
X58420Y2337D02*
D03*
X60960Y2743D02*
D03*
X63500Y2337D02*
D03*
X71120Y2743D02*
D03*
X68580Y2337D02*
D03*
X66040Y2743D02*
D03*
X73660Y2337D02*
D03*
X12700Y17983D02*
D03*
X10160Y17577D02*
D03*
D114*
X15240Y18999D02*
D03*
X76200Y1321D02*
D03*
X20320Y18999D02*
D03*
X25400D02*
D03*
X30480D02*
D03*
X35560D02*
D03*
X40640D02*
D03*
X45720D02*
D03*
X50800D02*
D03*
X55880D02*
D03*
X60960D02*
D03*
X66040D02*
D03*
X71120D02*
D03*
X76200D02*
D03*
X10160Y1321D02*
D03*
X15240D02*
D03*
X20320D02*
D03*
X25400D02*
D03*
X30480D02*
D03*
X35560D02*
D03*
X40640D02*
D03*
X45720D02*
D03*
X50800D02*
D03*
X55880D02*
D03*
X60960D02*
D03*
X71120D02*
D03*
X66040D02*
D03*
X10160Y18999D02*
D03*
D115*
X59008Y12617D02*
D03*
D116*
X2540Y2540D02*
D03*
Y17780D02*
D03*
D128*
X3190Y10795D02*
D03*
Y9525D02*
D03*
X4460Y10795D02*
D03*
Y9525D02*
D03*
X5730Y10795D02*
D03*
Y9525D02*
D03*
D129*
X10810Y5777D02*
D03*
X10810Y7047D02*
D03*
M02*
