G04*
G04 #@! TF.GenerationSoftware,Altium Limited,Altium Designer,20.1.11 (218)*
G04*
G04 Layer_Color=32896*
%FSLAX43Y43*%
%MOMM*%
G71*
G04*
G04 #@! TF.SameCoordinates,BD5628E5-7E1B-49FB-A763-C87F1538D8A8*
G04*
G04*
G04 #@! TF.FilePolarity,Positive*
G04*
G01*
G75*
%ADD10C,0.254*%
%ADD14C,0.150*%
%ADD15C,0.200*%
%ADD16C,0.153*%
%ADD18C,0.125*%
%ADD104C,0.175*%
%ADD135C,0.120*%
G36*
X65290Y7724D02*
X51790D01*
Y9609D01*
X65290D01*
Y7724D01*
D02*
G37*
G36*
X57109Y12652D02*
X57371D01*
Y12542D01*
X57109D01*
Y12278D01*
X56998D01*
Y12542D01*
X56737D01*
Y12652D01*
X56998D01*
Y12913D01*
X57109D01*
Y12652D01*
D02*
G37*
G36*
X32149Y14530D02*
X32273Y14523D01*
X32393Y14510D01*
X32509Y14493D01*
X32622Y14473D01*
X32732Y14447D01*
X32842Y14420D01*
X32946Y14390D01*
X33149Y14320D01*
X33242Y14280D01*
X33336Y14240D01*
X33426Y14200D01*
X33509Y14157D01*
X33592Y14113D01*
X33669Y14073D01*
X33742Y14030D01*
X33812Y13987D01*
X33879Y13943D01*
X33939Y13903D01*
X33995Y13864D01*
X34049Y13824D01*
X34095Y13787D01*
X34139Y13754D01*
X34179Y13724D01*
X34212Y13697D01*
X34242Y13670D01*
X34265Y13650D01*
X34285Y13634D01*
X34299Y13620D01*
X34305Y13614D01*
X34309Y13610D01*
X34395Y13524D01*
X34472Y13440D01*
X34545Y13357D01*
X34615Y13274D01*
X34679Y13197D01*
X34735Y13117D01*
X34789Y13044D01*
X34839Y12970D01*
X34882Y12897D01*
X34922Y12830D01*
X34959Y12764D01*
X34992Y12697D01*
X35022Y12637D01*
X35045Y12577D01*
X35089Y12467D01*
X35119Y12367D01*
X35139Y12277D01*
X35152Y12201D01*
X35162Y12137D01*
Y12111D01*
X35165Y12087D01*
Y12067D01*
Y12051D01*
X35162Y12037D01*
Y12027D01*
Y12024D01*
Y12021D01*
X35825D01*
X34725Y10671D01*
X33629Y12021D01*
X34165D01*
X34179Y12047D01*
X34185Y12081D01*
X34189Y12111D01*
Y12144D01*
X34185Y12181D01*
X34179Y12217D01*
X34152Y12291D01*
X34119Y12367D01*
X34072Y12447D01*
X34022Y12527D01*
X33969Y12604D01*
X33912Y12677D01*
X33856Y12744D01*
X33802Y12807D01*
X33756Y12860D01*
X33712Y12904D01*
X33682Y12937D01*
X33669Y12950D01*
X33659Y12960D01*
X33656Y12964D01*
X33652Y12967D01*
X33589Y13027D01*
X33522Y13084D01*
X33456Y13137D01*
X33389Y13184D01*
X33322Y13230D01*
X33252Y13274D01*
X33116Y13350D01*
X32979Y13414D01*
X32842Y13467D01*
X32712Y13510D01*
X32589Y13544D01*
X32473Y13570D01*
X32363Y13594D01*
X32269Y13607D01*
X32226Y13614D01*
X32186Y13617D01*
X32149Y13620D01*
X32119Y13624D01*
X32093D01*
X32069Y13627D01*
X32026D01*
X31886Y13624D01*
X31749Y13607D01*
X31619Y13587D01*
X31493Y13557D01*
X31373Y13524D01*
X31263Y13487D01*
X31156Y13447D01*
X31060Y13404D01*
X30970Y13364D01*
X30890Y13320D01*
X30823Y13284D01*
X30763Y13250D01*
X30720Y13220D01*
X30683Y13200D01*
X30673Y13190D01*
X30663Y13187D01*
X30660Y13180D01*
X30656D01*
X30550Y13097D01*
X30450Y13007D01*
X30356Y12914D01*
X30276Y12817D01*
X30200Y12724D01*
X30133Y12630D01*
X30073Y12537D01*
X30020Y12447D01*
X29976Y12364D01*
X29937Y12287D01*
X29907Y12221D01*
X29880Y12161D01*
X29860Y12111D01*
X29853Y12091D01*
X29847Y12074D01*
X29843Y12061D01*
X29840Y12051D01*
X29837Y12047D01*
Y12044D01*
X29807Y12074D01*
X29770Y12107D01*
X29730Y12147D01*
X29687Y12191D01*
X29593Y12281D01*
X29500Y12371D01*
X29453Y12414D01*
X29413Y12457D01*
X29373Y12494D01*
X29340Y12527D01*
X29313Y12554D01*
X29290Y12577D01*
X29277Y12590D01*
X29273Y12594D01*
X29160Y12497D01*
X29107Y12454D01*
X29060Y12411D01*
X29017Y12374D01*
X28983Y12344D01*
X28973Y12334D01*
X28963Y12324D01*
X28960Y12321D01*
X28957Y12317D01*
X29020Y12497D01*
X29093Y12667D01*
X29177Y12827D01*
X29267Y12977D01*
X29360Y13117D01*
X29457Y13247D01*
X29553Y13367D01*
X29647Y13477D01*
X29737Y13574D01*
X29823Y13660D01*
X29900Y13734D01*
X29966Y13794D01*
X29996Y13820D01*
X30023Y13840D01*
X30046Y13860D01*
X30066Y13877D01*
X30083Y13887D01*
X30093Y13897D01*
X30100Y13900D01*
X30103Y13903D01*
X30183Y13960D01*
X30266Y14013D01*
X30350Y14063D01*
X30433Y14110D01*
X30600Y14197D01*
X30766Y14267D01*
X30930Y14330D01*
X31090Y14380D01*
X31243Y14420D01*
X31386Y14453D01*
X31523Y14480D01*
X31586Y14490D01*
X31643Y14500D01*
X31699Y14507D01*
X31753Y14513D01*
X31803Y14520D01*
X31846Y14523D01*
X31886Y14527D01*
X31923Y14530D01*
X31953D01*
X31979Y14533D01*
X32026D01*
X32149Y14530D01*
D02*
G37*
G36*
X32203Y12850D02*
X32246Y12847D01*
X32303Y12840D01*
X32366Y12830D01*
X32436Y12814D01*
X32516Y12797D01*
X32599Y12770D01*
X32686Y12740D01*
X32779Y12704D01*
X32869Y12660D01*
X32962Y12607D01*
X33056Y12547D01*
X33146Y12474D01*
X33232Y12394D01*
X33239Y12387D01*
X33252Y12374D01*
X33276Y12347D01*
X33302Y12311D01*
X33339Y12267D01*
X33376Y12214D01*
X33419Y12151D01*
X33459Y12084D01*
X33502Y12004D01*
X33546Y11921D01*
X33582Y11827D01*
X33619Y11731D01*
X33646Y11627D01*
X33669Y11517D01*
X33682Y11401D01*
X33689Y11281D01*
Y11278D01*
Y11274D01*
Y11264D01*
Y11251D01*
X33686Y11218D01*
X33682Y11171D01*
X33676Y11118D01*
X33666Y11051D01*
X33649Y10978D01*
X33632Y10898D01*
X33609Y10814D01*
X33579Y10724D01*
X33539Y10631D01*
X33496Y10538D01*
X33442Y10441D01*
X33382Y10348D01*
X33312Y10258D01*
X33232Y10168D01*
X33226Y10161D01*
X33212Y10148D01*
X33186Y10124D01*
X33152Y10094D01*
X33109Y10061D01*
X33056Y10021D01*
X32996Y9981D01*
X32926Y9938D01*
X32849Y9895D01*
X32766Y9855D01*
X32676Y9815D01*
X32579Y9781D01*
X32479Y9751D01*
X32369Y9728D01*
X32256Y9715D01*
X32139Y9708D01*
X32116D01*
X32086Y9711D01*
X32046Y9715D01*
X31999Y9718D01*
X31943Y9728D01*
X31879Y9738D01*
X31809Y9751D01*
X31736Y9771D01*
X31659Y9795D01*
X31579Y9821D01*
X31496Y9858D01*
X31413Y9898D01*
X31329Y9945D01*
X31246Y9998D01*
X31166Y10061D01*
X31163Y10064D01*
X31146Y10078D01*
X31126Y10098D01*
X31100Y10124D01*
X31063Y10158D01*
X31026Y10198D01*
X30983Y10248D01*
X30940Y10301D01*
X30896Y10361D01*
X30850Y10428D01*
X30803Y10501D01*
X30760Y10578D01*
X30720Y10661D01*
X30686Y10751D01*
X30653Y10844D01*
X30630Y10941D01*
X30746D01*
Y10938D01*
X30753Y10924D01*
X30760Y10904D01*
X30770Y10878D01*
X30783Y10844D01*
X30800Y10804D01*
X30820Y10761D01*
X30843Y10714D01*
X30873Y10664D01*
X30903Y10614D01*
X30940Y10561D01*
X30980Y10508D01*
X31023Y10454D01*
X31070Y10401D01*
X31123Y10351D01*
X31180Y10301D01*
X31183Y10298D01*
X31196Y10291D01*
X31213Y10278D01*
X31240Y10261D01*
X31270Y10241D01*
X31306Y10221D01*
X31349Y10198D01*
X31399Y10174D01*
X31453Y10148D01*
X31509Y10124D01*
X31573Y10104D01*
X31636Y10084D01*
X31706Y10068D01*
X31779Y10054D01*
X31853Y10048D01*
X31929Y10044D01*
X31949D01*
X31976Y10048D01*
X32009Y10051D01*
X32049Y10054D01*
X32099Y10061D01*
X32153Y10071D01*
X32213Y10088D01*
X32276Y10104D01*
X32343Y10128D01*
X32409Y10154D01*
X32479Y10188D01*
X32553Y10224D01*
X32622Y10271D01*
X32692Y10321D01*
X32759Y10381D01*
X32762Y10384D01*
X32776Y10398D01*
X32792Y10414D01*
X32816Y10441D01*
X32842Y10471D01*
X32872Y10511D01*
X32906Y10554D01*
X32942Y10608D01*
X32976Y10661D01*
X33012Y10724D01*
X33046Y10791D01*
X33076Y10861D01*
X33102Y10938D01*
X33126Y11018D01*
X33142Y11104D01*
X33156Y11191D01*
X30593D01*
Y11194D01*
Y11201D01*
X30590Y11221D01*
Y11251D01*
Y11281D01*
Y11284D01*
Y11288D01*
Y11297D01*
Y11311D01*
X30593Y11344D01*
X30596Y11391D01*
X30603Y11447D01*
X30613Y11511D01*
X30626Y11584D01*
X30646Y11664D01*
X30670Y11751D01*
X30700Y11841D01*
X30736Y11931D01*
X30783Y12027D01*
X30833Y12121D01*
X30896Y12214D01*
X30966Y12307D01*
X31046Y12394D01*
X31053Y12401D01*
X31066Y12414D01*
X31093Y12437D01*
X31126Y12467D01*
X31170Y12501D01*
X31223Y12541D01*
X31283Y12580D01*
X31353Y12624D01*
X31429Y12667D01*
X31513Y12707D01*
X31603Y12747D01*
X31699Y12780D01*
X31799Y12810D01*
X31909Y12834D01*
X32023Y12847D01*
X32139Y12854D01*
X32166D01*
X32203Y12850D01*
D02*
G37*
G36*
X30373Y11188D02*
X29813D01*
X29803Y11141D01*
X29797Y11098D01*
Y11048D01*
X29800Y11001D01*
X29803Y10951D01*
X29813Y10904D01*
X29843Y10804D01*
X29883Y10704D01*
X29930Y10608D01*
X29980Y10514D01*
X30036Y10424D01*
X30096Y10341D01*
X30153Y10264D01*
X30210Y10194D01*
X30260Y10138D01*
X30300Y10088D01*
X30320Y10068D01*
X30333Y10051D01*
X30346Y10038D01*
X30356Y10028D01*
X30360Y10024D01*
X30363Y10021D01*
X30430Y9958D01*
X30496Y9901D01*
X30563Y9848D01*
X30633Y9795D01*
X30700Y9748D01*
X30770Y9705D01*
X30913Y9628D01*
X31053Y9561D01*
X31190Y9505D01*
X31323Y9461D01*
X31449Y9425D01*
X31569Y9395D01*
X31679Y9375D01*
X31729Y9365D01*
X31776Y9358D01*
X31819Y9355D01*
X31859Y9348D01*
X31896Y9345D01*
X31929Y9341D01*
X31956D01*
X31979Y9338D01*
X32023D01*
X32166Y9345D01*
X32306Y9358D01*
X32443Y9381D01*
X32569Y9411D01*
X32692Y9445D01*
X32809Y9485D01*
X32916Y9528D01*
X33016Y9571D01*
X33106Y9611D01*
X33186Y9655D01*
X33256Y9695D01*
X33312Y9728D01*
X33359Y9758D01*
X33396Y9781D01*
X33406Y9791D01*
X33416Y9795D01*
X33419Y9801D01*
X33422D01*
X33532Y9891D01*
X33636Y9984D01*
X33729Y10081D01*
X33816Y10178D01*
X33892Y10278D01*
X33959Y10378D01*
X34022Y10474D01*
X34075Y10564D01*
X34122Y10651D01*
X34162Y10734D01*
X34195Y10804D01*
X34219Y10868D01*
X34239Y10918D01*
X34249Y10938D01*
X34255Y10954D01*
X34259Y10971D01*
X34262Y10981D01*
X34265Y10984D01*
Y10988D01*
X34295Y10958D01*
X34335Y10921D01*
X34375Y10881D01*
X34419Y10838D01*
X34515Y10741D01*
X34612Y10648D01*
X34655Y10601D01*
X34699Y10558D01*
X34739Y10518D01*
X34772Y10484D01*
X34802Y10454D01*
X34822Y10434D01*
X34839Y10418D01*
X34842Y10414D01*
X34959Y10514D01*
X35015Y10561D01*
X35065Y10604D01*
X35109Y10644D01*
X35142Y10674D01*
X35155Y10684D01*
X35165Y10694D01*
X35168Y10698D01*
X35172Y10701D01*
X35105Y10514D01*
X35029Y10338D01*
X34945Y10171D01*
X34852Y10014D01*
X34759Y9868D01*
X34659Y9731D01*
X34562Y9608D01*
X34462Y9495D01*
X34372Y9391D01*
X34282Y9301D01*
X34205Y9225D01*
X34169Y9191D01*
X34135Y9161D01*
X34102Y9135D01*
X34075Y9111D01*
X34052Y9091D01*
X34032Y9075D01*
X34015Y9061D01*
X34005Y9051D01*
X33999Y9048D01*
X33995Y9045D01*
X33912Y8985D01*
X33829Y8928D01*
X33742Y8878D01*
X33659Y8828D01*
X33572Y8781D01*
X33486Y8741D01*
X33316Y8665D01*
X33149Y8602D01*
X32986Y8548D01*
X32829Y8505D01*
X32679Y8472D01*
X32539Y8445D01*
X32476Y8432D01*
X32416Y8422D01*
X32356Y8415D01*
X32303Y8408D01*
X32253Y8402D01*
X32206Y8398D01*
X32166Y8395D01*
X32129Y8392D01*
X32096D01*
X32073Y8388D01*
X32023D01*
X31896Y8392D01*
X31773Y8398D01*
X31649Y8412D01*
X31533Y8428D01*
X31416Y8452D01*
X31303Y8478D01*
X31190Y8508D01*
X31083Y8538D01*
X30980Y8575D01*
X30880Y8612D01*
X30780Y8652D01*
X30686Y8695D01*
X30596Y8738D01*
X30510Y8781D01*
X30426Y8825D01*
X30346Y8871D01*
X30273Y8918D01*
X30200Y8961D01*
X30133Y9005D01*
X30070Y9048D01*
X30013Y9091D01*
X29960Y9131D01*
X29910Y9168D01*
X29867Y9205D01*
X29827Y9235D01*
X29790Y9265D01*
X29763Y9291D01*
X29737Y9315D01*
X29717Y9331D01*
X29703Y9345D01*
X29697Y9351D01*
X29693Y9355D01*
X29607Y9445D01*
X29523Y9535D01*
X29447Y9625D01*
X29377Y9711D01*
X29310Y9798D01*
X29247Y9881D01*
X29190Y9968D01*
X29137Y10048D01*
X29087Y10128D01*
X29043Y10208D01*
X29003Y10284D01*
X28967Y10358D01*
X28930Y10431D01*
X28900Y10501D01*
X28850Y10634D01*
X28810Y10754D01*
X28793Y10811D01*
X28780Y10861D01*
X28770Y10911D01*
X28760Y10958D01*
X28750Y10998D01*
X28743Y11038D01*
X28740Y11071D01*
X28737Y11101D01*
X28733Y11128D01*
Y11148D01*
X28730Y11164D01*
Y11178D01*
Y11184D01*
Y11188D01*
X28050Y11188D01*
X29210Y12347D01*
X30373Y11188D01*
D02*
G37*
G36*
X13865Y15587D02*
X14046Y15564D01*
X14211Y15530D01*
X14284Y15513D01*
X14352Y15496D01*
X14415Y15474D01*
X14471Y15457D01*
X14522Y15440D01*
X14562Y15428D01*
X14596Y15411D01*
X14619Y15406D01*
X14636Y15394D01*
X14641D01*
X14806Y15315D01*
X14953Y15224D01*
X15089Y15139D01*
X15208Y15049D01*
X15259Y15009D01*
X15304Y14975D01*
X15338Y14941D01*
X15372Y14913D01*
X15401Y14890D01*
X15418Y14873D01*
X15429Y14862D01*
X15435Y14856D01*
X15554Y14726D01*
X15661Y14590D01*
X15752Y14454D01*
X15826Y14335D01*
X15888Y14227D01*
X15911Y14176D01*
X15933Y14136D01*
X15945Y14108D01*
X15956Y14085D01*
X15967Y14068D01*
Y14063D01*
X16030Y13893D01*
X16075Y13723D01*
X16109Y13558D01*
X16132Y13411D01*
X16137Y13343D01*
X16143Y13286D01*
X16149Y13230D01*
Y13184D01*
X16154Y13150D01*
Y13122D01*
Y13105D01*
Y13099D01*
X16149Y12912D01*
X16126Y12731D01*
X16098Y12567D01*
X16081Y12493D01*
X16058Y12419D01*
X16041Y12357D01*
X16024Y12300D01*
X16013Y12249D01*
X15996Y12210D01*
X15984Y12176D01*
X15973Y12153D01*
X15967Y12136D01*
Y12130D01*
X15888Y11966D01*
X15803Y11813D01*
X15712Y11677D01*
X15627Y11564D01*
X15588Y11513D01*
X15554Y11467D01*
X15520Y11428D01*
X15491Y11394D01*
X15469Y11365D01*
X15452Y11348D01*
X15440Y11337D01*
X15435Y11331D01*
X15299Y11207D01*
X15163Y11099D01*
X15032Y11008D01*
X14908Y10935D01*
X14800Y10872D01*
X14755Y10850D01*
X14715Y10827D01*
X14687Y10816D01*
X14658Y10804D01*
X14647Y10793D01*
X14641D01*
X14471Y10731D01*
X14301Y10685D01*
X14137Y10651D01*
X13990Y10629D01*
X13922Y10623D01*
X13859Y10617D01*
X13808Y10612D01*
X13763D01*
X13723Y10606D01*
X13621D01*
X13582Y10612D01*
X13491D01*
X13451Y10617D01*
X13417D01*
Y11382D01*
X13508Y11365D01*
X13548Y11360D01*
X13582D01*
X13610Y11354D01*
X13650D01*
X13786Y11360D01*
X13910Y11377D01*
X14029Y11399D01*
X14131Y11422D01*
X14216Y11445D01*
X14250Y11456D01*
X14279Y11467D01*
X14301Y11479D01*
X14318Y11484D01*
X14330Y11490D01*
X14335D01*
X14449Y11547D01*
X14551Y11603D01*
X14647Y11666D01*
X14726Y11728D01*
X14789Y11779D01*
X14840Y11819D01*
X14868Y11847D01*
X14879Y11858D01*
X14964Y11949D01*
X15032Y12045D01*
X15100Y12136D01*
X15151Y12227D01*
X15191Y12300D01*
X15225Y12363D01*
X15231Y12385D01*
X15242Y12402D01*
X15248Y12408D01*
Y12414D01*
X15293Y12533D01*
X15321Y12652D01*
X15344Y12765D01*
X15361Y12873D01*
X15372Y12958D01*
Y12997D01*
X15378Y13026D01*
Y13054D01*
Y13071D01*
Y13082D01*
Y13088D01*
X15372Y13224D01*
X15355Y13349D01*
X15338Y13462D01*
X15310Y13564D01*
X15287Y13643D01*
X15276Y13677D01*
X15270Y13706D01*
X15259Y13734D01*
X15253Y13751D01*
X15248Y13757D01*
Y13762D01*
X15191Y13876D01*
X15134Y13983D01*
X15072Y14080D01*
X15010Y14159D01*
X14959Y14227D01*
X14919Y14278D01*
X14891Y14306D01*
X14879Y14318D01*
X14789Y14403D01*
X14698Y14476D01*
X14602Y14539D01*
X14517Y14595D01*
X14443Y14635D01*
X14381Y14669D01*
X14358Y14680D01*
X14341Y14686D01*
X14335Y14692D01*
X14330D01*
X14205Y14737D01*
X14086Y14771D01*
X13973Y14794D01*
X13871Y14811D01*
X13780Y14822D01*
X13740D01*
X13712Y14828D01*
X13485D01*
X13451Y14822D01*
X13429Y14816D01*
X13417Y14811D01*
Y15570D01*
X13463Y15576D01*
X13508D01*
X13536Y15581D01*
X13548D01*
X13599Y15587D01*
X13638Y15593D01*
X13678D01*
X13865Y15587D01*
D02*
G37*
G36*
X9638Y15576D02*
X9819Y15553D01*
X9983Y15519D01*
X10057Y15502D01*
X10125Y15485D01*
X10193Y15468D01*
X10250Y15451D01*
X10301Y15434D01*
X10340Y15417D01*
X10374Y15406D01*
X10397Y15394D01*
X10414Y15389D01*
X10420D01*
X10584Y15309D01*
X10737Y15224D01*
X10867Y15134D01*
X10986Y15049D01*
X11037Y15009D01*
X11083Y14969D01*
X11122Y14935D01*
X11151Y14907D01*
X11179Y14884D01*
X11196Y14867D01*
X11207Y14856D01*
X11213Y14850D01*
X11332Y14720D01*
X11440Y14584D01*
X11530Y14448D01*
X11610Y14329D01*
X11666Y14221D01*
X11695Y14170D01*
X11712Y14131D01*
X11729Y14102D01*
X11740Y14080D01*
X11751Y14063D01*
Y14057D01*
X11819Y13887D01*
X11865Y13717D01*
X11899Y13553D01*
X11927Y13405D01*
X11933Y13337D01*
X11938Y13281D01*
X11944Y13224D01*
Y13179D01*
X11950Y13145D01*
Y13116D01*
Y13099D01*
Y13094D01*
X11944Y12907D01*
X11921Y12725D01*
X11887Y12561D01*
X11870Y12487D01*
X11853Y12414D01*
X11836Y12351D01*
X11819Y12295D01*
X11802Y12244D01*
X11785Y12204D01*
X11774Y12170D01*
X11763Y12147D01*
X11757Y12130D01*
Y12125D01*
X11678Y11960D01*
X11593Y11807D01*
X11508Y11671D01*
X11423Y11558D01*
X11383Y11507D01*
X11349Y11462D01*
X11315Y11422D01*
X11292Y11388D01*
X11270Y11360D01*
X11253Y11343D01*
X11241Y11331D01*
X11236Y11326D01*
X11105Y11207D01*
X10969Y11099D01*
X10839Y11008D01*
X10714Y10929D01*
X10607Y10867D01*
X10561Y10844D01*
X10522Y10821D01*
X10493Y10810D01*
X10471Y10799D01*
X10454Y10787D01*
X10448D01*
X10272Y10725D01*
X10102Y10674D01*
X9932Y10640D01*
X9785Y10617D01*
X9717Y10612D01*
X9655Y10606D01*
X9598Y10600D01*
X9553D01*
X9513Y10595D01*
X9417D01*
X9371Y10600D01*
X9337Y10606D01*
X9326D01*
X9275Y10612D01*
X9230D01*
X9201Y10617D01*
X9190D01*
Y11382D01*
X9281Y11365D01*
X9320Y11360D01*
X9360D01*
X9388Y11354D01*
X9428D01*
X9541Y11360D01*
X9655Y11371D01*
X9751Y11382D01*
X9842Y11405D01*
X9915Y11422D01*
X9972Y11433D01*
X9995Y11439D01*
X10012Y11445D01*
X10017Y11450D01*
X10023D01*
X10125Y11490D01*
X10221Y11535D01*
X10306Y11586D01*
X10386Y11632D01*
X10448Y11671D01*
X10493Y11705D01*
X10522Y11728D01*
X10533Y11734D01*
X10612Y11802D01*
X10686Y11875D01*
X10748Y11949D01*
X10805Y12017D01*
X10850Y12074D01*
X10884Y12119D01*
X10907Y12147D01*
X10913Y12159D01*
X10969Y12255D01*
X11015Y12351D01*
X11049Y12442D01*
X11077Y12527D01*
X11100Y12601D01*
X11117Y12657D01*
X11122Y12680D01*
Y12697D01*
X11128Y12703D01*
Y12708D01*
X9689Y12714D01*
Y13468D01*
X11122D01*
X11094Y13575D01*
X11060Y13672D01*
X11020Y13768D01*
X10986Y13847D01*
X10952Y13910D01*
X10924Y13961D01*
X10907Y13995D01*
X10901Y14006D01*
X10839Y14097D01*
X10777Y14176D01*
X10709Y14250D01*
X10652Y14318D01*
X10601Y14369D01*
X10556Y14403D01*
X10533Y14431D01*
X10522Y14437D01*
X10437Y14505D01*
X10352Y14561D01*
X10267Y14612D01*
X10187Y14652D01*
X10125Y14686D01*
X10068Y14709D01*
X10034Y14720D01*
X10029Y14726D01*
X10023D01*
X9915Y14760D01*
X9808Y14782D01*
X9711Y14805D01*
X9621Y14816D01*
X9541Y14822D01*
X9479Y14828D01*
X9383D01*
X9337Y14822D01*
X9309Y14816D01*
X9303Y14811D01*
X9298D01*
X9252Y14799D01*
X9213Y14794D01*
X9190Y14788D01*
X9179Y14782D01*
X9173Y15570D01*
X9224Y15576D01*
X9315D01*
X9366Y15581D01*
X9445D01*
X9638Y15576D01*
D02*
G37*
G36*
X14776Y10243D02*
X13862Y9256D01*
X13771Y8090D01*
X14746Y7096D01*
X14689Y7050D01*
X13763Y7995D01*
X13744Y7778D01*
X13740Y7717D01*
X13736Y7690D01*
Y7663D01*
Y7644D01*
Y7629D01*
Y7622D01*
Y7618D01*
Y7595D01*
X13732Y7576D01*
Y7561D01*
X13729Y7549D01*
X13725Y7542D01*
Y7538D01*
X13721Y7522D01*
X13717Y7507D01*
X13713Y7503D01*
X13710Y7500D01*
X13698Y7492D01*
X13694Y7488D01*
X13691D01*
Y7366D01*
X13531D01*
Y7488D01*
X12879D01*
X12849Y7446D01*
X12814Y7416D01*
X12776Y7393D01*
X12738Y7378D01*
X12708Y7370D01*
X12681Y7366D01*
X12662Y7362D01*
X12654D01*
X12616Y7366D01*
X12578Y7374D01*
X12548Y7385D01*
X12521Y7401D01*
X12498Y7412D01*
X12483Y7423D01*
X12471Y7431D01*
X12468Y7435D01*
X12441Y7465D01*
X12422Y7496D01*
X12407Y7530D01*
X12399Y7561D01*
X12391Y7583D01*
X12388Y7606D01*
Y7622D01*
Y7625D01*
Y7656D01*
X11816Y7039D01*
X11751Y7088D01*
X12593Y7999D01*
X12479Y9199D01*
X12258D01*
Y9519D01*
X12269D01*
X11568Y10235D01*
Y10349D01*
X12384Y9519D01*
X12452D01*
X12441Y9675D01*
X12418Y9664D01*
X12399Y9660D01*
X12384Y9656D01*
X12380D01*
X12342Y9660D01*
X12315Y9675D01*
X12296Y9687D01*
X12288Y9690D01*
X12266Y9721D01*
X12254Y9747D01*
X12250Y9770D01*
Y9774D01*
Y9778D01*
Y9797D01*
X12258Y9812D01*
X12269Y9839D01*
X12285Y9858D01*
X12288Y9866D01*
X12292D01*
X12323Y9888D01*
X12349Y9900D01*
X12372Y9904D01*
X12380D01*
X12403Y9900D01*
X12422Y9892D01*
X12452Y9873D01*
X12471Y9854D01*
X12479Y9850D01*
Y9847D01*
X12498Y9866D01*
X12517Y9885D01*
X12563Y9915D01*
X12582Y9930D01*
X12601Y9942D01*
X12612Y9946D01*
X12616Y9949D01*
X12654Y9968D01*
X12696Y9984D01*
X12746Y9999D01*
X12788Y10007D01*
X12829Y10014D01*
X12864Y10022D01*
X12887Y10026D01*
X12894D01*
Y10068D01*
X13336D01*
Y10041D01*
X13386Y10033D01*
X13428Y10029D01*
X13447Y10026D01*
X13458D01*
X13466Y10022D01*
X13470D01*
X13511Y10018D01*
X13546Y10010D01*
X13572Y10007D01*
X13580D01*
Y10022D01*
X13740D01*
Y9957D01*
X13782Y9934D01*
X13812Y9911D01*
X13839Y9892D01*
X13862Y9873D01*
X13873Y9858D01*
X13885Y9847D01*
X13892Y9839D01*
Y9835D01*
X13904Y9816D01*
X13912Y9801D01*
X13919Y9782D01*
X13927Y9774D01*
Y9770D01*
X14022D01*
Y9671D01*
X13900D01*
X13873Y9393D01*
X14776Y10372D01*
Y10243D01*
D02*
G37*
G36*
X14666Y5918D02*
X11858D01*
Y6338D01*
X14666D01*
Y5918D01*
D02*
G37*
G36*
X83425Y6056D02*
X71776D01*
Y7806D01*
X83425D01*
Y6056D01*
D02*
G37*
%LPC*%
G36*
X63619Y9386D02*
X63612D01*
X63604Y9385D01*
X63595Y9383D01*
X63583Y9380D01*
X63571Y9374D01*
X63559Y9368D01*
X63547Y9359D01*
X63546Y9358D01*
X63543Y9355D01*
X63537Y9349D01*
X63531Y9340D01*
X63526Y9329D01*
X63520Y9317D01*
X63517Y9302D01*
X63516Y9284D01*
Y9277D01*
X63517Y9268D01*
X63520Y9257D01*
X63523Y9246D01*
X63529Y9232D01*
X63537Y9220D01*
X63547Y9210D01*
X63549Y9208D01*
X63553Y9205D01*
X63559Y9202D01*
X63567Y9198D01*
X63577Y9192D01*
X63591Y9189D01*
X63604Y9186D01*
X63619Y9184D01*
X63627D01*
X63634Y9186D01*
X63645Y9187D01*
X63657Y9190D01*
X63669Y9195D01*
X63681Y9201D01*
X63693Y9210D01*
X63694Y9211D01*
X63697Y9214D01*
X63702Y9220D01*
X63708Y9229D01*
X63714Y9240D01*
X63718Y9253D01*
X63721Y9268D01*
X63723Y9284D01*
Y9292D01*
X63721Y9301D01*
X63718Y9310D01*
X63715Y9322D01*
X63711Y9334D01*
X63703Y9346D01*
X63693Y9358D01*
X63691Y9359D01*
X63687Y9362D01*
X63681Y9367D01*
X63672Y9373D01*
X63661Y9377D01*
X63648Y9382D01*
X63634Y9385D01*
X63619Y9386D01*
D02*
G37*
G36*
X58795D02*
X58788D01*
X58780Y9385D01*
X58771Y9383D01*
X58759Y9380D01*
X58747Y9374D01*
X58735Y9368D01*
X58723Y9359D01*
X58722Y9358D01*
X58719Y9355D01*
X58713Y9349D01*
X58707Y9340D01*
X58702Y9329D01*
X58696Y9317D01*
X58693Y9302D01*
X58692Y9284D01*
Y9277D01*
X58693Y9268D01*
X58696Y9257D01*
X58699Y9246D01*
X58705Y9232D01*
X58713Y9220D01*
X58723Y9210D01*
X58725Y9208D01*
X58729Y9205D01*
X58735Y9202D01*
X58743Y9198D01*
X58753Y9192D01*
X58767Y9189D01*
X58780Y9186D01*
X58795Y9184D01*
X58803D01*
X58810Y9186D01*
X58821Y9187D01*
X58833Y9190D01*
X58845Y9195D01*
X58857Y9201D01*
X58869Y9210D01*
X58870Y9211D01*
X58873Y9214D01*
X58878Y9220D01*
X58884Y9229D01*
X58890Y9240D01*
X58894Y9253D01*
X58897Y9268D01*
X58899Y9284D01*
Y9292D01*
X58897Y9301D01*
X58894Y9310D01*
X58891Y9322D01*
X58887Y9334D01*
X58879Y9346D01*
X58869Y9358D01*
X58867Y9359D01*
X58863Y9362D01*
X58857Y9367D01*
X58848Y9373D01*
X58837Y9377D01*
X58824Y9382D01*
X58810Y9385D01*
X58795Y9386D01*
D02*
G37*
G36*
X55220Y9383D02*
X55200D01*
X55190Y9382D01*
X55178D01*
X55151Y9379D01*
X55119Y9374D01*
X55086Y9367D01*
X55053Y9358D01*
X55022Y9346D01*
X55019Y9344D01*
X55013Y9341D01*
X55002Y9335D01*
X54990Y9328D01*
X54975Y9319D01*
X54959Y9307D01*
X54942Y9293D01*
X54927Y9278D01*
X54926Y9277D01*
X54921Y9271D01*
X54914Y9262D01*
X54905Y9250D01*
X54894Y9237D01*
X54884Y9220D01*
X54873Y9201D01*
X54864Y9181D01*
X54863Y9178D01*
X54861Y9172D01*
X54857Y9160D01*
X54852Y9147D01*
X54849Y9129D01*
X54845Y9109D01*
X54843Y9088D01*
X54842Y9066D01*
Y9064D01*
Y9061D01*
Y9057D01*
Y9049D01*
X54843Y9042D01*
X54845Y9031D01*
X54848Y9009D01*
X54854Y8982D01*
X54861Y8953D01*
X54873Y8923D01*
X54890Y8893D01*
Y8892D01*
X54891Y8890D01*
X54897Y8881D01*
X54908Y8866D01*
X54920Y8850D01*
X54933Y8830D01*
X54950Y8811D01*
X54968Y8791D01*
X54986Y8773D01*
X54987Y8772D01*
X54995Y8766D01*
X55007Y8755D01*
X55023Y8740D01*
X55046Y8721D01*
X55074Y8697D01*
X55109Y8669D01*
X55127Y8652D01*
X55148Y8636D01*
X55149Y8634D01*
X55152Y8631D01*
X55158Y8627D01*
X55166Y8621D01*
X55175Y8613D01*
X55185Y8604D01*
X55209Y8583D01*
X55236Y8559D01*
X55262Y8535D01*
X55284Y8511D01*
X55295Y8501D01*
X55304Y8490D01*
X55305Y8489D01*
X55307Y8487D01*
X55311Y8483D01*
X55316Y8477D01*
X55327Y8462D01*
X55341Y8442D01*
X54935D01*
X54924Y8441D01*
X54911Y8439D01*
X54897Y8436D01*
X54882Y8432D01*
X54867Y8426D01*
X54855Y8417D01*
X54854Y8415D01*
X54851Y8412D01*
X54845Y8408D01*
X54839Y8400D01*
X54834Y8391D01*
X54828Y8379D01*
X54825Y8367D01*
X54824Y8352D01*
Y8346D01*
X54825Y8339D01*
X54827Y8330D01*
X54830Y8321D01*
X54834Y8310D01*
X54840Y8300D01*
X54849Y8289D01*
X54851Y8288D01*
X54854Y8285D01*
X54860Y8282D01*
X54867Y8277D01*
X54878Y8271D01*
X54890Y8268D01*
X54905Y8265D01*
X54923Y8264D01*
X54824D01*
D01*
X55603D01*
X55491D01*
X55501Y8265D01*
X55515Y8268D01*
X55528Y8271D01*
X55543Y8276D01*
X55558Y8283D01*
X55572Y8294D01*
X55573Y8295D01*
X55576Y8300D01*
X55582Y8306D01*
X55587Y8315D01*
X55593Y8325D01*
X55599Y8339D01*
X55602Y8354D01*
X55603Y8369D01*
Y8373D01*
X55602Y8379D01*
X55600Y8388D01*
X55599Y8399D01*
X55594Y8411D01*
X55590Y8424D01*
X55582Y8441D01*
X55581Y8442D01*
X55579Y8448D01*
X55575Y8456D01*
X55569Y8466D01*
X55554Y8490D01*
X55546Y8501D01*
X55537Y8511D01*
X55536Y8513D01*
X55533Y8516D01*
X55527Y8522D01*
X55521Y8529D01*
X55512Y8538D01*
X55501Y8549D01*
X55477Y8573D01*
X55449Y8601D01*
X55419Y8631D01*
X55387Y8663D01*
X55356Y8691D01*
X55354Y8693D01*
X55353Y8694D01*
X55348Y8699D01*
X55342Y8703D01*
X55327Y8717D01*
X55311Y8731D01*
X55292Y8748D01*
X55272Y8764D01*
X55254Y8779D01*
X55239Y8790D01*
X55236Y8791D01*
X55229Y8797D01*
X55218Y8806D01*
X55203Y8817D01*
X55187Y8830D01*
X55170Y8845D01*
X55152Y8860D01*
X55136Y8877D01*
X55134Y8878D01*
X55128Y8884D01*
X55121Y8893D01*
X55112Y8905D01*
X55101Y8919D01*
X55091Y8934D01*
X55082Y8952D01*
X55073Y8968D01*
X55071Y8970D01*
X55070Y8977D01*
X55065Y8986D01*
X55061Y8998D01*
X55058Y9012D01*
X55053Y9028D01*
X55052Y9045D01*
X55050Y9061D01*
Y9063D01*
Y9069D01*
X55052Y9078D01*
X55053Y9090D01*
X55056Y9103D01*
X55061Y9118D01*
X55067Y9132D01*
X55074Y9147D01*
X55076Y9148D01*
X55079Y9153D01*
X55083Y9160D01*
X55091Y9169D01*
X55100Y9178D01*
X55110Y9189D01*
X55122Y9198D01*
X55137Y9207D01*
X55139Y9208D01*
X55145Y9210D01*
X55152Y9214D01*
X55163Y9219D01*
X55176Y9222D01*
X55191Y9226D01*
X55208Y9228D01*
X55224Y9229D01*
X55233D01*
X55241Y9228D01*
X55259Y9225D01*
X55281Y9219D01*
X55305Y9208D01*
X55319Y9201D01*
X55332Y9192D01*
X55344Y9181D01*
X55357Y9171D01*
X55369Y9156D01*
X55380Y9141D01*
X55381Y9138D01*
X55383Y9135D01*
X55386Y9129D01*
X55389Y9121D01*
X55393Y9111D01*
X55399Y9097D01*
X55405Y9079D01*
X55407Y9078D01*
X55408Y9070D01*
X55413Y9061D01*
X55417Y9051D01*
X55429Y9024D01*
X55438Y9012D01*
X55446Y9000D01*
X55447Y8998D01*
X55450Y8995D01*
X55455Y8991D01*
X55462Y8986D01*
X55471Y8982D01*
X55483Y8977D01*
X55497Y8974D01*
X55512Y8973D01*
X55518D01*
X55525Y8974D01*
X55534Y8976D01*
X55543Y8979D01*
X55554Y8983D01*
X55564Y8989D01*
X55575Y8998D01*
X55576Y9000D01*
X55579Y9003D01*
X55582Y9009D01*
X55587Y9016D01*
X55593Y9027D01*
X55596Y9039D01*
X55599Y9052D01*
X55600Y9067D01*
Y9070D01*
Y9076D01*
X55599Y9087D01*
X55597Y9100D01*
X55594Y9117D01*
X55590Y9136D01*
X55584Y9156D01*
X55576Y9177D01*
X55575Y9180D01*
X55572Y9186D01*
X55566Y9198D01*
X55558Y9211D01*
X55548Y9226D01*
X55536Y9244D01*
X55522Y9260D01*
X55506Y9278D01*
X55504Y9280D01*
X55497Y9286D01*
X55488Y9295D01*
X55473Y9305D01*
X55456Y9317D01*
X55437Y9329D01*
X55413Y9341D01*
X55387Y9353D01*
X55386D01*
X55384Y9355D01*
X55380Y9356D01*
X55374Y9358D01*
X55359Y9362D01*
X55339Y9368D01*
X55316Y9374D01*
X55286Y9379D01*
X55254Y9382D01*
X55220Y9383D01*
D02*
G37*
G36*
X53373D02*
X53354D01*
X53343Y9382D01*
X53331D01*
X53304Y9379D01*
X53273Y9374D01*
X53240Y9367D01*
X53207Y9358D01*
X53175Y9346D01*
X53173Y9344D01*
X53167Y9341D01*
X53156Y9335D01*
X53144Y9328D01*
X53129Y9319D01*
X53113Y9307D01*
X53096Y9293D01*
X53081Y9278D01*
X53080Y9277D01*
X53075Y9271D01*
X53068Y9262D01*
X53059Y9250D01*
X53048Y9237D01*
X53038Y9220D01*
X53027Y9201D01*
X53018Y9181D01*
X53017Y9178D01*
X53015Y9172D01*
X53011Y9160D01*
X53006Y9147D01*
X53003Y9129D01*
X52999Y9109D01*
X52997Y9088D01*
X52996Y9066D01*
Y9064D01*
Y9061D01*
Y9057D01*
Y9049D01*
X52997Y9042D01*
X52999Y9031D01*
X53002Y9009D01*
X53008Y8982D01*
X53015Y8953D01*
X53027Y8923D01*
X53044Y8893D01*
Y8892D01*
X53045Y8890D01*
X53051Y8881D01*
X53062Y8866D01*
X53074Y8850D01*
X53087Y8830D01*
X53104Y8811D01*
X53122Y8791D01*
X53140Y8773D01*
X53141Y8772D01*
X53149Y8766D01*
X53161Y8755D01*
X53177Y8740D01*
X53199Y8721D01*
X53228Y8697D01*
X53262Y8669D01*
X53280Y8652D01*
X53301Y8636D01*
X53303Y8634D01*
X53306Y8631D01*
X53312Y8627D01*
X53319Y8621D01*
X53328Y8613D01*
X53339Y8604D01*
X53363Y8583D01*
X53390Y8559D01*
X53415Y8535D01*
X53438Y8511D01*
X53448Y8501D01*
X53457Y8490D01*
X53459Y8489D01*
X53460Y8487D01*
X53465Y8483D01*
X53469Y8477D01*
X53481Y8462D01*
X53495Y8442D01*
X53089D01*
X53078Y8441D01*
X53065Y8439D01*
X53051Y8436D01*
X53036Y8432D01*
X53021Y8426D01*
X53009Y8417D01*
X53008Y8415D01*
X53005Y8412D01*
X52999Y8408D01*
X52993Y8400D01*
X52988Y8391D01*
X52982Y8379D01*
X52979Y8367D01*
X52978Y8352D01*
Y8346D01*
X52979Y8339D01*
X52981Y8330D01*
X52984Y8321D01*
X52988Y8310D01*
X52994Y8300D01*
X53003Y8289D01*
X53005Y8288D01*
X53008Y8285D01*
X53014Y8282D01*
X53021Y8277D01*
X53032Y8271D01*
X53044Y8268D01*
X53059Y8265D01*
X53077Y8264D01*
X52978D01*
D01*
X53757D01*
X53645D01*
X53655Y8265D01*
X53669Y8268D01*
X53682Y8271D01*
X53697Y8276D01*
X53712Y8283D01*
X53725Y8294D01*
X53727Y8295D01*
X53730Y8300D01*
X53736Y8306D01*
X53740Y8315D01*
X53746Y8325D01*
X53752Y8339D01*
X53755Y8354D01*
X53757Y8369D01*
Y8373D01*
X53755Y8379D01*
X53754Y8388D01*
X53752Y8399D01*
X53748Y8411D01*
X53743Y8424D01*
X53736Y8441D01*
X53734Y8442D01*
X53733Y8448D01*
X53728Y8456D01*
X53722Y8466D01*
X53708Y8490D01*
X53700Y8501D01*
X53691Y8511D01*
X53690Y8513D01*
X53687Y8516D01*
X53681Y8522D01*
X53675Y8529D01*
X53666Y8538D01*
X53655Y8549D01*
X53631Y8573D01*
X53603Y8601D01*
X53573Y8631D01*
X53541Y8663D01*
X53510Y8691D01*
X53508Y8693D01*
X53507Y8694D01*
X53502Y8699D01*
X53496Y8703D01*
X53481Y8717D01*
X53465Y8731D01*
X53445Y8748D01*
X53426Y8764D01*
X53408Y8779D01*
X53393Y8790D01*
X53390Y8791D01*
X53382Y8797D01*
X53372Y8806D01*
X53357Y8817D01*
X53340Y8830D01*
X53324Y8845D01*
X53306Y8860D01*
X53289Y8877D01*
X53288Y8878D01*
X53282Y8884D01*
X53274Y8893D01*
X53265Y8905D01*
X53255Y8919D01*
X53244Y8934D01*
X53235Y8952D01*
X53226Y8968D01*
X53225Y8970D01*
X53223Y8977D01*
X53219Y8986D01*
X53214Y8998D01*
X53211Y9012D01*
X53207Y9028D01*
X53205Y9045D01*
X53204Y9061D01*
Y9063D01*
Y9069D01*
X53205Y9078D01*
X53207Y9090D01*
X53210Y9103D01*
X53214Y9118D01*
X53220Y9132D01*
X53228Y9147D01*
X53229Y9148D01*
X53232Y9153D01*
X53237Y9160D01*
X53244Y9169D01*
X53253Y9178D01*
X53264Y9189D01*
X53276Y9198D01*
X53291Y9207D01*
X53292Y9208D01*
X53298Y9210D01*
X53306Y9214D01*
X53316Y9219D01*
X53330Y9222D01*
X53345Y9226D01*
X53361Y9228D01*
X53378Y9229D01*
X53387D01*
X53394Y9228D01*
X53412Y9225D01*
X53435Y9219D01*
X53459Y9208D01*
X53472Y9201D01*
X53486Y9192D01*
X53498Y9181D01*
X53511Y9171D01*
X53523Y9156D01*
X53534Y9141D01*
X53535Y9138D01*
X53537Y9135D01*
X53540Y9129D01*
X53543Y9121D01*
X53547Y9111D01*
X53553Y9097D01*
X53559Y9079D01*
X53561Y9078D01*
X53562Y9070D01*
X53567Y9061D01*
X53571Y9051D01*
X53583Y9024D01*
X53592Y9012D01*
X53600Y9000D01*
X53601Y8998D01*
X53604Y8995D01*
X53609Y8991D01*
X53616Y8986D01*
X53625Y8982D01*
X53637Y8977D01*
X53651Y8974D01*
X53666Y8973D01*
X53672D01*
X53679Y8974D01*
X53688Y8976D01*
X53697Y8979D01*
X53708Y8983D01*
X53718Y8989D01*
X53728Y8998D01*
X53730Y9000D01*
X53733Y9003D01*
X53736Y9009D01*
X53740Y9016D01*
X53746Y9027D01*
X53749Y9039D01*
X53752Y9052D01*
X53754Y9067D01*
Y9070D01*
Y9076D01*
X53752Y9087D01*
X53751Y9100D01*
X53748Y9117D01*
X53743Y9136D01*
X53737Y9156D01*
X53730Y9177D01*
X53728Y9180D01*
X53725Y9186D01*
X53720Y9198D01*
X53712Y9211D01*
X53702Y9226D01*
X53690Y9244D01*
X53676Y9260D01*
X53660Y9278D01*
X53658Y9280D01*
X53651Y9286D01*
X53642Y9295D01*
X53627Y9305D01*
X53610Y9317D01*
X53591Y9329D01*
X53567Y9341D01*
X53541Y9353D01*
X53540D01*
X53538Y9355D01*
X53534Y9356D01*
X53528Y9358D01*
X53513Y9362D01*
X53493Y9368D01*
X53469Y9374D01*
X53439Y9379D01*
X53408Y9382D01*
X53373Y9383D01*
D02*
G37*
G36*
X59741Y9395D02*
X59723D01*
X59733D01*
X59724Y9394D01*
X59712Y9391D01*
X59700Y9388D01*
X59688Y9382D01*
X59675Y9373D01*
X59664Y9362D01*
X59663Y9361D01*
X59660Y9356D01*
X59655Y9349D01*
X59649Y9338D01*
X59645Y9325D01*
X59640Y9310D01*
X59637Y9290D01*
X59636Y9268D01*
Y8961D01*
X59634Y8962D01*
X59630Y8968D01*
X59621Y8976D01*
X59612Y8986D01*
X59600Y8998D01*
X59587Y9010D01*
X59573Y9022D01*
X59560Y9033D01*
X59558Y9034D01*
X59554Y9037D01*
X59545Y9042D01*
X59536Y9048D01*
X59524Y9055D01*
X59509Y9061D01*
X59477Y9073D01*
X59476D01*
X59470Y9075D01*
X59459Y9078D01*
X59447Y9081D01*
X59432Y9082D01*
X59416Y9085D01*
X59398Y9087D01*
X59365D01*
X59350Y9085D01*
X59330Y9082D01*
X59309Y9078D01*
X59285Y9072D01*
X59261Y9064D01*
X59239Y9052D01*
X59236Y9051D01*
X59228Y9046D01*
X59218Y9039D01*
X59203Y9028D01*
X59188Y9013D01*
X59171Y8997D01*
X59156Y8977D01*
X59141Y8955D01*
X59140Y8953D01*
X59138Y8949D01*
X59134Y8940D01*
X59129Y8931D01*
X59125Y8917D01*
X59120Y8904D01*
X59116Y8887D01*
X59113Y8871D01*
Y8869D01*
X59111Y8863D01*
X59110Y8853D01*
X59108Y8841D01*
X59107Y8826D01*
X59105Y8808D01*
X59104Y8788D01*
Y8244D01*
X59252D01*
X59213D01*
X59218Y8246D01*
X59225D01*
X59240Y8250D01*
X59260Y8261D01*
X59269Y8267D01*
X59278Y8276D01*
X59287Y8285D01*
X59294Y8297D01*
X59302Y8312D01*
X59306Y8328D01*
X59309Y8348D01*
X59311Y8370D01*
Y8719D01*
Y8721D01*
Y8724D01*
Y8728D01*
Y8736D01*
X59312Y8754D01*
X59314Y8776D01*
X59318Y8800D01*
X59323Y8826D01*
X59330Y8850D01*
X59341Y8872D01*
X59342Y8875D01*
X59347Y8881D01*
X59354Y8889D01*
X59366Y8899D01*
X59381Y8910D01*
X59401Y8917D01*
X59425Y8923D01*
X59453Y8926D01*
X59462D01*
X59473Y8925D01*
X59486Y8922D01*
X59503Y8919D01*
X59519Y8913D01*
X59536Y8905D01*
X59554Y8895D01*
X59555Y8893D01*
X59561Y8889D01*
X59569Y8881D01*
X59579Y8872D01*
X59590Y8860D01*
X59600Y8845D01*
X59610Y8827D01*
X59619Y8808D01*
Y8806D01*
X59622Y8799D01*
X59624Y8787D01*
X59627Y8770D01*
X59630Y8748D01*
X59631Y8734D01*
X59633Y8719D01*
X59634Y8703D01*
Y8684D01*
X59636Y8664D01*
Y8643D01*
Y8370D01*
Y8367D01*
Y8360D01*
X59637Y8349D01*
X59639Y8336D01*
X59643Y8321D01*
X59648Y8304D01*
X59655Y8289D01*
X59664Y8276D01*
X59666Y8274D01*
X59669Y8271D01*
X59675Y8265D01*
X59684Y8261D01*
X59694Y8255D01*
X59708Y8249D01*
X59723Y8246D01*
X59741Y8244D01*
X59843D01*
X59745D01*
X59750Y8246D01*
X59757D01*
X59772Y8250D01*
X59792Y8261D01*
X59801Y8267D01*
X59810Y8276D01*
X59819Y8285D01*
X59826Y8297D01*
X59834Y8312D01*
X59838Y8328D01*
X59841Y8348D01*
X59843Y8370D01*
Y9278D01*
X59841Y9289D01*
X59840Y9304D01*
X59837Y9319D01*
X59832Y9334D01*
X59826Y9349D01*
X59817Y9362D01*
X59816Y9364D01*
X59813Y9367D01*
X59807Y9373D01*
X59798Y9379D01*
X59787Y9385D01*
X59774Y9391D01*
X59759Y9394D01*
X59741Y9395D01*
D02*
G37*
G36*
X62281Y9087D02*
X62264D01*
X62272D01*
X62263Y9085D01*
X62253Y9082D01*
X62241Y9079D01*
X62229Y9073D01*
X62217Y9064D01*
X62208Y9054D01*
X62206Y9052D01*
X62205Y9048D01*
X62200Y9040D01*
X62196Y9030D01*
X62191Y9015D01*
X62187Y8998D01*
X62184Y8979D01*
X62182Y8956D01*
Y8958D01*
X62181Y8959D01*
X62176Y8967D01*
X62169Y8979D01*
X62158Y8992D01*
X62148Y9009D01*
X62134Y9025D01*
X62121Y9040D01*
X62106Y9054D01*
X62104Y9055D01*
X62098Y9058D01*
X62089Y9064D01*
X62079Y9070D01*
X62064Y9076D01*
X62046Y9082D01*
X62025Y9085D01*
X62002Y9087D01*
X61990D01*
X61978Y9085D01*
X61962Y9082D01*
X61942Y9079D01*
X61921Y9073D01*
X61897Y9064D01*
X61875Y9054D01*
X61872Y9052D01*
X61866Y9048D01*
X61855Y9040D01*
X61843Y9031D01*
X61833Y9018D01*
X61822Y9003D01*
X61816Y8986D01*
X61813Y8967D01*
Y8244D01*
X62381D01*
X62287D01*
X62294Y8246D01*
X62305Y8249D01*
X62317Y8252D01*
X62329Y8258D01*
X62341Y8265D01*
X62353Y8276D01*
X62354Y8277D01*
X62357Y8282D01*
X62362Y8289D01*
X62366Y8300D01*
X62372Y8313D01*
X62377Y8328D01*
X62380Y8348D01*
X62381Y8370D01*
Y8959D01*
X62380Y8968D01*
X62378Y8979D01*
X62375Y8991D01*
X62369Y9016D01*
X62357Y9042D01*
X62348Y9054D01*
X62339Y9064D01*
X62327Y9073D01*
X62314Y9081D01*
X62299Y9085D01*
X62281Y9087D01*
D02*
G37*
G36*
X58388D02*
X58380D01*
X58373Y9085D01*
X58362Y9082D01*
X58352Y9079D01*
X58338Y9073D01*
X58326Y9066D01*
X58316Y9055D01*
X58314Y9054D01*
X58311Y9049D01*
X58307Y9043D01*
X58301Y9033D01*
X58296Y9021D01*
X58292Y9007D01*
X58289Y8989D01*
X58287Y8970D01*
Y8946D01*
X58284Y8947D01*
X58277Y8956D01*
X58265Y8968D01*
X58250Y8985D01*
X58232Y9001D01*
X58211Y9019D01*
X58190Y9036D01*
X58166Y9051D01*
X58163Y9052D01*
X58155Y9057D01*
X58142Y9061D01*
X58124Y9069D01*
X58103Y9075D01*
X58079Y9079D01*
X58052Y9084D01*
X58023Y9085D01*
X58007D01*
X58000Y9084D01*
X57989Y9082D01*
X57965Y9079D01*
X57938Y9073D01*
X57910Y9064D01*
X57878Y9052D01*
X57848Y9036D01*
X57847D01*
X57845Y9033D01*
X57841Y9031D01*
X57835Y9027D01*
X57820Y9015D01*
X57802Y9000D01*
X57781Y8979D01*
X57760Y8953D01*
X57740Y8925D01*
X57721Y8890D01*
Y8889D01*
X57719Y8886D01*
X57716Y8881D01*
X57713Y8874D01*
X57710Y8865D01*
X57706Y8854D01*
X57701Y8841D01*
X57697Y8827D01*
X57692Y8811D01*
X57688Y8794D01*
X57680Y8757D01*
X57674Y8714D01*
X57673Y8667D01*
Y7937D01*
X58484Y7937D01*
Y8979D01*
X58482Y8989D01*
X58481Y9001D01*
X58478Y9016D01*
X58473Y9031D01*
X58467Y9045D01*
X58458Y9057D01*
X58457Y9058D01*
X58454Y9061D01*
X58448Y9066D01*
X58440Y9072D01*
X58430Y9078D01*
X58418Y9082D01*
X58404Y9085D01*
X58388Y9087D01*
D02*
G37*
G36*
X65013Y9376D02*
X64782D01*
X64769Y9374D01*
X64739Y9371D01*
X64725Y9368D01*
X64713Y9364D01*
X64712D01*
X64709Y9361D01*
X64703Y9358D01*
X64697Y9355D01*
X64691Y9349D01*
X64683Y9341D01*
X64677Y9332D01*
X64671Y9322D01*
Y9320D01*
X64668Y9316D01*
X64665Y9310D01*
X64662Y9299D01*
X64656Y9286D01*
X64652Y9269D01*
X64646Y9250D01*
X64640Y9226D01*
X64478Y8618D01*
X64316Y9226D01*
Y9228D01*
X64315Y9229D01*
X64313Y9237D01*
X64310Y9249D01*
X64306Y9263D01*
X64297Y9295D01*
X64291Y9310D01*
X64286Y9322D01*
Y9323D01*
X64283Y9326D01*
X64280Y9332D01*
X64276Y9338D01*
X64262Y9352D01*
X64253Y9359D01*
X64244Y9364D01*
X64243D01*
X64238Y9365D01*
X64232Y9368D01*
X64222Y9370D01*
X64210Y9373D01*
X64193Y9374D01*
X64175Y9376D01*
X64072D01*
D01*
X63941D01*
X64072D01*
X64060Y9374D01*
X64045Y9373D01*
X64028Y9370D01*
X64012Y9365D01*
X63995Y9359D01*
X63980Y9350D01*
X63979Y9349D01*
X63974Y9346D01*
X63968Y9338D01*
X63961Y9328D01*
X63953Y9314D01*
X63947Y9298D01*
X63943Y9277D01*
X63941Y9252D01*
Y8361D01*
X63943Y8349D01*
X63944Y8336D01*
X63949Y8321D01*
X63953Y8304D01*
X63961Y8289D01*
X63970Y8276D01*
X63971Y8274D01*
X63974Y8271D01*
X63982Y8265D01*
X63989Y8261D01*
X64001Y8255D01*
X64013Y8249D01*
X64030Y8246D01*
X64046Y8244D01*
X63941D01*
X64781D01*
X64484D01*
X64491Y8246D01*
X64500D01*
X64523Y8252D01*
X64535Y8255D01*
X64545Y8261D01*
X64547Y8262D01*
X64550Y8264D01*
X64554Y8267D01*
X64560Y8273D01*
X64574Y8286D01*
X64587Y8304D01*
Y8306D01*
X64590Y8309D01*
X64592Y8315D01*
X64596Y8322D01*
X64604Y8340D01*
X64611Y8363D01*
Y8364D01*
X64613Y8369D01*
X64614Y8375D01*
X64617Y8384D01*
X64620Y8394D01*
X64623Y8405D01*
X64629Y8430D01*
X64806Y9141D01*
Y8372D01*
Y8369D01*
Y8361D01*
X64808Y8349D01*
X64809Y8336D01*
X64814Y8321D01*
X64818Y8304D01*
X64826Y8289D01*
X64835Y8276D01*
X64836Y8274D01*
X64839Y8271D01*
X64847Y8265D01*
X64854Y8261D01*
X64866Y8255D01*
X64878Y8249D01*
X64895Y8246D01*
X64911Y8244D01*
X65013D01*
X64919D01*
X64926Y8246D01*
X64937Y8249D01*
X64949Y8252D01*
X64960Y8258D01*
X64972Y8265D01*
X64984Y8276D01*
X64986Y8277D01*
X64989Y8282D01*
X64993Y8289D01*
X64998Y8300D01*
X65004Y8313D01*
X65008Y8330D01*
X65011Y8349D01*
X65013Y8372D01*
Y9271D01*
Y9263D01*
X65011Y9275D01*
X65008Y9292D01*
X65004Y9308D01*
X64996Y9325D01*
X64987Y9338D01*
X64975Y9350D01*
X64974Y9352D01*
X64968Y9355D01*
X64960Y9358D01*
X64949Y9364D01*
X64934Y9368D01*
X64917Y9371D01*
X64896Y9374D01*
X64874Y9376D01*
X65013D01*
D02*
G37*
G36*
X60387Y9088D02*
X60373D01*
X60358Y9087D01*
X60339Y9085D01*
X60316Y9082D01*
X60291Y9078D01*
X60265Y9072D01*
X60240Y9064D01*
X60238D01*
X60237Y9063D01*
X60228Y9060D01*
X60216Y9055D01*
X60201Y9048D01*
X60183Y9039D01*
X60163Y9028D01*
X60144Y9016D01*
X60126Y9003D01*
X60125Y9001D01*
X60119Y8997D01*
X60110Y8989D01*
X60099Y8979D01*
X60089Y8967D01*
X60077Y8953D01*
X60066Y8938D01*
X60056Y8923D01*
X60054Y8922D01*
X60051Y8916D01*
X60048Y8908D01*
X60042Y8898D01*
X60038Y8886D01*
X60035Y8872D01*
X60032Y8859D01*
X60030Y8845D01*
Y8844D01*
Y8839D01*
X60032Y8832D01*
X60033Y8823D01*
X60038Y8814D01*
X60042Y8802D01*
X60050Y8791D01*
X60059Y8781D01*
X60060Y8779D01*
X60063Y8776D01*
X60069Y8773D01*
X60077Y8769D01*
X60087Y8763D01*
X60098Y8760D01*
X60111Y8757D01*
X60125Y8755D01*
X60129D01*
X60133Y8757D01*
X60139D01*
X60153Y8761D01*
X60168Y8769D01*
X60171Y8772D01*
X60178Y8779D01*
X60190Y8793D01*
X60198Y8802D01*
X60205Y8812D01*
X60207Y8815D01*
X60211Y8821D01*
X60220Y8832D01*
X60229Y8844D01*
X60243Y8859D01*
X60256Y8872D01*
X60271Y8886D01*
X60286Y8898D01*
X60288Y8899D01*
X60294Y8902D01*
X60303Y8907D01*
X60315Y8913D01*
X60330Y8919D01*
X60346Y8923D01*
X60367Y8926D01*
X60390Y8928D01*
X60399D01*
X60405Y8926D01*
X60423Y8925D01*
X60444Y8919D01*
X60466Y8910D01*
X60492Y8898D01*
X60516Y8880D01*
X60528Y8868D01*
X60538Y8856D01*
Y8854D01*
X60541Y8853D01*
X60543Y8848D01*
X60547Y8842D01*
X60552Y8835D01*
X60556Y8826D01*
X60561Y8817D01*
X60565Y8805D01*
X60576Y8776D01*
X60585Y8743D01*
X60591Y8703D01*
X60594Y8660D01*
Y8657D01*
Y8649D01*
X60592Y8639D01*
Y8624D01*
X60591Y8607D01*
X60588Y8589D01*
X60580Y8552D01*
Y8550D01*
X60577Y8544D01*
X60574Y8535D01*
X60570Y8523D01*
X60564Y8511D01*
X60556Y8496D01*
X60538Y8469D01*
X60537Y8468D01*
X60534Y8463D01*
X60528Y8457D01*
X60520Y8450D01*
X60510Y8441D01*
X60499Y8433D01*
X60486Y8424D01*
X60472Y8417D01*
X60471D01*
X60465Y8414D01*
X60457Y8412D01*
X60447Y8409D01*
X60435Y8406D01*
X60420Y8403D01*
X60403Y8402D01*
X60387Y8400D01*
X60376D01*
X60364Y8402D01*
X60351Y8403D01*
X60334Y8408D01*
X60316Y8412D01*
X60298Y8420D01*
X60280Y8429D01*
X60279Y8430D01*
X60273Y8435D01*
X60264Y8441D01*
X60253Y8450D01*
X60241Y8463D01*
X60228Y8478D01*
X60216Y8495D01*
X60202Y8516D01*
X60201Y8517D01*
X60199Y8522D01*
X60195Y8528D01*
X60190Y8537D01*
X60177Y8555D01*
X60169Y8564D01*
X60162Y8571D01*
X60160Y8573D01*
X60157Y8574D01*
X60153Y8577D01*
X60147Y8582D01*
X60138Y8585D01*
X60129Y8588D01*
X60119Y8589D01*
X60107Y8591D01*
X60101D01*
X60093Y8589D01*
X60084Y8588D01*
X60075Y8583D01*
X60065Y8579D01*
X60054Y8571D01*
X60045Y8561D01*
X60044Y8559D01*
X60041Y8556D01*
X60038Y8550D01*
X60032Y8543D01*
X60024Y8523D01*
X60021Y8513D01*
X60020Y8501D01*
Y8495D01*
X60021Y8486D01*
X60023Y8475D01*
X60026Y8463D01*
X60030Y8448D01*
X60036Y8433D01*
X60044Y8417D01*
X60045Y8415D01*
X60048Y8409D01*
X60053Y8400D01*
X60060Y8390D01*
X60071Y8378D01*
X60083Y8363D01*
X60098Y8348D01*
X60114Y8333D01*
X60116Y8331D01*
X60123Y8327D01*
X60132Y8319D01*
X60145Y8310D01*
X60163Y8300D01*
X60183Y8289D01*
X60207Y8279D01*
X60232Y8270D01*
X60234D01*
X60235Y8268D01*
X60240D01*
X60244Y8267D01*
X60259Y8262D01*
X60279Y8258D01*
X60303Y8253D01*
X60331Y8250D01*
X60361Y8247D01*
X60394Y8246D01*
X60020D01*
X60403D01*
X60412Y8247D01*
X60426D01*
X60442Y8249D01*
X60460Y8252D01*
X60481Y8255D01*
X60504Y8259D01*
X60528Y8265D01*
X60552Y8273D01*
X60577Y8282D01*
X60601Y8292D01*
X60627Y8306D01*
X60651Y8321D01*
X60673Y8337D01*
X60694Y8357D01*
X60695Y8358D01*
X60698Y8361D01*
X60704Y8369D01*
X60710Y8378D01*
X60719Y8388D01*
X60728Y8402D01*
X60737Y8418D01*
X60748Y8436D01*
X60758Y8457D01*
X60767Y8480D01*
X60776Y8504D01*
X60785Y8531D01*
X60791Y8559D01*
X60797Y8591D01*
X60800Y8622D01*
X60802Y8657D01*
Y8289D01*
Y8657D01*
Y8669D01*
X60800Y8678D01*
Y8690D01*
X60799Y8702D01*
X60797Y8717D01*
X60796Y8733D01*
X60790Y8767D01*
X60781Y8805D01*
X60770Y8844D01*
X60754Y8881D01*
Y8883D01*
X60751Y8886D01*
X60749Y8890D01*
X60745Y8898D01*
X60733Y8916D01*
X60718Y8938D01*
X60697Y8962D01*
X60673Y8988D01*
X60645Y9012D01*
X60612Y9034D01*
X60610D01*
X60607Y9037D01*
X60603Y9039D01*
X60595Y9043D01*
X60586Y9046D01*
X60574Y9051D01*
X60562Y9057D01*
X60549Y9061D01*
X60532Y9066D01*
X60516Y9072D01*
X60477Y9079D01*
X60433Y9085D01*
X60387Y9088D01*
D02*
G37*
G36*
X62928D02*
X62915D01*
X62900Y9087D01*
X62880Y9085D01*
X62858Y9082D01*
X62832Y9078D01*
X62807Y9072D01*
X62782Y9064D01*
X62780D01*
X62779Y9063D01*
X62770Y9060D01*
X62758Y9055D01*
X62743Y9048D01*
X62725Y9039D01*
X62705Y9028D01*
X62686Y9016D01*
X62668Y9003D01*
X62666Y9001D01*
X62660Y8997D01*
X62651Y8989D01*
X62641Y8979D01*
X62630Y8967D01*
X62618Y8953D01*
X62608Y8938D01*
X62597Y8923D01*
X62596Y8922D01*
X62593Y8916D01*
X62590Y8908D01*
X62584Y8898D01*
X62579Y8886D01*
X62576Y8872D01*
X62573Y8859D01*
X62572Y8845D01*
Y8844D01*
Y8839D01*
X62573Y8832D01*
X62575Y8823D01*
X62579Y8814D01*
X62584Y8802D01*
X62591Y8791D01*
X62600Y8781D01*
X62602Y8779D01*
X62605Y8776D01*
X62611Y8773D01*
X62618Y8769D01*
X62629Y8763D01*
X62639Y8760D01*
X62653Y8757D01*
X62666Y8755D01*
X62671D01*
X62675Y8757D01*
X62681D01*
X62695Y8761D01*
X62710Y8769D01*
X62713Y8772D01*
X62720Y8779D01*
X62732Y8793D01*
X62740Y8802D01*
X62747Y8812D01*
X62749Y8815D01*
X62753Y8821D01*
X62762Y8832D01*
X62771Y8844D01*
X62785Y8859D01*
X62798Y8872D01*
X62813Y8886D01*
X62828Y8898D01*
X62829Y8899D01*
X62835Y8902D01*
X62844Y8907D01*
X62856Y8913D01*
X62871Y8919D01*
X62888Y8923D01*
X62909Y8926D01*
X62931Y8928D01*
X62940D01*
X62946Y8926D01*
X62964Y8925D01*
X62985Y8919D01*
X63008Y8910D01*
X63033Y8898D01*
X63057Y8880D01*
X63069Y8868D01*
X63080Y8856D01*
Y8854D01*
X63083Y8853D01*
X63084Y8848D01*
X63089Y8842D01*
X63093Y8835D01*
X63098Y8826D01*
X63102Y8817D01*
X63107Y8805D01*
X63117Y8776D01*
X63126Y8743D01*
X63132Y8703D01*
X63135Y8660D01*
Y8657D01*
Y8649D01*
X63134Y8639D01*
Y8624D01*
X63132Y8607D01*
X63129Y8589D01*
X63122Y8552D01*
Y8550D01*
X63119Y8544D01*
X63116Y8535D01*
X63111Y8523D01*
X63105Y8511D01*
X63098Y8496D01*
X63080Y8469D01*
X63078Y8468D01*
X63075Y8463D01*
X63069Y8457D01*
X63062Y8450D01*
X63051Y8441D01*
X63041Y8433D01*
X63027Y8424D01*
X63014Y8417D01*
X63012D01*
X63006Y8414D01*
X62999Y8412D01*
X62988Y8409D01*
X62976Y8406D01*
X62961Y8403D01*
X62945Y8402D01*
X62928Y8400D01*
X62918D01*
X62906Y8402D01*
X62892Y8403D01*
X62876Y8408D01*
X62858Y8412D01*
X62840Y8420D01*
X62822Y8429D01*
X62820Y8430D01*
X62814Y8435D01*
X62806Y8441D01*
X62795Y8450D01*
X62783Y8463D01*
X62770Y8478D01*
X62758Y8495D01*
X62744Y8516D01*
X62743Y8517D01*
X62741Y8522D01*
X62737Y8528D01*
X62732Y8537D01*
X62719Y8555D01*
X62711Y8564D01*
X62704Y8571D01*
X62702Y8573D01*
X62699Y8574D01*
X62695Y8577D01*
X62689Y8582D01*
X62680Y8585D01*
X62671Y8588D01*
X62660Y8589D01*
X62648Y8591D01*
X62642D01*
X62635Y8589D01*
X62626Y8588D01*
X62617Y8583D01*
X62606Y8579D01*
X62596Y8571D01*
X62587Y8561D01*
X62585Y8559D01*
X62582Y8556D01*
X62579Y8550D01*
X62573Y8543D01*
X62566Y8523D01*
X62563Y8513D01*
X62561Y8501D01*
Y8495D01*
X62563Y8486D01*
X62564Y8475D01*
X62567Y8463D01*
X62572Y8448D01*
X62578Y8433D01*
X62585Y8417D01*
X62587Y8415D01*
X62590Y8409D01*
X62594Y8400D01*
X62602Y8390D01*
X62612Y8378D01*
X62624Y8363D01*
X62639Y8348D01*
X62656Y8333D01*
X62657Y8331D01*
X62665Y8327D01*
X62674Y8319D01*
X62687Y8310D01*
X62705Y8300D01*
X62725Y8289D01*
X62749Y8279D01*
X62774Y8270D01*
X62776D01*
X62777Y8268D01*
X62782D01*
X62786Y8267D01*
X62801Y8262D01*
X62820Y8258D01*
X62844Y8253D01*
X62873Y8250D01*
X62903Y8247D01*
X62936Y8246D01*
X62561D01*
X62945D01*
X62954Y8247D01*
X62967D01*
X62984Y8249D01*
X63002Y8252D01*
X63023Y8255D01*
X63045Y8259D01*
X63069Y8265D01*
X63093Y8273D01*
X63119Y8282D01*
X63143Y8292D01*
X63168Y8306D01*
X63192Y8321D01*
X63215Y8337D01*
X63236Y8357D01*
X63237Y8358D01*
X63240Y8361D01*
X63246Y8369D01*
X63252Y8378D01*
X63261Y8388D01*
X63270Y8402D01*
X63279Y8418D01*
X63290Y8436D01*
X63300Y8457D01*
X63309Y8480D01*
X63318Y8504D01*
X63327Y8531D01*
X63333Y8559D01*
X63339Y8591D01*
X63342Y8622D01*
X63344Y8657D01*
Y8265D01*
Y8657D01*
Y8669D01*
X63342Y8678D01*
Y8690D01*
X63341Y8702D01*
X63339Y8717D01*
X63338Y8733D01*
X63332Y8767D01*
X63323Y8805D01*
X63312Y8844D01*
X63296Y8881D01*
Y8883D01*
X63293Y8886D01*
X63291Y8890D01*
X63287Y8898D01*
X63275Y8916D01*
X63260Y8938D01*
X63239Y8962D01*
X63215Y8988D01*
X63186Y9012D01*
X63153Y9034D01*
X63152D01*
X63149Y9037D01*
X63144Y9039D01*
X63137Y9043D01*
X63128Y9046D01*
X63116Y9051D01*
X63104Y9057D01*
X63090Y9061D01*
X63074Y9066D01*
X63057Y9072D01*
X63018Y9079D01*
X62975Y9085D01*
X62928Y9088D01*
D02*
G37*
G36*
X54691Y9385D02*
X53914D01*
X54295D01*
X54280Y9383D01*
X54260Y9382D01*
X54238Y9379D01*
X54216Y9374D01*
X54190Y9368D01*
X54166Y9359D01*
X54165D01*
X54163Y9358D01*
X54156Y9355D01*
X54144Y9349D01*
X54127Y9340D01*
X54111Y9329D01*
X54091Y9317D01*
X54072Y9302D01*
X54054Y9284D01*
X54052Y9283D01*
X54046Y9275D01*
X54037Y9265D01*
X54025Y9252D01*
X54013Y9234D01*
X54000Y9213D01*
X53986Y9189D01*
X53973Y9163D01*
Y9162D01*
X53970Y9157D01*
X53967Y9150D01*
X53964Y9141D01*
X53959Y9127D01*
X53955Y9111D01*
X53949Y9093D01*
X53943Y9072D01*
X53938Y9048D01*
X53932Y9021D01*
X53928Y8992D01*
X53923Y8961D01*
X53920Y8926D01*
X53917Y8889D01*
X53914Y8850D01*
Y8776D01*
X53916Y8764D01*
Y8749D01*
Y8734D01*
X53919Y8702D01*
X53922Y8666D01*
X53925Y8628D01*
X53931Y8594D01*
Y8592D01*
Y8589D01*
X53932Y8585D01*
X53934Y8579D01*
X53938Y8562D01*
X53943Y8540D01*
X53950Y8516D01*
X53961Y8489D01*
X53973Y8460D01*
X53986Y8432D01*
Y8430D01*
X53989Y8427D01*
X53992Y8423D01*
X53995Y8417D01*
X54007Y8400D01*
X54022Y8381D01*
X54042Y8358D01*
X54066Y8336D01*
X54091Y8313D01*
X54121Y8294D01*
X54123D01*
X54124Y8292D01*
X54129Y8289D01*
X54135Y8286D01*
X54144Y8283D01*
X54153Y8279D01*
X54174Y8270D01*
X54201Y8261D01*
X54232Y8253D01*
X54266Y8247D01*
X54302Y8246D01*
X54313D01*
X54322Y8247D01*
X54331D01*
X54343Y8249D01*
X54371Y8253D01*
X54403Y8262D01*
X54437Y8273D01*
X54473Y8289D01*
X54490Y8298D01*
X54508Y8310D01*
X54509Y8312D01*
X54512Y8313D01*
X54517Y8318D01*
X54523Y8322D01*
X54539Y8337D01*
X54559Y8358D01*
X54581Y8384D01*
X54605Y8415D01*
X54626Y8451D01*
X54646Y8492D01*
X54647Y8495D01*
X54650Y8502D01*
X54653Y8516D01*
X54659Y8532D01*
X54665Y8553D01*
X54670Y8577D01*
X54676Y8603D01*
X54680Y8631D01*
Y8633D01*
Y8634D01*
X54682Y8639D01*
Y8645D01*
X54683Y8660D01*
X54685Y8681D01*
X54688Y8705D01*
X54689Y8733D01*
X54691Y8763D01*
Y8836D01*
X54689Y8865D01*
X54688Y8896D01*
X54686Y8931D01*
X54683Y8967D01*
X54679Y9001D01*
Y9003D01*
Y9006D01*
X54677Y9010D01*
X54676Y9016D01*
X54674Y9034D01*
X54670Y9057D01*
X54664Y9081D01*
X54658Y9108D01*
X54650Y9135D01*
X54641Y9160D01*
Y9162D01*
X54640Y9165D01*
X54637Y9171D01*
X54632Y9178D01*
X54628Y9187D01*
X54622Y9198D01*
X54608Y9222D01*
X54590Y9248D01*
X54568Y9277D01*
X54541Y9302D01*
X54511Y9326D01*
X54509D01*
X54506Y9329D01*
X54502Y9332D01*
X54496Y9335D01*
X54487Y9340D01*
X54478Y9344D01*
X54466Y9350D01*
X54454Y9356D01*
X54424Y9367D01*
X54389Y9376D01*
X54350Y9382D01*
X54308Y9385D01*
X54691D01*
D02*
G37*
G36*
X52844D02*
X52068D01*
X52449D01*
X52434Y9383D01*
X52414Y9382D01*
X52392Y9379D01*
X52369Y9374D01*
X52344Y9368D01*
X52320Y9359D01*
X52318D01*
X52317Y9358D01*
X52309Y9355D01*
X52297Y9349D01*
X52281Y9340D01*
X52264Y9329D01*
X52245Y9317D01*
X52225Y9302D01*
X52207Y9284D01*
X52206Y9283D01*
X52200Y9275D01*
X52191Y9265D01*
X52179Y9252D01*
X52167Y9234D01*
X52153Y9213D01*
X52140Y9189D01*
X52126Y9163D01*
Y9162D01*
X52123Y9157D01*
X52120Y9150D01*
X52117Y9141D01*
X52113Y9127D01*
X52109Y9111D01*
X52103Y9093D01*
X52097Y9072D01*
X52092Y9048D01*
X52086Y9021D01*
X52082Y8992D01*
X52077Y8961D01*
X52074Y8926D01*
X52071Y8889D01*
X52068Y8850D01*
Y8776D01*
X52070Y8764D01*
Y8749D01*
Y8734D01*
X52073Y8702D01*
X52076Y8666D01*
X52079Y8628D01*
X52085Y8594D01*
Y8592D01*
Y8589D01*
X52086Y8585D01*
X52088Y8579D01*
X52092Y8562D01*
X52097Y8540D01*
X52104Y8516D01*
X52114Y8489D01*
X52126Y8460D01*
X52140Y8432D01*
Y8430D01*
X52143Y8427D01*
X52146Y8423D01*
X52149Y8417D01*
X52161Y8400D01*
X52176Y8381D01*
X52195Y8358D01*
X52219Y8336D01*
X52245Y8313D01*
X52275Y8294D01*
X52276D01*
X52278Y8292D01*
X52282Y8289D01*
X52288Y8286D01*
X52297Y8283D01*
X52306Y8279D01*
X52327Y8270D01*
X52354Y8261D01*
X52386Y8253D01*
X52420Y8247D01*
X52456Y8246D01*
X52467D01*
X52476Y8247D01*
X52485D01*
X52497Y8249D01*
X52525Y8253D01*
X52557Y8262D01*
X52591Y8273D01*
X52627Y8289D01*
X52644Y8298D01*
X52661Y8310D01*
X52663Y8312D01*
X52666Y8313D01*
X52670Y8318D01*
X52676Y8322D01*
X52693Y8337D01*
X52712Y8358D01*
X52735Y8384D01*
X52759Y8415D01*
X52780Y8451D01*
X52799Y8492D01*
X52801Y8495D01*
X52804Y8502D01*
X52807Y8516D01*
X52813Y8532D01*
X52819Y8553D01*
X52823Y8577D01*
X52829Y8603D01*
X52834Y8631D01*
Y8633D01*
Y8634D01*
X52835Y8639D01*
Y8645D01*
X52837Y8660D01*
X52838Y8681D01*
X52841Y8705D01*
X52843Y8733D01*
X52844Y8763D01*
Y8836D01*
X52843Y8865D01*
X52841Y8896D01*
X52840Y8931D01*
X52837Y8967D01*
X52832Y9001D01*
Y9003D01*
Y9006D01*
X52831Y9010D01*
X52829Y9016D01*
X52828Y9034D01*
X52823Y9057D01*
X52817Y9081D01*
X52811Y9108D01*
X52804Y9135D01*
X52795Y9160D01*
Y9162D01*
X52793Y9165D01*
X52790Y9171D01*
X52786Y9178D01*
X52781Y9187D01*
X52775Y9198D01*
X52762Y9222D01*
X52744Y9248D01*
X52721Y9277D01*
X52694Y9302D01*
X52664Y9326D01*
X52663D01*
X52660Y9329D01*
X52655Y9332D01*
X52650Y9335D01*
X52640Y9340D01*
X52632Y9344D01*
X52620Y9350D01*
X52608Y9356D01*
X52578Y9367D01*
X52543Y9376D01*
X52504Y9382D01*
X52462Y9385D01*
X52844D01*
D02*
G37*
G36*
X63621Y9087D02*
X63613D01*
X63604Y9085D01*
X63594Y9082D01*
X63583Y9079D01*
X63570Y9073D01*
X63558Y9066D01*
X63546Y9055D01*
X63544Y9054D01*
X63541Y9049D01*
X63537Y9042D01*
X63531Y9033D01*
X63525Y9021D01*
X63520Y9006D01*
X63517Y8988D01*
X63516Y8968D01*
Y8244D01*
Y8360D01*
X63517Y8349D01*
X63519Y8334D01*
X63523Y8319D01*
X63528Y8304D01*
X63535Y8289D01*
X63546Y8276D01*
X63547Y8274D01*
X63552Y8271D01*
X63558Y8265D01*
X63567Y8261D01*
X63577Y8255D01*
X63589Y8249D01*
X63604Y8246D01*
X63621Y8244D01*
X63516D01*
X63723D01*
X63628D01*
X63637Y8246D01*
X63648Y8249D01*
X63660Y8252D01*
X63672Y8258D01*
X63684Y8265D01*
X63696Y8276D01*
X63697Y8277D01*
X63700Y8282D01*
X63705Y8289D01*
X63709Y8300D01*
X63714Y8313D01*
X63718Y8330D01*
X63721Y8349D01*
X63723Y8370D01*
Y8973D01*
X63721Y8983D01*
X63720Y8997D01*
X63717Y9012D01*
X63711Y9027D01*
X63705Y9042D01*
X63696Y9055D01*
X63694Y9057D01*
X63691Y9060D01*
X63684Y9066D01*
X63676Y9072D01*
X63664Y9076D01*
X63652Y9082D01*
X63637Y9085D01*
X63621Y9087D01*
D02*
G37*
G36*
X61338D02*
X61322D01*
X61314Y9085D01*
X61304D01*
X61281Y9082D01*
X61254Y9079D01*
X61226Y9073D01*
X61198Y9066D01*
X61168Y9055D01*
X61166D01*
X61165Y9054D01*
X61160Y9052D01*
X61154Y9049D01*
X61141Y9043D01*
X61123Y9033D01*
X61102Y9021D01*
X61081Y9006D01*
X61058Y8988D01*
X61037Y8968D01*
X61034Y8965D01*
X61028Y8958D01*
X61018Y8947D01*
X61006Y8931D01*
X60992Y8911D01*
X60979Y8889D01*
X60965Y8863D01*
X60953Y8835D01*
Y8833D01*
X60952Y8832D01*
X60950Y8827D01*
X60949Y8821D01*
X60944Y8806D01*
X60938Y8785D01*
X60932Y8760D01*
X60928Y8730D01*
X60925Y8699D01*
X60923Y8664D01*
Y8649D01*
X60925Y8640D01*
Y8631D01*
X60926Y8609D01*
X60931Y8582D01*
X60935Y8553D01*
X60943Y8523D01*
X60953Y8493D01*
Y8492D01*
X60955Y8490D01*
X60956Y8486D01*
X60959Y8480D01*
X60965Y8466D01*
X60974Y8447D01*
X60986Y8426D01*
X61001Y8403D01*
X61018Y8381D01*
X61037Y8358D01*
X61040Y8355D01*
X61046Y8349D01*
X61058Y8339D01*
X61073Y8327D01*
X61093Y8313D01*
X61115Y8298D01*
X61141Y8285D01*
X61168Y8273D01*
X61169D01*
X61171Y8271D01*
X61175Y8270D01*
X61181Y8268D01*
X61196Y8264D01*
X61217Y8259D01*
X61242Y8253D01*
X61271Y8249D01*
X61304Y8246D01*
X61338Y8244D01*
X61749D01*
X61355D01*
X61362Y8246D01*
X61373D01*
X61395Y8249D01*
X61421Y8252D01*
X61449Y8256D01*
X61479Y8264D01*
X61508Y8274D01*
X61509D01*
X61511Y8276D01*
X61520Y8280D01*
X61535Y8286D01*
X61553Y8297D01*
X61572Y8309D01*
X61595Y8324D01*
X61617Y8340D01*
X61638Y8360D01*
X61641Y8363D01*
X61647Y8370D01*
X61656Y8382D01*
X61668Y8397D01*
X61682Y8417D01*
X61695Y8441D01*
X61709Y8466D01*
X61721Y8493D01*
Y8495D01*
X61722Y8496D01*
X61724Y8501D01*
X61725Y8507D01*
X61730Y8523D01*
X61734Y8544D01*
X61740Y8570D01*
X61744Y8598D01*
X61748Y8631D01*
X61749Y8666D01*
Y8682D01*
X61748Y8690D01*
Y8699D01*
X61746Y8722D01*
X61742Y8748D01*
X61737Y8776D01*
X61730Y8806D01*
X61721Y8836D01*
Y8838D01*
X61719Y8839D01*
X61718Y8844D01*
X61715Y8850D01*
X61709Y8865D01*
X61700Y8883D01*
X61688Y8904D01*
X61674Y8926D01*
X61658Y8950D01*
X61638Y8971D01*
X61635Y8974D01*
X61629Y8980D01*
X61617Y8991D01*
X61602Y9003D01*
X61583Y9016D01*
X61560Y9031D01*
X61535Y9045D01*
X61508Y9057D01*
X61506D01*
X61505Y9058D01*
X61500Y9060D01*
X61494Y9061D01*
X61479Y9066D01*
X61458Y9072D01*
X61433Y9078D01*
X61404Y9082D01*
X61373Y9085D01*
X61338Y9087D01*
D02*
G37*
G36*
X58797D02*
X58789D01*
X58780Y9085D01*
X58770Y9082D01*
X58759Y9079D01*
X58746Y9073D01*
X58734Y9066D01*
X58722Y9055D01*
X58720Y9054D01*
X58717Y9049D01*
X58713Y9042D01*
X58707Y9033D01*
X58701Y9021D01*
X58696Y9006D01*
X58693Y8988D01*
X58692Y8968D01*
Y8244D01*
Y8360D01*
X58693Y8349D01*
X58695Y8334D01*
X58699Y8319D01*
X58704Y8304D01*
X58711Y8289D01*
X58722Y8276D01*
X58723Y8274D01*
X58728Y8271D01*
X58734Y8265D01*
X58743Y8261D01*
X58753Y8255D01*
X58765Y8249D01*
X58780Y8246D01*
X58797Y8244D01*
X58692D01*
X58899D01*
X58804D01*
X58813Y8246D01*
X58824Y8249D01*
X58836Y8252D01*
X58848Y8258D01*
X58860Y8265D01*
X58872Y8276D01*
X58873Y8277D01*
X58876Y8282D01*
X58881Y8289D01*
X58885Y8300D01*
X58890Y8313D01*
X58894Y8330D01*
X58897Y8349D01*
X58899Y8370D01*
Y8973D01*
X58897Y8983D01*
X58896Y8997D01*
X58893Y9012D01*
X58887Y9027D01*
X58881Y9042D01*
X58872Y9055D01*
X58870Y9057D01*
X58867Y9060D01*
X58860Y9066D01*
X58852Y9072D01*
X58840Y9076D01*
X58828Y9082D01*
X58813Y9085D01*
X58797Y9087D01*
D02*
G37*
G36*
X57232Y9395D02*
X56069D01*
X56631D01*
X56621Y9394D01*
X56609Y9392D01*
X56595D01*
X56579Y9389D01*
X56544Y9385D01*
X56507Y9376D01*
X56468Y9365D01*
X56427Y9350D01*
X56426D01*
X56423Y9349D01*
X56417Y9346D01*
X56409Y9343D01*
X56400Y9337D01*
X56390Y9332D01*
X56365Y9317D01*
X56335Y9299D01*
X56303Y9278D01*
X56272Y9253D01*
X56240Y9225D01*
X56239Y9223D01*
X56237Y9222D01*
X56233Y9217D01*
X56227Y9210D01*
X56221Y9202D01*
X56212Y9193D01*
X56194Y9171D01*
X56174Y9144D01*
X56153Y9112D01*
X56132Y9076D01*
X56114Y9037D01*
Y9036D01*
X56113Y9033D01*
X56110Y9027D01*
X56107Y9019D01*
X56104Y9009D01*
X56099Y8998D01*
X56096Y8985D01*
X56092Y8970D01*
X56083Y8937D01*
X56077Y8899D01*
X56071Y8857D01*
X56069Y8814D01*
Y8799D01*
X56071Y8787D01*
X56072Y8773D01*
X56074Y8757D01*
X56075Y8739D01*
X56080Y8718D01*
X56083Y8697D01*
X56089Y8673D01*
X56102Y8624D01*
X56111Y8598D01*
X56122Y8573D01*
X56135Y8547D01*
X56149Y8522D01*
X56150Y8520D01*
X56152Y8516D01*
X56156Y8508D01*
X56162Y8499D01*
X56171Y8489D01*
X56180Y8475D01*
X56192Y8460D01*
X56204Y8445D01*
X56219Y8429D01*
X56234Y8411D01*
X56252Y8394D01*
X56272Y8376D01*
X56314Y8342D01*
X56362Y8310D01*
X56363Y8309D01*
X56368Y8307D01*
X56375Y8303D01*
X56384Y8298D01*
X56397Y8292D01*
X56412Y8286D01*
X56429Y8279D01*
X56447Y8273D01*
X56468Y8265D01*
X56490Y8258D01*
X56514Y8252D01*
X56540Y8246D01*
X56594Y8237D01*
X56622Y8235D01*
X56651Y8234D01*
X56666D01*
X56678Y8235D01*
X56693Y8237D01*
X56709Y8238D01*
X56727Y8240D01*
X56748Y8243D01*
X56769Y8247D01*
X56793Y8252D01*
X56843Y8267D01*
X56868Y8274D01*
X56894Y8285D01*
X56919Y8297D01*
X56944Y8310D01*
X56946Y8312D01*
X56950Y8313D01*
X56958Y8318D01*
X56967Y8325D01*
X56977Y8333D01*
X56991Y8342D01*
X57006Y8354D01*
X57021Y8366D01*
X57037Y8381D01*
X57055Y8396D01*
X57090Y8432D01*
X57124Y8474D01*
X57156Y8522D01*
X57157Y8523D01*
X57159Y8528D01*
X57163Y8535D01*
X57168Y8546D01*
X57174Y8558D01*
X57180Y8573D01*
X57187Y8589D01*
X57193Y8609D01*
X57201Y8630D01*
X57208Y8652D01*
X57214Y8676D01*
X57220Y8702D01*
X57229Y8757D01*
X57231Y8785D01*
X57232Y8814D01*
Y8829D01*
X57231Y8841D01*
X57229Y8854D01*
X57228Y8871D01*
X57226Y8889D01*
X57223Y8910D01*
X57219Y8931D01*
X57214Y8955D01*
X57199Y9003D01*
X57192Y9028D01*
X57181Y9054D01*
X57169Y9079D01*
X57156Y9105D01*
X57154Y9106D01*
X57153Y9111D01*
X57148Y9118D01*
X57141Y9127D01*
X57133Y9138D01*
X57124Y9151D01*
X57112Y9166D01*
X57100Y9183D01*
X57085Y9199D01*
X57070Y9216D01*
X57034Y9252D01*
X56992Y9286D01*
X56944Y9317D01*
X56943Y9319D01*
X56938Y9320D01*
X56931Y9325D01*
X56921Y9329D01*
X56909Y9335D01*
X56894Y9341D01*
X56877Y9349D01*
X56858Y9356D01*
X56837Y9364D01*
X56814Y9371D01*
X56790Y9377D01*
X56765Y9383D01*
X56709Y9392D01*
X56681Y9394D01*
X56652Y9395D01*
X57232D01*
D02*
G37*
%LPD*%
G36*
X59105Y8349D02*
X59107Y8334D01*
X59111Y8319D01*
X59116Y8304D01*
X59123Y8289D01*
X59134Y8276D01*
X59135Y8274D01*
X59138Y8271D01*
X59146Y8265D01*
X59153Y8261D01*
X59165Y8255D01*
X59177Y8249D01*
X59192Y8246D01*
X59209Y8244D01*
X59104D01*
Y8360D01*
X59105Y8349D01*
D02*
G37*
G36*
X61815Y8953D02*
X61816Y8944D01*
X61819Y8935D01*
X61825Y8925D01*
X61831Y8914D01*
X61840Y8904D01*
X61842Y8902D01*
X61845Y8901D01*
X61849Y8896D01*
X61857Y8892D01*
X61875Y8884D01*
X61885Y8881D01*
X61896Y8880D01*
X61899D01*
X61902Y8881D01*
X61908D01*
X61915Y8883D01*
X61924Y8886D01*
X61936Y8889D01*
X61951Y8893D01*
X61953D01*
X61959Y8896D01*
X61966Y8898D01*
X61977Y8901D01*
X61989Y8904D01*
X62002Y8905D01*
X62028Y8908D01*
X62035D01*
X62044Y8907D01*
X62055Y8905D01*
X62067Y8902D01*
X62079Y8898D01*
X62091Y8892D01*
X62103Y8884D01*
X62104Y8883D01*
X62107Y8880D01*
X62113Y8874D01*
X62119Y8866D01*
X62127Y8856D01*
X62134Y8844D01*
X62142Y8829D01*
X62148Y8812D01*
Y8811D01*
X62151Y8805D01*
X62152Y8794D01*
X62155Y8781D01*
X62160Y8764D01*
X62163Y8745D01*
X62166Y8724D01*
X62169Y8700D01*
Y8697D01*
X62170Y8688D01*
Y8675D01*
X62172Y8657D01*
X62173Y8634D01*
Y8607D01*
X62175Y8576D01*
Y8543D01*
Y8370D01*
Y8367D01*
Y8360D01*
X62176Y8349D01*
X62178Y8334D01*
X62182Y8319D01*
X62187Y8304D01*
X62194Y8289D01*
X62205Y8276D01*
X62206Y8274D01*
X62211Y8271D01*
X62217Y8265D01*
X62226Y8261D01*
X62236Y8255D01*
X62248Y8249D01*
X62263Y8246D01*
X62279Y8244D01*
X61813D01*
Y8961D01*
X61815Y8953D01*
D02*
G37*
G36*
X58088Y8929D02*
X58104Y8928D01*
X58124Y8922D01*
X58148Y8914D01*
X58172Y8902D01*
X58196Y8886D01*
X58208Y8875D01*
X58220Y8863D01*
X58223Y8860D01*
X58226Y8856D01*
X58229Y8851D01*
X58233Y8844D01*
X58238Y8835D01*
X58244Y8824D01*
X58248Y8814D01*
X58254Y8800D01*
X58260Y8785D01*
X58265Y8769D01*
X58269Y8751D01*
X58272Y8731D01*
X58275Y8711D01*
X58278Y8688D01*
Y8664D01*
Y8663D01*
Y8658D01*
Y8652D01*
X58277Y8645D01*
Y8634D01*
X58275Y8622D01*
X58271Y8594D01*
X58263Y8564D01*
X58254Y8531D01*
X58239Y8501D01*
X58220Y8472D01*
X58217Y8469D01*
X58209Y8462D01*
X58197Y8451D01*
X58179Y8439D01*
X58158Y8426D01*
X58134Y8415D01*
X58106Y8408D01*
X58091Y8406D01*
X58074Y8405D01*
X58065D01*
X58056Y8406D01*
X58043Y8408D01*
X58029Y8412D01*
X58013Y8417D01*
X57996Y8424D01*
X57980Y8433D01*
X57979Y8435D01*
X57973Y8439D01*
X57965Y8445D01*
X57955Y8456D01*
X57943Y8468D01*
X57931Y8484D01*
X57919Y8502D01*
X57908Y8523D01*
X57907Y8526D01*
X57904Y8534D01*
X57899Y8547D01*
X57895Y8564D01*
X57890Y8585D01*
X57886Y8610D01*
X57883Y8637D01*
X57881Y8669D01*
Y8670D01*
Y8672D01*
Y8676D01*
Y8682D01*
X57883Y8697D01*
X57884Y8717D01*
X57887Y8737D01*
X57892Y8761D01*
X57898Y8785D01*
X57907Y8808D01*
X57908Y8811D01*
X57911Y8818D01*
X57917Y8829D01*
X57925Y8842D01*
X57935Y8857D01*
X57947Y8872D01*
X57961Y8886D01*
X57977Y8899D01*
X57979Y8901D01*
X57985Y8904D01*
X57993Y8910D01*
X58005Y8916D01*
X58020Y8920D01*
X58037Y8926D01*
X58055Y8929D01*
X58074Y8931D01*
X58082D01*
X58088Y8929D01*
D02*
G37*
G36*
X58484Y7937D02*
X58397D01*
X58407Y7939D01*
X58419Y7942D01*
X58433Y7946D01*
X58445Y7952D01*
X58457Y7961D01*
X58466Y7973D01*
Y7975D01*
X58469Y7979D01*
X58472Y7988D01*
X58475Y8000D01*
X58478Y8014D01*
X58481Y8032D01*
X58482Y8053D01*
X58484Y8077D01*
Y7937D01*
D02*
G37*
G36*
X57674Y8643D02*
Y8633D01*
X57676Y8609D01*
X57679Y8582D01*
X57685Y8552D01*
X57691Y8522D01*
X57700Y8490D01*
Y8489D01*
X57701Y8487D01*
X57703Y8483D01*
X57704Y8477D01*
X57710Y8462D01*
X57719Y8444D01*
X57730Y8423D01*
X57743Y8400D01*
X57758Y8378D01*
X57775Y8355D01*
X57776Y8352D01*
X57782Y8346D01*
X57793Y8337D01*
X57806Y8325D01*
X57823Y8312D01*
X57841Y8298D01*
X57862Y8285D01*
X57886Y8273D01*
X57889Y8271D01*
X57896Y8268D01*
X57910Y8264D01*
X57928Y8259D01*
X57947Y8253D01*
X57971Y8249D01*
X57996Y8246D01*
X58023Y8244D01*
X58038Y8244D01*
X58055Y8246D01*
X58076Y8249D01*
X58098Y8253D01*
X58124Y8259D01*
X58149Y8267D01*
X58173Y8279D01*
X58176Y8280D01*
X58184Y8286D01*
X58196Y8294D01*
X58209Y8306D01*
X58227Y8321D01*
X58247Y8339D01*
X58266Y8360D01*
X58287Y8384D01*
Y8075D01*
Y8074D01*
Y8069D01*
Y8063D01*
X58289Y8054D01*
X58290Y8044D01*
X58293Y8032D01*
X58299Y8006D01*
X58311Y7981D01*
X58320Y7969D01*
X58329Y7958D01*
X58341Y7951D01*
X58355Y7943D01*
X58370Y7939D01*
X58388Y7937D01*
X57673Y7937D01*
Y8651D01*
X57674Y8643D01*
D02*
G37*
G36*
X64327Y8430D02*
Y8427D01*
X64330Y8420D01*
X64333Y8406D01*
X64337Y8391D01*
X64342Y8375D01*
X64346Y8358D01*
X64352Y8342D01*
X64357Y8328D01*
Y8327D01*
X64358Y8322D01*
X64361Y8316D01*
X64366Y8309D01*
X64372Y8300D01*
X64378Y8291D01*
X64387Y8280D01*
X64397Y8270D01*
X64399Y8268D01*
X64402Y8265D01*
X64409Y8262D01*
X64418Y8258D01*
X64430Y8252D01*
X64443Y8249D01*
X64460Y8246D01*
X64478Y8244D01*
X64054D01*
X64061Y8246D01*
X64072Y8249D01*
X64084Y8252D01*
X64096Y8258D01*
X64108Y8265D01*
X64120Y8276D01*
X64121Y8277D01*
X64124Y8282D01*
X64129Y8289D01*
X64133Y8300D01*
X64139Y8313D01*
X64144Y8330D01*
X64147Y8349D01*
X64148Y8372D01*
Y9141D01*
X64327Y8430D01*
D02*
G37*
G36*
X54322Y9229D02*
X54338Y9225D01*
X54359Y9219D01*
X54382Y9205D01*
X54394Y9198D01*
X54406Y9187D01*
X54416Y9177D01*
X54427Y9162D01*
X54436Y9147D01*
X54443Y9129D01*
Y9127D01*
X54445Y9124D01*
X54446Y9118D01*
X54449Y9109D01*
X54452Y9099D01*
X54455Y9085D01*
X54460Y9070D01*
X54463Y9052D01*
X54466Y9031D01*
X54470Y9009D01*
X54473Y8983D01*
X54476Y8955D01*
X54479Y8925D01*
X54481Y8892D01*
X54482Y8856D01*
Y8818D01*
Y8817D01*
Y8812D01*
Y8805D01*
Y8794D01*
Y8782D01*
X54481Y8767D01*
Y8752D01*
Y8734D01*
X54478Y8699D01*
X54475Y8658D01*
X54472Y8619D01*
X54466Y8583D01*
Y8582D01*
X54464Y8579D01*
Y8574D01*
X54463Y8568D01*
X54458Y8552D01*
X54452Y8532D01*
X54445Y8510D01*
X54436Y8487D01*
X54424Y8466D01*
X54410Y8447D01*
X54409Y8445D01*
X54403Y8439D01*
X54394Y8432D01*
X54382Y8424D01*
X54367Y8415D01*
X54349Y8408D01*
X54328Y8402D01*
X54304Y8400D01*
X54301D01*
X54292Y8402D01*
X54280Y8403D01*
X54263Y8406D01*
X54245Y8412D01*
X54228Y8421D01*
X54211Y8432D01*
X54195Y8448D01*
X54193Y8451D01*
X54189Y8457D01*
X54181Y8468D01*
X54174Y8484D01*
X54165Y8504D01*
X54154Y8526D01*
X54147Y8555D01*
X54139Y8586D01*
Y8588D01*
X54138Y8591D01*
Y8595D01*
X54136Y8603D01*
X54135Y8612D01*
X54133Y8624D01*
X54132Y8636D01*
X54130Y8651D01*
X54129Y8667D01*
X54127Y8685D01*
Y8705D01*
X54126Y8725D01*
X54124Y8748D01*
X54123Y8772D01*
Y8824D01*
Y8826D01*
Y8830D01*
Y8838D01*
Y8847D01*
Y8859D01*
X54124Y8872D01*
Y8887D01*
Y8904D01*
X54127Y8940D01*
X54130Y8979D01*
X54135Y9016D01*
X54141Y9051D01*
Y9052D01*
Y9055D01*
X54142Y9060D01*
X54144Y9066D01*
X54148Y9081D01*
X54154Y9100D01*
X54162Y9123D01*
X54171Y9144D01*
X54183Y9166D01*
X54196Y9184D01*
X54198Y9186D01*
X54204Y9192D01*
X54213Y9199D01*
X54225Y9208D01*
X54240Y9216D01*
X54259Y9223D01*
X54280Y9229D01*
X54305Y9231D01*
X54314D01*
X54322Y9229D01*
D02*
G37*
G36*
X52476D02*
X52492Y9225D01*
X52513Y9219D01*
X52536Y9205D01*
X52548Y9198D01*
X52560Y9187D01*
X52570Y9177D01*
X52581Y9162D01*
X52590Y9147D01*
X52597Y9129D01*
Y9127D01*
X52599Y9124D01*
X52600Y9118D01*
X52603Y9109D01*
X52606Y9099D01*
X52609Y9085D01*
X52614Y9070D01*
X52617Y9052D01*
X52620Y9031D01*
X52624Y9009D01*
X52627Y8983D01*
X52630Y8955D01*
X52633Y8925D01*
X52635Y8892D01*
X52636Y8856D01*
Y8818D01*
Y8817D01*
Y8812D01*
Y8805D01*
Y8794D01*
Y8782D01*
X52635Y8767D01*
Y8752D01*
Y8734D01*
X52632Y8699D01*
X52629Y8658D01*
X52626Y8619D01*
X52620Y8583D01*
Y8582D01*
X52618Y8579D01*
Y8574D01*
X52617Y8568D01*
X52612Y8552D01*
X52606Y8532D01*
X52599Y8510D01*
X52590Y8487D01*
X52578Y8466D01*
X52564Y8447D01*
X52563Y8445D01*
X52557Y8439D01*
X52548Y8432D01*
X52536Y8424D01*
X52521Y8415D01*
X52503Y8408D01*
X52482Y8402D01*
X52458Y8400D01*
X52455D01*
X52446Y8402D01*
X52434Y8403D01*
X52417Y8406D01*
X52399Y8412D01*
X52381Y8421D01*
X52365Y8432D01*
X52348Y8448D01*
X52347Y8451D01*
X52342Y8457D01*
X52335Y8468D01*
X52327Y8484D01*
X52318Y8504D01*
X52308Y8526D01*
X52300Y8555D01*
X52293Y8586D01*
Y8588D01*
X52291Y8591D01*
Y8595D01*
X52290Y8603D01*
X52288Y8612D01*
X52287Y8624D01*
X52285Y8636D01*
X52284Y8651D01*
X52282Y8667D01*
X52281Y8685D01*
Y8705D01*
X52279Y8725D01*
X52278Y8748D01*
X52276Y8772D01*
Y8824D01*
Y8826D01*
Y8830D01*
Y8838D01*
Y8847D01*
Y8859D01*
X52278Y8872D01*
Y8887D01*
Y8904D01*
X52281Y8940D01*
X52284Y8979D01*
X52288Y9016D01*
X52294Y9051D01*
Y9052D01*
Y9055D01*
X52296Y9060D01*
X52297Y9066D01*
X52302Y9081D01*
X52308Y9100D01*
X52315Y9123D01*
X52324Y9144D01*
X52336Y9166D01*
X52350Y9184D01*
X52351Y9186D01*
X52357Y9192D01*
X52366Y9199D01*
X52378Y9208D01*
X52393Y9216D01*
X52413Y9223D01*
X52434Y9229D01*
X52459Y9231D01*
X52468D01*
X52476Y9229D01*
D02*
G37*
G36*
X61359Y8931D02*
X61374Y8928D01*
X61391Y8925D01*
X61409Y8919D01*
X61427Y8911D01*
X61445Y8901D01*
X61446Y8899D01*
X61452Y8895D01*
X61461Y8887D01*
X61472Y8877D01*
X61482Y8865D01*
X61494Y8848D01*
X61506Y8829D01*
X61517Y8808D01*
X61518Y8805D01*
X61520Y8797D01*
X61524Y8784D01*
X61529Y8767D01*
X61533Y8746D01*
X61536Y8721D01*
X61539Y8694D01*
X61541Y8664D01*
Y8663D01*
Y8661D01*
Y8657D01*
Y8651D01*
X61539Y8636D01*
X61538Y8616D01*
X61535Y8594D01*
X61530Y8570D01*
X61524Y8546D01*
X61517Y8522D01*
X61515Y8519D01*
X61512Y8511D01*
X61506Y8501D01*
X61499Y8487D01*
X61488Y8474D01*
X61476Y8457D01*
X61463Y8444D01*
X61446Y8430D01*
X61445Y8429D01*
X61437Y8426D01*
X61428Y8420D01*
X61415Y8415D01*
X61400Y8409D01*
X61382Y8403D01*
X61361Y8400D01*
X61338Y8399D01*
X61329D01*
X61323Y8400D01*
X61305Y8403D01*
X61284Y8408D01*
X61260Y8417D01*
X61235Y8429D01*
X61211Y8447D01*
X61199Y8457D01*
X61189Y8469D01*
Y8471D01*
X61186Y8472D01*
X61183Y8477D01*
X61180Y8483D01*
X61175Y8489D01*
X61171Y8498D01*
X61166Y8508D01*
X61160Y8520D01*
X61150Y8547D01*
X61141Y8582D01*
X61135Y8621D01*
X61132Y8664D01*
Y8666D01*
Y8670D01*
Y8676D01*
X61133Y8685D01*
Y8696D01*
X61135Y8708D01*
X61139Y8736D01*
X61145Y8769D01*
X61156Y8802D01*
X61169Y8833D01*
X61189Y8862D01*
Y8863D01*
X61192Y8865D01*
X61199Y8872D01*
X61211Y8884D01*
X61227Y8898D01*
X61250Y8910D01*
X61275Y8922D01*
X61305Y8929D01*
X61320Y8932D01*
X61349D01*
X61359Y8931D01*
D02*
G37*
G36*
X56673Y9280D02*
X56685D01*
X56699Y9278D01*
X56714Y9275D01*
X56729Y9274D01*
X56766Y9266D01*
X56805Y9255D01*
X56847Y9238D01*
X56867Y9229D01*
X56888Y9217D01*
X56889D01*
X56892Y9214D01*
X56898Y9211D01*
X56906Y9205D01*
X56915Y9199D01*
X56925Y9192D01*
X56949Y9172D01*
X56976Y9148D01*
X57004Y9118D01*
X57031Y9085D01*
X57057Y9046D01*
Y9045D01*
X57060Y9042D01*
X57063Y9036D01*
X57066Y9028D01*
X57070Y9018D01*
X57076Y9006D01*
X57082Y8992D01*
X57087Y8977D01*
X57099Y8943D01*
X57109Y8904D01*
X57115Y8860D01*
X57118Y8814D01*
Y8812D01*
Y8808D01*
Y8802D01*
X57117Y8791D01*
Y8781D01*
X57115Y8767D01*
X57114Y8752D01*
X57111Y8736D01*
X57103Y8700D01*
X57093Y8661D01*
X57078Y8619D01*
X57057Y8579D01*
X57055Y8577D01*
X57054Y8574D01*
X57051Y8568D01*
X57045Y8561D01*
X57039Y8552D01*
X57031Y8541D01*
X57012Y8517D01*
X56988Y8490D01*
X56959Y8462D01*
X56925Y8435D01*
X56888Y8409D01*
X56886D01*
X56883Y8406D01*
X56877Y8403D01*
X56868Y8400D01*
X56859Y8396D01*
X56847Y8390D01*
X56834Y8384D01*
X56817Y8379D01*
X56783Y8367D01*
X56742Y8357D01*
X56699Y8351D01*
X56652Y8348D01*
X56640D01*
X56631Y8349D01*
X56619D01*
X56606Y8351D01*
X56591Y8352D01*
X56574Y8355D01*
X56538Y8363D01*
X56499Y8373D01*
X56457Y8388D01*
X56417Y8409D01*
X56415Y8411D01*
X56412Y8412D01*
X56406Y8415D01*
X56399Y8421D01*
X56390Y8427D01*
X56380Y8435D01*
X56356Y8454D01*
X56327Y8478D01*
X56299Y8507D01*
X56272Y8541D01*
X56246Y8579D01*
X56245Y8580D01*
X56243Y8583D01*
X56240Y8589D01*
X56236Y8597D01*
X56231Y8607D01*
X56227Y8619D01*
X56221Y8633D01*
X56215Y8648D01*
X56209Y8664D01*
X56203Y8684D01*
X56194Y8722D01*
X56186Y8767D01*
X56183Y8814D01*
Y8815D01*
Y8820D01*
Y8826D01*
X56185Y8835D01*
Y8847D01*
X56186Y8859D01*
X56189Y8874D01*
X56191Y8890D01*
X56198Y8926D01*
X56210Y8965D01*
X56227Y9006D01*
X56236Y9027D01*
X56248Y9046D01*
Y9048D01*
X56251Y9051D01*
X56254Y9057D01*
X56260Y9064D01*
X56266Y9073D01*
X56273Y9084D01*
X56293Y9108D01*
X56317Y9136D01*
X56347Y9165D01*
X56380Y9192D01*
X56418Y9217D01*
X56420Y9219D01*
X56423Y9220D01*
X56429Y9223D01*
X56436Y9228D01*
X56447Y9232D01*
X56459Y9238D01*
X56472Y9244D01*
X56487Y9250D01*
X56522Y9260D01*
X56562Y9271D01*
X56606Y9278D01*
X56628Y9281D01*
X56664D01*
X56673Y9280D01*
D02*
G37*
%LPC*%
G36*
X56642Y9136D02*
X56634D01*
X56624Y9135D01*
X56612Y9133D01*
X56597Y9130D01*
X56579Y9126D01*
X56559Y9121D01*
X56540Y9114D01*
X56519Y9103D01*
X56498Y9091D01*
X56475Y9076D01*
X56456Y9058D01*
X56435Y9037D01*
X56417Y9012D01*
X56400Y8983D01*
X56387Y8950D01*
X56511Y8922D01*
Y8923D01*
X56513Y8926D01*
X56516Y8932D01*
X56519Y8938D01*
X56529Y8955D01*
X56543Y8976D01*
X56562Y8995D01*
X56586Y9012D01*
X56600Y9018D01*
X56615Y9024D01*
X56630Y9027D01*
X56648Y9028D01*
X56651D01*
X56660Y9027D01*
X56673Y9025D01*
X56688Y9021D01*
X56708Y9015D01*
X56726Y9004D01*
X56745Y8991D01*
X56762Y8971D01*
X56763Y8968D01*
X56768Y8961D01*
X56775Y8949D01*
X56781Y8932D01*
X56789Y8911D01*
X56796Y8886D01*
X56801Y8856D01*
X56802Y8823D01*
Y8821D01*
Y8820D01*
Y8811D01*
X56801Y8797D01*
Y8779D01*
X56798Y8760D01*
X56795Y8739D01*
X56792Y8718D01*
X56786Y8699D01*
X56784Y8697D01*
X56783Y8690D01*
X56778Y8681D01*
X56772Y8670D01*
X56765Y8658D01*
X56757Y8645D01*
X56747Y8633D01*
X56735Y8622D01*
X56733Y8621D01*
X56729Y8619D01*
X56721Y8615D01*
X56712Y8610D01*
X56700Y8606D01*
X56685Y8603D01*
X56670Y8600D01*
X56654Y8598D01*
X56649D01*
X56643Y8600D01*
X56637D01*
X56618Y8606D01*
X56607Y8609D01*
X56597Y8615D01*
X56585Y8622D01*
X56573Y8630D01*
X56561Y8640D01*
X56549Y8654D01*
X56537Y8669D01*
X56528Y8685D01*
X56517Y8706D01*
X56510Y8728D01*
X56387Y8687D01*
Y8685D01*
X56390Y8678D01*
X56395Y8669D01*
X56400Y8655D01*
X56408Y8640D01*
X56417Y8624D01*
X56429Y8606D01*
X56444Y8588D01*
X56460Y8570D01*
X56480Y8552D01*
X56502Y8535D01*
X56526Y8520D01*
X56555Y8507D01*
X56585Y8498D01*
X56619Y8492D01*
X56657Y8489D01*
X56669D01*
X56684Y8490D01*
X56702Y8493D01*
X56723Y8498D01*
X56745Y8504D01*
X56771Y8513D01*
X56795Y8525D01*
X56798Y8526D01*
X56805Y8532D01*
X56817Y8540D01*
X56832Y8552D01*
X56849Y8568D01*
X56865Y8586D01*
X56883Y8609D01*
X56898Y8636D01*
Y8637D01*
X56900Y8639D01*
X56901Y8643D01*
X56904Y8649D01*
X56910Y8664D01*
X56916Y8687D01*
X56924Y8712D01*
X56930Y8742D01*
X56934Y8776D01*
X56935Y8814D01*
Y8815D01*
Y8818D01*
Y8823D01*
Y8830D01*
X56934Y8838D01*
Y8848D01*
X56931Y8871D01*
X56926Y8898D01*
X56921Y8925D01*
X56913Y8953D01*
X56901Y8982D01*
Y8983D01*
X56900Y8985D01*
X56895Y8994D01*
X56886Y9007D01*
X56874Y9024D01*
X56861Y9042D01*
X56843Y9061D01*
X56823Y9079D01*
X56799Y9096D01*
X56798D01*
X56796Y9097D01*
X56787Y9102D01*
X56774Y9109D01*
X56754Y9117D01*
X56732Y9123D01*
X56705Y9130D01*
X56675Y9135D01*
X56642Y9136D01*
D02*
G37*
G36*
X32203Y12387D02*
X32113D01*
X32093Y12384D01*
X32069D01*
X32043Y12381D01*
X32009Y12374D01*
X31976Y12371D01*
X31899Y12354D01*
X31813Y12327D01*
X31723Y12291D01*
X31679Y12271D01*
X31633Y12244D01*
X31629Y12241D01*
X31619Y12237D01*
X31606Y12227D01*
X31589Y12214D01*
X31566Y12197D01*
X31539Y12177D01*
X31513Y12154D01*
X31483Y12124D01*
X31416Y12061D01*
X31353Y11984D01*
X31289Y11894D01*
X31263Y11847D01*
X31236Y11794D01*
X33076D01*
Y11797D01*
X33072Y11801D01*
X33062Y11821D01*
X33049Y11847D01*
X33026Y11887D01*
X32996Y11931D01*
X32959Y11981D01*
X32916Y12034D01*
X32862Y12091D01*
X32802Y12147D01*
X32736Y12201D01*
X32659Y12251D01*
X32572Y12294D01*
X32479Y12334D01*
X32376Y12361D01*
X32263Y12381D01*
X32203Y12387D01*
D02*
G37*
G36*
X13256Y9991D02*
X12974D01*
Y9927D01*
X13256D01*
Y9991D01*
D02*
G37*
G36*
X13359Y9949D02*
X13336D01*
Y9858D01*
X12894D01*
Y9942D01*
X12852Y9934D01*
X12814Y9927D01*
X12784Y9919D01*
X12753Y9911D01*
X12734Y9908D01*
X12715Y9900D01*
X12708Y9896D01*
X12704D01*
X12654Y9877D01*
X12620Y9858D01*
X12601Y9847D01*
X12593Y9843D01*
X12570Y9828D01*
X12555Y9812D01*
X12548Y9801D01*
X12544Y9797D01*
X12532Y9786D01*
X12528Y9778D01*
X12525Y9770D01*
X13576D01*
Y9915D01*
X13538Y9923D01*
X13500Y9930D01*
X13458Y9938D01*
X13420Y9942D01*
X13390Y9946D01*
X13359Y9949D01*
D02*
G37*
G36*
X13744Y9858D02*
X13740D01*
Y9770D01*
X13828D01*
X13824Y9778D01*
X13820Y9789D01*
X13816Y9797D01*
X13812Y9801D01*
X13793Y9820D01*
X13771Y9839D01*
X13748Y9854D01*
X13744Y9858D01*
D02*
G37*
G36*
X12342Y9446D02*
Y9271D01*
X12471D01*
Y9317D01*
X12342Y9446D01*
D02*
G37*
G36*
X13812Y9671D02*
X12517D01*
X12528Y9519D01*
X12574D01*
Y9321D01*
X12795Y9096D01*
Y9203D01*
X13344D01*
Y9020D01*
X12864D01*
X13210Y8662D01*
X13782Y9286D01*
X13812Y9671D01*
D02*
G37*
G36*
X13771Y9157D02*
X13264Y8608D01*
X13691Y8178D01*
X13771Y9157D01*
D02*
G37*
G36*
X12574Y9210D02*
Y9199D01*
X12567D01*
X12662Y8075D01*
X13161Y8612D01*
X12574Y9210D01*
D02*
G37*
G36*
X13214Y8555D02*
X12669Y7964D01*
X12677Y7881D01*
X12715Y7877D01*
X12749Y7865D01*
X12780Y7854D01*
X12803Y7839D01*
X12826Y7823D01*
X12841Y7812D01*
X12849Y7804D01*
X12852Y7801D01*
X12875Y7774D01*
X12890Y7743D01*
X12902Y7713D01*
X12910Y7686D01*
X12913Y7660D01*
X12917Y7641D01*
Y7625D01*
Y7622D01*
Y7610D01*
Y7606D01*
Y7602D01*
X12913Y7587D01*
Y7583D01*
X13641D01*
X13679Y8071D01*
X13214Y8555D01*
D02*
G37*
G36*
X12658Y7770D02*
X12631D01*
X12612Y7762D01*
X12578Y7747D01*
X12559Y7732D01*
X12551Y7728D01*
Y7724D01*
X12536Y7709D01*
X12528Y7690D01*
X12513Y7660D01*
X12509Y7637D01*
Y7629D01*
Y7625D01*
Y7602D01*
X12517Y7583D01*
X12528Y7553D01*
X12544Y7530D01*
X12548Y7526D01*
X12551Y7522D01*
X12567Y7507D01*
X12586Y7500D01*
X12616Y7484D01*
X12639Y7481D01*
X12650D01*
X12673Y7484D01*
X12692Y7488D01*
X12723Y7503D01*
X12746Y7515D01*
X12749Y7522D01*
X12753D01*
X12769Y7538D01*
X12776Y7557D01*
X12791Y7591D01*
Y7602D01*
X12795Y7614D01*
Y7622D01*
Y7625D01*
X12791Y7644D01*
X12788Y7663D01*
X12772Y7698D01*
X12761Y7717D01*
X12753Y7724D01*
X12734Y7740D01*
X12719Y7751D01*
X12685Y7766D01*
X12658Y7770D01*
D02*
G37*
%LPD*%
G36*
X12681Y7709D02*
X12704Y7702D01*
X12719Y7690D01*
X12723Y7686D01*
X12738Y7667D01*
X12746Y7644D01*
X12749Y7633D01*
Y7625D01*
X12746Y7599D01*
X12734Y7576D01*
X12727Y7561D01*
X12723Y7557D01*
X12700Y7542D01*
X12677Y7534D01*
X12662Y7530D01*
X12654D01*
X12624Y7538D01*
X12605Y7549D01*
X12589Y7564D01*
X12578Y7580D01*
X12570Y7599D01*
X12567Y7610D01*
Y7622D01*
Y7625D01*
X12570Y7648D01*
X12578Y7667D01*
X12589Y7682D01*
X12593Y7686D01*
X12612Y7702D01*
X12635Y7709D01*
X12647Y7713D01*
X12654D01*
X12681Y7709D01*
D02*
G37*
%LPC*%
G36*
X79218Y7493D02*
X79206D01*
X79191Y7491D01*
X79173Y7490D01*
X79154Y7488D01*
X79131Y7484D01*
X79107Y7479D01*
X79085Y7472D01*
X79082Y7470D01*
X79074Y7469D01*
X79062Y7464D01*
X79049Y7457D01*
X79032Y7450D01*
X79014Y7439D01*
X78996Y7427D01*
X78978Y7414D01*
X78977Y7412D01*
X78971Y7408D01*
X78963Y7399D01*
X78953Y7388D01*
X78942Y7376D01*
X78930Y7361D01*
X78920Y7343D01*
X78911Y7325D01*
X78909Y7324D01*
X78908Y7316D01*
X78903Y7307D01*
X78899Y7294D01*
X78896Y7277D01*
X78891Y7259D01*
X78890Y7240D01*
X78888Y7219D01*
Y7217D01*
Y7216D01*
Y7211D01*
Y7205D01*
X78890Y7192D01*
X78893Y7174D01*
X78896Y7153D01*
X78902Y7130D01*
X78911Y7108D01*
X78921Y7087D01*
X78923Y7084D01*
X78927Y7078D01*
X78935Y7067D01*
X78945Y7054D01*
X78959Y7037D01*
X78975Y7019D01*
X78993Y7001D01*
X79016Y6982D01*
X79013Y6980D01*
X79005Y6976D01*
X78995Y6970D01*
X78981Y6961D01*
X78965Y6950D01*
X78948Y6938D01*
X78932Y6923D01*
X78915Y6909D01*
X78914Y6907D01*
X78909Y6901D01*
X78902Y6894D01*
X78893Y6882D01*
X78882Y6870D01*
X78872Y6853D01*
X78863Y6837D01*
X78854Y6819D01*
X78852Y6817D01*
X78851Y6810D01*
X78848Y6801D01*
X78843Y6787D01*
X78839Y6771D01*
X78836Y6753D01*
X78835Y6732D01*
X78833Y6711D01*
Y6699D01*
X78835Y6685D01*
X78836Y6669D01*
X78840Y6648D01*
X78845Y6625D01*
X78852Y6601D01*
X78861Y6577D01*
X78863Y6574D01*
X78866Y6567D01*
X78873Y6555D01*
X78882Y6538D01*
X78894Y6520D01*
X78908Y6501D01*
X78924Y6481D01*
X78944Y6462D01*
X78947Y6460D01*
X78953Y6453D01*
X78965Y6444D01*
X78980Y6433D01*
X78999Y6420D01*
X79020Y6406D01*
X79044Y6394D01*
X79071Y6382D01*
X79073D01*
X79074Y6381D01*
X79079Y6379D01*
X79085Y6378D01*
X79100Y6373D01*
X79119Y6369D01*
X79143Y6365D01*
X79172Y6360D01*
X79202Y6357D01*
X79235Y6356D01*
X79250D01*
X79268Y6357D01*
X79289Y6360D01*
X79314Y6363D01*
X79343Y6369D01*
X79371Y6377D01*
X79398Y6387D01*
X79399D01*
X79401Y6388D01*
X79410Y6393D01*
X79423Y6400D01*
X79440Y6409D01*
X79458Y6421D01*
X79479Y6435D01*
X79498Y6451D01*
X79516Y6468D01*
X79518Y6471D01*
X79524Y6477D01*
X79533Y6486D01*
X79542Y6499D01*
X79554Y6514D01*
X79566Y6532D01*
X79576Y6550D01*
X79587Y6570D01*
X79588Y6573D01*
X79590Y6579D01*
X79594Y6588D01*
X79599Y6600D01*
X79603Y6615D01*
X79606Y6628D01*
X79609Y6643D01*
X79611Y6657D01*
Y6664D01*
X79609Y6672D01*
X79608Y6682D01*
X79603Y6693D01*
X79599Y6705D01*
X79591Y6717D01*
X79582Y6727D01*
X79581Y6729D01*
X79578Y6732D01*
X79570Y6736D01*
X79563Y6741D01*
X79552Y6745D01*
X79540Y6750D01*
X79527Y6753D01*
X79512Y6754D01*
X79509D01*
X79498Y6753D01*
X79486Y6750D01*
X79471Y6742D01*
X79470D01*
X79468Y6741D01*
X79459Y6735D01*
X79450Y6724D01*
X79444Y6712D01*
Y6711D01*
X79443Y6708D01*
X79440Y6702D01*
X79437Y6696D01*
X79434Y6687D01*
X79429Y6676D01*
X79419Y6654D01*
X79407Y6628D01*
X79392Y6603D01*
X79377Y6577D01*
X79361Y6556D01*
X79359Y6555D01*
X79352Y6549D01*
X79343Y6540D01*
X79328Y6531D01*
X79310Y6522D01*
X79287Y6513D01*
X79262Y6507D01*
X79233Y6505D01*
X79226D01*
X79217Y6507D01*
X79205Y6508D01*
X79191Y6511D01*
X79176Y6514D01*
X79160Y6520D01*
X79143Y6528D01*
X79142Y6529D01*
X79136Y6532D01*
X79127Y6537D01*
X79118Y6544D01*
X79106Y6555D01*
X79094Y6565D01*
X79082Y6579D01*
X79070Y6595D01*
X79068Y6597D01*
X79065Y6604D01*
X79061Y6613D01*
X79055Y6627D01*
X79050Y6642D01*
X79046Y6660D01*
X79043Y6679D01*
X79041Y6702D01*
Y6703D01*
Y6706D01*
Y6711D01*
Y6717D01*
X79044Y6732D01*
X79047Y6753D01*
X79053Y6775D01*
X79062Y6798D01*
X79074Y6820D01*
X79091Y6841D01*
X79092Y6843D01*
X79100Y6849D01*
X79110Y6858D01*
X79125Y6867D01*
X79145Y6876D01*
X79167Y6885D01*
X79194Y6891D01*
X79226Y6892D01*
X79238D01*
X79244Y6891D01*
X79253D01*
X79262Y6889D01*
X79274Y6888D01*
X79278D01*
X79284Y6886D01*
X79290D01*
X79304Y6885D01*
X79322D01*
X79329Y6886D01*
X79338Y6888D01*
X79359Y6894D01*
X79370Y6898D01*
X79379Y6906D01*
X79380Y6907D01*
X79382Y6910D01*
X79386Y6915D01*
X79389Y6920D01*
X79393Y6929D01*
X79398Y6938D01*
X79399Y6950D01*
X79401Y6964D01*
Y6965D01*
Y6970D01*
X79399Y6977D01*
X79398Y6985D01*
X79395Y6995D01*
X79389Y7004D01*
X79383Y7015D01*
X79374Y7024D01*
X79373Y7025D01*
X79370Y7027D01*
X79362Y7031D01*
X79353Y7036D01*
X79343Y7039D01*
X79329Y7043D01*
X79313Y7045D01*
X79293Y7046D01*
X79250D01*
X79236Y7048D01*
X79220Y7051D01*
X79202Y7057D01*
X79181Y7063D01*
X79161Y7073D01*
X79142Y7087D01*
X79140Y7088D01*
X79134Y7094D01*
X79125Y7103D01*
X79116Y7117D01*
X79107Y7133D01*
X79098Y7153D01*
X79092Y7177D01*
X79091Y7204D01*
Y7207D01*
Y7214D01*
X79092Y7225D01*
X79095Y7238D01*
X79101Y7255D01*
X79107Y7271D01*
X79118Y7288D01*
X79131Y7304D01*
X79133Y7306D01*
X79139Y7312D01*
X79148Y7318D01*
X79160Y7327D01*
X79175Y7334D01*
X79194Y7342D01*
X79215Y7346D01*
X79239Y7348D01*
X79256D01*
X79266Y7346D01*
X79292Y7342D01*
X79304Y7339D01*
X79316Y7334D01*
X79317D01*
X79320Y7331D01*
X79326Y7328D01*
X79332Y7325D01*
X79349Y7315D01*
X79364Y7300D01*
Y7298D01*
X79367Y7295D01*
X79370Y7291D01*
X79374Y7285D01*
X79379Y7277D01*
X79384Y7268D01*
X79396Y7244D01*
Y7243D01*
X79399Y7238D01*
X79402Y7232D01*
X79405Y7225D01*
X79414Y7204D01*
X79425Y7183D01*
X79426Y7180D01*
X79431Y7174D01*
X79440Y7165D01*
X79452Y7157D01*
X79453D01*
X79455Y7156D01*
X79459Y7154D01*
X79465Y7153D01*
X79479Y7150D01*
X79497Y7148D01*
X79503D01*
X79509Y7150D01*
X79516Y7151D01*
X79524Y7154D01*
X79534Y7159D01*
X79543Y7165D01*
X79554Y7172D01*
X79555Y7174D01*
X79557Y7177D01*
X79561Y7183D01*
X79566Y7190D01*
X79570Y7199D01*
X79573Y7211D01*
X79576Y7223D01*
X79578Y7238D01*
Y7240D01*
Y7246D01*
X79576Y7253D01*
X79575Y7264D01*
X79572Y7277D01*
X79569Y7291D01*
X79563Y7306D01*
X79555Y7322D01*
X79554Y7324D01*
X79551Y7330D01*
X79545Y7339D01*
X79537Y7349D01*
X79527Y7361D01*
X79515Y7375D01*
X79501Y7390D01*
X79485Y7405D01*
X79483Y7406D01*
X79476Y7412D01*
X79467Y7418D01*
X79453Y7429D01*
X79437Y7438D01*
X79417Y7450D01*
X79395Y7460D01*
X79371Y7469D01*
X79370D01*
X79368Y7470D01*
X79359Y7473D01*
X79344Y7476D01*
X79326Y7481D01*
X79304Y7485D01*
X79278Y7490D01*
X79248Y7491D01*
X79218Y7493D01*
D02*
G37*
G36*
X77525Y7478D02*
X77114D01*
X77107Y7476D01*
X77087Y7473D01*
X77065Y7466D01*
X77044Y7455D01*
X77033Y7448D01*
X77024Y7439D01*
X77017Y7429D01*
X77011Y7417D01*
X77008Y7403D01*
X77006Y7387D01*
Y7385D01*
Y7381D01*
X77008Y7373D01*
X77009Y7364D01*
X77014Y7354D01*
X77018Y7343D01*
X77026Y7333D01*
X77036Y7324D01*
X77038Y7322D01*
X77042Y7321D01*
X77048Y7316D01*
X77057Y7312D01*
X77069Y7307D01*
X77084Y7304D01*
X77101Y7301D01*
X77120Y7300D01*
X77481D01*
X77523Y7054D01*
X77522D01*
X77519Y7057D01*
X77513Y7060D01*
X77505Y7063D01*
X77496Y7067D01*
X77484Y7072D01*
X77459Y7084D01*
X77429Y7094D01*
X77394Y7103D01*
X77360Y7109D01*
X77325Y7112D01*
X77313D01*
X77298Y7111D01*
X77280Y7109D01*
X77259Y7105D01*
X77237Y7100D01*
X77213Y7093D01*
X77189Y7084D01*
X77186Y7082D01*
X77179Y7079D01*
X77167Y7073D01*
X77152Y7064D01*
X77134Y7054D01*
X77116Y7040D01*
X77096Y7025D01*
X77078Y7009D01*
X77077Y7007D01*
X77071Y7000D01*
X77062Y6991D01*
X77051Y6976D01*
X77039Y6959D01*
X77026Y6940D01*
X77014Y6917D01*
X77003Y6894D01*
X77002Y6891D01*
X76999Y6882D01*
X76994Y6868D01*
X76988Y6852D01*
X76984Y6831D01*
X76979Y6807D01*
X76976Y6780D01*
X76975Y6753D01*
Y6735D01*
X76976Y6724D01*
X76978Y6712D01*
X76981Y6685D01*
X76987Y6655D01*
X76996Y6621D01*
X77008Y6585D01*
X77024Y6550D01*
Y6549D01*
X77027Y6546D01*
X77029Y6541D01*
X77033Y6535D01*
X77045Y6519D01*
X77060Y6499D01*
X77081Y6475D01*
X77105Y6453D01*
X77134Y6429D01*
X77167Y6408D01*
X77168D01*
X77171Y6406D01*
X77176Y6403D01*
X77183Y6400D01*
X77192Y6396D01*
X77203Y6391D01*
X77215Y6387D01*
X77228Y6382D01*
X77259Y6372D01*
X77295Y6365D01*
X77337Y6359D01*
X77381Y6356D01*
X77394D01*
X77403Y6357D01*
X77415D01*
X77429Y6359D01*
X77444Y6360D01*
X77460Y6362D01*
X77495Y6368D01*
X77532Y6377D01*
X77568Y6388D01*
X77603Y6405D01*
X77604D01*
X77606Y6408D01*
X77610Y6409D01*
X77616Y6414D01*
X77631Y6424D01*
X77649Y6438D01*
X77669Y6454D01*
X77688Y6474D01*
X77708Y6495D01*
X77723Y6519D01*
Y6520D01*
X77724Y6522D01*
X77729Y6529D01*
X77733Y6543D01*
X77739Y6558D01*
X77747Y6576D01*
X77751Y6595D01*
X77756Y6615D01*
X77757Y6634D01*
Y6639D01*
X77756Y6645D01*
X77754Y6652D01*
X77751Y6660D01*
X77747Y6670D01*
X77741Y6679D01*
X77733Y6690D01*
X77732Y6691D01*
X77729Y6694D01*
X77723Y6699D01*
X77715Y6703D01*
X77706Y6708D01*
X77696Y6712D01*
X77684Y6715D01*
X77670Y6717D01*
X77667D01*
X77660Y6715D01*
X77649Y6712D01*
X77634Y6708D01*
X77619Y6699D01*
X77604Y6685D01*
X77597Y6678D01*
X77589Y6667D01*
X77582Y6657D01*
X77576Y6643D01*
X77574Y6640D01*
X77570Y6633D01*
X77564Y6619D01*
X77555Y6604D01*
X77543Y6588D01*
X77529Y6571D01*
X77513Y6553D01*
X77495Y6538D01*
X77492Y6537D01*
X77486Y6532D01*
X77475Y6526D01*
X77460Y6520D01*
X77444Y6513D01*
X77423Y6507D01*
X77402Y6502D01*
X77378Y6501D01*
X77367D01*
X77357Y6502D01*
X77343Y6505D01*
X77327Y6508D01*
X77310Y6513D01*
X77292Y6520D01*
X77276Y6531D01*
X77274Y6532D01*
X77268Y6537D01*
X77261Y6543D01*
X77250Y6552D01*
X77240Y6564D01*
X77228Y6579D01*
X77218Y6595D01*
X77207Y6613D01*
X77206Y6616D01*
X77203Y6622D01*
X77200Y6634D01*
X77195Y6649D01*
X77191Y6667D01*
X77186Y6687D01*
X77185Y6711D01*
X77183Y6735D01*
Y6736D01*
Y6738D01*
Y6747D01*
X77185Y6760D01*
X77186Y6778D01*
X77189Y6798D01*
X77195Y6819D01*
X77201Y6840D01*
X77210Y6859D01*
X77212Y6862D01*
X77215Y6868D01*
X77221Y6877D01*
X77228Y6889D01*
X77239Y6901D01*
X77250Y6915D01*
X77264Y6926D01*
X77279Y6937D01*
X77280Y6938D01*
X77286Y6941D01*
X77295Y6944D01*
X77307Y6950D01*
X77321Y6955D01*
X77337Y6958D01*
X77355Y6961D01*
X77375Y6962D01*
X77385D01*
X77397Y6961D01*
X77411D01*
X77442Y6955D01*
X77457Y6952D01*
X77469Y6946D01*
X77471D01*
X77474Y6943D01*
X77481Y6938D01*
X77489Y6932D01*
X77501Y6925D01*
X77514Y6915D01*
X77531Y6903D01*
X77549Y6889D01*
X77552Y6888D01*
X77558Y6883D01*
X77567Y6877D01*
X77579Y6870D01*
X77594Y6862D01*
X77607Y6856D01*
X77622Y6852D01*
X77636Y6850D01*
X77642D01*
X77649Y6852D01*
X77658Y6853D01*
X77669Y6856D01*
X77679Y6862D01*
X77691Y6868D01*
X77703Y6877D01*
X77705Y6879D01*
X77708Y6882D01*
X77712Y6888D01*
X77717Y6895D01*
X77723Y6904D01*
X77727Y6915D01*
X77730Y6926D01*
X77732Y6938D01*
Y6940D01*
Y6941D01*
X77730Y6946D01*
Y6952D01*
X77727Y6961D01*
X77726Y6973D01*
X77723Y6989D01*
X77658Y7352D01*
Y7354D01*
Y7355D01*
X77657Y7363D01*
X77654Y7375D01*
X77649Y7390D01*
X77645Y7405D01*
X77637Y7421D01*
X77630Y7436D01*
X77619Y7448D01*
X77618Y7450D01*
X77613Y7452D01*
X77607Y7457D01*
X77597Y7463D01*
X77583Y7469D01*
X77567Y7473D01*
X77547Y7476D01*
X77525Y7478D01*
D02*
G37*
G36*
X72178Y7494D02*
X72158D01*
X72152Y7493D01*
X72142Y7490D01*
X72133Y7487D01*
X72121Y7481D01*
X72110Y7473D01*
X72101Y7463D01*
X72100Y7461D01*
X72097Y7457D01*
X72094Y7450D01*
X72088Y7441D01*
X72083Y7429D01*
X72080Y7414D01*
X72077Y7396D01*
X72076Y7376D01*
Y6493D01*
X72077Y6483D01*
X72079Y6472D01*
X72082Y6459D01*
X72089Y6432D01*
X72094Y6417D01*
X72101Y6403D01*
X72110Y6390D01*
X72119Y6379D01*
X72133Y6369D01*
X72146Y6362D01*
X72163Y6357D01*
X72181Y6356D01*
X72188D01*
X72197Y6357D01*
X72208Y6360D01*
X72220Y6363D01*
X72232Y6368D01*
X72244Y6375D01*
X72256Y6385D01*
X72257Y6387D01*
X72260Y6391D01*
X72265Y6399D01*
X72269Y6409D01*
X72274Y6421D01*
X72278Y6438D01*
X72281Y6457D01*
X72283Y6478D01*
Y7169D01*
X72284Y7168D01*
X72292Y7163D01*
X72301Y7156D01*
X72314Y7147D01*
X72329Y7135D01*
X72347Y7123D01*
X72367Y7109D01*
X72388Y7096D01*
X72431Y7067D01*
X72453Y7055D01*
X72474Y7045D01*
X72494Y7034D01*
X72513Y7027D01*
X72530Y7022D01*
X72543Y7021D01*
X72549D01*
X72555Y7022D01*
X72563Y7024D01*
X72570Y7027D01*
X72581Y7031D01*
X72590Y7037D01*
X72600Y7045D01*
X72602Y7046D01*
X72603Y7049D01*
X72608Y7055D01*
X72612Y7061D01*
X72617Y7070D01*
X72620Y7081D01*
X72623Y7093D01*
X72624Y7105D01*
Y7111D01*
X72623Y7118D01*
X72621Y7127D01*
X72618Y7136D01*
X72614Y7145D01*
X72608Y7154D01*
X72600Y7162D01*
X72599Y7163D01*
X72596Y7165D01*
X72588Y7169D01*
X72579Y7174D01*
X72567Y7181D01*
X72552Y7189D01*
X72534Y7198D01*
X72513Y7208D01*
X72512D01*
X72509Y7210D01*
X72504Y7213D01*
X72498Y7216D01*
X72482Y7225D01*
X72461Y7237D01*
X72437Y7250D01*
X72413Y7265D01*
X72389Y7282D01*
X72368Y7300D01*
X72365Y7301D01*
X72359Y7309D01*
X72349Y7318D01*
X72335Y7331D01*
X72320Y7346D01*
X72304Y7364D01*
X72287Y7385D01*
X72271Y7406D01*
X72269Y7409D01*
X72263Y7415D01*
X72256Y7426D01*
X72247Y7438D01*
X72238Y7451D01*
X72229Y7463D01*
X72221Y7472D01*
X72215Y7479D01*
X72212Y7482D01*
X72209Y7484D01*
X72203Y7487D01*
X72197Y7490D01*
X72188Y7491D01*
X72178Y7494D01*
D02*
G37*
G36*
X80063Y6871D02*
X79815D01*
X79804Y6870D01*
X79792Y6868D01*
X79779Y6865D01*
X79764Y6861D01*
X79752Y6855D01*
X79740Y6846D01*
X79738Y6844D01*
X79735Y6841D01*
X79731Y6835D01*
X79725Y6828D01*
X79720Y6819D01*
X79716Y6807D01*
X79713Y6793D01*
X79711Y6778D01*
Y6772D01*
X79713Y6765D01*
X79714Y6754D01*
X79719Y6744D01*
X79723Y6733D01*
X79731Y6723D01*
X79740Y6712D01*
X79741Y6711D01*
X79744Y6709D01*
X79752Y6705D01*
X79761Y6700D01*
X79773Y6696D01*
X79786Y6693D01*
X79804Y6690D01*
X79824Y6688D01*
X80072D01*
X80083Y6690D01*
X80095Y6691D01*
X80108Y6694D01*
X80122Y6699D01*
X80135Y6705D01*
X80147Y6712D01*
X80149Y6714D01*
X80152Y6717D01*
X80156Y6723D01*
X80161Y6730D01*
X80165Y6739D01*
X80170Y6751D01*
X80173Y6763D01*
X80174Y6778D01*
Y6786D01*
X80173Y6793D01*
X80171Y6802D01*
X80168Y6813D01*
X80162Y6825D01*
X80156Y6835D01*
X80147Y6846D01*
X80146Y6847D01*
X80143Y6850D01*
X80135Y6853D01*
X80126Y6859D01*
X80114Y6864D01*
X80101Y6867D01*
X80083Y6870D01*
X80063Y6871D01*
D02*
G37*
G36*
X73425Y7198D02*
X73416D01*
X73408Y7196D01*
X73396Y7195D01*
X73386Y7190D01*
X73374Y7186D01*
X73363Y7178D01*
X73354Y7168D01*
X73353Y7166D01*
X73351Y7162D01*
X73347Y7154D01*
X73341Y7144D01*
X73335Y7130D01*
X73327Y7112D01*
X73320Y7091D01*
X73311Y7067D01*
X73143Y6598D01*
X72963Y7088D01*
X72961Y7091D01*
X72960Y7099D01*
X72955Y7109D01*
X72950Y7121D01*
X72938Y7150D01*
X72930Y7162D01*
X72923Y7172D01*
X72921Y7174D01*
X72918Y7177D01*
X72914Y7180D01*
X72906Y7186D01*
X72899Y7190D01*
X72887Y7193D01*
X72875Y7196D01*
X72860Y7198D01*
X72852D01*
X72845Y7196D01*
X72836Y7195D01*
X72825Y7192D01*
X72815Y7186D01*
X72803Y7180D01*
X72792Y7171D01*
X72791Y7169D01*
X72788Y7166D01*
X72783Y7160D01*
X72777Y7153D01*
X72773Y7144D01*
X72768Y7133D01*
X72765Y7121D01*
X72764Y7109D01*
Y7100D01*
X72767Y7090D01*
X72770Y7076D01*
Y7075D01*
X72771Y7073D01*
X72773Y7066D01*
X72777Y7054D01*
X72782Y7042D01*
X72783Y7039D01*
X72786Y7031D01*
X72789Y7021D01*
X72795Y7006D01*
X72994Y6513D01*
Y6511D01*
X72996Y6510D01*
X72997Y6504D01*
X73000Y6498D01*
X73003Y6490D01*
X73006Y6481D01*
X73015Y6459D01*
Y6457D01*
X73018Y6454D01*
X73020Y6448D01*
X73024Y6441D01*
X73033Y6423D01*
X73045Y6403D01*
Y6402D01*
X73048Y6400D01*
X73056Y6391D01*
X73069Y6379D01*
X73086Y6369D01*
X73087D01*
X73090Y6368D01*
X73095Y6365D01*
X73102Y6363D01*
X73110Y6360D01*
X73120Y6357D01*
X73143Y6356D01*
X73150D01*
X73158Y6357D01*
X73168Y6359D01*
X73192Y6365D01*
X73204Y6369D01*
X73215Y6375D01*
X73216Y6377D01*
X73219Y6378D01*
X73228Y6388D01*
X73242Y6402D01*
X73252Y6418D01*
Y6420D01*
X73255Y6423D01*
X73258Y6430D01*
X73261Y6439D01*
X73267Y6451D01*
X73275Y6468D01*
X73284Y6489D01*
X73294Y6513D01*
X73492Y7001D01*
Y7003D01*
X73493Y7004D01*
X73496Y7013D01*
X73499Y7024D01*
X73505Y7037D01*
Y7039D01*
X73507Y7040D01*
X73510Y7049D01*
X73513Y7061D01*
X73517Y7075D01*
Y7076D01*
Y7078D01*
X73519Y7087D01*
X73520Y7097D01*
X73522Y7108D01*
Y7111D01*
X73520Y7121D01*
X73517Y7135D01*
X73510Y7150D01*
Y7151D01*
X73507Y7153D01*
X73501Y7162D01*
X73489Y7174D01*
X73474Y7184D01*
X73473D01*
X73470Y7186D01*
X73465Y7189D01*
X73459Y7192D01*
X73444Y7196D01*
X73425Y7198D01*
D02*
G37*
G36*
X74014Y7199D02*
X74002D01*
X73993Y7198D01*
X73982D01*
X73970Y7196D01*
X73942Y7193D01*
X73909Y7186D01*
X73874Y7177D01*
X73840Y7165D01*
X73805Y7147D01*
X73804D01*
X73801Y7144D01*
X73796Y7142D01*
X73790Y7138D01*
X73775Y7126D01*
X73756Y7111D01*
X73735Y7093D01*
X73714Y7070D01*
X73693Y7043D01*
X73675Y7015D01*
Y7013D01*
X73673Y7012D01*
X73670Y7007D01*
X73667Y7001D01*
X73661Y6985D01*
X73652Y6964D01*
X73645Y6938D01*
X73637Y6911D01*
X73633Y6882D01*
X73631Y6850D01*
Y6838D01*
X73634Y6825D01*
X73637Y6808D01*
X73642Y6792D01*
X73651Y6775D01*
X73661Y6760D01*
X73676Y6750D01*
X73678Y6748D01*
X73684Y6747D01*
X73694Y6742D01*
X73709Y6739D01*
X73727Y6735D01*
X73748Y6730D01*
X73774Y6729D01*
X73802Y6727D01*
X74207D01*
Y6726D01*
Y6724D01*
Y6715D01*
X74205Y6702D01*
X74204Y6685D01*
X74201Y6664D01*
X74195Y6643D01*
X74189Y6622D01*
X74180Y6601D01*
X74178Y6598D01*
X74175Y6592D01*
X74168Y6583D01*
X74160Y6571D01*
X74150Y6558D01*
X74136Y6544D01*
X74123Y6532D01*
X74106Y6520D01*
X74105Y6519D01*
X74099Y6516D01*
X74088Y6511D01*
X74076Y6507D01*
X74061Y6502D01*
X74043Y6498D01*
X74025Y6495D01*
X74005Y6493D01*
X73991D01*
X73982Y6495D01*
X73960Y6496D01*
X73937Y6501D01*
X73936D01*
X73931Y6502D01*
X73925Y6505D01*
X73918Y6508D01*
X73898Y6516D01*
X73877Y6528D01*
X73876Y6529D01*
X73873Y6531D01*
X73867Y6535D01*
X73859Y6540D01*
X73841Y6553D01*
X73823Y6568D01*
X73822Y6570D01*
X73819Y6573D01*
X73814Y6577D01*
X73807Y6585D01*
X73798Y6592D01*
X73786Y6603D01*
X73774Y6613D01*
X73760Y6627D01*
X73757Y6628D01*
X73748Y6634D01*
X73735Y6639D01*
X73715Y6640D01*
X73709D01*
X73705Y6639D01*
X73697D01*
X73681Y6633D01*
X73672Y6628D01*
X73664Y6622D01*
X73663D01*
X73661Y6619D01*
X73658Y6615D01*
X73654Y6610D01*
X73649Y6603D01*
X73646Y6594D01*
X73645Y6585D01*
X73643Y6573D01*
Y6571D01*
Y6568D01*
X73645Y6562D01*
X73646Y6555D01*
X73649Y6544D01*
X73652Y6534D01*
X73658Y6520D01*
X73666Y6507D01*
X73667Y6505D01*
X73670Y6501D01*
X73675Y6493D01*
X73682Y6484D01*
X73693Y6472D01*
X73703Y6460D01*
X73717Y6448D01*
X73733Y6435D01*
X73735Y6433D01*
X73741Y6429D01*
X73751Y6423D01*
X73763Y6415D01*
X73780Y6406D01*
X73798Y6396D01*
X73820Y6387D01*
X73844Y6378D01*
X73847Y6377D01*
X73856Y6375D01*
X73870Y6371D01*
X73889Y6368D01*
X73912Y6363D01*
X73937Y6359D01*
X73967Y6357D01*
X73999Y6356D01*
X74008D01*
X74018Y6357D01*
X74032D01*
X74048Y6359D01*
X74067Y6362D01*
X74088Y6365D01*
X74112Y6369D01*
X74136Y6375D01*
X74162Y6382D01*
X74187Y6391D01*
X74213Y6403D01*
X74238Y6415D01*
X74264Y6430D01*
X74286Y6448D01*
X74309Y6468D01*
X74310Y6469D01*
X74313Y6474D01*
X74319Y6480D01*
X74327Y6489D01*
X74334Y6501D01*
X74343Y6514D01*
X74354Y6531D01*
X74364Y6549D01*
X74375Y6570D01*
X74385Y6594D01*
X74394Y6619D01*
X74402Y6646D01*
X74409Y6676D01*
X74415Y6709D01*
X74418Y6742D01*
X74420Y6778D01*
Y6793D01*
X74418Y6802D01*
Y6811D01*
X74417Y6834D01*
X74414Y6859D01*
X74408Y6888D01*
X74402Y6917D01*
X74393Y6947D01*
Y6949D01*
X74391Y6950D01*
X74390Y6955D01*
X74388Y6961D01*
X74381Y6976D01*
X74373Y6994D01*
X74361Y7015D01*
X74348Y7037D01*
X74331Y7061D01*
X74313Y7082D01*
X74310Y7085D01*
X74304Y7091D01*
X74292Y7102D01*
X74277Y7115D01*
X74259Y7129D01*
X74237Y7144D01*
X74211Y7157D01*
X74184Y7169D01*
X74183D01*
X74181Y7171D01*
X74177Y7172D01*
X74171Y7174D01*
X74154Y7178D01*
X74133Y7184D01*
X74108Y7190D01*
X74079Y7195D01*
X74048Y7198D01*
X74014Y7199D01*
D02*
G37*
G36*
X81593Y7496D02*
X81580D01*
X81565Y7494D01*
X81545Y7493D01*
X81523Y7490D01*
X81501Y7485D01*
X81475Y7479D01*
X81451Y7470D01*
X81450D01*
X81448Y7469D01*
X81441Y7466D01*
X81429Y7460D01*
X81412Y7451D01*
X81396Y7441D01*
X81376Y7429D01*
X81357Y7414D01*
X81339Y7396D01*
X81337Y7394D01*
X81331Y7387D01*
X81322Y7376D01*
X81310Y7363D01*
X81298Y7345D01*
X81285Y7324D01*
X81271Y7300D01*
X81258Y7274D01*
Y7273D01*
X81255Y7268D01*
X81252Y7261D01*
X81249Y7252D01*
X81244Y7238D01*
X81240Y7222D01*
X81234Y7204D01*
X81228Y7183D01*
X81223Y7159D01*
X81217Y7132D01*
X81213Y7103D01*
X81208Y7072D01*
X81205Y7037D01*
X81202Y7000D01*
X81199Y6961D01*
Y6888D01*
X81201Y6876D01*
Y6861D01*
Y6846D01*
X81204Y6813D01*
X81207Y6777D01*
X81210Y6739D01*
X81216Y6705D01*
Y6703D01*
Y6700D01*
X81217Y6696D01*
X81219Y6690D01*
X81223Y6673D01*
X81228Y6651D01*
X81235Y6627D01*
X81246Y6600D01*
X81258Y6571D01*
X81271Y6543D01*
Y6541D01*
X81274Y6538D01*
X81277Y6534D01*
X81280Y6528D01*
X81292Y6511D01*
X81307Y6492D01*
X81327Y6469D01*
X81351Y6447D01*
X81376Y6424D01*
X81406Y6405D01*
X81408D01*
X81409Y6403D01*
X81414Y6400D01*
X81420Y6397D01*
X81429Y6394D01*
X81438Y6390D01*
X81459Y6381D01*
X81486Y6372D01*
X81517Y6365D01*
X81551Y6359D01*
X81587Y6357D01*
X81598D01*
X81607Y6359D01*
X81616D01*
X81628Y6360D01*
X81656Y6365D01*
X81688Y6373D01*
X81722Y6384D01*
X81758Y6400D01*
X81775Y6409D01*
X81793Y6421D01*
X81794Y6423D01*
X81797Y6424D01*
X81802Y6429D01*
X81808Y6433D01*
X81824Y6448D01*
X81844Y6469D01*
X81866Y6495D01*
X81890Y6526D01*
X81911Y6562D01*
X81931Y6603D01*
X81932Y6606D01*
X81935Y6613D01*
X81938Y6627D01*
X81944Y6643D01*
X81950Y6664D01*
X81955Y6688D01*
X81961Y6714D01*
X81965Y6742D01*
Y6744D01*
Y6745D01*
X81967Y6750D01*
Y6756D01*
X81968Y6771D01*
X81970Y6792D01*
X81973Y6816D01*
X81974Y6844D01*
X81976Y6874D01*
Y6947D01*
X81974Y6976D01*
X81973Y7007D01*
X81971Y7042D01*
X81968Y7078D01*
X81964Y7112D01*
Y7114D01*
Y7117D01*
X81962Y7121D01*
X81961Y7127D01*
X81959Y7145D01*
X81955Y7168D01*
X81949Y7192D01*
X81943Y7219D01*
X81935Y7246D01*
X81926Y7271D01*
Y7273D01*
X81925Y7276D01*
X81922Y7282D01*
X81917Y7289D01*
X81913Y7298D01*
X81907Y7309D01*
X81893Y7333D01*
X81875Y7360D01*
X81853Y7388D01*
X81826Y7414D01*
X81796Y7438D01*
X81794D01*
X81791Y7441D01*
X81787Y7444D01*
X81781Y7446D01*
X81772Y7451D01*
X81763Y7455D01*
X81751Y7461D01*
X81739Y7467D01*
X81709Y7478D01*
X81674Y7487D01*
X81635Y7493D01*
X81593Y7496D01*
D02*
G37*
G36*
X80673D02*
X80658D01*
X80642Y7494D01*
X80619Y7493D01*
X80595Y7490D01*
X80568Y7485D01*
X80541Y7479D01*
X80516Y7472D01*
X80514D01*
X80513Y7470D01*
X80504Y7467D01*
X80492Y7461D01*
X80475Y7455D01*
X80457Y7445D01*
X80438Y7435D01*
X80420Y7421D01*
X80402Y7406D01*
X80401Y7405D01*
X80395Y7399D01*
X80386Y7391D01*
X80377Y7379D01*
X80365Y7366D01*
X80353Y7349D01*
X80342Y7333D01*
X80333Y7313D01*
X80332Y7310D01*
X80330Y7304D01*
X80326Y7294D01*
X80321Y7280D01*
X80318Y7264D01*
X80314Y7244D01*
X80312Y7223D01*
X80311Y7202D01*
Y7201D01*
Y7199D01*
Y7190D01*
X80312Y7175D01*
X80315Y7159D01*
X80320Y7138D01*
X80327Y7115D01*
X80336Y7093D01*
X80350Y7070D01*
X80351Y7067D01*
X80357Y7061D01*
X80366Y7049D01*
X80378Y7036D01*
X80395Y7021D01*
X80414Y7006D01*
X80437Y6989D01*
X80463Y6974D01*
X80462D01*
X80460Y6973D01*
X80453Y6970D01*
X80441Y6964D01*
X80426Y6956D01*
X80410Y6947D01*
X80392Y6935D01*
X80374Y6923D01*
X80357Y6909D01*
X80356Y6907D01*
X80350Y6901D01*
X80342Y6894D01*
X80333Y6882D01*
X80323Y6868D01*
X80312Y6852D01*
X80302Y6834D01*
X80293Y6814D01*
X80291Y6811D01*
X80290Y6805D01*
X80285Y6793D01*
X80281Y6780D01*
X80278Y6762D01*
X80273Y6742D01*
X80272Y6720D01*
X80270Y6696D01*
Y6679D01*
X80272Y6672D01*
X80273Y6661D01*
X80276Y6639D01*
X80282Y6612D01*
X80290Y6582D01*
X80302Y6552D01*
X80317Y6522D01*
Y6520D01*
X80318Y6519D01*
X80326Y6508D01*
X80336Y6495D01*
X80351Y6477D01*
X80371Y6457D01*
X80393Y6438D01*
X80422Y6418D01*
X80453Y6400D01*
X80454D01*
X80457Y6399D01*
X80462Y6396D01*
X80469Y6394D01*
X80477Y6390D01*
X80487Y6387D01*
X80499Y6382D01*
X80513Y6379D01*
X80544Y6371D01*
X80580Y6365D01*
X80621Y6359D01*
X80664Y6357D01*
X80685D01*
X80696Y6359D01*
X80709Y6360D01*
X80723D01*
X80738Y6363D01*
X80772Y6368D01*
X80808Y6375D01*
X80846Y6385D01*
X80880Y6400D01*
X80882D01*
X80885Y6402D01*
X80889Y6405D01*
X80895Y6408D01*
X80912Y6418D01*
X80931Y6432D01*
X80952Y6448D01*
X80975Y6469D01*
X80995Y6493D01*
X81015Y6520D01*
Y6522D01*
X81016Y6523D01*
X81019Y6528D01*
X81022Y6534D01*
X81028Y6550D01*
X81037Y6571D01*
X81045Y6597D01*
X81052Y6627D01*
X81058Y6660D01*
X81060Y6694D01*
Y6703D01*
X81058Y6714D01*
X81057Y6727D01*
X81054Y6744D01*
X81049Y6763D01*
X81043Y6784D01*
X81036Y6805D01*
X81025Y6829D01*
X81013Y6852D01*
X80997Y6876D01*
X80979Y6898D01*
X80957Y6920D01*
X80931Y6940D01*
X80901Y6959D01*
X80868Y6974D01*
X80870Y6976D01*
X80874Y6977D01*
X80883Y6982D01*
X80892Y6988D01*
X80904Y6997D01*
X80918Y7006D01*
X80931Y7018D01*
X80946Y7031D01*
X80961Y7046D01*
X80975Y7063D01*
X80988Y7082D01*
X81000Y7103D01*
X81009Y7126D01*
X81016Y7150D01*
X81022Y7177D01*
X81024Y7205D01*
Y7207D01*
Y7208D01*
Y7213D01*
Y7219D01*
X81021Y7232D01*
X81018Y7252D01*
X81013Y7273D01*
X81006Y7297D01*
X80995Y7322D01*
X80982Y7348D01*
Y7349D01*
X80980Y7351D01*
X80975Y7358D01*
X80964Y7372D01*
X80951Y7387D01*
X80934Y7403D01*
X80913Y7421D01*
X80889Y7439D01*
X80861Y7455D01*
X80859D01*
X80858Y7457D01*
X80853Y7460D01*
X80847Y7461D01*
X80838Y7464D01*
X80829Y7469D01*
X80807Y7476D01*
X80780Y7482D01*
X80748Y7490D01*
X80712Y7494D01*
X80673Y7496D01*
D02*
G37*
G36*
X78307D02*
X78294D01*
X78279Y7494D01*
X78259Y7493D01*
X78237Y7490D01*
X78214Y7485D01*
X78189Y7479D01*
X78165Y7470D01*
X78163D01*
X78162Y7469D01*
X78154Y7466D01*
X78142Y7460D01*
X78126Y7451D01*
X78109Y7441D01*
X78090Y7429D01*
X78070Y7414D01*
X78052Y7396D01*
X78051Y7394D01*
X78045Y7387D01*
X78036Y7376D01*
X78024Y7363D01*
X78012Y7345D01*
X77998Y7324D01*
X77985Y7300D01*
X77971Y7274D01*
Y7273D01*
X77968Y7268D01*
X77965Y7261D01*
X77962Y7252D01*
X77958Y7238D01*
X77953Y7222D01*
X77947Y7204D01*
X77941Y7183D01*
X77937Y7159D01*
X77931Y7132D01*
X77926Y7103D01*
X77922Y7072D01*
X77919Y7037D01*
X77916Y7000D01*
X77913Y6961D01*
Y6888D01*
X77914Y6876D01*
Y6861D01*
Y6846D01*
X77917Y6813D01*
X77920Y6777D01*
X77923Y6739D01*
X77929Y6705D01*
Y6703D01*
Y6700D01*
X77931Y6696D01*
X77932Y6690D01*
X77937Y6673D01*
X77941Y6651D01*
X77949Y6627D01*
X77959Y6600D01*
X77971Y6571D01*
X77985Y6543D01*
Y6541D01*
X77988Y6538D01*
X77991Y6534D01*
X77994Y6528D01*
X78006Y6511D01*
X78021Y6492D01*
X78040Y6469D01*
X78064Y6447D01*
X78090Y6424D01*
X78120Y6405D01*
X78121D01*
X78123Y6403D01*
X78127Y6400D01*
X78133Y6397D01*
X78142Y6394D01*
X78151Y6390D01*
X78172Y6381D01*
X78199Y6372D01*
X78231Y6365D01*
X78265Y6359D01*
X78301Y6357D01*
X78312D01*
X78320Y6359D01*
X78329D01*
X78341Y6360D01*
X78370Y6365D01*
X78401Y6373D01*
X78436Y6384D01*
X78472Y6400D01*
X78488Y6409D01*
X78506Y6421D01*
X78508Y6423D01*
X78511Y6424D01*
X78515Y6429D01*
X78521Y6433D01*
X78538Y6448D01*
X78557Y6469D01*
X78580Y6495D01*
X78604Y6526D01*
X78625Y6562D01*
X78644Y6603D01*
X78646Y6606D01*
X78649Y6613D01*
X78652Y6627D01*
X78658Y6643D01*
X78664Y6664D01*
X78668Y6688D01*
X78674Y6714D01*
X78679Y6742D01*
Y6744D01*
Y6745D01*
X78680Y6750D01*
Y6756D01*
X78682Y6771D01*
X78683Y6792D01*
X78686Y6816D01*
X78688Y6844D01*
X78689Y6874D01*
Y6947D01*
X78688Y6976D01*
X78686Y7007D01*
X78685Y7042D01*
X78682Y7078D01*
X78677Y7112D01*
Y7114D01*
Y7117D01*
X78676Y7121D01*
X78674Y7127D01*
X78673Y7145D01*
X78668Y7168D01*
X78662Y7192D01*
X78656Y7219D01*
X78649Y7246D01*
X78640Y7271D01*
Y7273D01*
X78638Y7276D01*
X78635Y7282D01*
X78631Y7289D01*
X78626Y7298D01*
X78620Y7309D01*
X78607Y7333D01*
X78589Y7360D01*
X78566Y7388D01*
X78539Y7414D01*
X78509Y7438D01*
X78508D01*
X78505Y7441D01*
X78500Y7444D01*
X78494Y7446D01*
X78485Y7451D01*
X78476Y7455D01*
X78464Y7461D01*
X78452Y7467D01*
X78422Y7478D01*
X78388Y7487D01*
X78349Y7493D01*
X78307Y7496D01*
D02*
G37*
G36*
X82632Y7506D02*
X82608D01*
X82599Y7505D01*
X82587D01*
X82562Y7499D01*
X82548Y7494D01*
X82536Y7488D01*
X82535Y7487D01*
X82530Y7485D01*
X82526Y7481D01*
X82518Y7476D01*
X82502Y7461D01*
X82485Y7442D01*
X82484Y7441D01*
X82482Y7438D01*
X82478Y7432D01*
X82473Y7424D01*
X82469Y7415D01*
X82464Y7405D01*
X82454Y7381D01*
Y7379D01*
X82451Y7375D01*
X82448Y7367D01*
X82445Y7358D01*
X82439Y7346D01*
X82433Y7331D01*
X82427Y7315D01*
X82419Y7295D01*
X82128Y6577D01*
Y6576D01*
X82127Y6574D01*
X82125Y6570D01*
X82122Y6564D01*
X82118Y6549D01*
X82110Y6531D01*
X82104Y6511D01*
X82100Y6492D01*
X82095Y6474D01*
X82094Y6457D01*
Y6451D01*
X82095Y6444D01*
X82098Y6435D01*
X82101Y6424D01*
X82107Y6412D01*
X82116Y6399D01*
X82127Y6387D01*
X82128Y6385D01*
X82133Y6382D01*
X82139Y6377D01*
X82148Y6372D01*
X82160Y6366D01*
X82173Y6360D01*
X82188Y6357D01*
X82205Y6356D01*
X82214D01*
X82221Y6357D01*
X82236Y6360D01*
X82251Y6366D01*
X82253D01*
X82254Y6368D01*
X82262Y6372D01*
X82272Y6379D01*
X82283Y6390D01*
Y6391D01*
X82284Y6393D01*
X82287Y6397D01*
X82290Y6402D01*
X82295Y6409D01*
X82299Y6418D01*
X82304Y6427D01*
X82310Y6439D01*
Y6441D01*
X82313Y6445D01*
X82316Y6451D01*
X82319Y6460D01*
X82326Y6480D01*
X82335Y6499D01*
X82388Y6640D01*
X82840D01*
X82893Y6496D01*
Y6495D01*
X82894Y6493D01*
X82896Y6489D01*
X82897Y6483D01*
X82903Y6469D01*
X82911Y6451D01*
X82920Y6433D01*
X82929Y6414D01*
X82938Y6397D01*
X82947Y6384D01*
X82948Y6382D01*
X82951Y6379D01*
X82956Y6375D01*
X82963Y6371D01*
X82974Y6365D01*
X82986Y6360D01*
X83001Y6357D01*
X83019Y6356D01*
X83026D01*
X83034Y6357D01*
X83044Y6360D01*
X83055Y6363D01*
X83068Y6368D01*
X83082Y6375D01*
X83094Y6385D01*
X83095Y6387D01*
X83098Y6391D01*
X83104Y6397D01*
X83109Y6406D01*
X83115Y6417D01*
X83120Y6429D01*
X83123Y6442D01*
X83125Y6456D01*
Y6465D01*
X83123Y6471D01*
X83122Y6486D01*
X83118Y6504D01*
Y6505D01*
X83116Y6508D01*
X83115Y6514D01*
X83112Y6522D01*
X83109Y6531D01*
X83104Y6543D01*
X83100Y6556D01*
X83094Y6571D01*
X82809Y7294D01*
Y7295D01*
X82807Y7300D01*
X82804Y7306D01*
X82801Y7315D01*
X82797Y7325D01*
X82792Y7339D01*
X82786Y7354D01*
X82780Y7369D01*
X82779Y7370D01*
X82777Y7376D01*
X82773Y7384D01*
X82768Y7394D01*
X82756Y7418D01*
X82743Y7441D01*
X82741Y7442D01*
X82740Y7445D01*
X82735Y7451D01*
X82729Y7458D01*
X82713Y7473D01*
X82692Y7488D01*
X82690Y7490D01*
X82686Y7491D01*
X82680Y7494D01*
X82671Y7497D01*
X82659Y7500D01*
X82647Y7503D01*
X82632Y7506D01*
D02*
G37*
G36*
X76696Y7476D02*
X76158D01*
X76145Y7475D01*
X76130Y7473D01*
X76112Y7470D01*
X76094Y7466D01*
X76077Y7460D01*
X76064Y7452D01*
X76062Y7451D01*
X76059Y7448D01*
X76053Y7442D01*
X76047Y7435D01*
X76041Y7424D01*
X76035Y7412D01*
X76032Y7396D01*
X76031Y7378D01*
Y7372D01*
X76032Y7366D01*
X76035Y7355D01*
X76040Y7343D01*
X76047Y7330D01*
X76056Y7312D01*
X76070Y7294D01*
X76071Y7291D01*
X76077Y7285D01*
X76085Y7274D01*
X76095Y7259D01*
X76109Y7243D01*
X76124Y7222D01*
X76140Y7201D01*
X76158Y7177D01*
X76160Y7174D01*
X76167Y7165D01*
X76176Y7151D01*
X76188Y7133D01*
X76203Y7111D01*
X76221Y7084D01*
X76239Y7054D01*
X76258Y7019D01*
Y7018D01*
X76260Y7015D01*
X76263Y7010D01*
X76267Y7003D01*
X76272Y6994D01*
X76276Y6983D01*
X76282Y6970D01*
X76290Y6956D01*
X76296Y6940D01*
X76303Y6922D01*
X76320Y6883D01*
X76336Y6840D01*
X76353Y6790D01*
Y6787D01*
X76356Y6780D01*
X76359Y6769D01*
X76363Y6756D01*
X76366Y6739D01*
X76371Y6723D01*
X76375Y6706D01*
X76378Y6691D01*
Y6690D01*
X76380Y6684D01*
X76381Y6676D01*
X76383Y6664D01*
X76386Y6649D01*
X76389Y6631D01*
X76392Y6610D01*
X76396Y6588D01*
Y6585D01*
X76398Y6577D01*
X76399Y6567D01*
X76401Y6552D01*
X76404Y6537D01*
X76407Y6520D01*
X76408Y6505D01*
X76411Y6492D01*
Y6490D01*
Y6489D01*
X76414Y6480D01*
X76419Y6466D01*
X76423Y6450D01*
X76438Y6415D01*
X76447Y6399D01*
X76458Y6385D01*
X76459Y6384D01*
X76462Y6381D01*
X76470Y6377D01*
X76477Y6371D01*
X76489Y6365D01*
X76501Y6360D01*
X76518Y6357D01*
X76534Y6356D01*
X76542D01*
X76551Y6357D01*
X76561Y6360D01*
X76573Y6363D01*
X76585Y6369D01*
X76597Y6377D01*
X76609Y6387D01*
X76611Y6388D01*
X76614Y6393D01*
X76618Y6400D01*
X76623Y6411D01*
X76629Y6424D01*
X76633Y6441D01*
X76636Y6460D01*
X76638Y6483D01*
Y6486D01*
Y6492D01*
X76636Y6502D01*
X76635Y6517D01*
X76633Y6535D01*
X76629Y6558D01*
X76624Y6585D01*
X76617Y6613D01*
Y6615D01*
X76615Y6618D01*
X76614Y6622D01*
X76612Y6628D01*
X76611Y6636D01*
X76608Y6646D01*
X76605Y6657D01*
X76600Y6670D01*
X76591Y6699D01*
X76579Y6733D01*
X76566Y6772D01*
X76549Y6814D01*
Y6816D01*
X76548Y6820D01*
X76545Y6826D01*
X76540Y6834D01*
X76536Y6846D01*
X76531Y6858D01*
X76525Y6873D01*
X76518Y6888D01*
X76501Y6923D01*
X76480Y6964D01*
X76458Y7007D01*
X76434Y7052D01*
X76432Y7054D01*
X76431Y7058D01*
X76426Y7064D01*
X76422Y7073D01*
X76414Y7085D01*
X76407Y7097D01*
X76398Y7112D01*
X76387Y7129D01*
X76363Y7166D01*
X76335Y7208D01*
X76303Y7252D01*
X76269Y7298D01*
X76686D01*
X76696Y7300D01*
X76711Y7301D01*
X76726Y7304D01*
X76741Y7307D01*
X76756Y7313D01*
X76769Y7321D01*
X76771Y7322D01*
X76774Y7325D01*
X76780Y7331D01*
X76784Y7339D01*
X76790Y7348D01*
X76796Y7361D01*
X76799Y7375D01*
X76801Y7393D01*
Y7402D01*
X76799Y7411D01*
X76796Y7421D01*
X76793Y7432D01*
X76787Y7444D01*
X76778Y7452D01*
X76768Y7460D01*
X76766Y7461D01*
X76762Y7463D01*
X76754Y7466D01*
X76744Y7469D01*
X76730Y7472D01*
X76715Y7473D01*
X76696Y7476D01*
D02*
G37*
G36*
X75347Y7487D02*
X74955D01*
X74937Y7485D01*
X74916D01*
X74895Y7484D01*
X74872Y7482D01*
X74851Y7479D01*
X74848D01*
X74842Y7478D01*
X74832Y7476D01*
X74818Y7473D01*
X74805Y7470D01*
X74788Y7466D01*
X74755Y7454D01*
X74752Y7452D01*
X74746Y7450D01*
X74736Y7445D01*
X74724Y7438D01*
X74709Y7429D01*
X74694Y7418D01*
X74677Y7405D01*
X74662Y7390D01*
X74661Y7388D01*
X74656Y7382D01*
X74649Y7375D01*
X74640Y7363D01*
X74629Y7349D01*
X74619Y7333D01*
X74610Y7315D01*
X74601Y7295D01*
X74599Y7292D01*
X74598Y7286D01*
X74595Y7274D01*
X74590Y7261D01*
X74586Y7243D01*
X74583Y7223D01*
X74581Y7202D01*
X74580Y7180D01*
Y7178D01*
Y7174D01*
Y7168D01*
X74581Y7159D01*
Y7148D01*
X74583Y7136D01*
X74589Y7108D01*
X74596Y7076D01*
X74610Y7043D01*
X74626Y7010D01*
X74638Y6995D01*
X74650Y6980D01*
X74652Y6979D01*
X74653Y6977D01*
X74658Y6973D01*
X74664Y6968D01*
X74671Y6962D01*
X74680Y6955D01*
X74691Y6947D01*
X74703Y6940D01*
X74718Y6931D01*
X74733Y6922D01*
X74751Y6915D01*
X74770Y6906D01*
X74791Y6897D01*
X74814Y6889D01*
X74838Y6882D01*
X74863Y6876D01*
X74860Y6874D01*
X74853Y6870D01*
X74841Y6862D01*
X74826Y6852D01*
X74809Y6838D01*
X74790Y6823D01*
X74770Y6804D01*
X74749Y6781D01*
X74746Y6778D01*
X74740Y6771D01*
X74730Y6759D01*
X74716Y6742D01*
X74701Y6723D01*
X74685Y6700D01*
X74668Y6675D01*
X74652Y6649D01*
Y6648D01*
X74650Y6646D01*
X74644Y6637D01*
X74637Y6624D01*
X74626Y6607D01*
X74616Y6588D01*
X74605Y6565D01*
X74593Y6544D01*
X74584Y6522D01*
X74583Y6519D01*
X74580Y6513D01*
X74577Y6504D01*
X74572Y6492D01*
X74563Y6466D01*
X74562Y6454D01*
X74561Y6445D01*
Y6436D01*
X74562Y6432D01*
X74566Y6417D01*
X74575Y6400D01*
Y6399D01*
X74578Y6397D01*
X74584Y6388D01*
X74596Y6378D01*
X74613Y6368D01*
X74614D01*
X74617Y6366D01*
X74622Y6365D01*
X74629Y6362D01*
X74637Y6360D01*
X74647Y6357D01*
X74670Y6356D01*
X74676D01*
X74683Y6357D01*
X74692Y6359D01*
X74712Y6363D01*
X74722Y6368D01*
X74733Y6373D01*
X74734Y6375D01*
X74737Y6377D01*
X74742Y6379D01*
X74748Y6385D01*
X74763Y6399D01*
X74778Y6417D01*
X74779Y6418D01*
X74781Y6423D01*
X74785Y6429D01*
X74791Y6438D01*
X74797Y6450D01*
X74806Y6463D01*
X74817Y6480D01*
X74827Y6498D01*
X74917Y6648D01*
Y6649D01*
X74919Y6651D01*
X74922Y6655D01*
X74926Y6661D01*
X74935Y6676D01*
X74947Y6696D01*
X74961Y6715D01*
X74976Y6736D01*
X74991Y6756D01*
X75006Y6774D01*
X75007Y6775D01*
X75012Y6781D01*
X75019Y6789D01*
X75030Y6798D01*
X75042Y6808D01*
X75054Y6817D01*
X75069Y6826D01*
X75084Y6834D01*
X75085Y6835D01*
X75091Y6837D01*
X75099Y6840D01*
X75110Y6843D01*
X75125Y6846D01*
X75142Y6847D01*
X75161Y6850D01*
X75260D01*
Y6492D01*
Y6490D01*
Y6489D01*
Y6480D01*
X75262Y6468D01*
X75265Y6453D01*
X75268Y6436D01*
X75274Y6418D01*
X75281Y6402D01*
X75292Y6388D01*
X75293Y6387D01*
X75298Y6384D01*
X75304Y6378D01*
X75314Y6372D01*
X75325Y6366D01*
X75340Y6360D01*
X75355Y6357D01*
X75373Y6356D01*
X75382D01*
X75391Y6357D01*
X75403Y6360D01*
X75416Y6365D01*
X75431Y6371D01*
X75445Y6378D01*
X75457Y6390D01*
X75458Y6391D01*
X75461Y6396D01*
X75466Y6405D01*
X75470Y6415D01*
X75476Y6430D01*
X75481Y6447D01*
X75484Y6468D01*
X75485Y6492D01*
Y7360D01*
X75484Y7373D01*
X75481Y7388D01*
X75478Y7406D01*
X75472Y7424D01*
X75464Y7441D01*
X75454Y7454D01*
X75452Y7455D01*
X75448Y7458D01*
X75439Y7464D01*
X75428Y7470D01*
X75413Y7476D01*
X75395Y7482D01*
X75373Y7485D01*
X75347Y7487D01*
D02*
G37*
%LPD*%
G36*
X74033Y7054D02*
X74046Y7052D01*
X74064Y7049D01*
X74085Y7042D01*
X74106Y7033D01*
X74127Y7019D01*
X74147Y7001D01*
X74148Y6998D01*
X74154Y6991D01*
X74163Y6979D01*
X74172Y6961D01*
X74183Y6940D01*
X74193Y6913D01*
X74201Y6880D01*
X74207Y6844D01*
X73832D01*
Y6846D01*
Y6849D01*
X73834Y6855D01*
Y6862D01*
X73835Y6870D01*
X73837Y6880D01*
X73843Y6903D01*
X73849Y6928D01*
X73859Y6955D01*
X73873Y6979D01*
X73889Y7001D01*
X73891Y7004D01*
X73898Y7010D01*
X73909Y7018D01*
X73924Y7028D01*
X73943Y7039D01*
X73966Y7046D01*
X73991Y7052D01*
X74020Y7055D01*
X74027D01*
X74033Y7054D01*
D02*
G37*
G36*
X81607Y7340D02*
X81623Y7336D01*
X81644Y7330D01*
X81667Y7316D01*
X81679Y7309D01*
X81691Y7298D01*
X81701Y7288D01*
X81712Y7273D01*
X81721Y7258D01*
X81728Y7240D01*
Y7238D01*
X81730Y7235D01*
X81731Y7229D01*
X81734Y7220D01*
X81737Y7210D01*
X81740Y7196D01*
X81745Y7181D01*
X81748Y7163D01*
X81751Y7142D01*
X81755Y7120D01*
X81758Y7094D01*
X81761Y7066D01*
X81764Y7036D01*
X81766Y7003D01*
X81767Y6967D01*
Y6929D01*
Y6928D01*
Y6923D01*
Y6916D01*
Y6906D01*
Y6894D01*
X81766Y6879D01*
Y6864D01*
Y6846D01*
X81763Y6810D01*
X81760Y6769D01*
X81757Y6730D01*
X81751Y6694D01*
Y6693D01*
X81749Y6690D01*
Y6685D01*
X81748Y6679D01*
X81743Y6663D01*
X81737Y6643D01*
X81730Y6621D01*
X81721Y6598D01*
X81709Y6577D01*
X81695Y6558D01*
X81694Y6556D01*
X81688Y6550D01*
X81679Y6543D01*
X81667Y6535D01*
X81652Y6526D01*
X81634Y6519D01*
X81613Y6513D01*
X81589Y6511D01*
X81586D01*
X81577Y6513D01*
X81565Y6514D01*
X81548Y6517D01*
X81530Y6523D01*
X81513Y6532D01*
X81496Y6543D01*
X81480Y6559D01*
X81478Y6562D01*
X81474Y6568D01*
X81466Y6579D01*
X81459Y6595D01*
X81450Y6615D01*
X81439Y6637D01*
X81432Y6666D01*
X81424Y6697D01*
Y6699D01*
X81423Y6702D01*
Y6706D01*
X81421Y6714D01*
X81420Y6723D01*
X81418Y6735D01*
X81417Y6747D01*
X81415Y6762D01*
X81414Y6778D01*
X81412Y6796D01*
Y6816D01*
X81411Y6837D01*
X81409Y6859D01*
X81408Y6883D01*
Y6935D01*
Y6937D01*
Y6941D01*
Y6949D01*
Y6958D01*
Y6970D01*
X81409Y6983D01*
Y6998D01*
Y7015D01*
X81412Y7051D01*
X81415Y7090D01*
X81420Y7127D01*
X81426Y7162D01*
Y7163D01*
Y7166D01*
X81427Y7171D01*
X81429Y7177D01*
X81433Y7192D01*
X81439Y7211D01*
X81447Y7234D01*
X81456Y7255D01*
X81468Y7277D01*
X81481Y7295D01*
X81483Y7297D01*
X81489Y7303D01*
X81498Y7310D01*
X81510Y7319D01*
X81524Y7327D01*
X81544Y7334D01*
X81565Y7340D01*
X81590Y7342D01*
X81599D01*
X81607Y7340D01*
D02*
G37*
G36*
X80694Y7348D02*
X80711Y7345D01*
X80729Y7340D01*
X80748Y7331D01*
X80766Y7321D01*
X80784Y7306D01*
X80786Y7304D01*
X80790Y7298D01*
X80798Y7288D01*
X80805Y7274D01*
X80814Y7258D01*
X80820Y7238D01*
X80826Y7217D01*
X80828Y7192D01*
Y7189D01*
X80826Y7181D01*
X80825Y7169D01*
X80822Y7154D01*
X80817Y7138D01*
X80808Y7120D01*
X80798Y7100D01*
X80783Y7084D01*
X80781Y7082D01*
X80775Y7078D01*
X80765Y7070D01*
X80751Y7063D01*
X80735Y7055D01*
X80715Y7048D01*
X80693Y7043D01*
X80667Y7042D01*
X80654D01*
X80646Y7043D01*
X80625Y7046D01*
X80603Y7052D01*
X80601D01*
X80598Y7054D01*
X80592Y7057D01*
X80585Y7061D01*
X80568Y7070D01*
X80552Y7084D01*
X80550Y7085D01*
X80549Y7088D01*
X80544Y7091D01*
X80540Y7097D01*
X80529Y7112D01*
X80520Y7132D01*
Y7133D01*
X80519Y7136D01*
X80516Y7142D01*
X80514Y7150D01*
X80511Y7159D01*
X80510Y7169D01*
X80508Y7193D01*
Y7195D01*
Y7201D01*
X80510Y7210D01*
X80511Y7220D01*
X80513Y7232D01*
X80517Y7246D01*
X80522Y7259D01*
X80529Y7273D01*
X80531Y7274D01*
X80532Y7279D01*
X80537Y7285D01*
X80544Y7294D01*
X80552Y7303D01*
X80561Y7312D01*
X80573Y7321D01*
X80586Y7330D01*
X80588Y7331D01*
X80592Y7333D01*
X80600Y7336D01*
X80610Y7340D01*
X80622Y7345D01*
X80636Y7348D01*
X80652Y7349D01*
X80669Y7351D01*
X80681D01*
X80694Y7348D01*
D02*
G37*
G36*
X80684Y6895D02*
X80697Y6894D01*
X80715Y6891D01*
X80736Y6883D01*
X80759Y6874D01*
X80780Y6862D01*
X80801Y6844D01*
X80802Y6841D01*
X80808Y6835D01*
X80817Y6823D01*
X80826Y6807D01*
X80835Y6787D01*
X80844Y6762D01*
X80850Y6733D01*
X80852Y6700D01*
Y6697D01*
Y6690D01*
X80850Y6679D01*
X80849Y6666D01*
X80846Y6649D01*
X80841Y6631D01*
X80835Y6613D01*
X80828Y6595D01*
X80826Y6594D01*
X80823Y6588D01*
X80817Y6580D01*
X80810Y6570D01*
X80801Y6559D01*
X80790Y6547D01*
X80777Y6537D01*
X80762Y6526D01*
X80760Y6525D01*
X80754Y6523D01*
X80745Y6519D01*
X80733Y6514D01*
X80720Y6510D01*
X80703Y6507D01*
X80685Y6504D01*
X80666Y6502D01*
X80657D01*
X80646Y6504D01*
X80634Y6505D01*
X80619Y6508D01*
X80604Y6513D01*
X80588Y6519D01*
X80571Y6526D01*
X80570Y6528D01*
X80564Y6531D01*
X80556Y6537D01*
X80546Y6544D01*
X80535Y6555D01*
X80525Y6567D01*
X80513Y6580D01*
X80504Y6597D01*
X80502Y6598D01*
X80499Y6604D01*
X80496Y6615D01*
X80490Y6627D01*
X80486Y6643D01*
X80483Y6661D01*
X80480Y6681D01*
X80478Y6702D01*
Y6705D01*
Y6712D01*
X80480Y6723D01*
X80481Y6736D01*
X80484Y6753D01*
X80489Y6769D01*
X80495Y6787D01*
X80504Y6804D01*
X80505Y6805D01*
X80508Y6811D01*
X80514Y6819D01*
X80522Y6829D01*
X80531Y6840D01*
X80543Y6852D01*
X80556Y6862D01*
X80573Y6873D01*
X80574Y6874D01*
X80580Y6877D01*
X80589Y6880D01*
X80601Y6885D01*
X80616Y6889D01*
X80633Y6894D01*
X80651Y6895D01*
X80670Y6897D01*
X80678D01*
X80684Y6895D01*
D02*
G37*
G36*
X78320Y7340D02*
X78337Y7336D01*
X78358Y7330D01*
X78380Y7316D01*
X78392Y7309D01*
X78404Y7298D01*
X78415Y7288D01*
X78425Y7273D01*
X78434Y7258D01*
X78442Y7240D01*
Y7238D01*
X78443Y7235D01*
X78445Y7229D01*
X78448Y7220D01*
X78451Y7210D01*
X78454Y7196D01*
X78458Y7181D01*
X78461Y7163D01*
X78464Y7142D01*
X78469Y7120D01*
X78472Y7094D01*
X78475Y7066D01*
X78478Y7036D01*
X78479Y7003D01*
X78481Y6967D01*
Y6929D01*
Y6928D01*
Y6923D01*
Y6916D01*
Y6906D01*
Y6894D01*
X78479Y6879D01*
Y6864D01*
Y6846D01*
X78476Y6810D01*
X78473Y6769D01*
X78470Y6730D01*
X78464Y6694D01*
Y6693D01*
X78463Y6690D01*
Y6685D01*
X78461Y6679D01*
X78457Y6663D01*
X78451Y6643D01*
X78443Y6621D01*
X78434Y6598D01*
X78422Y6577D01*
X78409Y6558D01*
X78407Y6556D01*
X78401Y6550D01*
X78392Y6543D01*
X78380Y6535D01*
X78365Y6526D01*
X78347Y6519D01*
X78326Y6513D01*
X78303Y6511D01*
X78300D01*
X78291Y6513D01*
X78279Y6514D01*
X78262Y6517D01*
X78244Y6523D01*
X78226Y6532D01*
X78210Y6543D01*
X78193Y6559D01*
X78192Y6562D01*
X78187Y6568D01*
X78180Y6579D01*
X78172Y6595D01*
X78163Y6615D01*
X78153Y6637D01*
X78145Y6666D01*
X78138Y6697D01*
Y6699D01*
X78136Y6702D01*
Y6706D01*
X78135Y6714D01*
X78133Y6723D01*
X78132Y6735D01*
X78130Y6747D01*
X78129Y6762D01*
X78127Y6778D01*
X78126Y6796D01*
Y6816D01*
X78124Y6837D01*
X78123Y6859D01*
X78121Y6883D01*
Y6935D01*
Y6937D01*
Y6941D01*
Y6949D01*
Y6958D01*
Y6970D01*
X78123Y6983D01*
Y6998D01*
Y7015D01*
X78126Y7051D01*
X78129Y7090D01*
X78133Y7127D01*
X78139Y7162D01*
Y7163D01*
Y7166D01*
X78141Y7171D01*
X78142Y7177D01*
X78147Y7192D01*
X78153Y7211D01*
X78160Y7234D01*
X78169Y7255D01*
X78181Y7277D01*
X78195Y7295D01*
X78196Y7297D01*
X78202Y7303D01*
X78211Y7310D01*
X78223Y7319D01*
X78238Y7327D01*
X78258Y7334D01*
X78279Y7340D01*
X78304Y7342D01*
X78313D01*
X78320Y7340D01*
D02*
G37*
G36*
X82780Y6810D02*
X82449D01*
X82617Y7268D01*
X82780Y6810D01*
D02*
G37*
G36*
X75260Y7012D02*
X75046D01*
X75031Y7013D01*
X75012D01*
X74991Y7015D01*
X74967Y7018D01*
X74944Y7021D01*
X74923Y7025D01*
X74920D01*
X74914Y7028D01*
X74904Y7031D01*
X74892Y7036D01*
X74878Y7043D01*
X74863Y7051D01*
X74850Y7060D01*
X74838Y7072D01*
X74836Y7073D01*
X74833Y7078D01*
X74829Y7085D01*
X74823Y7097D01*
X74817Y7111D01*
X74812Y7126D01*
X74809Y7145D01*
X74808Y7166D01*
Y7168D01*
Y7174D01*
X74809Y7183D01*
X74811Y7193D01*
X74814Y7207D01*
X74818Y7220D01*
X74824Y7234D01*
X74832Y7247D01*
X74833Y7249D01*
X74836Y7253D01*
X74842Y7259D01*
X74848Y7267D01*
X74859Y7276D01*
X74869Y7285D01*
X74883Y7292D01*
X74898Y7300D01*
X74899Y7301D01*
X74905Y7303D01*
X74916Y7306D01*
X74932Y7309D01*
X74953Y7312D01*
X74965Y7313D01*
X74980Y7315D01*
X74995Y7316D01*
X75013Y7318D01*
X75260D01*
Y7012D01*
D02*
G37*
D10*
X65305Y13825D02*
X83305D01*
X65305Y7825D02*
Y13825D01*
Y7825D02*
X83305D01*
Y13825D01*
D14*
X18000Y5625D02*
Y13420D01*
X26625Y5625D02*
Y13420D01*
X21250Y5625D02*
Y13420D01*
X23625Y5625D02*
Y13420D01*
X18000Y5625D02*
X26625D01*
X4747Y18380D02*
X4597Y18530D01*
Y18830D01*
X4747Y18980D01*
X5347D01*
X5497Y18830D01*
Y18530D01*
X5347Y18380D01*
X5047D01*
Y18680D01*
X5497Y18080D02*
X4597D01*
X5497Y17480D01*
X4597D01*
Y17180D02*
X5497D01*
Y16730D01*
X5347Y16580D01*
X4747D01*
X4597Y16730D01*
Y17180D01*
X4747Y3140D02*
X4597Y3290D01*
Y3590D01*
X4747Y3740D01*
X5347D01*
X5497Y3590D01*
Y3290D01*
X5347Y3140D01*
X5047D01*
Y3440D01*
X5497Y2840D02*
X4597D01*
X5497Y2240D01*
X4597D01*
Y1940D02*
X5497D01*
Y1490D01*
X5347Y1340D01*
X4747D01*
X4597Y1490D01*
Y1940D01*
D15*
X2657Y11430D02*
G03*
X2657Y11430I-102J0D01*
G01*
D16*
X71575Y14300D02*
X71775Y14500D01*
X41366Y5475D02*
Y8913D01*
X34700D02*
X41366D01*
X34700Y5475D02*
Y8913D01*
Y5475D02*
X41366D01*
X56325Y14300D02*
X73875D01*
X45250Y11950D02*
X53975D01*
X56325Y14300D01*
X38550Y10500D02*
X45250D01*
X38550D02*
Y13500D01*
X45250D01*
Y10500D02*
Y13500D01*
D18*
X37182Y6025D02*
Y6775D01*
X36807D01*
X36682Y6650D01*
Y6400D01*
X36807Y6275D01*
X37182D01*
X36432Y6025D02*
Y6525D01*
X36182Y6775D01*
X35932Y6525D01*
Y6025D01*
Y6400D01*
X36432D01*
X35683Y6025D02*
X35433D01*
X35558D01*
Y6775D01*
X35683Y6650D01*
X37182Y7425D02*
Y8175D01*
X36807D01*
X36682Y8050D01*
Y7800D01*
X36807Y7675D01*
X37182D01*
X36432Y7425D02*
Y7925D01*
X36182Y8175D01*
X35932Y7925D01*
Y7425D01*
Y7800D01*
X36432D01*
X35683Y8050D02*
X35558Y8175D01*
X35308D01*
X35183Y8050D01*
Y7550D01*
X35308Y7425D01*
X35558D01*
X35683Y7550D01*
Y8050D01*
X63647Y12134D02*
X63772Y12009D01*
Y11759D01*
X63647Y11634D01*
X63147D01*
X63023Y11759D01*
Y12009D01*
X63147Y12134D01*
X63397D01*
Y11884D01*
X63023Y12384D02*
X63772D01*
X63023Y12884D01*
X63772D01*
Y13134D02*
X63023D01*
Y13509D01*
X63147Y13634D01*
X63647D01*
X63772Y13509D01*
Y13134D01*
X62261Y11395D02*
Y10895D01*
X62011Y10645D01*
X61761Y10895D01*
Y11395D01*
X61512D02*
Y10645D01*
X61137D01*
X61012Y10770D01*
Y11270D01*
X61137Y11395D01*
X61512D01*
X60762D02*
Y10645D01*
X60387D01*
X60262Y10770D01*
Y11270D01*
X60387Y11395D01*
X60762D01*
X60012D02*
X59762D01*
X59887D01*
Y10645D01*
X60012D01*
X59762D01*
X59012Y11395D02*
X59262D01*
X59387Y11270D01*
Y10770D01*
X59262Y10645D01*
X59012D01*
X58887Y10770D01*
Y11270D01*
X59012Y11395D01*
X58138Y10645D02*
X58637D01*
X58138Y11145D01*
Y11270D01*
X58263Y11395D01*
X58513D01*
X58637Y11270D01*
X59420Y15896D02*
Y16646D01*
X59045D01*
X58920Y16521D01*
Y16271D01*
X59045Y16146D01*
X59420D01*
X58170Y16521D02*
X58295Y16646D01*
X58545D01*
X58670Y16521D01*
Y16021D01*
X58545Y15896D01*
X58295D01*
X58170Y16021D01*
X57420Y16646D02*
X57670Y16521D01*
X57920Y16271D01*
Y16021D01*
X57795Y15896D01*
X57545D01*
X57420Y16021D01*
Y16146D01*
X57545Y16271D01*
X57920D01*
X56880Y15490D02*
Y16239D01*
X56505D01*
X56380Y16114D01*
Y15865D01*
X56505Y15740D01*
X56880D01*
X55630Y16114D02*
X55755Y16239D01*
X56005D01*
X56130Y16114D01*
Y15615D01*
X56005Y15490D01*
X55755D01*
X55630Y15615D01*
X55380Y16239D02*
X54880D01*
Y16114D01*
X55380Y15615D01*
Y15490D01*
X14455Y5450D02*
X14580Y5575D01*
X14830D01*
X14955Y5450D01*
Y4950D01*
X14830Y4825D01*
X14580D01*
X14455Y4950D01*
X14205Y5575D02*
Y4825D01*
X13830D01*
X13705Y4950D01*
Y5450D01*
X13830Y5575D01*
X14205D01*
X12956Y5450D02*
X13081Y5575D01*
X13331D01*
X13455Y5450D01*
Y4950D01*
X13331Y4825D01*
X13081D01*
X12956Y4950D01*
X18554Y7485D02*
X18429Y7610D01*
Y7860D01*
X18554Y7985D01*
X19054D01*
X19179Y7860D01*
Y7610D01*
X19054Y7485D01*
X18429Y7235D02*
X19179D01*
Y6860D01*
X19054Y6735D01*
X18554D01*
X18429Y6860D01*
Y7235D01*
X18554Y5986D02*
X18429Y6110D01*
Y6360D01*
X18554Y6485D01*
X19054D01*
X19179Y6360D01*
Y6110D01*
X19054Y5986D01*
X20945Y6725D02*
X20445D01*
X20695D01*
Y5975D01*
X20195Y6725D02*
X19695Y5975D01*
Y6725D02*
X20195Y5975D01*
X20945Y7245D02*
Y7995D01*
X20570D01*
X20445Y7870D01*
Y7620D01*
X20570Y7495D01*
X20945D01*
X20695D02*
X20445Y7245D01*
X20195Y7995D02*
X19695Y7245D01*
Y7995D02*
X20195Y7245D01*
X20945Y13075D02*
Y12325D01*
X20570D01*
X20445Y12450D01*
Y12950D01*
X20570Y13075D01*
X20945D01*
X20195Y12950D02*
X20070Y13075D01*
X19820D01*
X19695Y12950D01*
Y12825D01*
X19820Y12700D01*
X19945D01*
X19820D01*
X19695Y12575D01*
Y12450D01*
X19820Y12325D01*
X20070D01*
X20195Y12450D01*
X20945Y9265D02*
Y8515D01*
X20570D01*
X20445Y8640D01*
Y9140D01*
X20570Y9265D01*
X20945D01*
X20195Y9140D02*
X20070Y9265D01*
X19820D01*
X19695Y9140D01*
Y8640D01*
X19820Y8515D01*
X20070D01*
X20195Y8640D01*
Y9140D01*
X20945Y10535D02*
Y9785D01*
X20570D01*
X20445Y9910D01*
Y10410D01*
X20570Y10535D01*
X20945D01*
X20195Y9785D02*
X19945D01*
X20070D01*
Y10535D01*
X20195Y10410D01*
X20945Y11805D02*
Y11055D01*
X20570D01*
X20445Y11180D01*
Y11680D01*
X20570Y11805D01*
X20945D01*
X19695Y11055D02*
X20195D01*
X19695Y11555D01*
Y11680D01*
X19820Y11805D01*
X20070D01*
X20195Y11680D01*
X10115Y6152D02*
Y5402D01*
X9740D01*
X9615Y5527D01*
Y5652D01*
X9740Y5777D01*
X10115D01*
X9740D01*
X9615Y5902D01*
Y6027D01*
X9740Y6152D01*
X10115D01*
X8990D02*
X9240D01*
X9365Y6027D01*
Y5527D01*
X9240Y5402D01*
X8990D01*
X8865Y5527D01*
Y6027D01*
X8990Y6152D01*
X8241D02*
X8491D01*
X8615Y6027D01*
Y5527D01*
X8491Y5402D01*
X8241D01*
X8116Y5527D01*
Y6027D01*
X8241Y6152D01*
X7866D02*
X7366D01*
X7616D01*
Y5402D01*
X15865Y4638D02*
X15365D01*
X15615D01*
Y3888D01*
X15115Y4638D02*
X14615Y3888D01*
Y4638D02*
X15115Y3888D01*
X13325D02*
Y4638D01*
X12950D01*
X12825Y4513D01*
Y4263D01*
X12950Y4138D01*
X13325D01*
X13075D02*
X12825Y3888D01*
X12575Y4638D02*
X12075Y3888D01*
Y4638D02*
X12575Y3888D01*
X18280Y4638D02*
Y3888D01*
X17905D01*
X17780Y4013D01*
Y4513D01*
X17905Y4638D01*
X18280D01*
X17530Y3888D02*
X17280D01*
X17405D01*
Y4638D01*
X17530Y4513D01*
X20945Y4638D02*
Y3888D01*
X20570D01*
X20445Y4013D01*
Y4513D01*
X20570Y4638D01*
X20945D01*
X19695Y3888D02*
X20195D01*
X19695Y4388D01*
Y4513D01*
X19820Y4638D01*
X20070D01*
X20195Y4513D01*
X21320Y16422D02*
Y15922D01*
X21070Y15672D01*
X20820Y15922D01*
Y16422D01*
X20570D02*
X20070D01*
X20320D01*
Y15672D01*
X19320Y16297D02*
X19445Y16422D01*
X19695D01*
X19820Y16297D01*
Y15797D01*
X19695Y15672D01*
X19445D01*
X19320Y15797D01*
Y16047D01*
X19570D01*
X18280Y16318D02*
X18405Y16443D01*
X18655D01*
X18780Y16318D01*
Y15818D01*
X18655Y15693D01*
X18405D01*
X18280Y15818D01*
Y16068D01*
X18530D01*
X18030Y15693D02*
Y16443D01*
X17530Y15693D01*
Y16443D01*
X17280D02*
Y15693D01*
X16905D01*
X16780Y15818D01*
Y16318D01*
X16905Y16443D01*
X17280D01*
X15865D02*
Y15693D01*
X15490D01*
X15365Y15818D01*
Y16318D01*
X15490Y16443D01*
X15865D01*
X15115Y16318D02*
X14990Y16443D01*
X14740D01*
X14615Y16318D01*
Y15818D01*
X14740Y15693D01*
X14990D01*
X15115Y15818D01*
Y16318D01*
X13325Y16443D02*
Y15693D01*
X12950D01*
X12825Y15818D01*
Y16318D01*
X12950Y16443D01*
X13325D01*
X12575Y16318D02*
X12450Y16443D01*
X12200D01*
X12075Y16318D01*
Y16193D01*
X12200Y16068D01*
X12325D01*
X12200D01*
X12075Y15943D01*
Y15818D01*
X12200Y15693D01*
X12450D01*
X12575Y15818D01*
X16915Y12397D02*
X17665D01*
Y12022D01*
X17540Y11897D01*
X17040D01*
X16915Y12022D01*
Y12397D01*
Y11147D02*
Y11647D01*
X17665D01*
Y11147D01*
X17290Y11647D02*
Y11397D01*
X16915Y10897D02*
X17665D01*
Y10522D01*
X17540Y10397D01*
X17415D01*
X17290Y10522D01*
Y10897D01*
Y10522D01*
X17165Y10397D01*
X17040D01*
X16915Y10522D01*
Y10897D01*
Y10147D02*
X17540D01*
X17665Y10022D01*
Y9772D01*
X17540Y9647D01*
X16915D01*
X17040Y8898D02*
X16915Y9023D01*
Y9273D01*
X17040Y9398D01*
X17540D01*
X17665Y9273D01*
Y9023D01*
X17540Y8898D01*
X17290D01*
Y9148D01*
X17040Y8148D02*
X16915Y8273D01*
Y8523D01*
X17040Y8648D01*
X17540D01*
X17665Y8523D01*
Y8273D01*
X17540Y8148D01*
X17290D01*
Y8398D01*
X16915Y7398D02*
Y7898D01*
X17665D01*
Y7398D01*
X17290Y7898D02*
Y7648D01*
X17665Y7148D02*
X16915D01*
Y6773D01*
X17040Y6648D01*
X17290D01*
X17415Y6773D01*
Y7148D01*
Y6898D02*
X17665Y6648D01*
X9615Y7297D02*
X9740Y7422D01*
X9990D01*
X10115Y7297D01*
Y6797D01*
X9990Y6672D01*
X9740D01*
X9615Y6797D01*
Y7047D01*
X9865D01*
X9365Y6672D02*
Y7422D01*
X8865Y6672D01*
Y7422D01*
X8615D02*
Y6672D01*
X8241D01*
X8116Y6797D01*
Y7297D01*
X8241Y7422D01*
X8615D01*
X11535Y16443D02*
Y15943D01*
X11285Y15693D01*
X11035Y15943D01*
Y16443D01*
X10410D02*
X10660D01*
X10785Y16318D01*
Y15818D01*
X10660Y15693D01*
X10410D01*
X10285Y15818D01*
Y16318D01*
X10410Y16443D01*
X9535D02*
X10035D01*
Y16068D01*
X9785D01*
X10035D01*
Y15693D01*
X8785Y16443D02*
X9285D01*
Y16068D01*
X9035D01*
X9285D01*
Y15693D01*
X10722Y4638D02*
X10472D01*
X10597D01*
Y3888D01*
X10722D01*
X10472D01*
X10098Y4638D02*
Y3888D01*
X9723D01*
X9598Y4013D01*
Y4513D01*
X9723Y4638D01*
X10098D01*
X7245Y16443D02*
X7745D01*
X7995Y16193D01*
X7745Y15943D01*
X7245D01*
Y15693D02*
X7995D01*
Y15318D01*
X7870Y15193D01*
X7745D01*
X7620Y15318D01*
Y15693D01*
Y15318D01*
X7495Y15193D01*
X7370D01*
X7245Y15318D01*
Y15693D01*
Y14943D02*
X7870D01*
X7995Y14818D01*
Y14568D01*
X7870Y14443D01*
X7245D01*
X7370Y13693D02*
X7245Y13818D01*
Y14068D01*
X7370Y14193D01*
X7495D01*
X7620Y14068D01*
Y13818D01*
X7745Y13693D01*
X7870D01*
X7995Y13818D01*
Y14068D01*
X7870Y14193D01*
X8245Y3888D02*
Y4638D01*
X7745Y3888D01*
Y4638D01*
X6995Y4513D02*
X7120Y4638D01*
X7370D01*
X7495Y4513D01*
Y4013D01*
X7370Y3888D01*
X7120D01*
X6995Y4013D01*
X23656Y14366D02*
X23781Y14491D01*
X24030D01*
X24155Y14366D01*
Y13866D01*
X24030Y13741D01*
X23781D01*
X23656Y13866D01*
X23031Y14491D02*
X23281D01*
X23406Y14366D01*
Y13866D01*
X23281Y13741D01*
X23031D01*
X22906Y13866D01*
Y14366D01*
X23031Y14491D01*
X22656Y13741D02*
Y14491D01*
X22156Y13741D01*
Y14491D01*
X21906Y13741D02*
Y14491D01*
X21406Y13741D01*
Y14491D01*
X20657D02*
X21156D01*
Y13741D01*
X20657D01*
X21156Y14116D02*
X20906D01*
X19907Y14366D02*
X20032Y14491D01*
X20282D01*
X20407Y14366D01*
Y13866D01*
X20282Y13741D01*
X20032D01*
X19907Y13866D01*
X19657Y14491D02*
X19157D01*
X19407D01*
Y13741D01*
X18907Y14491D02*
X18657D01*
X18782D01*
Y13741D01*
X18907D01*
X18657D01*
X17907Y14491D02*
X18157D01*
X18282Y14366D01*
Y13866D01*
X18157Y13741D01*
X17907D01*
X17782Y13866D01*
Y14366D01*
X17907Y14491D01*
X17533Y13741D02*
Y14491D01*
X17033Y13741D01*
Y14491D01*
X16283Y14366D02*
X16408Y14491D01*
X16658D01*
X16783Y14366D01*
Y14241D01*
X16658Y14116D01*
X16408D01*
X16283Y13991D01*
Y13866D01*
X16408Y13741D01*
X16658D01*
X16783Y13866D01*
X26975Y11647D02*
Y11147D01*
Y11397D01*
X27725D01*
Y10897D02*
X27225D01*
X26975Y10647D01*
X27225Y10397D01*
X27725D01*
X27350D01*
Y10897D01*
X27725Y10147D02*
X26975D01*
Y9772D01*
X27100Y9647D01*
X27350D01*
X27475Y9772D01*
Y10147D01*
Y9897D02*
X27725Y9647D01*
X27100Y8898D02*
X26975Y9023D01*
Y9273D01*
X27100Y9398D01*
X27600D01*
X27725Y9273D01*
Y9023D01*
X27600Y8898D01*
X27350D01*
Y9148D01*
X26975Y8148D02*
Y8648D01*
X27725D01*
Y8148D01*
X27350Y8648D02*
Y8398D01*
X26975Y7898D02*
Y7398D01*
Y7648D01*
X27725D01*
X41150Y12325D02*
Y13075D01*
X40775D01*
X40650Y12950D01*
Y12700D01*
X40775Y12575D01*
X41150D01*
X39900Y13075D02*
X40400D01*
Y12700D01*
X40150D01*
X40400D01*
Y12325D01*
X39650Y12950D02*
X39526Y13075D01*
X39276D01*
X39151Y12950D01*
Y12450D01*
X39276Y12325D01*
X39526D01*
X39650Y12450D01*
Y12950D01*
X41150Y10810D02*
Y11560D01*
X40775D01*
X40650Y11435D01*
Y11185D01*
X40775Y11060D01*
X41150D01*
X39900Y11560D02*
X40400D01*
Y11185D01*
X40150D01*
X40400D01*
Y10810D01*
X39650D02*
X39401D01*
X39526D01*
Y11560D01*
X39650Y11435D01*
X34020Y15896D02*
Y16646D01*
X33645D01*
X33520Y16521D01*
Y16271D01*
X33645Y16146D01*
X34020D01*
X33270Y16646D02*
Y15896D01*
X32895D01*
X32770Y16021D01*
Y16521D01*
X32895Y16646D01*
X33270D01*
X32520Y16521D02*
X32395Y16646D01*
X32145D01*
X32020Y16521D01*
Y16021D01*
X32145Y15896D01*
X32395D01*
X32520Y16021D01*
Y16521D01*
X76498Y15873D02*
Y16227D01*
X76322Y16403D01*
X75968D01*
X76233Y15608D02*
X75703Y16138D01*
X75438Y15873D01*
Y15697D01*
X75615Y15520D01*
X75791D01*
X76056Y15785D01*
X74819Y15255D02*
X75173Y15608D01*
X75438Y15343D01*
X75261Y15166D01*
X75438Y15343D01*
X75703Y15078D01*
X74731Y14990D02*
X74554D01*
X74378Y14813D01*
Y14636D01*
X74731Y14283D01*
X74908D01*
X75085Y14460D01*
Y14636D01*
X74731Y14990D01*
X74643Y14018D02*
X74289D01*
X74113Y14194D01*
Y14548D01*
X28940Y15896D02*
Y16646D01*
X28565D01*
X28440Y16521D01*
Y16271D01*
X28565Y16146D01*
X28940D01*
X28190Y16646D02*
Y15896D01*
X27815D01*
X27690Y16021D01*
Y16521D01*
X27815Y16646D01*
X28190D01*
X26940Y15896D02*
X27440D01*
X26940Y16396D01*
Y16521D01*
X27065Y16646D01*
X27315D01*
X27440Y16521D01*
X74660Y3685D02*
Y4435D01*
X74285D01*
X74160Y4310D01*
Y4060D01*
X74285Y3935D01*
X74660D01*
X73910Y4435D02*
Y3685D01*
X73535D01*
X73410Y3810D01*
Y3935D01*
X73535Y4060D01*
X73910D01*
X73535D01*
X73410Y4185D01*
Y4310D01*
X73535Y4435D01*
X73910D01*
X72660Y3685D02*
X73160D01*
X72660Y4185D01*
Y4310D01*
X72785Y4435D01*
X73035D01*
X73160Y4310D01*
X74273Y16273D02*
Y16627D01*
X74097Y16803D01*
X73743D01*
X74008Y16008D02*
X73478Y16538D01*
X73213Y16273D01*
Y16097D01*
X73390Y15920D01*
X73566D01*
X73831Y16185D01*
X72594Y15655D02*
X72948Y16008D01*
X73213Y15743D01*
X73036Y15566D01*
X73213Y15743D01*
X73478Y15478D01*
X72948Y14948D02*
X72771Y14771D01*
X72860Y14860D01*
X72329Y15390D01*
X72506D01*
Y14506D02*
X72153D01*
X71976Y14683D01*
Y15036D01*
X23860Y15896D02*
Y16646D01*
X23485D01*
X23360Y16521D01*
Y16271D01*
X23485Y16146D01*
X23860D01*
X23110Y16646D02*
Y15896D01*
X22735D01*
X22610Y16021D01*
Y16521D01*
X22735Y16646D01*
X23110D01*
X21860D02*
X22110Y16521D01*
X22360Y16271D01*
Y16021D01*
X22235Y15896D01*
X21985D01*
X21860Y16021D01*
Y16146D01*
X21985Y16271D01*
X22360D01*
X26400Y15515D02*
Y16265D01*
X26025D01*
X25900Y16140D01*
Y15890D01*
X26025Y15765D01*
X26400D01*
X25650Y16265D02*
Y15515D01*
X25275D01*
X25150Y15640D01*
Y16140D01*
X25275Y16265D01*
X25650D01*
X24900Y16140D02*
X24775Y16265D01*
X24525D01*
X24400Y16140D01*
Y16015D01*
X24525Y15890D01*
X24650D01*
X24525D01*
X24400Y15765D01*
Y15640D01*
X24525Y15515D01*
X24775D01*
X24900Y15640D01*
X59295Y3685D02*
Y4435D01*
X58920D01*
X58795Y4310D01*
Y4060D01*
X58920Y3935D01*
X59295D01*
X58045Y4310D02*
X58170Y4435D01*
X58420D01*
X58545Y4310D01*
Y3810D01*
X58420Y3685D01*
X58170D01*
X58045Y3810D01*
X57795Y3685D02*
X57545D01*
X57670D01*
Y4435D01*
X57795Y4310D01*
X38975Y15896D02*
Y16646D01*
X38600D01*
X38475Y16521D01*
Y16271D01*
X38600Y16146D01*
X38975D01*
X38225Y16646D02*
Y15896D01*
X37850D01*
X37725Y16021D01*
Y16521D01*
X37850Y16646D01*
X38225D01*
X36975D02*
X37475D01*
Y16271D01*
X37225Y16396D01*
X37100D01*
X36975Y16271D01*
Y16021D01*
X37100Y15896D01*
X37350D01*
X37475Y16021D01*
X61960Y15490D02*
Y16239D01*
X61585D01*
X61460Y16114D01*
Y15865D01*
X61585Y15740D01*
X61960D01*
X60710Y16114D02*
X60835Y16239D01*
X61085D01*
X61210Y16114D01*
Y15615D01*
X61085Y15490D01*
X60835D01*
X60710Y15615D01*
X59960Y16239D02*
X60460D01*
Y15865D01*
X60210Y15989D01*
X60085D01*
X59960Y15865D01*
Y15615D01*
X60085Y15490D01*
X60335D01*
X60460Y15615D01*
X31480Y4091D02*
Y4841D01*
X31105D01*
X30980Y4716D01*
Y4466D01*
X31105Y4341D01*
X31480D01*
X30730Y4091D02*
Y4591D01*
X30480Y4841D01*
X30230Y4591D01*
Y4091D01*
Y4466D01*
X30730D01*
X29980Y4716D02*
X29855Y4841D01*
X29605D01*
X29480Y4716D01*
Y4591D01*
X29605Y4466D01*
X29730D01*
X29605D01*
X29480Y4341D01*
Y4216D01*
X29605Y4091D01*
X29855D01*
X29980Y4216D01*
X64500Y3685D02*
Y4435D01*
X64125D01*
X64000Y4310D01*
Y4060D01*
X64125Y3935D01*
X64500D01*
X63250Y4310D02*
X63375Y4435D01*
X63625D01*
X63750Y4310D01*
Y3810D01*
X63625Y3685D01*
X63375D01*
X63250Y3810D01*
X63000Y4310D02*
X62875Y4435D01*
X62625D01*
X62500Y4310D01*
Y4185D01*
X62625Y4060D01*
X62750D01*
X62625D01*
X62500Y3935D01*
Y3810D01*
X62625Y3685D01*
X62875D01*
X63000Y3810D01*
X54340Y3685D02*
Y4435D01*
X53965D01*
X53840Y4310D01*
Y4060D01*
X53965Y3935D01*
X54340D01*
X53090Y4435D02*
X53590D01*
Y4060D01*
X53340D01*
X53590D01*
Y3685D01*
X52840Y4310D02*
X52715Y4435D01*
X52465D01*
X52340Y4310D01*
Y4185D01*
X52465Y4060D01*
X52590D01*
X52465D01*
X52340Y3935D01*
Y3810D01*
X52465Y3685D01*
X52715D01*
X52840Y3810D01*
X51800Y15490D02*
Y16239D01*
X51425D01*
X51300Y16114D01*
Y15865D01*
X51425Y15740D01*
X51800D01*
X50550Y16239D02*
X51050D01*
Y15490D01*
X50550D01*
X51050Y15865D02*
X50800D01*
X50300Y15490D02*
X50050D01*
X50175D01*
Y16239D01*
X50300Y16114D01*
X28940Y3685D02*
Y4435D01*
X28565D01*
X28440Y4310D01*
Y4060D01*
X28565Y3935D01*
X28940D01*
X28190Y3685D02*
Y4185D01*
X27940Y4435D01*
X27690Y4185D01*
Y3685D01*
Y4060D01*
X28190D01*
X26940Y3685D02*
X27440D01*
X26940Y4185D01*
Y4310D01*
X27065Y4435D01*
X27315D01*
X27440Y4310D01*
X43680D02*
X43805Y4435D01*
X44055D01*
X44180Y4310D01*
Y3810D01*
X44055Y3685D01*
X43805D01*
X43680Y3810D01*
Y4060D01*
X43930D01*
X43430Y3685D02*
Y4435D01*
X42930Y3685D01*
Y4435D01*
X42680D02*
Y3685D01*
X42305D01*
X42180Y3810D01*
Y4310D01*
X42305Y4435D01*
X42680D01*
X31380Y15490D02*
Y16239D01*
X31005D01*
X30880Y16114D01*
Y15865D01*
X31005Y15740D01*
X31380D01*
X30630Y16239D02*
Y15490D01*
X30255D01*
X30130Y15615D01*
Y16114D01*
X30255Y16239D01*
X30630D01*
X29880Y15490D02*
X29631D01*
X29756D01*
Y16239D01*
X29880Y16114D01*
X56880Y4091D02*
Y4841D01*
X56505D01*
X56380Y4716D01*
Y4466D01*
X56505Y4341D01*
X56880D01*
X55630Y4716D02*
X55755Y4841D01*
X56005D01*
X56130Y4716D01*
Y4216D01*
X56005Y4091D01*
X55755D01*
X55630Y4216D01*
X55380Y4716D02*
X55255Y4841D01*
X55005D01*
X54880Y4716D01*
Y4216D01*
X55005Y4091D01*
X55255D01*
X55380Y4216D01*
Y4716D01*
X23860Y3685D02*
Y4435D01*
X23485D01*
X23360Y4310D01*
Y4060D01*
X23485Y3935D01*
X23860D01*
X22610Y4435D02*
X23110D01*
Y4060D01*
X22860D01*
X23110D01*
Y3685D01*
X21985D02*
Y4435D01*
X22360Y4060D01*
X21860D01*
X49135Y3685D02*
Y4435D01*
X48760D01*
X48635Y4310D01*
Y4060D01*
X48760Y3935D01*
X49135D01*
X48385Y4435D02*
Y3685D01*
X48010D01*
X47885Y3810D01*
Y3935D01*
X48010Y4060D01*
X48385D01*
X48010D01*
X47885Y4185D01*
Y4310D01*
X48010Y4435D01*
X48385D01*
X47635Y3685D02*
X47385D01*
X47510D01*
Y4435D01*
X47635Y4310D01*
X77200Y4091D02*
Y4841D01*
X76825D01*
X76700Y4716D01*
Y4466D01*
X76825Y4341D01*
X77200D01*
X76450Y4841D02*
Y4091D01*
X76075D01*
X75950Y4216D01*
Y4341D01*
X76075Y4466D01*
X76450D01*
X76075D01*
X75950Y4591D01*
Y4716D01*
X76075Y4841D01*
X76450D01*
X75700Y4716D02*
X75575Y4841D01*
X75325D01*
X75200Y4716D01*
Y4591D01*
X75325Y4466D01*
X75450D01*
X75325D01*
X75200Y4341D01*
Y4216D01*
X75325Y4091D01*
X75575D01*
X75700Y4216D01*
X61960Y4091D02*
Y4841D01*
X61585D01*
X61460Y4716D01*
Y4466D01*
X61585Y4341D01*
X61960D01*
X60710Y4716D02*
X60835Y4841D01*
X61085D01*
X61210Y4716D01*
Y4216D01*
X61085Y4091D01*
X60835D01*
X60710Y4216D01*
X59960Y4091D02*
X60460D01*
X59960Y4591D01*
Y4716D01*
X60085Y4841D01*
X60335D01*
X60460Y4716D01*
X69525Y16075D02*
Y16825D01*
X69150D01*
X69025Y16700D01*
Y16450D01*
X69150Y16325D01*
X69525D01*
X68775Y16825D02*
Y16075D01*
X68400D01*
X68275Y16200D01*
Y16325D01*
X68400Y16450D01*
X68775D01*
X68400D01*
X68275Y16575D01*
Y16700D01*
X68400Y16825D01*
X68775D01*
X67526D02*
X68025D01*
Y16450D01*
X67776Y16575D01*
X67651D01*
X67526Y16450D01*
Y16200D01*
X67651Y16075D01*
X67901D01*
X68025Y16200D01*
X43680Y16521D02*
X43805Y16646D01*
X44055D01*
X44180Y16521D01*
Y16021D01*
X44055Y15896D01*
X43805D01*
X43680Y16021D01*
Y16271D01*
X43930D01*
X43430Y15896D02*
Y16646D01*
X42930Y15896D01*
Y16646D01*
X42680D02*
Y15896D01*
X42305D01*
X42180Y16021D01*
Y16521D01*
X42305Y16646D01*
X42680D01*
X66540Y4716D02*
X66665Y4841D01*
X66915D01*
X67040Y4716D01*
Y4216D01*
X66915Y4091D01*
X66665D01*
X66540Y4216D01*
Y4466D01*
X66790D01*
X66290Y4091D02*
Y4841D01*
X65790Y4091D01*
Y4841D01*
X65540D02*
Y4091D01*
X65165D01*
X65040Y4216D01*
Y4716D01*
X65165Y4841D01*
X65540D01*
X46720Y15490D02*
Y16239D01*
X46345D01*
X46220Y16114D01*
Y15865D01*
X46345Y15740D01*
X46720D01*
X45470Y16239D02*
X45970D01*
Y15490D01*
X45470D01*
X45970Y15865D02*
X45720D01*
X45220Y16114D02*
X45095Y16239D01*
X44845D01*
X44720Y16114D01*
Y15989D01*
X44845Y15865D01*
X44970D01*
X44845D01*
X44720Y15740D01*
Y15615D01*
X44845Y15490D01*
X45095D01*
X45220Y15615D01*
X36560Y15490D02*
Y16239D01*
X36185D01*
X36060Y16114D01*
Y15865D01*
X36185Y15740D01*
X36560D01*
X35810Y16239D02*
Y15490D01*
X35435D01*
X35310Y15615D01*
Y16114D01*
X35435Y16239D01*
X35810D01*
X35060D02*
X34560D01*
Y16114D01*
X35060Y15615D01*
Y15490D01*
X66540Y16114D02*
X66665Y16239D01*
X66915D01*
X67040Y16114D01*
Y15615D01*
X66915Y15490D01*
X66665D01*
X66540Y15615D01*
Y15865D01*
X66790D01*
X66290Y15490D02*
Y16239D01*
X65790Y15490D01*
Y16239D01*
X65540D02*
Y15490D01*
X65165D01*
X65040Y15615D01*
Y16114D01*
X65165Y16239D01*
X65540D01*
X41640Y15490D02*
Y16239D01*
X41265D01*
X41140Y16114D01*
Y15865D01*
X41265Y15740D01*
X41640D01*
X40890Y16239D02*
Y15490D01*
X40515D01*
X40390Y15615D01*
Y16114D01*
X40515Y16239D01*
X40890D01*
X39765Y15490D02*
Y16239D01*
X40140Y15865D01*
X39640D01*
X34020Y3685D02*
Y4435D01*
X33645D01*
X33520Y4310D01*
Y4060D01*
X33645Y3935D01*
X34020D01*
X33270Y3685D02*
Y4185D01*
X33020Y4435D01*
X32770Y4185D01*
Y3685D01*
Y4060D01*
X33270D01*
X32145Y3685D02*
Y4435D01*
X32520Y4060D01*
X32020D01*
X51800Y4091D02*
Y4841D01*
X51425D01*
X51300Y4716D01*
Y4466D01*
X51425Y4341D01*
X51800D01*
X50550Y4841D02*
X51050D01*
Y4466D01*
X50800D01*
X51050D01*
Y4091D01*
X49800D02*
X50300D01*
X49800Y4591D01*
Y4716D01*
X49925Y4841D01*
X50175D01*
X50300Y4716D01*
X41640Y4091D02*
Y4841D01*
X41265D01*
X41140Y4716D01*
Y4466D01*
X41265Y4341D01*
X41640D01*
X40890Y4091D02*
Y4591D01*
X40640Y4841D01*
X40390Y4591D01*
Y4091D01*
Y4466D01*
X40890D01*
X40140Y4841D02*
X39640D01*
Y4716D01*
X40140Y4216D01*
Y4091D01*
X39100Y3685D02*
Y4435D01*
X38725D01*
X38600Y4310D01*
Y4060D01*
X38725Y3935D01*
X39100D01*
X38350Y3685D02*
Y4185D01*
X38100Y4435D01*
X37850Y4185D01*
Y3685D01*
Y4060D01*
X38350D01*
X37100Y4435D02*
X37350Y4310D01*
X37600Y4060D01*
Y3810D01*
X37475Y3685D01*
X37225D01*
X37100Y3810D01*
Y3935D01*
X37225Y4060D01*
X37600D01*
X71475Y6725D02*
X71225Y6975D01*
X70975D01*
X70725Y6725D01*
X71475Y6350D02*
X70725D01*
Y5975D01*
X70850Y5850D01*
X71100D01*
X71225Y5975D01*
Y6350D01*
X71475Y5600D02*
X70975D01*
X70725Y5351D01*
X70975Y5101D01*
X71475D01*
X71100D01*
Y5600D01*
X71475Y4851D02*
Y4601D01*
Y4726D01*
X70725D01*
X70850Y4851D01*
X71475Y4226D02*
X71225Y3976D01*
X70975D01*
X70725Y4226D01*
X72075Y15650D02*
Y16400D01*
X71700D01*
X71575Y16275D01*
Y16025D01*
X71700Y15900D01*
X72075D01*
X71325Y16400D02*
Y15650D01*
X70950D01*
X70825Y15775D01*
Y15900D01*
X70950Y16025D01*
X71325D01*
X70950D01*
X70825Y16150D01*
Y16275D01*
X70950Y16400D01*
X71325D01*
X70201Y15650D02*
Y16400D01*
X70575Y16025D01*
X70076D01*
X54340Y15896D02*
Y16646D01*
X53965D01*
X53840Y16521D01*
Y16271D01*
X53965Y16146D01*
X54340D01*
X53090Y16646D02*
X53590D01*
Y15896D01*
X53090D01*
X53590Y16271D02*
X53340D01*
X52840Y16521D02*
X52715Y16646D01*
X52465D01*
X52340Y16521D01*
Y16021D01*
X52465Y15896D01*
X52715D01*
X52840Y16021D01*
Y16521D01*
X64500Y15896D02*
Y16646D01*
X64125D01*
X64000Y16521D01*
Y16271D01*
X64125Y16146D01*
X64500D01*
X63250Y16521D02*
X63375Y16646D01*
X63625D01*
X63750Y16521D01*
Y16021D01*
X63625Y15896D01*
X63375D01*
X63250Y16021D01*
X62625Y15896D02*
Y16646D01*
X63000Y16271D01*
X62500D01*
X49260Y15896D02*
Y16646D01*
X48885D01*
X48760Y16521D01*
Y16271D01*
X48885Y16146D01*
X49260D01*
X48010Y16646D02*
X48510D01*
Y15896D01*
X48010D01*
X48510Y16271D02*
X48260D01*
X47260Y15896D02*
X47760D01*
X47260Y16396D01*
Y16521D01*
X47385Y16646D01*
X47635D01*
X47760Y16521D01*
X36560Y4091D02*
Y4841D01*
X36185D01*
X36060Y4716D01*
Y4466D01*
X36185Y4341D01*
X36560D01*
X35810Y4091D02*
Y4591D01*
X35560Y4841D01*
X35310Y4591D01*
Y4091D01*
Y4466D01*
X35810D01*
X34560Y4841D02*
X35060D01*
Y4466D01*
X34810Y4591D01*
X34685D01*
X34560Y4466D01*
Y4216D01*
X34685Y4091D01*
X34935D01*
X35060Y4216D01*
X46720Y4091D02*
Y4841D01*
X46345D01*
X46220Y4716D01*
Y4466D01*
X46345Y4341D01*
X46720D01*
X45970Y4841D02*
Y4091D01*
X45595D01*
X45470Y4216D01*
Y4341D01*
X45595Y4466D01*
X45970D01*
X45595D01*
X45470Y4591D01*
Y4716D01*
X45595Y4841D01*
X45970D01*
X45220Y4716D02*
X45095Y4841D01*
X44845D01*
X44720Y4716D01*
Y4216D01*
X44845Y4091D01*
X45095D01*
X45220Y4216D01*
Y4716D01*
X26275Y4091D02*
Y4841D01*
X25900D01*
X25775Y4716D01*
Y4466D01*
X25900Y4341D01*
X26275D01*
X25025Y4841D02*
X25525D01*
Y4466D01*
X25275D01*
X25525D01*
Y4091D01*
X24275Y4841D02*
X24775D01*
Y4466D01*
X24525Y4591D01*
X24400D01*
X24275Y4466D01*
Y4216D01*
X24400Y4091D01*
X24650D01*
X24775Y4216D01*
X68999Y6450D02*
X68749Y6699D01*
X68499D01*
X68249Y6450D01*
X68999Y6075D02*
X68249D01*
Y5700D01*
X68374Y5575D01*
X68624D01*
X68749Y5700D01*
Y6075D01*
X68999Y5325D02*
X68499D01*
X68249Y5075D01*
X68499Y4825D01*
X68999D01*
X68624D01*
Y5325D01*
X68374Y4575D02*
X68249Y4450D01*
Y4200D01*
X68374Y4075D01*
X68874D01*
X68999Y4200D01*
Y4450D01*
X68874Y4575D01*
X68374D01*
X68999Y3825D02*
X68749Y3575D01*
X68499D01*
X68249Y3825D01*
X26358Y12335D02*
Y13085D01*
X25983D01*
X25858Y12960D01*
Y12710D01*
X25983Y12585D01*
X26358D01*
X25109Y13085D02*
X25608D01*
Y12710D01*
X25359D01*
X25608D01*
Y12335D01*
X24359Y13085D02*
X24609Y12960D01*
X24859Y12710D01*
Y12460D01*
X24734Y12335D01*
X24484D01*
X24359Y12460D01*
Y12585D01*
X24484Y12710D01*
X24859D01*
X26358Y11060D02*
Y11810D01*
X25983D01*
X25858Y11685D01*
Y11435D01*
X25983Y11310D01*
X26358D01*
X25608Y11810D02*
Y11060D01*
X25234D01*
X25109Y11185D01*
Y11310D01*
X25234Y11435D01*
X25608D01*
X25234D01*
X25109Y11560D01*
Y11685D01*
X25234Y11810D01*
X25608D01*
X24359Y11060D02*
X24859D01*
X24359Y11560D01*
Y11685D01*
X24484Y11810D01*
X24734D01*
X24859Y11685D01*
X26358Y9785D02*
Y10535D01*
X25983D01*
X25858Y10410D01*
Y10160D01*
X25983Y10035D01*
X26358D01*
X25608Y10535D02*
Y9785D01*
X25234D01*
X25109Y9910D01*
Y10035D01*
X25234Y10160D01*
X25608D01*
X25234D01*
X25109Y10285D01*
Y10410D01*
X25234Y10535D01*
X25608D01*
X24859Y10410D02*
X24734Y10535D01*
X24484D01*
X24359Y10410D01*
Y10285D01*
X24484Y10160D01*
X24609D01*
X24484D01*
X24359Y10035D01*
Y9910D01*
X24484Y9785D01*
X24734D01*
X24859Y9910D01*
X26358Y9260D02*
Y8635D01*
X26233Y8510D01*
X25983D01*
X25858Y8635D01*
Y9260D01*
X25608Y8510D02*
Y9260D01*
X25234D01*
X25109Y9135D01*
Y8885D01*
X25234Y8760D01*
X25608D01*
X24859Y9260D02*
Y8510D01*
X24484D01*
X24359Y8635D01*
Y9135D01*
X24484Y9260D01*
X24859D01*
X24109D02*
X23859D01*
X23984D01*
Y8510D01*
X24109D01*
X23859D01*
X26358Y7235D02*
Y7985D01*
X25983D01*
X25858Y7860D01*
Y7610D01*
X25983Y7485D01*
X26358D01*
X25608Y7985D02*
Y7235D01*
X25234D01*
X25109Y7360D01*
Y7485D01*
X25234Y7610D01*
X25608D01*
X25234D01*
X25109Y7735D01*
Y7860D01*
X25234Y7985D01*
X25608D01*
X24859Y7860D02*
X24734Y7985D01*
X24484D01*
X24359Y7860D01*
Y7360D01*
X24484Y7235D01*
X24734D01*
X24859Y7360D01*
Y7860D01*
X26358Y5960D02*
Y6710D01*
X25983D01*
X25858Y6585D01*
Y6335D01*
X25983Y6210D01*
X26358D01*
X25608Y6710D02*
Y5960D01*
X25234D01*
X25109Y6085D01*
Y6210D01*
X25234Y6335D01*
X25608D01*
X25234D01*
X25109Y6460D01*
Y6585D01*
X25234Y6710D01*
X25608D01*
X24859Y5960D02*
X24609D01*
X24734D01*
Y6710D01*
X24859Y6585D01*
D104*
X68050Y7400D02*
X68575Y6875D01*
X68050Y7400D02*
Y7457D01*
X70472Y7456D02*
X70986Y6943D01*
X41366Y7464D02*
X70472Y7456D01*
D135*
X18000Y13420D02*
X24790D01*
X25959D02*
X26625D01*
M02*
