G04*
G04 #@! TF.GenerationSoftware,Altium Limited,Altium Designer,20.1.11 (218)*
G04*
G04 Layer_Physical_Order=3*
G04 Layer_Color=128*
%FSLAX43Y43*%
%MOMM*%
G71*
G04*
G04 #@! TF.SameCoordinates,BD5628E5-7E1B-49FB-A763-C87F1538D8A8*
G04*
G04*
G04 #@! TF.FilePolarity,Negative*
G04*
G01*
G75*
%ADD102C,0.300*%
%ADD117C,1.016*%
%ADD118C,1.620*%
%ADD119C,1.200*%
%ADD120C,1.600*%
%ADD122O,1.700X1.100*%
%ADD123O,1.140X1.350*%
%ADD124C,1.150*%
G04:AMPARAMS|DCode=125|XSize=2.544mm|YSize=2.544mm|CornerRadius=0mm|HoleSize=0mm|Usage=FLASHONLY|Rotation=0.000|XOffset=0mm|YOffset=0mm|HoleType=Round|Shape=Relief|Width=0.254mm|Gap=0.254mm|Entries=4|*
%AMTHD125*
7,0,0,2.544,2.036,0.254,45*
%
%ADD125THD125*%
%ADD126C,3.300*%
%ADD127C,0.800*%
D102*
X21715Y4550D02*
Y14600D01*
X19050Y4550D02*
Y14600D01*
Y0D02*
Y4550D01*
X21715D01*
X19050Y14600D02*
X21715D01*
X19050D02*
X19066Y20320D01*
D117*
X2540D02*
G03*
X0Y17780I0J-2540D01*
G01*
X83820D02*
G03*
X81280Y20320I-2540J0D01*
G01*
Y0D02*
G03*
X83820Y2540I0J2540D01*
G01*
X0D02*
G03*
X2540Y0I2540J0D01*
G01*
Y0D02*
Y0D01*
Y0D02*
X81280Y0D01*
X2540Y20320D02*
X81280Y20320D01*
X2540Y20320D02*
Y20320D01*
X0Y2540D02*
Y17780D01*
X83820Y2540D02*
Y17780D01*
D118*
X25400Y14402D02*
D03*
X61548Y12617D02*
D03*
X59008D02*
D03*
D119*
X38125Y6200D02*
D03*
X42240Y12666D02*
D03*
X42253Y11272D02*
D03*
X22860Y7620D02*
D03*
Y6350D02*
D03*
Y8890D02*
D03*
Y10160D02*
D03*
Y11430D02*
D03*
Y12700D02*
D03*
X38094Y7803D02*
D03*
D120*
X7620Y20320D02*
D03*
Y17983D02*
D03*
X15240Y20320D02*
D03*
Y17577D02*
D03*
X76200Y0D02*
D03*
Y2743D02*
D03*
X10160D02*
D03*
X7620Y2337D02*
D03*
X20320Y17577D02*
D03*
X22860Y17983D02*
D03*
X17780D02*
D03*
X25400Y17577D02*
D03*
X27940Y17983D02*
D03*
X30480Y17577D02*
D03*
X33020Y17983D02*
D03*
X35560Y17577D02*
D03*
X38100Y17983D02*
D03*
X40640Y17577D02*
D03*
X43180Y17983D02*
D03*
X45720Y17577D02*
D03*
X48260Y17983D02*
D03*
X50800Y17577D02*
D03*
X53340Y17983D02*
D03*
X55880Y17577D02*
D03*
X58420Y17983D02*
D03*
X60960Y17577D02*
D03*
X63500Y17983D02*
D03*
X66040Y17577D02*
D03*
X68580Y17983D02*
D03*
X71120Y17577D02*
D03*
X73660Y17983D02*
D03*
X76200Y17577D02*
D03*
X12700Y2337D02*
D03*
X15240Y2743D02*
D03*
X17780Y2337D02*
D03*
X20320Y2743D02*
D03*
X22860Y2337D02*
D03*
X25400Y2743D02*
D03*
X27940Y2337D02*
D03*
X30480Y2743D02*
D03*
X33020Y2337D02*
D03*
X35560Y2743D02*
D03*
X38100Y2337D02*
D03*
X40640Y2743D02*
D03*
X43180Y2337D02*
D03*
X45720Y2743D02*
D03*
X48260Y2337D02*
D03*
X50800Y2743D02*
D03*
X53340Y2337D02*
D03*
X55880Y2743D02*
D03*
X58420Y2337D02*
D03*
X60960Y2743D02*
D03*
X63500Y2337D02*
D03*
X71120Y2743D02*
D03*
X68580Y2337D02*
D03*
X66040Y2743D02*
D03*
X20320Y20320D02*
D03*
X22860D02*
D03*
X17780D02*
D03*
X25400D02*
D03*
X27940D02*
D03*
X30480D02*
D03*
X33020D02*
D03*
X35560D02*
D03*
X38100D02*
D03*
X40640D02*
D03*
X43180D02*
D03*
X45720D02*
D03*
X48260D02*
D03*
X50800D02*
D03*
X53340D02*
D03*
X55880D02*
D03*
X58420D02*
D03*
X60960D02*
D03*
X63500D02*
D03*
X66040D02*
D03*
X68580D02*
D03*
X71120D02*
D03*
X73660D02*
D03*
X76200D02*
D03*
X7620Y0D02*
D03*
X10160D02*
D03*
X12700D02*
D03*
X15240D02*
D03*
X17780D02*
D03*
X20320D02*
D03*
X22860D02*
D03*
X25400D02*
D03*
X27940D02*
D03*
X30480D02*
D03*
X33020D02*
D03*
X35560D02*
D03*
X38100D02*
D03*
X40640D02*
D03*
X43180D02*
D03*
X45720D02*
D03*
X48260D02*
D03*
X50800D02*
D03*
X53340D02*
D03*
X55880D02*
D03*
X58420D02*
D03*
X60960D02*
D03*
X63500D02*
D03*
X71120D02*
D03*
X66040D02*
D03*
X68580D02*
D03*
X73660Y2337D02*
D03*
Y0D02*
D03*
X12700Y17983D02*
D03*
Y20320D02*
D03*
X10160Y17577D02*
D03*
Y20320D02*
D03*
D122*
X2150Y14335D02*
D03*
Y5985D02*
D03*
D123*
X5050Y7935D02*
D03*
Y12385D02*
D03*
D124*
X4200Y12160D02*
D03*
Y8160D02*
D03*
D125*
X27940Y14402D02*
D03*
D126*
X2540Y2540D02*
D03*
Y17780D02*
D03*
X81280Y2540D02*
D03*
Y17780D02*
D03*
D127*
X35327Y8011D02*
D03*
X38837Y8342D02*
D03*
X43657Y9107D02*
D03*
X49950Y7150D02*
D03*
X25475Y6750D02*
D03*
X27950D02*
D03*
X49530Y2921D02*
D03*
X44000Y6800D02*
D03*
X50818Y6607D02*
D03*
X73650Y15201D02*
D03*
X69850Y14640D02*
D03*
X72400D02*
D03*
X74900Y14750D02*
D03*
X76200Y15714D02*
D03*
X69988Y10474D02*
D03*
X68575Y4661D02*
D03*
X55231D02*
D03*
X53903Y4349D02*
D03*
X53340Y3700D02*
D03*
X54975Y3875D02*
D03*
X50795Y8084D02*
D03*
X26877Y11978D02*
D03*
X39749D02*
D03*
X55375Y6875D02*
D03*
X49066Y8021D02*
D03*
X48225Y8650D02*
D03*
X44750Y8625D02*
D03*
X50724Y5173D02*
D03*
X64770Y2921D02*
D03*
X67310D02*
D03*
X43903Y10291D02*
D03*
X52638Y10680D02*
D03*
X57250Y13750D02*
D03*
X46704Y15263D02*
D03*
X48386Y15128D02*
D03*
X51875Y15750D02*
D03*
X49969Y12891D02*
D03*
X34315Y17452D02*
D03*
X53713Y10801D02*
D03*
X53000Y8330D02*
D03*
X45342Y10375D02*
D03*
X52416Y12574D02*
D03*
X51300Y13062D02*
D03*
X56003Y6025D02*
D03*
X31750Y17399D02*
D03*
X54087Y15236D02*
D03*
X53903Y15975D02*
D03*
X53234Y15059D02*
D03*
X46990Y17399D02*
D03*
X44450D02*
D03*
X50250Y15625D02*
D03*
X49530Y17399D02*
D03*
X39372Y17401D02*
D03*
X62228Y2919D02*
D03*
X22875Y14025D02*
D03*
X35997Y12248D02*
D03*
X56933Y9223D02*
D03*
X77475Y9800D02*
D03*
X72400Y6875D02*
D03*
X60960Y8594D02*
D03*
X56250Y10150D02*
D03*
X68575Y6875D02*
D03*
X71120Y9500D02*
D03*
X56125Y5375D02*
D03*
X75300Y8875D02*
D03*
X7879Y11959D02*
D03*
X21960Y15065D02*
D03*
X16000Y16475D02*
D03*
X24130Y8255D02*
D03*
Y10795D02*
D03*
X6596Y5560D02*
D03*
X19564Y9175D02*
D03*
X19539Y10575D02*
D03*
X21040Y11435D02*
D03*
X20565Y8790D02*
D03*
X19715Y8200D02*
D03*
X13970Y2921D02*
D03*
X16510Y17399D02*
D03*
X13115Y16050D02*
D03*
X21590Y17399D02*
D03*
X16264Y7424D02*
D03*
X2925Y8575D02*
D03*
X13970Y17399D02*
D03*
X5080D02*
D03*
X6350Y2921D02*
D03*
X8890D02*
D03*
X1429Y11205D02*
D03*
Y10189D02*
D03*
Y9173D02*
D03*
Y4826D02*
D03*
Y15494D02*
D03*
Y12221D02*
D03*
Y8157D02*
D03*
X19050Y17399D02*
D03*
X21590Y2921D02*
D03*
X12051Y11325D02*
D03*
X13215Y12075D02*
D03*
X15115Y11775D02*
D03*
X15449Y5784D02*
D03*
X15990Y5297D02*
D03*
X19050Y2921D02*
D03*
X20115Y6200D02*
D03*
X19614Y12175D02*
D03*
X19490Y6525D02*
D03*
Y5025D02*
D03*
X11430Y17399D02*
D03*
Y2921D02*
D03*
X9630Y16400D02*
D03*
X14373Y11284D02*
D03*
X17659Y14775D02*
D03*
Y13975D02*
D03*
X19215Y13317D02*
D03*
Y14775D02*
D03*
X13865Y16400D02*
D03*
X20215Y7700D02*
D03*
X11376Y11375D02*
D03*
X2825Y12238D02*
D03*
X21115Y12175D02*
D03*
X9715Y7924D02*
D03*
Y8925D02*
D03*
X8890Y17399D02*
D03*
X4675Y5575D02*
D03*
X10810Y5777D02*
D03*
X9885D02*
D03*
X8515Y7675D02*
D03*
X7870Y11000D02*
D03*
X8088Y8400D02*
D03*
X6350Y17399D02*
D03*
X5080Y2921D02*
D03*
X10425Y12075D02*
D03*
X10675Y13250D02*
D03*
X8725Y14525D02*
D03*
X16510Y2921D02*
D03*
X17590Y5025D02*
D03*
X17540Y6450D02*
D03*
X17400Y12973D02*
D03*
X15940Y12650D02*
D03*
X17264Y8900D02*
D03*
X13115Y15325D02*
D03*
X12965Y14225D02*
D03*
X13215Y12800D02*
D03*
X14365Y14225D02*
D03*
X26670Y2921D02*
D03*
X24130D02*
D03*
X26670Y17399D02*
D03*
X52070D02*
D03*
X36830D02*
D03*
X29210D02*
D03*
Y2921D02*
D03*
X31750D02*
D03*
X34290D02*
D03*
X36830D02*
D03*
X39370D02*
D03*
X47000Y2925D02*
D03*
X52070Y2921D02*
D03*
X41910Y17399D02*
D03*
Y2921D02*
D03*
X44450D02*
D03*
X57150D02*
D03*
X54610D02*
D03*
Y17399D02*
D03*
X72390D02*
D03*
X82391Y11205D02*
D03*
Y10189D02*
D03*
Y9173D02*
D03*
Y5588D02*
D03*
Y4572D02*
D03*
Y15748D02*
D03*
Y14732D02*
D03*
X78740Y2921D02*
D03*
X77724Y17399D02*
D03*
X78740D02*
D03*
X74930Y2921D02*
D03*
Y17399D02*
D03*
X72390Y2921D02*
D03*
X69850D02*
D03*
X59690D02*
D03*
X67310Y17399D02*
D03*
X64770D02*
D03*
X62230D02*
D03*
X57150D02*
D03*
X59690D02*
D03*
X69850D02*
D03*
M02*
