G04*
G04 #@! TF.GenerationSoftware,Altium Limited,Altium Designer,20.1.11 (218)*
G04*
G04 Layer_Color=16711935*
%FSLAX43Y43*%
%MOMM*%
G71*
G04*
G04 #@! TF.SameCoordinates,BD5628E5-7E1B-49FB-A763-C87F1538D8A8*
G04*
G04*
G04 #@! TF.FilePolarity,Negative*
G04*
G01*
G75*
%ADD54R,1.325X0.500*%
%ADD59R,0.770X0.620*%
%ADD85C,1.820*%
%ADD86C,1.020*%
%ADD88C,1.902*%
G04:AMPARAMS|DCode=90|XSize=2.12mm|YSize=2.22mm|CornerRadius=0.58mm|HoleSize=0mm|Usage=FLASHONLY|Rotation=90.000|XOffset=0mm|YOffset=0mm|HoleType=Round|Shape=RoundedRectangle|*
%AMROUNDEDRECTD90*
21,1,2.120,1.060,0,0,90.0*
21,1,0.960,2.220,0,0,90.0*
1,1,1.160,0.530,0.480*
1,1,1.160,0.530,-0.480*
1,1,1.160,-0.530,-0.480*
1,1,1.160,-0.530,0.480*
%
%ADD90ROUNDEDRECTD90*%
G04:AMPARAMS|DCode=91|XSize=1.17mm|YSize=0.96mm|CornerRadius=0.48mm|HoleSize=0mm|Usage=FLASHONLY|Rotation=270.000|XOffset=0mm|YOffset=0mm|HoleType=Round|Shape=RoundedRectangle|*
%AMROUNDEDRECTD91*
21,1,1.170,0.000,0,0,270.0*
21,1,0.210,0.960,0,0,270.0*
1,1,0.960,0.000,-0.105*
1,1,0.960,0.000,0.105*
1,1,0.960,0.000,0.105*
1,1,0.960,0.000,-0.105*
%
%ADD91ROUNDEDRECTD91*%
%ADD92R,1.820X1.820*%
%ADD93C,3.720*%
%ADD94C,0.120*%
%ADD95C,0.500*%
%ADD130C,1.050*%
%ADD131C,0.920*%
%ADD132C,0.920*%
%ADD133O,1.902X4.137*%
%ADD134O,1.902X4.543*%
D54*
X22198Y7620D02*
D03*
Y6350D02*
D03*
Y8890D02*
D03*
Y10160D02*
D03*
Y11430D02*
D03*
Y12700D02*
D03*
D59*
X21860Y7620D02*
D03*
Y6350D02*
D03*
Y8890D02*
D03*
Y10160D02*
D03*
Y11430D02*
D03*
Y12700D02*
D03*
D85*
X25400Y14402D02*
D03*
X27940D02*
D03*
X61548Y12617D02*
D03*
D86*
X38125Y6200D02*
D03*
X42240Y12666D02*
D03*
X42253Y11272D02*
D03*
X22860Y7620D02*
D03*
Y6350D02*
D03*
Y8890D02*
D03*
Y10160D02*
D03*
Y11430D02*
D03*
Y12700D02*
D03*
X38094Y7803D02*
D03*
D88*
X7620Y17983D02*
D03*
X15240Y17577D02*
D03*
X76200Y2743D02*
D03*
X10160D02*
D03*
X7620Y2337D02*
D03*
X20320Y17577D02*
D03*
X22860Y17983D02*
D03*
X17780D02*
D03*
X25400Y17577D02*
D03*
X27940Y17983D02*
D03*
X30480Y17577D02*
D03*
X33020Y17983D02*
D03*
X35560Y17577D02*
D03*
X38100Y17983D02*
D03*
X40640Y17577D02*
D03*
X43180Y17983D02*
D03*
X45720Y17577D02*
D03*
X48260Y17983D02*
D03*
X50800Y17577D02*
D03*
X53340Y17983D02*
D03*
X55880Y17577D02*
D03*
X58420Y17983D02*
D03*
X60960Y17577D02*
D03*
X63500Y17983D02*
D03*
X66040Y17577D02*
D03*
X68580Y17983D02*
D03*
X71120Y17577D02*
D03*
X73660Y17983D02*
D03*
X76200Y17577D02*
D03*
X12700Y2337D02*
D03*
X15240Y2743D02*
D03*
X17780Y2337D02*
D03*
X20320Y2743D02*
D03*
X22860Y2337D02*
D03*
X25400Y2743D02*
D03*
X27940Y2337D02*
D03*
X30480Y2743D02*
D03*
X33020Y2337D02*
D03*
X35560Y2743D02*
D03*
X38100Y2337D02*
D03*
X40640Y2743D02*
D03*
X43180Y2337D02*
D03*
X45720Y2743D02*
D03*
X48260Y2337D02*
D03*
X50800Y2743D02*
D03*
X53340Y2337D02*
D03*
X55880Y2743D02*
D03*
X58420Y2337D02*
D03*
X60960Y2743D02*
D03*
X63500Y2337D02*
D03*
X71120Y2743D02*
D03*
X68580Y2337D02*
D03*
X66040Y2743D02*
D03*
X73660Y2337D02*
D03*
X12700Y17983D02*
D03*
X10160Y17577D02*
D03*
D90*
X2150Y13898D02*
D03*
Y6423D02*
D03*
D91*
X5050Y7935D02*
D03*
Y12385D02*
D03*
D92*
X59008Y12617D02*
D03*
D93*
X2540Y2540D02*
D03*
Y17780D02*
D03*
D94*
X81280Y2540D02*
D03*
Y17780D02*
D03*
D95*
X14365Y14225D02*
D03*
D130*
X40550Y6381D02*
D03*
X44125Y12675D02*
D03*
Y11275D02*
D03*
X40550Y8126D02*
D03*
D131*
X3190Y10795D02*
D03*
Y9525D02*
D03*
X4460Y10795D02*
D03*
Y9525D02*
D03*
X5730Y10795D02*
D03*
Y9525D02*
D03*
D132*
X10810Y5777D02*
D03*
X10810Y7047D02*
D03*
D133*
X7620Y19202D02*
D03*
X22860D02*
D03*
X17780D02*
D03*
X27940D02*
D03*
X33020D02*
D03*
X38100D02*
D03*
X43180D02*
D03*
X48260D02*
D03*
X53340D02*
D03*
X58420D02*
D03*
X63500D02*
D03*
X68580D02*
D03*
X73660D02*
D03*
X7620Y1118D02*
D03*
X12700D02*
D03*
X17780D02*
D03*
X22860D02*
D03*
X27940D02*
D03*
X33020D02*
D03*
X38100D02*
D03*
X43180D02*
D03*
X48260D02*
D03*
X53340D02*
D03*
X58420D02*
D03*
X63500D02*
D03*
X68580D02*
D03*
X73660D02*
D03*
X12700Y19202D02*
D03*
D134*
X15240Y18999D02*
D03*
X76200Y1321D02*
D03*
X20320Y18999D02*
D03*
X25400D02*
D03*
X30480D02*
D03*
X35560D02*
D03*
X40640D02*
D03*
X45720D02*
D03*
X50800D02*
D03*
X55880D02*
D03*
X60960D02*
D03*
X66040D02*
D03*
X71120D02*
D03*
X76200D02*
D03*
X10160Y1321D02*
D03*
X15240D02*
D03*
X20320D02*
D03*
X25400D02*
D03*
X30480D02*
D03*
X35560D02*
D03*
X40640D02*
D03*
X45720D02*
D03*
X50800D02*
D03*
X55880D02*
D03*
X60960D02*
D03*
X71120D02*
D03*
X66040D02*
D03*
X10160Y18999D02*
D03*
M02*
