G04*
G04 #@! TF.GenerationSoftware,Altium Limited,Altium Designer,20.1.11 (218)*
G04*
G04 Layer_Color=8388736*
%FSLAX43Y43*%
%MOMM*%
G71*
G04*
G04 #@! TF.SameCoordinates,BD5628E5-7E1B-49FB-A763-C87F1538D8A8*
G04*
G04*
G04 #@! TF.FilePolarity,Negative*
G04*
G01*
G75*
%ADD52C,1.905*%
%ADD53C,0.700*%
%ADD54R,1.325X0.500*%
%ADD55R,1.800X0.700*%
%ADD56R,1.370X1.020*%
%ADD57R,1.520X1.270*%
%ADD58R,2.020X1.220*%
%ADD59R,0.770X0.620*%
%ADD60R,1.820X0.470*%
%ADD61R,1.120X2.370*%
%ADD62C,0.350*%
%ADD63R,0.670X0.320*%
%ADD64R,0.600X1.360*%
%ADD65R,0.700X0.350*%
%ADD66R,1.040X0.380*%
%ADD67R,0.280X0.450*%
%ADD68R,3.400X3.400*%
%ADD69O,0.280X0.850*%
%ADD70O,0.850X0.280*%
G04:AMPARAMS|DCode=71|XSize=0.4mm|YSize=1.75mm|CornerRadius=0mm|HoleSize=0mm|Usage=FLASHONLY|Rotation=225.000|XOffset=0mm|YOffset=0mm|HoleType=Round|Shape=Round|*
%AMOVALD71*
21,1,1.350,0.400,0.000,0.000,315.0*
1,1,0.400,-0.477,0.477*
1,1,0.400,0.477,-0.477*
%
%ADD71OVALD71*%

G04:AMPARAMS|DCode=72|XSize=0.4mm|YSize=1.75mm|CornerRadius=0mm|HoleSize=0mm|Usage=FLASHONLY|Rotation=135.000|XOffset=0mm|YOffset=0mm|HoleType=Round|Shape=Round|*
%AMOVALD72*
21,1,1.350,0.400,0.000,0.000,225.0*
1,1,0.400,0.477,0.477*
1,1,0.400,-0.477,-0.477*
%
%ADD72OVALD72*%

%ADD73R,0.520X0.370*%
%ADD74R,0.520X0.820*%
%ADD75R,0.920X0.920*%
%ADD76R,0.720X0.620*%
%ADD77R,0.720X0.670*%
%ADD78R,1.470X1.320*%
%ADD79R,0.920X0.770*%
%ADD80R,0.620X0.770*%
%ADD81R,0.882X0.882*%
%ADD82R,0.670X0.720*%
G04:AMPARAMS|DCode=83|XSize=0.62mm|YSize=0.77mm|CornerRadius=0mm|HoleSize=0mm|Usage=FLASHONLY|Rotation=225.000|XOffset=0mm|YOffset=0mm|HoleType=Round|Shape=Rectangle|*
%AMROTATEDRECTD83*
4,1,4,-0.053,0.491,0.491,-0.053,0.053,-0.491,-0.491,0.053,-0.053,0.491,0.0*
%
%ADD83ROTATEDRECTD83*%

G04:AMPARAMS|DCode=84|XSize=0.62mm|YSize=0.77mm|CornerRadius=0mm|HoleSize=0mm|Usage=FLASHONLY|Rotation=135.000|XOffset=0mm|YOffset=0mm|HoleType=Round|Shape=Rectangle|*
%AMROTATEDRECTD84*
4,1,4,0.491,0.053,-0.053,-0.491,-0.491,-0.053,0.053,0.491,0.491,0.053,0.0*
%
%ADD84ROTATEDRECTD84*%

%ADD85C,1.820*%
%ADD86C,1.020*%
%ADD87O,0.686X2.921*%
%ADD88C,1.902*%
%ADD89O,0.686X3.327*%
G04:AMPARAMS|DCode=90|XSize=2.12mm|YSize=2.22mm|CornerRadius=0.58mm|HoleSize=0mm|Usage=FLASHONLY|Rotation=90.000|XOffset=0mm|YOffset=0mm|HoleType=Round|Shape=RoundedRectangle|*
%AMROUNDEDRECTD90*
21,1,2.120,1.060,0,0,90.0*
21,1,0.960,2.220,0,0,90.0*
1,1,1.160,0.530,0.480*
1,1,1.160,0.530,-0.480*
1,1,1.160,-0.530,-0.480*
1,1,1.160,-0.530,0.480*
%
%ADD90ROUNDEDRECTD90*%
G04:AMPARAMS|DCode=91|XSize=1.17mm|YSize=0.96mm|CornerRadius=0.48mm|HoleSize=0mm|Usage=FLASHONLY|Rotation=270.000|XOffset=0mm|YOffset=0mm|HoleType=Round|Shape=RoundedRectangle|*
%AMROUNDEDRECTD91*
21,1,1.170,0.000,0,0,270.0*
21,1,0.210,0.960,0,0,270.0*
1,1,0.960,0.000,-0.105*
1,1,0.960,0.000,0.105*
1,1,0.960,0.000,0.105*
1,1,0.960,0.000,-0.105*
%
%ADD91ROUNDEDRECTD91*%
%ADD92R,1.820X1.820*%
%ADD93C,3.720*%
%ADD94C,0.120*%
%ADD95C,0.500*%
D52*
X7620Y20320D02*
D03*
X15240D02*
D03*
X76200Y0D02*
D03*
Y20320D02*
D03*
X73660D02*
D03*
X63500D02*
D03*
X66040D02*
D03*
X68580D02*
D03*
X71120D02*
D03*
X53340D02*
D03*
X55880D02*
D03*
X58420D02*
D03*
X60960D02*
D03*
X43180D02*
D03*
X45720D02*
D03*
X48260D02*
D03*
X50800D02*
D03*
X33020D02*
D03*
X35560D02*
D03*
X38100D02*
D03*
X40640D02*
D03*
X22860D02*
D03*
X25400D02*
D03*
X27940D02*
D03*
X30480D02*
D03*
X17780D02*
D03*
X20320D02*
D03*
X71120Y0D02*
D03*
X68580D02*
D03*
X66040D02*
D03*
X63500D02*
D03*
X53340D02*
D03*
X55880D02*
D03*
X58420D02*
D03*
X60960D02*
D03*
X43180D02*
D03*
X45720D02*
D03*
X48260D02*
D03*
X50800D02*
D03*
X33020D02*
D03*
X35560D02*
D03*
X38100D02*
D03*
X40640D02*
D03*
X22860D02*
D03*
X25400D02*
D03*
X27940D02*
D03*
X30480D02*
D03*
X12700D02*
D03*
X15240D02*
D03*
X17780D02*
D03*
X20320D02*
D03*
X7620D02*
D03*
X10160D02*
D03*
X73660D02*
D03*
X12700Y20320D02*
D03*
X10160D02*
D03*
D53*
X25400Y14402D02*
X27940D01*
D54*
X37462Y6200D02*
D03*
X41577Y12666D02*
D03*
X41590Y11272D02*
D03*
X37431Y7803D02*
D03*
D55*
X32490Y6118D02*
D03*
X38125Y9801D02*
D03*
X20795Y16180D02*
D03*
D56*
X18539Y9025D02*
D03*
Y10525D02*
D03*
Y5025D02*
D03*
Y6525D02*
D03*
Y12025D02*
D03*
D57*
X31444Y9061D02*
D03*
X33644D02*
D03*
Y7461D02*
D03*
X31444D02*
D03*
D58*
X38125Y11203D02*
D03*
Y13703D02*
D03*
D59*
X37125Y6200D02*
D03*
X32015Y6118D02*
D03*
X32965D02*
D03*
X41240Y12666D02*
D03*
X41253Y11272D02*
D03*
X37650Y9801D02*
D03*
X38600D02*
D03*
X44775Y6750D02*
D03*
X45725D02*
D03*
X21270Y16180D02*
D03*
X20320D02*
D03*
X14845Y12750D02*
D03*
X13895D02*
D03*
X16815Y15725D02*
D03*
X15865D02*
D03*
X12390Y4575D02*
D03*
X13340D02*
D03*
X14340D02*
D03*
X15290D02*
D03*
X37094Y7803D02*
D03*
D60*
X4830Y8860D02*
D03*
Y9510D02*
D03*
Y10160D02*
D03*
Y10810D02*
D03*
Y11460D02*
D03*
D61*
X78391Y12910D02*
D03*
Y7410D02*
D03*
X82391D02*
D03*
Y12910D02*
D03*
D62*
X18702Y13775D02*
D03*
X18202D02*
D03*
X18702Y14275D02*
D03*
X18202D02*
D03*
X18702Y14775D02*
D03*
X18202D02*
D03*
D63*
X18889Y9375D02*
D03*
Y9025D02*
D03*
Y8675D02*
D03*
X18189D02*
D03*
Y9025D02*
D03*
Y9375D02*
D03*
X18889Y10875D02*
D03*
Y10525D02*
D03*
Y10175D02*
D03*
X18189D02*
D03*
Y10525D02*
D03*
Y10875D02*
D03*
X18889Y5375D02*
D03*
Y5025D02*
D03*
Y4675D02*
D03*
X18189D02*
D03*
Y5025D02*
D03*
Y5375D02*
D03*
X18889Y6875D02*
D03*
Y6525D02*
D03*
Y6175D02*
D03*
X18189D02*
D03*
Y6525D02*
D03*
Y6875D02*
D03*
X18889Y12375D02*
D03*
Y12025D02*
D03*
Y11675D02*
D03*
X18189D02*
D03*
Y12025D02*
D03*
Y12375D02*
D03*
D64*
X14365Y14225D02*
D03*
D65*
X15115Y13725D02*
D03*
Y14225D02*
D03*
Y14725D02*
D03*
X13615Y13725D02*
D03*
Y14225D02*
D03*
Y14725D02*
D03*
D66*
X11139Y15200D02*
D03*
D67*
X10739Y14669D02*
D03*
X11139D02*
D03*
X11539D02*
D03*
X10739Y15731D02*
D03*
X11139D02*
D03*
X11539D02*
D03*
D68*
X13130Y8174D02*
D03*
D69*
X14880Y5784D02*
D03*
X14384Y5787D02*
D03*
X13884D02*
D03*
X13384D02*
D03*
X12884D02*
D03*
X12384D02*
D03*
X11884D02*
D03*
X11384D02*
D03*
X11376Y10556D02*
D03*
X11876D02*
D03*
X12376D02*
D03*
X12876D02*
D03*
X13376D02*
D03*
X13876D02*
D03*
X14376D02*
D03*
X14876D02*
D03*
D70*
X10740Y6424D02*
D03*
Y6924D02*
D03*
Y7424D02*
D03*
Y7924D02*
D03*
Y8424D02*
D03*
Y8924D02*
D03*
Y9424D02*
D03*
Y9924D02*
D03*
X15520Y6424D02*
D03*
Y6924D02*
D03*
Y7424D02*
D03*
Y7924D02*
D03*
Y8424D02*
D03*
Y8924D02*
D03*
Y9424D02*
D03*
Y9924D02*
D03*
D71*
X51737Y5334D02*
D03*
X52090Y5688D02*
D03*
X52444Y6041D02*
D03*
X52798Y6395D02*
D03*
X53151Y6748D02*
D03*
X53505Y7102D02*
D03*
X53858Y7455D02*
D03*
X54212Y7809D02*
D03*
X54565Y8162D02*
D03*
X54919Y8516D02*
D03*
X55272Y8870D02*
D03*
X55626Y9223D02*
D03*
X49863Y14986D02*
D03*
X49510Y14632D02*
D03*
X49156Y14279D02*
D03*
X48802Y13925D02*
D03*
X48449Y13572D02*
D03*
X48095Y13218D02*
D03*
X47742Y12865D02*
D03*
X47388Y12511D02*
D03*
X47035Y12158D02*
D03*
X46681Y11804D02*
D03*
X46328Y11450D02*
D03*
X45974Y11097D02*
D03*
D72*
X55626D02*
D03*
X55272Y11450D02*
D03*
X54919Y11804D02*
D03*
X54565Y12158D02*
D03*
X54212Y12511D02*
D03*
X53858Y12865D02*
D03*
X53505Y13218D02*
D03*
X53151Y13572D02*
D03*
X52798Y13925D02*
D03*
X52444Y14279D02*
D03*
X52090Y14632D02*
D03*
X51737Y14986D02*
D03*
X45974Y9223D02*
D03*
X46328Y8870D02*
D03*
X46681Y8516D02*
D03*
X47035Y8162D02*
D03*
X47388Y7809D02*
D03*
X47742Y7455D02*
D03*
X48095Y7102D02*
D03*
X48449Y6748D02*
D03*
X48802Y6395D02*
D03*
X49156Y6041D02*
D03*
X49510Y5688D02*
D03*
X49863Y5334D02*
D03*
D73*
X9500Y12650D02*
D03*
Y13100D02*
D03*
D74*
X8800Y12875D02*
D03*
D75*
X74221Y9356D02*
D03*
Y11006D02*
D03*
D76*
X6071Y4600D02*
D03*
X7071D02*
D03*
D77*
X9675Y11968D02*
D03*
X8675D02*
D03*
X41825Y9244D02*
D03*
X42825D02*
D03*
X9675Y11112D02*
D03*
X8675D02*
D03*
X8390Y4575D02*
D03*
X9390D02*
D03*
X8675Y13775D02*
D03*
X9675D02*
D03*
X14865Y15725D02*
D03*
X13865D02*
D03*
X17952D02*
D03*
X18952D02*
D03*
X11390Y4575D02*
D03*
X10390D02*
D03*
X19039Y7775D02*
D03*
X18039D02*
D03*
D78*
X6750Y13477D02*
D03*
Y15377D02*
D03*
D79*
X58918Y10301D02*
D03*
X60118D02*
D03*
D80*
X35321Y6189D02*
D03*
Y7139D02*
D03*
X39749Y10235D02*
D03*
Y11185D02*
D03*
Y12771D02*
D03*
Y13721D02*
D03*
X23790Y14035D02*
D03*
Y14985D02*
D03*
X16540Y10550D02*
D03*
Y11500D02*
D03*
X12339Y14675D02*
D03*
Y15625D02*
D03*
X35321Y9793D02*
D03*
Y8843D02*
D03*
D81*
X9816Y15597D02*
D03*
X8419D02*
D03*
D82*
X76405Y9656D02*
D03*
Y10656D02*
D03*
X75300Y9656D02*
D03*
Y10656D02*
D03*
X12389Y12250D02*
D03*
Y13250D02*
D03*
X16540Y8474D02*
D03*
Y9474D02*
D03*
X16940Y13775D02*
D03*
Y14775D02*
D03*
X16040Y13775D02*
D03*
Y14775D02*
D03*
X11439Y13250D02*
D03*
Y12250D02*
D03*
X16940Y7499D02*
D03*
Y6499D02*
D03*
D83*
X56878Y12136D02*
D03*
X56207Y12808D02*
D03*
D84*
X46990Y14707D02*
D03*
X47662Y15379D02*
D03*
D85*
X25400Y14402D02*
D03*
X27940D02*
D03*
X61548Y12617D02*
D03*
D86*
X38125Y6200D02*
D03*
X42240Y12666D02*
D03*
X42253Y11272D02*
D03*
X22860Y7620D02*
D03*
Y6350D02*
D03*
Y8890D02*
D03*
Y10160D02*
D03*
Y11430D02*
D03*
Y12700D02*
D03*
X38094Y7803D02*
D03*
D87*
X7620Y19202D02*
D03*
X22860D02*
D03*
X17780D02*
D03*
X27940D02*
D03*
X33020D02*
D03*
X38100D02*
D03*
X43180D02*
D03*
X48260D02*
D03*
X53340D02*
D03*
X58420D02*
D03*
X63500D02*
D03*
X68580D02*
D03*
X73660D02*
D03*
X7620Y1118D02*
D03*
X12700D02*
D03*
X17780D02*
D03*
X22860D02*
D03*
X27940D02*
D03*
X33020D02*
D03*
X38100D02*
D03*
X43180D02*
D03*
X48260D02*
D03*
X53340D02*
D03*
X58420D02*
D03*
X63500D02*
D03*
X68580D02*
D03*
X73660D02*
D03*
X12700Y19202D02*
D03*
D88*
X7620Y17983D02*
D03*
X15240Y17577D02*
D03*
X76200Y2743D02*
D03*
X10160D02*
D03*
X7620Y2337D02*
D03*
X20320Y17577D02*
D03*
X22860Y17983D02*
D03*
X17780D02*
D03*
X25400Y17577D02*
D03*
X27940Y17983D02*
D03*
X30480Y17577D02*
D03*
X33020Y17983D02*
D03*
X35560Y17577D02*
D03*
X38100Y17983D02*
D03*
X40640Y17577D02*
D03*
X43180Y17983D02*
D03*
X45720Y17577D02*
D03*
X48260Y17983D02*
D03*
X50800Y17577D02*
D03*
X53340Y17983D02*
D03*
X55880Y17577D02*
D03*
X58420Y17983D02*
D03*
X60960Y17577D02*
D03*
X63500Y17983D02*
D03*
X66040Y17577D02*
D03*
X68580Y17983D02*
D03*
X71120Y17577D02*
D03*
X73660Y17983D02*
D03*
X76200Y17577D02*
D03*
X12700Y2337D02*
D03*
X15240Y2743D02*
D03*
X17780Y2337D02*
D03*
X20320Y2743D02*
D03*
X22860Y2337D02*
D03*
X25400Y2743D02*
D03*
X27940Y2337D02*
D03*
X30480Y2743D02*
D03*
X33020Y2337D02*
D03*
X35560Y2743D02*
D03*
X38100Y2337D02*
D03*
X40640Y2743D02*
D03*
X43180Y2337D02*
D03*
X45720Y2743D02*
D03*
X48260Y2337D02*
D03*
X50800Y2743D02*
D03*
X53340Y2337D02*
D03*
X55880Y2743D02*
D03*
X58420Y2337D02*
D03*
X60960Y2743D02*
D03*
X63500Y2337D02*
D03*
X71120Y2743D02*
D03*
X68580Y2337D02*
D03*
X66040Y2743D02*
D03*
X73660Y2337D02*
D03*
X12700Y17983D02*
D03*
X10160Y17577D02*
D03*
D89*
X15240Y18999D02*
D03*
X76200Y1321D02*
D03*
X20320Y18999D02*
D03*
X25400D02*
D03*
X30480D02*
D03*
X35560D02*
D03*
X40640D02*
D03*
X45720D02*
D03*
X50800D02*
D03*
X55880D02*
D03*
X60960D02*
D03*
X66040D02*
D03*
X71120D02*
D03*
X76200D02*
D03*
X10160Y1321D02*
D03*
X15240D02*
D03*
X20320D02*
D03*
X25400D02*
D03*
X30480D02*
D03*
X35560D02*
D03*
X40640D02*
D03*
X45720D02*
D03*
X50800D02*
D03*
X55880D02*
D03*
X60960D02*
D03*
X71120D02*
D03*
X66040D02*
D03*
X10160Y18999D02*
D03*
D90*
X2150Y13898D02*
D03*
Y6423D02*
D03*
D91*
X5050Y7935D02*
D03*
Y12385D02*
D03*
D92*
X59008Y12617D02*
D03*
D93*
X2540Y2540D02*
D03*
Y17780D02*
D03*
D94*
X81280Y2540D02*
D03*
Y17780D02*
D03*
D95*
X14365Y14225D02*
D03*
M02*
