M48
;Layer_Color=9474304
;FILE_FORMAT=2:4
INCH,TZ
;TYPE=PLATED
T1F00S00C0.0079
T4F00S00C0.0236
T5F00S00C0.0394
T6F00S00C0.0402
T7F00S00C0.1063
;TYPE=NON_PLATED
T8F00S00C0.0217
T9F00S00C0.1063
%
T01
X26500Y1150
X27500
X28500
X29500
X31000
X32437Y1800
Y2200
Y3611
Y4011
Y4411
Y5800
Y6200
X31000Y6850
X30600
X29500
X28500
X27500
X26500
X27500Y5764
X28504
X28996Y5985
X29488Y5807
X30000Y6187
X30502Y3858
X29646Y3494
X29221Y3287
X28504Y2707
X26998
Y1835
X27554Y4124
X28000Y3740
X24000Y3383
X24001Y4099
X22146Y3996
X22415Y3631
X21801Y2707
X22048Y2372
X22096Y2116
X21745Y1835
X21644Y1526
X21500Y1150
X21000Y1457
X21222Y1712
X20500Y1150
X19500
X18504Y1152
X17500Y1150
X16500
X15500
X14500
X13500
X12500
X11500
X11004Y2657
X13908Y3154
X15290Y3284
X16098Y3591
X17188Y3585
X17285Y4052
X17851Y4085
X17618Y3396
X17323Y2677
X18307Y2707
X18986Y3406
X19317Y3158
X19665Y2815
X20007Y2601
X19998Y3183
X20866Y3279
X20724Y4205
X21147Y4252
X20636Y4951
X20197Y5142
X19673Y5075
X19783Y6152
X20423Y6201
X20500Y6850
X19500
X18500
X18387Y6009
X19050Y5956
Y6265
X17500Y6850
X16500
X15501Y6851
X14500Y6850
X13510Y6871
X12500Y6850
X11500
X14172Y4822
X15649Y4716
X20958Y5929
X21294Y5998
X21222Y6289
X21500Y6850
X22500
X23500
X24500
X25500
X22539Y5413
X22500Y1150
X23500
X24499Y1149
X25500Y1150
X19970Y2037
X10500Y1150
X9500
X8500
X7500
X6500
X5500
X5331Y1467
X4500Y1150
X3500
X2500
X2000
X1841Y2195
X2195Y2520
X2597Y2189
X3892Y2274
X4256
X3825Y3120
Y3514
X3184Y3307
X3352Y3022
X3098Y4331
X3102Y4708
X4104Y4754
X4203Y5217
X4479Y4478
X4744Y4459
X5203Y4754
Y5039
X5104Y5600
X5163Y6033
Y6319
X5459Y6457
X5500Y6850
X6500
X6299Y6486
X6952Y5817
Y5502
X6850Y5108
X7161
X7565Y5243
Y5817
X8087Y5506
X9006Y5522
X8646Y5931
X8500Y6850
X7500
X7722Y4793
X7673Y4419
X7693Y4163
X7870Y3809
X7702Y3612
X7762Y3228
X7959Y3031
X7831Y2805
X7673Y2569
X7919Y2441
X7850Y2175
X7673Y1978
X6925Y1978
X6699Y2136
X6295Y2085
X6082Y2277
X6403Y2923
X6935Y2795
X6906Y2539
X6797Y3504
Y3780
X6929Y4380
X6226Y4166
X5951Y4636
X5659Y4443
X6276Y4980
X5656Y5600
X4770Y6486
X4500Y6850
X3500
X3791Y6457
X3435Y5719
X2500Y6850
X2000
X563Y6100
Y4811
Y4411
Y4011
Y3611
Y3211
X1152Y3376
X1112Y4818
X563Y1900
X8096Y3461
X8283Y4502
X8313Y4793
X9500Y4250
Y3250
X10030Y2657
X10581Y4716
X10500Y6850
T04
X15010Y2441
X14998Y3072
X16635Y4438
X16630Y4987
X9000Y5000
Y4500
Y4000
Y3500
Y3000
Y2500
T05
X27000Y0
Y920
X28000Y1080
Y0
X29000
Y920
X30000Y1080
Y0
Y6920
Y8000
X29000
Y7080
X28000Y6920
Y8000
X27000
Y7080
X26000Y6920
Y8000
X25000
Y7080
X24000Y6920
Y8000
X23000
Y7080
X22000Y6920
Y8000
X21000
Y7080
X20000Y6920
Y8000
X19000
Y7080
X18000Y6920
Y8000
X17000
Y7080
X16000Y6920
Y8000
X15000
Y7080
X14000Y6920
Y8000
X13000
Y7080
X12000Y6920
Y8000
X11000
Y7080
Y920
Y0
X12000
X13000
Y920
X12000Y1080
X14000
Y0
X15000
Y920
X16000Y1080
Y0
X17000
Y920
X18000Y1080
Y0
X19000
Y920
X20000Y1080
Y0
X21000
Y920
X22000Y1080
Y0
X23000
Y920
X24000Y1080
Y0
X25000
Y920
X26000Y1080
Y0
X10000
X9000
Y920
X8000Y1080
Y0
X7000
Y920
X6000Y1080
Y0
X5000
Y920
X4000Y1080
Y0
X3000
Y920
Y7080
Y8000
X4000
X5000
Y7080
X6000Y6920
Y8000
X7000
Y7080
X8000Y6920
Y8000
X9000
Y7080
X10000Y6920
Y8000
Y1080
X4000Y6920
T06
X11000Y5670
X23232Y4967
X24232
X10000Y5670
T07
X1000Y1000
Y7000
T08
X1654Y3213
Y4787
T09
X32000Y1000
Y7000
M30
