M48
;Layer_Color=9474304
;FILE_FORMAT=4:3
METRIC,TZ
;TYPE=PLATED
T01F00S00C0.200
T02F00S00C0.600
T04F00S00C1.000
T05F00S00C1.020
T06F00S00C2.700
;TYPE=NON_PLATED
T07F00S00C2.700
%
T01
X1429Y4826
X1429Y8890
X1429Y10160
X1429Y11430
X1429Y15494
X6100Y15755
X6350Y17399
X5080Y17399
X8890Y17399
X8190Y16426
X7579Y14500
X8338Y12122
X10325Y11500
X10631Y10825
X11433Y10628
X12255Y8925
X12255Y7925
X11055Y7675
X10093Y8006
X10960Y5425
X11609Y5458
X12400Y5777
X11430Y2921
X8890Y2921
X8785Y3855
X7544Y5792
X6165Y4575
X6350Y2921
X5080Y2921
X5235Y6924
X3701Y8493
X5468Y12035
X5390Y13413
X10366Y14025
X11265Y14525
X11430Y17399
X12302Y16548
X13970Y17399
X14879Y16357
X15655Y15325
X15505Y14225
X16905Y14225
X16905Y16333
X16510Y17399
X19050Y17399
X19057Y16436
X20199Y14775
X20199Y13975
X19940Y12973
X20729Y12973
X21755Y13317
X21755Y14775
X21590Y17399
X22154Y12175
X22030Y11225
X22079Y10575
X22530Y9675
X22104Y9175
X22255Y8200
X22430Y7125
X22030Y6525
X22480Y5525
X22030Y5025
X20023Y4998
X19581Y5475
X18455Y5331
X17989Y5784
X18804Y7424
X20155Y7100
X20080Y6450
X19734Y8925
X19804Y9600
X20139Y11125
X18355Y10581
X17655Y11775
X16913Y11284
X15755Y12075
X15755Y12800
X14591Y11325
X13916Y11375
X12965Y12075
X13190Y13275
X18480Y12650
X19050Y2921
X16510Y2921
X16375Y3950
X13970Y2921
X21590Y2921
X22700Y4340
X22655Y6200
X22755Y7700
X23105Y8790
X23580Y11435
X23655Y12175
X23290Y13725
X22876Y14159
X24130Y17399
X26670Y17399
X29210Y17399
X31750Y17399
X34290Y17399
X36830Y17399
X39370Y17399
X41910Y17399
X44450Y17399
X46990Y17399
X46735Y15294
X48386Y15128
X48386Y15913
X50250Y15625
X51875Y15750
X52070Y17399
X49530Y17399
X49969Y12891
X51300Y13061
X52416Y12574
X52638Y10679
X53713Y10801
X53000Y8329
X50795Y8084
X50818Y6607
X49950Y7150
X49066Y8021
X48225Y8650
X44750Y8625
X43657Y9107
X43903Y10291
X45342Y10375
X46500Y6875
X44000Y6800
X44450Y2921
X41910Y2921
X39370Y2921
X36830Y2921
X34290Y2921
X31750Y2921
X29210Y2921
X26670Y2921
X24130Y2921
X25500Y4940
X26670Y5800
X26670Y6985
X26670Y8255
X26670Y9525
X26670Y10795
X26670Y12065
X26670Y13335
X33500Y13900
X35997Y12248
X35327Y8011
X40888Y9120
X40985Y11701
X46990Y2921
X49530Y2921
X52070Y2921
X53340Y3700
X53903Y4349
X54975Y3875
X55231Y4661
X56125Y5375
X56003Y6025
X55375Y6875
X56933Y9223
X56250Y10150
X58155Y10973
X57250Y13750
X57150Y17399
X59690Y17399
X62230Y17399
X54610Y17399
X53903Y15975
X54087Y15236
X53234Y15059
X50724Y5173
X54610Y2921
X57150Y2921
X59690Y2921
X62230Y2921
X60960Y8594
X68575Y6875
X68575Y4661
X67310Y2921
X64770Y2921
X69850Y2921
X72390Y2921
X74930Y2921
X77724Y2921
X78740Y2921
X82391Y4331
X82391Y5308
X82391Y9216
X82391Y10193
X82391Y11170
X82391Y15078
X82391Y16055
X78740Y17399
X77724Y17399
X74930Y17399
X72390Y17399
X69850Y17399
X67310Y17399
X64770Y17399
X69850Y14640
X72400Y14640
X73650Y15201
X74900Y14750
X76200Y15714
X77475Y9800
X75300Y8875
X74221Y8350
X72400Y6875
X71120Y9500
X69988Y10474
T02
X25400Y6350
X25400Y7620
X25400Y8890
X25400Y10160
X25400Y11430
X25400Y12700
X38094Y7803
X38125Y6200
X43213Y11700
X43213Y13225
T04
X7620Y0
X7620Y2337
X10160Y2743
X10160Y0
X12700Y0
X12700Y2337
X15240Y2743
X15240Y0
X17780Y0
X17780Y2337
X20320Y2743
X20320Y0
X20320Y17577
X20320Y20320
X17780Y20320
X17780Y17983
X15240Y17577
X15240Y20320
X12700Y20320
X12700Y17983
X10160Y17577
X10160Y20320
X7620Y20320
X7620Y17983
X22860Y17983
X22860Y20320
X25400Y20320
X27940Y20320
X27940Y17983
X30480Y17577
X30480Y20320
X33020Y20320
X33020Y17983
X35560Y17577
X35560Y20320
X38100Y20320
X38100Y17983
X40640Y17577
X40640Y20320
X43180Y20320
X43180Y17983
X45720Y17577
X45720Y20320
X48260Y20320
X48260Y17983
X50800Y17577
X50800Y20320
X53340Y20320
X53340Y17983
X55880Y17577
X55880Y20320
X58420Y20320
X58420Y17983
X60960Y17577
X60960Y20320
X60960Y2743
X60960Y0
X58420Y0
X58420Y2337
X55880Y2743
X55880Y0
X53340Y0
X53340Y2337
X50800Y2743
X50800Y0
X48260Y0
X48260Y2337
X45720Y2743
X45720Y0
X43180Y0
X43180Y2337
X40640Y2743
X40640Y0
X38100Y0
X38100Y2337
X35560Y2743
X35560Y0
X33020Y0
X33020Y2337
X30480Y2743
X30480Y0
X27940Y0
X27940Y2337
X25400Y2743
X25400Y0
X22860Y0
X22860Y2337
X25400Y17577
X63500Y17983
X63500Y20320
X66040Y20320
X68580Y20320
X68580Y17983
X71120Y17577
X71120Y20320
X73660Y20320
X73660Y17983
X76200Y17577
X76200Y20320
X66040Y17577
X66040Y2743
X66040Y0
X68580Y0
X68580Y2337
X71120Y2743
X71120Y0
X73660Y0
X73660Y2337
X76200Y2743
X76200Y0
X63500Y0
X63500Y2337
T05
X27940Y14402
X30480Y14402
X60960Y12700
X63500Y12700
T06
X2540Y2540
X2540Y17780
T07
X81280Y2540
X81280Y17780
M30
